<svg version="1.1" width="800" height="400" xmlns="http://www.w3.org/2000/svg"><g transform="scale(10 10)"><text x="15" y="10" font-size="10" text-anchor="end" dominant-baseline="middle">A</text><text x="15" y="20" font-size="10" text-anchor="end" dominant-baseline="middle">B</text><text x="15" y="30" font-size="10" text-anchor="end" dominant-baseline="middle">C</text><path d="M20,10 l-3,0" stroke="black"/><path d="M20,20 l-3,0" stroke="black"/><path d="M20,30 l-3,0" stroke="black"/><path d="M20,10 l10,0" stroke="black"/><path d="M20,20 l10,0" stroke="black"/><path d="M20,30 l10,0" stroke="black"/><path d="M25,10 L25,20" stroke="black" fill="none" /><circle cx="25" cy="10" r="2" stroke="black" fill="white" /><path d="M25,20 m-3,-3 l6,6 m0,-6 l-6,6" stroke="black" fill="none" /><path d="M30,10 l10,0" stroke="black"/><path d="M30,20 l10,0" stroke="black"/><path d="M30,30 l10,0" stroke="black"/><path d="M35,20 L35,30" stroke="black" fill="none" /><circle cx="35" cy="30" r="2" stroke="black" fill="white" /><path d="M35,20 m-3,-3 l6,6 m0,-6 l-6,6" stroke="black" fill="none" /><path d="M40,10 l10,0" stroke="black"/><path d="M40,20 l10,0" stroke="black"/><path d="M40,30 l10,0" stroke="black"/><path d="M45,10 L45,30" stroke="black" fill="none" /><circle cx="45" cy="10" r="2" stroke="black" fill="black" /><circle cx="45" cy="20" r="2" stroke="black" fill="white" /><path d="M45,30 m4,0 l-6,-3 l0,6 l6,-3" stroke="black" fill="black"/><path d="M50,10 l10,0" stroke="black"/><path d="M50,20 l10,0" stroke="black"/><path d="M50,30 l10,0" stroke="black"/><path d="M55,10 L55,30" stroke="black" fill="none" /><circle cx="55" cy="20" r="2" stroke="black" fill="black" /><circle cx="55" cy="10" r="2" stroke="black" fill="white" /><path d="M55,30 m4,0 l-6,-3 l0,6 l6,-3" stroke="black" fill="white"/><text x="65" y="10" font-size="10" text-anchor="start" dominant-baseline="middle">A</text><path d="M60,10 l3,0" stroke="black"/><text x="65" y="20" font-size="10" text-anchor="start" dominant-baseline="middle">S</text><path d="M60,20 l3,0" stroke="black"/><text x="65" y="30" font-size="10" text-anchor="start" dominant-baseline="middle">D</text><path d="M60,30 l3,0" stroke="black"/></g></svg>