<svg version="1.1" width="2700" height="600" xmlns="http://www.w3.org/2000/svg"><g transform="scale(10 10)"><text x="15" y="10" font-size="10" text-anchor="end" dominant-baseline="middle">A2</text><text x="15" y="20" font-size="10" text-anchor="end" dominant-baseline="middle">A1</text><text x="15" y="30" font-size="10" text-anchor="end" dominant-baseline="middle">B2</text><text x="15" y="40" font-size="10" text-anchor="end" dominant-baseline="middle">B1</text><text x="15" y="50" font-size="10" text-anchor="end" dominant-baseline="middle">C</text><path d="M20,10 l-3,0" stroke="black"/><path d="M20,20 l-3,0" stroke="black"/><path d="M20,30 l-3,0" stroke="black"/><path d="M20,40 l-3,0" stroke="black"/><path d="M20,50 l-3,0" stroke="black"/><path d="M20,10 l10,0" stroke="black"/><path d="M20,20 l10,0" stroke="black"/><path d="M20,30 l10,0" stroke="black"/><path d="M20,40 l10,0" stroke="black"/><path d="M20,50 l10,0" stroke="black"/><path d="M25,20 L25,50" stroke="black" fill="none" /><circle cx="25" cy="20" r="2" stroke="black" fill="black" /><circle cx="25" cy="50" r="2" stroke="black" fill="white" /><path d="M25,40 m-3,-3 l6,6 m0,-6 l-6,6" stroke="black" fill="none" /><path d="M30,10 l10,0" stroke="black"/><path d="M30,20 l10,0" stroke="black"/><path d="M30,30 l10,0" stroke="black"/><path d="M30,40 l10,0" stroke="black"/><path d="M30,50 l10,0" stroke="black"/><path d="M35,20 L35,50" stroke="black" fill="none" /><circle cx="35" cy="50" r="2" stroke="black" fill="black" /><circle cx="35" cy="20" r="2" stroke="black" fill="white" /><path d="M35,40 m-3,-3 l6,6 m0,-6 l-6,6" stroke="black" fill="none" /><path d="M40,10 l10,0" stroke="black"/><path d="M40,20 l10,0" stroke="black"/><path d="M40,30 l10,0" stroke="black"/><path d="M40,40 l10,0" stroke="black"/><path d="M40,50 l10,0" stroke="black"/><path d="M45,10 L45,50" stroke="black" fill="none" /><circle cx="45" cy="10" r="2" stroke="black" fill="black" /><circle cx="45" cy="20" r="2" stroke="black" fill="black" /><circle cx="45" cy="40" r="2" stroke="black" fill="black" /><circle cx="45" cy="50" r="2" stroke="black" fill="white" /><path d="M45,30 m-3,-3 l6,6 m0,-6 l-6,6" stroke="black" fill="none" /><path d="M50,10 l10,0" stroke="black"/><path d="M50,20 l10,0" stroke="black"/><path d="M50,30 l10,0" stroke="black"/><path d="M50,40 l10,0" stroke="black"/><path d="M50,50 l10,0" stroke="black"/><path d="M55,10 L55,50" stroke="black" fill="none" /><circle cx="55" cy="10" r="2" stroke="black" fill="black" /><circle cx="55" cy="40" r="2" stroke="black" fill="black" /><circle cx="55" cy="20" r="2" stroke="black" fill="white" /><circle cx="55" cy="50" r="2" stroke="black" fill="white" /><path d="M55,30 m-3,-3 l6,6 m0,-6 l-6,6" stroke="black" fill="none" /><path d="M60,10 l10,0" stroke="black"/><path d="M60,20 l10,0" stroke="black"/><path d="M60,30 l10,0" stroke="black"/><path d="M60,40 l10,0" stroke="black"/><path d="M60,50 l10,0" stroke="black"/><path d="M65,10 L65,50" stroke="black" fill="none" /><circle cx="65" cy="10" r="2" stroke="black" fill="black" /><circle cx="65" cy="40" r="2" stroke="black" fill="black" /><circle cx="65" cy="50" r="2" stroke="black" fill="black" /><circle cx="65" cy="20" r="2" stroke="black" fill="white" /><path d="M65,30 m-3,-3 l6,6 m0,-6 l-6,6" stroke="black" fill="none" /><path d="M70,10 l10,0" stroke="black"/><path d="M70,20 l10,0" stroke="black"/><path d="M70,30 l10,0" stroke="black"/><path d="M70,40 l10,0" stroke="black"/><path d="M70,50 l10,0" stroke="black"/><path d="M75,10 L75,50" stroke="black" fill="none" /><circle cx="75" cy="10" r="2" stroke="black" fill="black" /><circle cx="75" cy="20" r="2" stroke="black" fill="white" /><circle cx="75" cy="40" r="2" stroke="black" fill="white" /><circle cx="75" cy="50" r="2" stroke="black" fill="white" /><path d="M75,30 m-3,-3 l6,6 m0,-6 l-6,6" stroke="black" fill="none" /><path d="M80,10 l10,0" stroke="black"/><path d="M80,20 l10,0" stroke="black"/><path d="M80,30 l10,0" stroke="black"/><path d="M80,40 l10,0" stroke="black"/><path d="M80,50 l10,0" stroke="black"/><path d="M85,10 L85,50" stroke="black" fill="none" /><circle cx="85" cy="50" r="2" stroke="black" fill="black" /><circle cx="85" cy="10" r="2" stroke="black" fill="white" /><circle cx="85" cy="20" r="2" stroke="black" fill="white" /><circle cx="85" cy="40" r="2" stroke="black" fill="white" /><path d="M85,30 m-3,-3 l6,6 m0,-6 l-6,6" stroke="black" fill="none" /><path d="M90,10 l10,0" stroke="black"/><path d="M90,20 l10,0" stroke="black"/><path d="M90,30 l10,0" stroke="black"/><path d="M90,40 l10,0" stroke="black"/><path d="M90,50 l10,0" stroke="black"/><path d="M95,10 L95,50" stroke="black" fill="none" /><circle cx="95" cy="20" r="2" stroke="black" fill="black" /><circle cx="95" cy="50" r="2" stroke="black" fill="black" /><circle cx="95" cy="10" r="2" stroke="black" fill="white" /><circle cx="95" cy="40" r="2" stroke="black" fill="white" /><path d="M95,30 m-3,-3 l6,6 m0,-6 l-6,6" stroke="black" fill="none" /><path d="M100,10 l10,0" stroke="black"/><path d="M100,20 l10,0" stroke="black"/><path d="M100,30 l10,0" stroke="black"/><path d="M100,40 l10,0" stroke="black"/><path d="M100,50 l10,0" stroke="black"/><path d="M105,10 L105,50" stroke="black" fill="none" /><circle cx="105" cy="20" r="2" stroke="black" fill="black" /><circle cx="105" cy="10" r="2" stroke="black" fill="white" /><circle cx="105" cy="40" r="2" stroke="black" fill="white" /><circle cx="105" cy="50" r="2" stroke="black" fill="white" /><path d="M105,30 m-3,-3 l6,6 m0,-6 l-6,6" stroke="black" fill="none" /><path d="M110,10 l10,0" stroke="black"/><path d="M110,20 l10,0" stroke="black"/><path d="M110,30 l10,0" stroke="black"/><path d="M110,40 l10,0" stroke="black"/><path d="M110,50 l10,0" stroke="black"/><path d="M115,10 L115,50" stroke="black" fill="none" /><circle cx="115" cy="20" r="2" stroke="black" fill="black" /><circle cx="115" cy="40" r="2" stroke="black" fill="black" /><circle cx="115" cy="50" r="2" stroke="black" fill="black" /><circle cx="115" cy="10" r="2" stroke="black" fill="white" /><path d="M115,30 m-3,-3 l6,6 m0,-6 l-6,6" stroke="black" fill="none" /><path d="M120,10 l10,0" stroke="black"/><path d="M120,20 l10,0" stroke="black"/><path d="M120,30 l10,0" stroke="black"/><path d="M120,40 l10,0" stroke="black"/><path d="M120,50 l10,0" stroke="black"/><path d="M125,10 L125,50" stroke="black" fill="none" /><circle cx="125" cy="10" r="2" stroke="black" fill="black" /><circle cx="125" cy="20" r="2" stroke="black" fill="black" /><circle cx="125" cy="30" r="2" stroke="black" fill="black" /><circle cx="125" cy="40" r="2" stroke="black" fill="white" /><path d="M125,50 m4,0 l-6,-3 l0,6 l6,-3" stroke="black" fill="black"/><path d="M130,10 l10,0" stroke="black"/><path d="M130,20 l10,0" stroke="black"/><path d="M130,30 l10,0" stroke="black"/><path d="M130,40 l10,0" stroke="black"/><path d="M130,50 l10,0" stroke="black"/><path d="M135,10 L135,50" stroke="black" fill="none" /><circle cx="135" cy="10" r="2" stroke="black" fill="black" /><circle cx="135" cy="20" r="2" stroke="black" fill="black" /><circle cx="135" cy="40" r="2" stroke="black" fill="black" /><circle cx="135" cy="30" r="2" stroke="black" fill="white" /><path d="M135,50 m4,0 l-6,-3 l0,6 l6,-3" stroke="black" fill="black"/><path d="M140,10 l10,0" stroke="black"/><path d="M140,20 l10,0" stroke="black"/><path d="M140,30 l10,0" stroke="black"/><path d="M140,40 l10,0" stroke="black"/><path d="M140,50 l10,0" stroke="black"/><path d="M145,10 L145,50" stroke="black" fill="none" /><circle cx="145" cy="10" r="2" stroke="black" fill="black" /><circle cx="145" cy="20" r="2" stroke="black" fill="black" /><circle cx="145" cy="30" r="2" stroke="black" fill="white" /><circle cx="145" cy="40" r="2" stroke="black" fill="white" /><path d="M145,50 m4,0 l-6,-3 l0,6 l6,-3" stroke="black" fill="black"/><path d="M150,10 l10,0" stroke="black"/><path d="M150,20 l10,0" stroke="black"/><path d="M150,30 l10,0" stroke="black"/><path d="M150,40 l10,0" stroke="black"/><path d="M150,50 l10,0" stroke="black"/><path d="M155,10 L155,50" stroke="black" fill="none" /><circle cx="155" cy="10" r="2" stroke="black" fill="black" /><circle cx="155" cy="40" r="2" stroke="black" fill="black" /><circle cx="155" cy="20" r="2" stroke="black" fill="white" /><circle cx="155" cy="30" r="2" stroke="black" fill="white" /><path d="M155,50 m4,0 l-6,-3 l0,6 l6,-3" stroke="black" fill="black"/><path d="M160,10 l10,0" stroke="black"/><path d="M160,20 l10,0" stroke="black"/><path d="M160,30 l10,0" stroke="black"/><path d="M160,40 l10,0" stroke="black"/><path d="M160,50 l10,0" stroke="black"/><path d="M165,10 L165,50" stroke="black" fill="none" /><circle cx="165" cy="10" r="2" stroke="black" fill="black" /><circle cx="165" cy="20" r="2" stroke="black" fill="white" /><circle cx="165" cy="30" r="2" stroke="black" fill="white" /><circle cx="165" cy="40" r="2" stroke="black" fill="white" /><path d="M165,50 m4,0 l-6,-3 l0,6 l6,-3" stroke="black" fill="black"/><path d="M170,10 l10,0" stroke="black"/><path d="M170,20 l10,0" stroke="black"/><path d="M170,30 l10,0" stroke="black"/><path d="M170,40 l10,0" stroke="black"/><path d="M170,50 l10,0" stroke="black"/><path d="M175,10 L175,50" stroke="black" fill="none" /><circle cx="175" cy="10" r="2" stroke="black" fill="black" /><circle cx="175" cy="30" r="2" stroke="black" fill="black" /><circle cx="175" cy="40" r="2" stroke="black" fill="black" /><circle cx="175" cy="20" r="2" stroke="black" fill="white" /><path d="M175,50 m4,0 l-6,-3 l0,6 l6,-3" stroke="black" fill="white"/><path d="M180,10 l10,0" stroke="black"/><path d="M180,20 l10,0" stroke="black"/><path d="M180,30 l10,0" stroke="black"/><path d="M180,40 l10,0" stroke="black"/><path d="M180,50 l10,0" stroke="black"/><path d="M185,10 L185,50" stroke="black" fill="none" /><circle cx="185" cy="40" r="2" stroke="black" fill="black" /><circle cx="185" cy="10" r="2" stroke="black" fill="white" /><circle cx="185" cy="20" r="2" stroke="black" fill="white" /><circle cx="185" cy="30" r="2" stroke="black" fill="white" /><path d="M185,50 m4,0 l-6,-3 l0,6 l6,-3" stroke="black" fill="white"/><path d="M190,10 l10,0" stroke="black"/><path d="M190,20 l10,0" stroke="black"/><path d="M190,30 l10,0" stroke="black"/><path d="M190,40 l10,0" stroke="black"/><path d="M190,50 l10,0" stroke="black"/><path d="M195,10 L195,50" stroke="black" fill="none" /><circle cx="195" cy="30" r="2" stroke="black" fill="black" /><circle cx="195" cy="10" r="2" stroke="black" fill="white" /><circle cx="195" cy="20" r="2" stroke="black" fill="white" /><circle cx="195" cy="40" r="2" stroke="black" fill="white" /><path d="M195,50 m4,0 l-6,-3 l0,6 l6,-3" stroke="black" fill="white"/><path d="M200,10 l10,0" stroke="black"/><path d="M200,20 l10,0" stroke="black"/><path d="M200,30 l10,0" stroke="black"/><path d="M200,40 l10,0" stroke="black"/><path d="M200,50 l10,0" stroke="black"/><path d="M205,10 L205,50" stroke="black" fill="none" /><circle cx="205" cy="30" r="2" stroke="black" fill="black" /><circle cx="205" cy="40" r="2" stroke="black" fill="black" /><circle cx="205" cy="10" r="2" stroke="black" fill="white" /><circle cx="205" cy="20" r="2" stroke="black" fill="white" /><path d="M205,50 m4,0 l-6,-3 l0,6 l6,-3" stroke="black" fill="white"/><path d="M210,10 l10,0" stroke="black"/><path d="M210,20 l10,0" stroke="black"/><path d="M210,30 l10,0" stroke="black"/><path d="M210,40 l10,0" stroke="black"/><path d="M210,50 l10,0" stroke="black"/><path d="M215,10 L215,50" stroke="black" fill="none" /><circle cx="215" cy="20" r="2" stroke="black" fill="black" /><circle cx="215" cy="30" r="2" stroke="black" fill="black" /><circle cx="215" cy="10" r="2" stroke="black" fill="white" /><circle cx="215" cy="40" r="2" stroke="black" fill="white" /><path d="M215,50 m4,0 l-6,-3 l0,6 l6,-3" stroke="black" fill="white"/><path d="M220,10 l10,0" stroke="black"/><path d="M220,20 l10,0" stroke="black"/><path d="M220,30 l10,0" stroke="black"/><path d="M220,40 l10,0" stroke="black"/><path d="M220,50 l10,0" stroke="black"/><path d="M225,10 L225,50" stroke="black" fill="none" /><circle cx="225" cy="20" r="2" stroke="black" fill="black" /><circle cx="225" cy="30" r="2" stroke="black" fill="black" /><circle cx="225" cy="40" r="2" stroke="black" fill="black" /><circle cx="225" cy="10" r="2" stroke="black" fill="white" /><path d="M225,50 m4,0 l-6,-3 l0,6 l6,-3" stroke="black" fill="white"/><path d="M230,10 l10,0" stroke="black"/><path d="M230,20 l10,0" stroke="black"/><path d="M230,30 l10,0" stroke="black"/><path d="M230,40 l10,0" stroke="black"/><path d="M230,50 l10,0" stroke="black"/><path d="M235,10 L235,50" stroke="black" fill="none" /><circle cx="235" cy="20" r="2" stroke="black" fill="black" /><circle cx="235" cy="10" r="2" stroke="black" fill="white" /><circle cx="235" cy="30" r="2" stroke="black" fill="white" /><circle cx="235" cy="40" r="2" stroke="black" fill="white" /><path d="M235,50 m4,0 l-6,-3 l0,6 l6,-3" stroke="black" fill="black"/><text x="245" y="10" font-size="10" text-anchor="start" dominant-baseline="middle">A2</text><path d="M240,10 l3,0" stroke="black"/><text x="245" y="20" font-size="10" text-anchor="start" dominant-baseline="middle">A1</text><path d="M240,20 l3,0" stroke="black"/><text x="245" y="30" font-size="10" text-anchor="start" dominant-baseline="middle">S2</text><path d="M240,30 l3,0" stroke="black"/><text x="245" y="40" font-size="10" text-anchor="start" dominant-baseline="middle">S1</text><path d="M240,40 l3,0" stroke="black"/><text x="245" y="50" font-size="10" text-anchor="start" dominant-baseline="middle">D</text><path d="M240,50 l3,0" stroke="black"/></g></svg>