<?xml version="1.0" encoding="utf-8" standalone="no"?>
<!DOCTYPE svg PUBLIC "-//W3C//DTD SVG 1.1//EN"
  "http://www.w3.org/Graphics/SVG/1.1/DTD/svg11.dtd">
<svg xmlns:xlink="http://www.w3.org/1999/xlink" width="460.8pt" height="345.6pt" viewBox="0 0 460.8 345.6" xmlns="http://www.w3.org/2000/svg" version="1.1">
 <metadata>
  <rdf:RDF xmlns:dc="http://purl.org/dc/elements/1.1/" xmlns:cc="http://creativecommons.org/ns#" xmlns:rdf="http://www.w3.org/1999/02/22-rdf-syntax-ns#">
   <cc:Work>
    <dc:type rdf:resource="http://purl.org/dc/dcmitype/StillImage"/>
    <dc:date>2025-11-06T02:08:34.065304</dc:date>
    <dc:format>image/svg+xml</dc:format>
    <dc:creator>
     <cc:Agent>
      <dc:title>Matplotlib v3.10.7, https://matplotlib.org/</dc:title>
     </cc:Agent>
    </dc:creator>
   </cc:Work>
  </rdf:RDF>
 </metadata>
 <defs>
  <style type="text/css">*{stroke-linejoin: round; stroke-linecap: butt}</style>
 </defs>
 <g id="figure_1">
  <g id="patch_1">
   <path d="M 0 345.6 
L 460.8 345.6 
L 460.8 0 
L 0 0 
z
" style="fill: #ffffff"/>
  </g>
  <g id="axes_1">
   <g id="patch_2">
    <path d="M 57.6 307.584 
L 414.72 307.584 
L 414.72 41.472 
L 57.6 41.472 
z
" style="fill: #ffffff"/>
   </g>
   <g id="matplotlib.axis_1">
    <g id="xtick_1">
     <g id="line2d_1">
      <defs>
       <path id="m71de261dd3" d="M 0 0 
L 0 3.5 
" style="stroke: #000000; stroke-width: 0.8"/>
      </defs>
      <g>
       <use xlink:href="#m71de261dd3" x="73.832727" y="307.584" style="stroke: #000000; stroke-width: 0.8"/>
      </g>
     </g>
     <g id="text_1">
      <!-- 0.0 -->
      <g transform="translate(65.881165 322.182437) scale(0.1 -0.1)">
       <defs>
        <path id="DejaVuSans-30" d="M 2034 4250 
Q 1547 4250 1301 3770 
Q 1056 3291 1056 2328 
Q 1056 1369 1301 889 
Q 1547 409 2034 409 
Q 2525 409 2770 889 
Q 3016 1369 3016 2328 
Q 3016 3291 2770 3770 
Q 2525 4250 2034 4250 
z
M 2034 4750 
Q 2819 4750 3233 4129 
Q 3647 3509 3647 2328 
Q 3647 1150 3233 529 
Q 2819 -91 2034 -91 
Q 1250 -91 836 529 
Q 422 1150 422 2328 
Q 422 3509 836 4129 
Q 1250 4750 2034 4750 
z
" transform="scale(0.015625)"/>
        <path id="DejaVuSans-2e" d="M 684 794 
L 1344 794 
L 1344 0 
L 684 0 
L 684 794 
z
" transform="scale(0.015625)"/>
       </defs>
       <use xlink:href="#DejaVuSans-30"/>
       <use xlink:href="#DejaVuSans-2e" transform="translate(63.623047 0)"/>
       <use xlink:href="#DejaVuSans-30" transform="translate(95.410156 0)"/>
      </g>
     </g>
    </g>
    <g id="xtick_2">
     <g id="line2d_2">
      <g>
       <use xlink:href="#m71de261dd3" x="128.122785" y="307.584" style="stroke: #000000; stroke-width: 0.8"/>
      </g>
     </g>
     <g id="text_2">
      <!-- 0.5 -->
      <g transform="translate(120.171223 322.182437) scale(0.1 -0.1)">
       <defs>
        <path id="DejaVuSans-35" d="M 691 4666 
L 3169 4666 
L 3169 4134 
L 1269 4134 
L 1269 2991 
Q 1406 3038 1543 3061 
Q 1681 3084 1819 3084 
Q 2600 3084 3056 2656 
Q 3513 2228 3513 1497 
Q 3513 744 3044 326 
Q 2575 -91 1722 -91 
Q 1428 -91 1123 -41 
Q 819 9 494 109 
L 494 744 
Q 775 591 1075 516 
Q 1375 441 1709 441 
Q 2250 441 2565 725 
Q 2881 1009 2881 1497 
Q 2881 1984 2565 2268 
Q 2250 2553 1709 2553 
Q 1456 2553 1204 2497 
Q 953 2441 691 2322 
L 691 4666 
z
" transform="scale(0.015625)"/>
       </defs>
       <use xlink:href="#DejaVuSans-30"/>
       <use xlink:href="#DejaVuSans-2e" transform="translate(63.623047 0)"/>
       <use xlink:href="#DejaVuSans-35" transform="translate(95.410156 0)"/>
      </g>
     </g>
    </g>
    <g id="xtick_3">
     <g id="line2d_3">
      <g>
       <use xlink:href="#m71de261dd3" x="182.412843" y="307.584" style="stroke: #000000; stroke-width: 0.8"/>
      </g>
     </g>
     <g id="text_3">
      <!-- 1.0 -->
      <g transform="translate(174.46128 322.182437) scale(0.1 -0.1)">
       <defs>
        <path id="DejaVuSans-31" d="M 794 531 
L 1825 531 
L 1825 4091 
L 703 3866 
L 703 4441 
L 1819 4666 
L 2450 4666 
L 2450 531 
L 3481 531 
L 3481 0 
L 794 0 
L 794 531 
z
" transform="scale(0.015625)"/>
       </defs>
       <use xlink:href="#DejaVuSans-31"/>
       <use xlink:href="#DejaVuSans-2e" transform="translate(63.623047 0)"/>
       <use xlink:href="#DejaVuSans-30" transform="translate(95.410156 0)"/>
      </g>
     </g>
    </g>
    <g id="xtick_4">
     <g id="line2d_4">
      <g>
       <use xlink:href="#m71de261dd3" x="236.702901" y="307.584" style="stroke: #000000; stroke-width: 0.8"/>
      </g>
     </g>
     <g id="text_4">
      <!-- 1.5 -->
      <g transform="translate(228.751338 322.182437) scale(0.1 -0.1)">
       <use xlink:href="#DejaVuSans-31"/>
       <use xlink:href="#DejaVuSans-2e" transform="translate(63.623047 0)"/>
       <use xlink:href="#DejaVuSans-35" transform="translate(95.410156 0)"/>
      </g>
     </g>
    </g>
    <g id="xtick_5">
     <g id="line2d_5">
      <g>
       <use xlink:href="#m71de261dd3" x="290.992958" y="307.584" style="stroke: #000000; stroke-width: 0.8"/>
      </g>
     </g>
     <g id="text_5">
      <!-- 2.0 -->
      <g transform="translate(283.041396 322.182437) scale(0.1 -0.1)">
       <defs>
        <path id="DejaVuSans-32" d="M 1228 531 
L 3431 531 
L 3431 0 
L 469 0 
L 469 531 
Q 828 903 1448 1529 
Q 2069 2156 2228 2338 
Q 2531 2678 2651 2914 
Q 2772 3150 2772 3378 
Q 2772 3750 2511 3984 
Q 2250 4219 1831 4219 
Q 1534 4219 1204 4116 
Q 875 4013 500 3803 
L 500 4441 
Q 881 4594 1212 4672 
Q 1544 4750 1819 4750 
Q 2544 4750 2975 4387 
Q 3406 4025 3406 3419 
Q 3406 3131 3298 2873 
Q 3191 2616 2906 2266 
Q 2828 2175 2409 1742 
Q 1991 1309 1228 531 
z
" transform="scale(0.015625)"/>
       </defs>
       <use xlink:href="#DejaVuSans-32"/>
       <use xlink:href="#DejaVuSans-2e" transform="translate(63.623047 0)"/>
       <use xlink:href="#DejaVuSans-30" transform="translate(95.410156 0)"/>
      </g>
     </g>
    </g>
    <g id="xtick_6">
     <g id="line2d_6">
      <g>
       <use xlink:href="#m71de261dd3" x="345.283016" y="307.584" style="stroke: #000000; stroke-width: 0.8"/>
      </g>
     </g>
     <g id="text_6">
      <!-- 2.5 -->
      <g transform="translate(337.331454 322.182437) scale(0.1 -0.1)">
       <use xlink:href="#DejaVuSans-32"/>
       <use xlink:href="#DejaVuSans-2e" transform="translate(63.623047 0)"/>
       <use xlink:href="#DejaVuSans-35" transform="translate(95.410156 0)"/>
      </g>
     </g>
    </g>
    <g id="xtick_7">
     <g id="line2d_7">
      <g>
       <use xlink:href="#m71de261dd3" x="399.573074" y="307.584" style="stroke: #000000; stroke-width: 0.8"/>
      </g>
     </g>
     <g id="text_7">
      <!-- 3.0 -->
      <g transform="translate(391.621511 322.182437) scale(0.1 -0.1)">
       <defs>
        <path id="DejaVuSans-33" d="M 2597 2516 
Q 3050 2419 3304 2112 
Q 3559 1806 3559 1356 
Q 3559 666 3084 287 
Q 2609 -91 1734 -91 
Q 1441 -91 1130 -33 
Q 819 25 488 141 
L 488 750 
Q 750 597 1062 519 
Q 1375 441 1716 441 
Q 2309 441 2620 675 
Q 2931 909 2931 1356 
Q 2931 1769 2642 2001 
Q 2353 2234 1838 2234 
L 1294 2234 
L 1294 2753 
L 1863 2753 
Q 2328 2753 2575 2939 
Q 2822 3125 2822 3475 
Q 2822 3834 2567 4026 
Q 2313 4219 1838 4219 
Q 1578 4219 1281 4162 
Q 984 4106 628 3988 
L 628 4550 
Q 988 4650 1302 4700 
Q 1616 4750 1894 4750 
Q 2613 4750 3031 4423 
Q 3450 4097 3450 3541 
Q 3450 3153 3228 2886 
Q 3006 2619 2597 2516 
z
" transform="scale(0.015625)"/>
       </defs>
       <use xlink:href="#DejaVuSans-33"/>
       <use xlink:href="#DejaVuSans-2e" transform="translate(63.623047 0)"/>
       <use xlink:href="#DejaVuSans-30" transform="translate(95.410156 0)"/>
      </g>
     </g>
    </g>
   </g>
   <g id="matplotlib.axis_2">
    <g id="ytick_1">
     <g id="line2d_8">
      <defs>
       <path id="m3ec9055448" d="M 0 0 
L -3.5 0 
" style="stroke: #000000; stroke-width: 0.8"/>
      </defs>
      <g>
       <use xlink:href="#m3ec9055448" x="57.6" y="295.488" style="stroke: #000000; stroke-width: 0.8"/>
      </g>
     </g>
     <g id="text_8">
      <!-- 0.0 -->
      <g transform="translate(34.696875 299.287219) scale(0.1 -0.1)">
       <use xlink:href="#DejaVuSans-30"/>
       <use xlink:href="#DejaVuSans-2e" transform="translate(63.623047 0)"/>
       <use xlink:href="#DejaVuSans-30" transform="translate(95.410156 0)"/>
      </g>
     </g>
    </g>
    <g id="ytick_2">
     <g id="line2d_9">
      <g>
       <use xlink:href="#m3ec9055448" x="57.6" y="253.586227" style="stroke: #000000; stroke-width: 0.8"/>
      </g>
     </g>
     <g id="text_9">
      <!-- 0.2 -->
      <g transform="translate(34.696875 257.385446) scale(0.1 -0.1)">
       <use xlink:href="#DejaVuSans-30"/>
       <use xlink:href="#DejaVuSans-2e" transform="translate(63.623047 0)"/>
       <use xlink:href="#DejaVuSans-32" transform="translate(95.410156 0)"/>
      </g>
     </g>
    </g>
    <g id="ytick_3">
     <g id="line2d_10">
      <g>
       <use xlink:href="#m3ec9055448" x="57.6" y="211.684454" style="stroke: #000000; stroke-width: 0.8"/>
      </g>
     </g>
     <g id="text_10">
      <!-- 0.4 -->
      <g transform="translate(34.696875 215.483672) scale(0.1 -0.1)">
       <defs>
        <path id="DejaVuSans-34" d="M 2419 4116 
L 825 1625 
L 2419 1625 
L 2419 4116 
z
M 2253 4666 
L 3047 4666 
L 3047 1625 
L 3713 1625 
L 3713 1100 
L 3047 1100 
L 3047 0 
L 2419 0 
L 2419 1100 
L 313 1100 
L 313 1709 
L 2253 4666 
z
" transform="scale(0.015625)"/>
       </defs>
       <use xlink:href="#DejaVuSans-30"/>
       <use xlink:href="#DejaVuSans-2e" transform="translate(63.623047 0)"/>
       <use xlink:href="#DejaVuSans-34" transform="translate(95.410156 0)"/>
      </g>
     </g>
    </g>
    <g id="ytick_4">
     <g id="line2d_11">
      <g>
       <use xlink:href="#m3ec9055448" x="57.6" y="169.782681" style="stroke: #000000; stroke-width: 0.8"/>
      </g>
     </g>
     <g id="text_11">
      <!-- 0.6 -->
      <g transform="translate(34.696875 173.581899) scale(0.1 -0.1)">
       <defs>
        <path id="DejaVuSans-36" d="M 2113 2584 
Q 1688 2584 1439 2293 
Q 1191 2003 1191 1497 
Q 1191 994 1439 701 
Q 1688 409 2113 409 
Q 2538 409 2786 701 
Q 3034 994 3034 1497 
Q 3034 2003 2786 2293 
Q 2538 2584 2113 2584 
z
M 3366 4563 
L 3366 3988 
Q 3128 4100 2886 4159 
Q 2644 4219 2406 4219 
Q 1781 4219 1451 3797 
Q 1122 3375 1075 2522 
Q 1259 2794 1537 2939 
Q 1816 3084 2150 3084 
Q 2853 3084 3261 2657 
Q 3669 2231 3669 1497 
Q 3669 778 3244 343 
Q 2819 -91 2113 -91 
Q 1303 -91 875 529 
Q 447 1150 447 2328 
Q 447 3434 972 4092 
Q 1497 4750 2381 4750 
Q 2619 4750 2861 4703 
Q 3103 4656 3366 4563 
z
" transform="scale(0.015625)"/>
       </defs>
       <use xlink:href="#DejaVuSans-30"/>
       <use xlink:href="#DejaVuSans-2e" transform="translate(63.623047 0)"/>
       <use xlink:href="#DejaVuSans-36" transform="translate(95.410156 0)"/>
      </g>
     </g>
    </g>
    <g id="ytick_5">
     <g id="line2d_12">
      <g>
       <use xlink:href="#m3ec9055448" x="57.6" y="127.880907" style="stroke: #000000; stroke-width: 0.8"/>
      </g>
     </g>
     <g id="text_12">
      <!-- 0.8 -->
      <g transform="translate(34.696875 131.680126) scale(0.1 -0.1)">
       <defs>
        <path id="DejaVuSans-38" d="M 2034 2216 
Q 1584 2216 1326 1975 
Q 1069 1734 1069 1313 
Q 1069 891 1326 650 
Q 1584 409 2034 409 
Q 2484 409 2743 651 
Q 3003 894 3003 1313 
Q 3003 1734 2745 1975 
Q 2488 2216 2034 2216 
z
M 1403 2484 
Q 997 2584 770 2862 
Q 544 3141 544 3541 
Q 544 4100 942 4425 
Q 1341 4750 2034 4750 
Q 2731 4750 3128 4425 
Q 3525 4100 3525 3541 
Q 3525 3141 3298 2862 
Q 3072 2584 2669 2484 
Q 3125 2378 3379 2068 
Q 3634 1759 3634 1313 
Q 3634 634 3220 271 
Q 2806 -91 2034 -91 
Q 1263 -91 848 271 
Q 434 634 434 1313 
Q 434 1759 690 2068 
Q 947 2378 1403 2484 
z
M 1172 3481 
Q 1172 3119 1398 2916 
Q 1625 2713 2034 2713 
Q 2441 2713 2670 2916 
Q 2900 3119 2900 3481 
Q 2900 3844 2670 4047 
Q 2441 4250 2034 4250 
Q 1625 4250 1398 4047 
Q 1172 3844 1172 3481 
z
" transform="scale(0.015625)"/>
       </defs>
       <use xlink:href="#DejaVuSans-30"/>
       <use xlink:href="#DejaVuSans-2e" transform="translate(63.623047 0)"/>
       <use xlink:href="#DejaVuSans-38" transform="translate(95.410156 0)"/>
      </g>
     </g>
    </g>
    <g id="ytick_6">
     <g id="line2d_13">
      <g>
       <use xlink:href="#m3ec9055448" x="57.6" y="85.979134" style="stroke: #000000; stroke-width: 0.8"/>
      </g>
     </g>
     <g id="text_13">
      <!-- 1.0 -->
      <g transform="translate(34.696875 89.778353) scale(0.1 -0.1)">
       <use xlink:href="#DejaVuSans-31"/>
       <use xlink:href="#DejaVuSans-2e" transform="translate(63.623047 0)"/>
       <use xlink:href="#DejaVuSans-30" transform="translate(95.410156 0)"/>
      </g>
     </g>
    </g>
    <g id="ytick_7">
     <g id="line2d_14">
      <g>
       <use xlink:href="#m3ec9055448" x="57.6" y="44.077361" style="stroke: #000000; stroke-width: 0.8"/>
      </g>
     </g>
     <g id="text_14">
      <!-- 1.2 -->
      <g transform="translate(34.696875 47.87658) scale(0.1 -0.1)">
       <use xlink:href="#DejaVuSans-31"/>
       <use xlink:href="#DejaVuSans-2e" transform="translate(63.623047 0)"/>
       <use xlink:href="#DejaVuSans-32" transform="translate(95.410156 0)"/>
      </g>
     </g>
    </g>
   </g>
   <g id="line2d_15">
    <path d="M 73.832727 295.488 
L 93.377148 250.156712 
L 104.23516 225.565428 
L 112.921569 206.431308 
L 120.522177 190.196892 
L 128.122785 174.528 
L 134.637592 161.611516 
L 141.152399 149.223382 
L 146.581405 139.338876 
L 152.01041 129.882364 
L 157.439416 120.879766 
L 162.868422 112.355756 
L 167.211627 105.896879 
L 171.554831 99.770609 
L 175.898036 93.987693 
L 180.24124 88.558278 
L 184.584445 83.491888 
L 188.92765 78.797411 
L 193.270854 74.483083 
L 197.614059 70.556473 
L 200.871462 67.870124 
L 204.128866 65.408408 
L 207.386269 63.173752 
L 210.643673 61.168362 
L 213.901076 59.394217 
L 217.15848 57.853068 
L 220.415883 56.546437 
L 223.673287 55.475611 
L 226.93069 54.64165 
L 230.188094 54.045374 
L 233.445497 53.687373 
L 236.702901 53.568 
L 239.960304 53.687373 
L 243.217708 54.045374 
L 246.475111 54.64165 
L 249.732514 55.475611 
L 252.989918 56.546437 
L 256.247321 57.853068 
L 259.504725 59.394217 
L 262.762128 61.168362 
L 266.019532 63.173752 
L 269.276935 65.408408 
L 272.534339 67.870124 
L 275.791742 70.556473 
L 280.134947 74.483083 
L 284.478151 78.797411 
L 288.821356 83.491888 
L 293.164561 88.558278 
L 297.507765 93.987693 
L 301.85097 99.770609 
L 306.194175 105.896879 
L 310.537379 112.355756 
L 315.966385 120.879766 
L 321.395391 129.882364 
L 326.824396 139.338876 
L 332.253402 149.223382 
L 338.768209 161.611516 
L 345.283016 174.528 
L 351.797823 187.921857 
L 359.398431 204.080757 
L 368.08484 223.144052 
L 377.857051 245.190004 
L 389.800863 272.721317 
L 398.487273 292.954666 
L 398.487273 292.954666 
" clip-path="url(#pacda8affc8)" style="fill: none; stroke: #1f77b4; stroke-width: 1.5; stroke-linecap: square"/>
   </g>
   <g id="line2d_16">
    <path d="M 73.832727 295.488 
L 87.948142 265.191252 
L 89.033943 262.299178 
L 94.462949 251.10798 
L 95.54875 248.5357 
L 96.634552 246.306447 
L 97.720353 243.796976 
L 98.806154 242.41 
L 100.977756 236.547694 
L 102.063557 234.469619 
L 103.149358 232.15103 
L 104.23516 230.14549 
L 105.320961 227.582885 
L 106.406762 225.529402 
L 107.492563 222.80293 
L 108.578364 220.496273 
L 109.664165 218.750196 
L 111.835768 213.645634 
L 112.921569 211.688262 
L 114.00737 209.335573 
L 115.093171 207.380826 
L 116.178972 203.91881 
L 117.264773 203.157647 
L 118.350575 201.019528 
L 119.436376 199.961539 
L 120.522177 196.739053 
L 121.607978 193.141847 
L 122.693779 190.165501 
L 123.77958 189.285844 
L 124.865382 186.43088 
L 125.951183 184.502075 
L 127.036984 184.140766 
L 129.208586 178.526187 
L 130.294387 176.807223 
L 131.380189 175.56043 
L 133.551791 169.681019 
L 134.637592 167.754534 
L 136.809194 164.822063 
L 137.894995 160.313932 
L 138.980797 160.324696 
L 140.066598 156.892376 
L 141.152399 155.665885 
L 142.2382 152.883167 
L 143.324001 152.240219 
L 144.409802 149.940498 
L 145.495604 147.994146 
L 146.581405 145.28269 
L 147.667206 143.914237 
L 149.838808 139.335736 
L 150.924609 135.662463 
L 152.01041 135.998483 
L 153.096212 133.448706 
L 154.182013 131.681136 
L 155.267814 129.13944 
L 156.353615 128.243111 
L 157.439416 125.776315 
L 158.525217 124.008487 
L 160.69682 119.64298 
L 161.782621 118.471642 
L 163.954223 115.573599 
L 166.125825 111.917719 
L 167.211627 109.755692 
L 168.297428 106.979242 
L 169.383229 105.57126 
L 171.554831 102.283572 
L 172.640632 101.072542 
L 173.726434 98.626306 
L 175.898036 95.818305 
L 178.069638 92.258243 
L 179.155439 90.853445 
L 180.24124 89.046223 
L 182.412843 85.979134 
L 183.498644 85.979134 
L 184.584445 85.740206 
L 185.670246 85.923304 
L 186.756047 84.82853 
L 187.841849 85.659222 
L 188.92765 84.065338 
L 190.013451 85.113292 
L 192.185053 84.452618 
L 193.270854 85.986362 
L 194.356656 85.235245 
L 195.442457 87.155772 
L 196.528258 85.948894 
L 197.614059 85.78507 
L 198.69986 85.372477 
L 199.785661 86.976703 
L 200.871462 84.328107 
L 201.957264 86.552366 
L 203.043065 85.668851 
L 204.128866 85.240524 
L 205.214667 88.922614 
L 206.300468 87.190982 
L 207.386269 83.136298 
L 208.472071 86.690128 
L 209.557872 85.370606 
L 210.643673 83.652372 
L 211.729474 90.982831 
L 212.815275 86.437826 
L 213.901076 87.866159 
L 214.986877 88.959629 
L 216.072679 86.508486 
L 217.15848 91.201315 
L 218.244281 90.309123 
L 219.330082 88.88558 
L 220.415883 91.162546 
L 221.501684 92.315385 
L 222.587486 89.743144 
L 223.673287 91.59255 
L 224.759088 92.367925 
L 225.844889 99.608566 
L 226.93069 83.970713 
L 228.016491 95.783212 
L 229.102292 89.097918 
L 230.188094 88.621442 
L 231.273895 94.030848 
L 232.359696 90.59714 
L 233.445497 93.86746 
L 234.531298 89.090134 
L 235.617099 91.89927 
L 236.702901 92.682128 
L 237.788702 99.518981 
L 238.874503 94.593141 
L 239.960304 97.929877 
L 241.046105 99.205105 
L 242.131906 96.73018 
L 243.217708 96.390358 
L 244.303509 106.804103 
L 245.38931 103.273518 
L 246.475111 101.356828 
L 247.560912 102.447893 
L 248.646713 104.247193 
L 249.732514 104.926571 
L 250.818316 105.770287 
L 251.904117 101.316014 
L 252.989918 110.165654 
L 254.075719 105.116754 
L 255.16152 113.560724 
L 256.247321 111.474439 
L 257.333123 106.257081 
L 258.418924 108.632251 
L 259.504725 107.001325 
L 260.590526 107.964747 
L 261.676327 113.074675 
L 262.762128 109.991288 
L 263.847929 117.83979 
L 264.933731 110.589124 
L 266.019532 119.448536 
L 267.105333 116.751133 
L 268.191134 121.351061 
L 269.276935 122.352511 
L 270.362736 120.087053 
L 271.448538 123.264903 
L 272.534339 117.027466 
L 273.62014 126.109766 
L 274.705941 114.655287 
L 275.791742 124.792261 
L 276.877543 127.384616 
L 277.963344 124.882625 
L 279.049146 125.896759 
L 280.134947 132.690635 
L 281.220748 122.213599 
L 282.306549 128.191559 
L 283.39235 123.157436 
L 284.478151 136.299547 
L 285.563953 134.680903 
L 286.649754 137.687866 
L 287.735555 135.324138 
L 288.821356 138.234074 
L 289.907157 138.37293 
L 292.07876 128.033848 
L 293.164561 142.180392 
L 294.250362 141.972956 
L 295.336163 148.21675 
L 296.421964 148.389784 
L 297.507765 150.05049 
L 298.593566 149.697171 
L 299.679368 145.713284 
L 300.765169 151.823196 
L 301.85097 150.326664 
L 302.936771 149.725589 
L 304.022572 155.749936 
L 305.108373 156.579821 
L 306.194175 161.269856 
L 307.279976 153.761269 
L 308.365777 158.189409 
L 309.451578 156.180936 
L 310.537379 160.344304 
L 311.62318 163.285031 
L 312.708981 157.157497 
L 313.794783 172.297862 
L 314.880584 173.252257 
L 315.966385 171.03629 
L 317.052186 169.37907 
L 318.137987 171.960848 
L 319.223788 172.856954 
L 320.30959 176.751141 
L 321.395391 178.009982 
L 322.481192 180.86823 
L 323.566993 176.647385 
L 324.652794 175.539772 
L 325.738595 185.120827 
L 326.824396 182.271303 
L 327.910198 185.020181 
L 328.995999 185.539945 
L 330.0818 188.872616 
L 331.167601 188.359782 
L 332.253402 190.65516 
L 333.339203 190.411328 
L 334.425005 188.529327 
L 335.510806 197.653214 
L 336.596607 198.471198 
L 337.682408 196.613395 
L 338.768209 199.938684 
L 339.85401 200.550124 
L 340.939811 209.122633 
L 342.025613 203.980046 
L 343.111414 206.835381 
L 344.197215 209.145557 
L 345.283016 210.434139 
L 346.368817 210.749273 
L 347.454618 211.609104 
L 348.54042 214.68959 
L 349.626221 215.037749 
L 350.712022 218.177233 
L 351.797823 219.538847 
L 352.883624 221.975469 
L 353.969425 221.84427 
L 355.055227 225.346444 
L 356.141028 227.102666 
L 357.226829 228.002366 
L 358.31263 227.122815 
L 359.398431 228.205837 
L 360.484232 236.472587 
L 361.570033 236.645974 
L 362.655835 237.789506 
L 363.741636 236.383666 
L 364.827437 240.237757 
L 366.999039 242.559302 
L 368.08484 245.271813 
L 369.170642 247.468529 
L 370.256443 249.224405 
L 371.342244 249.917978 
L 372.428045 250.423169 
L 373.513846 253.837273 
L 374.599647 255.505664 
L 375.685448 256.030443 
L 376.77125 258.423071 
L 377.857051 261.702771 
L 378.942852 261.156045 
L 381.114454 266.044543 
L 382.200255 266.945199 
L 383.286057 269.713174 
L 384.371858 271.957574 
L 385.457659 273.022774 
L 386.54346 275.130106 
L 388.715062 278.162101 
L 389.800863 279.957247 
L 390.886665 282.015064 
L 391.972466 282.870392 
L 393.058267 285.467716 
L 394.144068 286.3846 
L 395.229869 288.415835 
L 397.401472 291.968557 
L 398.487273 295.488 
L 398.487273 295.488 
" clip-path="url(#pacda8affc8)" style="fill: none; stroke: #ff7f0e; stroke-width: 1.5; stroke-linecap: square"/>
   </g>
   <g id="patch_3">
    <path d="M 57.6 307.584 
L 57.6 41.472 
" style="fill: none; stroke: #000000; stroke-width: 0.8; stroke-linejoin: miter; stroke-linecap: square"/>
   </g>
   <g id="patch_4">
    <path d="M 414.72 307.584 
L 414.72 41.472 
" style="fill: none; stroke: #000000; stroke-width: 0.8; stroke-linejoin: miter; stroke-linecap: square"/>
   </g>
   <g id="patch_5">
    <path d="M 57.6 307.584 
L 414.72 307.584 
" style="fill: none; stroke: #000000; stroke-width: 0.8; stroke-linejoin: miter; stroke-linecap: square"/>
   </g>
   <g id="patch_6">
    <path d="M 57.6 41.472 
L 414.72 41.472 
" style="fill: none; stroke: #000000; stroke-width: 0.8; stroke-linejoin: miter; stroke-linecap: square"/>
   </g>
  </g>
 </g>
 <defs>
  <clipPath id="pacda8affc8">
   <rect x="57.6" y="41.472" width="357.12" height="266.112"/>
  </clipPath>
 </defs>
</svg>
