<?xml version="1.0" encoding="utf-8" standalone="no"?>
<!DOCTYPE svg PUBLIC "-//W3C//DTD SVG 1.1//EN"
  "http://www.w3.org/Graphics/SVG/1.1/DTD/svg11.dtd">
<svg xmlns:xlink="http://www.w3.org/1999/xlink" width="460.8pt" height="345.6pt" viewBox="0 0 460.8 345.6" xmlns="http://www.w3.org/2000/svg" version="1.1">
 <metadata>
  <rdf:RDF xmlns:dc="http://purl.org/dc/elements/1.1/" xmlns:cc="http://creativecommons.org/ns#" xmlns:rdf="http://www.w3.org/1999/02/22-rdf-syntax-ns#">
   <cc:Work>
    <dc:type rdf:resource="http://purl.org/dc/dcmitype/StillImage"/>
    <dc:date>2025-11-06T02:08:33.441893</dc:date>
    <dc:format>image/svg+xml</dc:format>
    <dc:creator>
     <cc:Agent>
      <dc:title>Matplotlib v3.10.7, https://matplotlib.org/</dc:title>
     </cc:Agent>
    </dc:creator>
   </cc:Work>
  </rdf:RDF>
 </metadata>
 <defs>
  <style type="text/css">*{stroke-linejoin: round; stroke-linecap: butt}</style>
 </defs>
 <g id="figure_1">
  <g id="patch_1">
   <path d="M 0 345.6 
L 460.8 345.6 
L 460.8 0 
L 0 0 
z
" style="fill: #ffffff"/>
  </g>
  <g id="axes_1">
   <g id="patch_2">
    <path d="M 57.6 307.584 
L 414.72 307.584 
L 414.72 41.472 
L 57.6 41.472 
z
" style="fill: #ffffff"/>
   </g>
   <g id="matplotlib.axis_1">
    <g id="xtick_1">
     <g id="line2d_1">
      <defs>
       <path id="m5d79158a3b" d="M 0 0 
L 0 3.5 
" style="stroke: #000000; stroke-width: 0.8"/>
      </defs>
      <g>
       <use xlink:href="#m5d79158a3b" x="73.832727" y="307.584" style="stroke: #000000; stroke-width: 0.8"/>
      </g>
     </g>
     <g id="text_1">
      <!-- 0.0 -->
      <g transform="translate(65.881165 322.182437) scale(0.1 -0.1)">
       <defs>
        <path id="DejaVuSans-30" d="M 2034 4250 
Q 1547 4250 1301 3770 
Q 1056 3291 1056 2328 
Q 1056 1369 1301 889 
Q 1547 409 2034 409 
Q 2525 409 2770 889 
Q 3016 1369 3016 2328 
Q 3016 3291 2770 3770 
Q 2525 4250 2034 4250 
z
M 2034 4750 
Q 2819 4750 3233 4129 
Q 3647 3509 3647 2328 
Q 3647 1150 3233 529 
Q 2819 -91 2034 -91 
Q 1250 -91 836 529 
Q 422 1150 422 2328 
Q 422 3509 836 4129 
Q 1250 4750 2034 4750 
z
" transform="scale(0.015625)"/>
        <path id="DejaVuSans-2e" d="M 684 794 
L 1344 794 
L 1344 0 
L 684 0 
L 684 794 
z
" transform="scale(0.015625)"/>
       </defs>
       <use xlink:href="#DejaVuSans-30"/>
       <use xlink:href="#DejaVuSans-2e" transform="translate(63.623047 0)"/>
       <use xlink:href="#DejaVuSans-30" transform="translate(95.410156 0)"/>
      </g>
     </g>
    </g>
    <g id="xtick_2">
     <g id="line2d_2">
      <g>
       <use xlink:href="#m5d79158a3b" x="128.122785" y="307.584" style="stroke: #000000; stroke-width: 0.8"/>
      </g>
     </g>
     <g id="text_2">
      <!-- 0.5 -->
      <g transform="translate(120.171223 322.182437) scale(0.1 -0.1)">
       <defs>
        <path id="DejaVuSans-35" d="M 691 4666 
L 3169 4666 
L 3169 4134 
L 1269 4134 
L 1269 2991 
Q 1406 3038 1543 3061 
Q 1681 3084 1819 3084 
Q 2600 3084 3056 2656 
Q 3513 2228 3513 1497 
Q 3513 744 3044 326 
Q 2575 -91 1722 -91 
Q 1428 -91 1123 -41 
Q 819 9 494 109 
L 494 744 
Q 775 591 1075 516 
Q 1375 441 1709 441 
Q 2250 441 2565 725 
Q 2881 1009 2881 1497 
Q 2881 1984 2565 2268 
Q 2250 2553 1709 2553 
Q 1456 2553 1204 2497 
Q 953 2441 691 2322 
L 691 4666 
z
" transform="scale(0.015625)"/>
       </defs>
       <use xlink:href="#DejaVuSans-30"/>
       <use xlink:href="#DejaVuSans-2e" transform="translate(63.623047 0)"/>
       <use xlink:href="#DejaVuSans-35" transform="translate(95.410156 0)"/>
      </g>
     </g>
    </g>
    <g id="xtick_3">
     <g id="line2d_3">
      <g>
       <use xlink:href="#m5d79158a3b" x="182.412843" y="307.584" style="stroke: #000000; stroke-width: 0.8"/>
      </g>
     </g>
     <g id="text_3">
      <!-- 1.0 -->
      <g transform="translate(174.46128 322.182437) scale(0.1 -0.1)">
       <defs>
        <path id="DejaVuSans-31" d="M 794 531 
L 1825 531 
L 1825 4091 
L 703 3866 
L 703 4441 
L 1819 4666 
L 2450 4666 
L 2450 531 
L 3481 531 
L 3481 0 
L 794 0 
L 794 531 
z
" transform="scale(0.015625)"/>
       </defs>
       <use xlink:href="#DejaVuSans-31"/>
       <use xlink:href="#DejaVuSans-2e" transform="translate(63.623047 0)"/>
       <use xlink:href="#DejaVuSans-30" transform="translate(95.410156 0)"/>
      </g>
     </g>
    </g>
    <g id="xtick_4">
     <g id="line2d_4">
      <g>
       <use xlink:href="#m5d79158a3b" x="236.702901" y="307.584" style="stroke: #000000; stroke-width: 0.8"/>
      </g>
     </g>
     <g id="text_4">
      <!-- 1.5 -->
      <g transform="translate(228.751338 322.182437) scale(0.1 -0.1)">
       <use xlink:href="#DejaVuSans-31"/>
       <use xlink:href="#DejaVuSans-2e" transform="translate(63.623047 0)"/>
       <use xlink:href="#DejaVuSans-35" transform="translate(95.410156 0)"/>
      </g>
     </g>
    </g>
    <g id="xtick_5">
     <g id="line2d_5">
      <g>
       <use xlink:href="#m5d79158a3b" x="290.992958" y="307.584" style="stroke: #000000; stroke-width: 0.8"/>
      </g>
     </g>
     <g id="text_5">
      <!-- 2.0 -->
      <g transform="translate(283.041396 322.182437) scale(0.1 -0.1)">
       <defs>
        <path id="DejaVuSans-32" d="M 1228 531 
L 3431 531 
L 3431 0 
L 469 0 
L 469 531 
Q 828 903 1448 1529 
Q 2069 2156 2228 2338 
Q 2531 2678 2651 2914 
Q 2772 3150 2772 3378 
Q 2772 3750 2511 3984 
Q 2250 4219 1831 4219 
Q 1534 4219 1204 4116 
Q 875 4013 500 3803 
L 500 4441 
Q 881 4594 1212 4672 
Q 1544 4750 1819 4750 
Q 2544 4750 2975 4387 
Q 3406 4025 3406 3419 
Q 3406 3131 3298 2873 
Q 3191 2616 2906 2266 
Q 2828 2175 2409 1742 
Q 1991 1309 1228 531 
z
" transform="scale(0.015625)"/>
       </defs>
       <use xlink:href="#DejaVuSans-32"/>
       <use xlink:href="#DejaVuSans-2e" transform="translate(63.623047 0)"/>
       <use xlink:href="#DejaVuSans-30" transform="translate(95.410156 0)"/>
      </g>
     </g>
    </g>
    <g id="xtick_6">
     <g id="line2d_6">
      <g>
       <use xlink:href="#m5d79158a3b" x="345.283016" y="307.584" style="stroke: #000000; stroke-width: 0.8"/>
      </g>
     </g>
     <g id="text_6">
      <!-- 2.5 -->
      <g transform="translate(337.331454 322.182437) scale(0.1 -0.1)">
       <use xlink:href="#DejaVuSans-32"/>
       <use xlink:href="#DejaVuSans-2e" transform="translate(63.623047 0)"/>
       <use xlink:href="#DejaVuSans-35" transform="translate(95.410156 0)"/>
      </g>
     </g>
    </g>
    <g id="xtick_7">
     <g id="line2d_7">
      <g>
       <use xlink:href="#m5d79158a3b" x="399.573074" y="307.584" style="stroke: #000000; stroke-width: 0.8"/>
      </g>
     </g>
     <g id="text_7">
      <!-- 3.0 -->
      <g transform="translate(391.621511 322.182437) scale(0.1 -0.1)">
       <defs>
        <path id="DejaVuSans-33" d="M 2597 2516 
Q 3050 2419 3304 2112 
Q 3559 1806 3559 1356 
Q 3559 666 3084 287 
Q 2609 -91 1734 -91 
Q 1441 -91 1130 -33 
Q 819 25 488 141 
L 488 750 
Q 750 597 1062 519 
Q 1375 441 1716 441 
Q 2309 441 2620 675 
Q 2931 909 2931 1356 
Q 2931 1769 2642 2001 
Q 2353 2234 1838 2234 
L 1294 2234 
L 1294 2753 
L 1863 2753 
Q 2328 2753 2575 2939 
Q 2822 3125 2822 3475 
Q 2822 3834 2567 4026 
Q 2313 4219 1838 4219 
Q 1578 4219 1281 4162 
Q 984 4106 628 3988 
L 628 4550 
Q 988 4650 1302 4700 
Q 1616 4750 1894 4750 
Q 2613 4750 3031 4423 
Q 3450 4097 3450 3541 
Q 3450 3153 3228 2886 
Q 3006 2619 2597 2516 
z
" transform="scale(0.015625)"/>
       </defs>
       <use xlink:href="#DejaVuSans-33"/>
       <use xlink:href="#DejaVuSans-2e" transform="translate(63.623047 0)"/>
       <use xlink:href="#DejaVuSans-30" transform="translate(95.410156 0)"/>
      </g>
     </g>
    </g>
   </g>
   <g id="matplotlib.axis_2">
    <g id="ytick_1">
     <g id="line2d_8">
      <defs>
       <path id="m4d8de531a7" d="M 0 0 
L -3.5 0 
" style="stroke: #000000; stroke-width: 0.8"/>
      </defs>
      <g>
       <use xlink:href="#m4d8de531a7" x="57.6" y="295.488" style="stroke: #000000; stroke-width: 0.8"/>
      </g>
     </g>
     <g id="text_8">
      <!-- 0.0 -->
      <g transform="translate(34.696875 299.287219) scale(0.1 -0.1)">
       <use xlink:href="#DejaVuSans-30"/>
       <use xlink:href="#DejaVuSans-2e" transform="translate(63.623047 0)"/>
       <use xlink:href="#DejaVuSans-30" transform="translate(95.410156 0)"/>
      </g>
     </g>
    </g>
    <g id="ytick_2">
     <g id="line2d_9">
      <g>
       <use xlink:href="#m4d8de531a7" x="57.6" y="253.586227" style="stroke: #000000; stroke-width: 0.8"/>
      </g>
     </g>
     <g id="text_9">
      <!-- 0.2 -->
      <g transform="translate(34.696875 257.385446) scale(0.1 -0.1)">
       <use xlink:href="#DejaVuSans-30"/>
       <use xlink:href="#DejaVuSans-2e" transform="translate(63.623047 0)"/>
       <use xlink:href="#DejaVuSans-32" transform="translate(95.410156 0)"/>
      </g>
     </g>
    </g>
    <g id="ytick_3">
     <g id="line2d_10">
      <g>
       <use xlink:href="#m4d8de531a7" x="57.6" y="211.684454" style="stroke: #000000; stroke-width: 0.8"/>
      </g>
     </g>
     <g id="text_10">
      <!-- 0.4 -->
      <g transform="translate(34.696875 215.483672) scale(0.1 -0.1)">
       <defs>
        <path id="DejaVuSans-34" d="M 2419 4116 
L 825 1625 
L 2419 1625 
L 2419 4116 
z
M 2253 4666 
L 3047 4666 
L 3047 1625 
L 3713 1625 
L 3713 1100 
L 3047 1100 
L 3047 0 
L 2419 0 
L 2419 1100 
L 313 1100 
L 313 1709 
L 2253 4666 
z
" transform="scale(0.015625)"/>
       </defs>
       <use xlink:href="#DejaVuSans-30"/>
       <use xlink:href="#DejaVuSans-2e" transform="translate(63.623047 0)"/>
       <use xlink:href="#DejaVuSans-34" transform="translate(95.410156 0)"/>
      </g>
     </g>
    </g>
    <g id="ytick_4">
     <g id="line2d_11">
      <g>
       <use xlink:href="#m4d8de531a7" x="57.6" y="169.782681" style="stroke: #000000; stroke-width: 0.8"/>
      </g>
     </g>
     <g id="text_11">
      <!-- 0.6 -->
      <g transform="translate(34.696875 173.581899) scale(0.1 -0.1)">
       <defs>
        <path id="DejaVuSans-36" d="M 2113 2584 
Q 1688 2584 1439 2293 
Q 1191 2003 1191 1497 
Q 1191 994 1439 701 
Q 1688 409 2113 409 
Q 2538 409 2786 701 
Q 3034 994 3034 1497 
Q 3034 2003 2786 2293 
Q 2538 2584 2113 2584 
z
M 3366 4563 
L 3366 3988 
Q 3128 4100 2886 4159 
Q 2644 4219 2406 4219 
Q 1781 4219 1451 3797 
Q 1122 3375 1075 2522 
Q 1259 2794 1537 2939 
Q 1816 3084 2150 3084 
Q 2853 3084 3261 2657 
Q 3669 2231 3669 1497 
Q 3669 778 3244 343 
Q 2819 -91 2113 -91 
Q 1303 -91 875 529 
Q 447 1150 447 2328 
Q 447 3434 972 4092 
Q 1497 4750 2381 4750 
Q 2619 4750 2861 4703 
Q 3103 4656 3366 4563 
z
" transform="scale(0.015625)"/>
       </defs>
       <use xlink:href="#DejaVuSans-30"/>
       <use xlink:href="#DejaVuSans-2e" transform="translate(63.623047 0)"/>
       <use xlink:href="#DejaVuSans-36" transform="translate(95.410156 0)"/>
      </g>
     </g>
    </g>
    <g id="ytick_5">
     <g id="line2d_12">
      <g>
       <use xlink:href="#m4d8de531a7" x="57.6" y="127.880907" style="stroke: #000000; stroke-width: 0.8"/>
      </g>
     </g>
     <g id="text_12">
      <!-- 0.8 -->
      <g transform="translate(34.696875 131.680126) scale(0.1 -0.1)">
       <defs>
        <path id="DejaVuSans-38" d="M 2034 2216 
Q 1584 2216 1326 1975 
Q 1069 1734 1069 1313 
Q 1069 891 1326 650 
Q 1584 409 2034 409 
Q 2484 409 2743 651 
Q 3003 894 3003 1313 
Q 3003 1734 2745 1975 
Q 2488 2216 2034 2216 
z
M 1403 2484 
Q 997 2584 770 2862 
Q 544 3141 544 3541 
Q 544 4100 942 4425 
Q 1341 4750 2034 4750 
Q 2731 4750 3128 4425 
Q 3525 4100 3525 3541 
Q 3525 3141 3298 2862 
Q 3072 2584 2669 2484 
Q 3125 2378 3379 2068 
Q 3634 1759 3634 1313 
Q 3634 634 3220 271 
Q 2806 -91 2034 -91 
Q 1263 -91 848 271 
Q 434 634 434 1313 
Q 434 1759 690 2068 
Q 947 2378 1403 2484 
z
M 1172 3481 
Q 1172 3119 1398 2916 
Q 1625 2713 2034 2713 
Q 2441 2713 2670 2916 
Q 2900 3119 2900 3481 
Q 2900 3844 2670 4047 
Q 2441 4250 2034 4250 
Q 1625 4250 1398 4047 
Q 1172 3844 1172 3481 
z
" transform="scale(0.015625)"/>
       </defs>
       <use xlink:href="#DejaVuSans-30"/>
       <use xlink:href="#DejaVuSans-2e" transform="translate(63.623047 0)"/>
       <use xlink:href="#DejaVuSans-38" transform="translate(95.410156 0)"/>
      </g>
     </g>
    </g>
    <g id="ytick_6">
     <g id="line2d_13">
      <g>
       <use xlink:href="#m4d8de531a7" x="57.6" y="85.979134" style="stroke: #000000; stroke-width: 0.8"/>
      </g>
     </g>
     <g id="text_13">
      <!-- 1.0 -->
      <g transform="translate(34.696875 89.778353) scale(0.1 -0.1)">
       <use xlink:href="#DejaVuSans-31"/>
       <use xlink:href="#DejaVuSans-2e" transform="translate(63.623047 0)"/>
       <use xlink:href="#DejaVuSans-30" transform="translate(95.410156 0)"/>
      </g>
     </g>
    </g>
    <g id="ytick_7">
     <g id="line2d_14">
      <g>
       <use xlink:href="#m4d8de531a7" x="57.6" y="44.077361" style="stroke: #000000; stroke-width: 0.8"/>
      </g>
     </g>
     <g id="text_14">
      <!-- 1.2 -->
      <g transform="translate(34.696875 47.87658) scale(0.1 -0.1)">
       <use xlink:href="#DejaVuSans-31"/>
       <use xlink:href="#DejaVuSans-2e" transform="translate(63.623047 0)"/>
       <use xlink:href="#DejaVuSans-32" transform="translate(95.410156 0)"/>
      </g>
     </g>
    </g>
   </g>
   <g id="line2d_15">
    <path d="M 73.832727 295.488 
L 93.377148 250.156712 
L 104.23516 225.565428 
L 112.921569 206.431308 
L 120.522177 190.196892 
L 128.122785 174.528 
L 134.637592 161.611516 
L 141.152399 149.223382 
L 146.581405 139.338876 
L 152.01041 129.882364 
L 157.439416 120.879766 
L 162.868422 112.355756 
L 167.211627 105.896879 
L 171.554831 99.770609 
L 175.898036 93.987693 
L 180.24124 88.558278 
L 184.584445 83.491888 
L 188.92765 78.797411 
L 193.270854 74.483083 
L 197.614059 70.556473 
L 200.871462 67.870124 
L 204.128866 65.408408 
L 207.386269 63.173752 
L 210.643673 61.168362 
L 213.901076 59.394217 
L 217.15848 57.853068 
L 220.415883 56.546437 
L 223.673287 55.475611 
L 226.93069 54.64165 
L 230.188094 54.045374 
L 233.445497 53.687373 
L 236.702901 53.568 
L 239.960304 53.687373 
L 243.217708 54.045374 
L 246.475111 54.64165 
L 249.732514 55.475611 
L 252.989918 56.546437 
L 256.247321 57.853068 
L 259.504725 59.394217 
L 262.762128 61.168362 
L 266.019532 63.173752 
L 269.276935 65.408408 
L 272.534339 67.870124 
L 275.791742 70.556473 
L 280.134947 74.483083 
L 284.478151 78.797411 
L 288.821356 83.491888 
L 293.164561 88.558278 
L 297.507765 93.987693 
L 301.85097 99.770609 
L 306.194175 105.896879 
L 310.537379 112.355756 
L 315.966385 120.879766 
L 321.395391 129.882364 
L 326.824396 139.338876 
L 332.253402 149.223382 
L 338.768209 161.611516 
L 345.283016 174.528 
L 351.797823 187.921857 
L 359.398431 204.080757 
L 368.08484 223.144052 
L 377.857051 245.190004 
L 389.800863 272.721317 
L 398.487273 292.954666 
L 398.487273 292.954666 
" clip-path="url(#p78423b7107)" style="fill: none; stroke: #1f77b4; stroke-width: 1.5; stroke-linecap: square"/>
   </g>
   <g id="line2d_16">
    <path d="M 73.832727 295.488 
L 87.948142 262.551117 
L 89.033943 260.934834 
L 90.119745 257.461191 
L 91.205546 255.066254 
L 92.291347 252.238238 
L 93.377148 250.187948 
L 96.634552 242.650539 
L 97.720353 239.559581 
L 98.806154 237.68327 
L 99.891955 234.680983 
L 100.977756 233.133324 
L 102.063557 230.209356 
L 103.149358 228.437536 
L 104.23516 227.00142 
L 105.320961 222.413108 
L 106.406762 221.104153 
L 107.492563 218.2733 
L 108.578364 216.382872 
L 109.664165 212.182349 
L 110.749967 210.058698 
L 111.835768 209.848367 
L 112.921569 206.954602 
L 114.00737 204.851948 
L 115.093171 199.757073 
L 116.178972 198.673348 
L 117.264773 198.421264 
L 118.350575 195.892318 
L 120.522177 191.576457 
L 121.607978 187.798217 
L 123.77958 183.729414 
L 127.036984 176.258529 
L 128.122785 175.635022 
L 129.208586 172.051246 
L 130.294387 167.679289 
L 131.380189 165.741249 
L 132.46599 162.916105 
L 133.551791 166.045495 
L 134.637592 162.226937 
L 135.723393 160.755073 
L 136.809194 157.963713 
L 137.894995 154.202968 
L 138.980797 153.076829 
L 140.066598 150.44445 
L 141.152399 145.257581 
L 142.2382 147.876452 
L 143.324001 145.882358 
L 144.409802 145.005902 
L 145.495604 140.01782 
L 146.581405 138.691681 
L 147.667206 136.572618 
L 149.838808 135.177389 
L 150.924609 131.749833 
L 152.01041 130.678604 
L 153.096212 131.323494 
L 154.182013 126.558486 
L 155.267814 125.035353 
L 156.353615 122.709179 
L 157.439416 121.254649 
L 159.611019 117.805835 
L 160.69682 115.513309 
L 161.782621 112.085577 
L 162.868422 112.885391 
L 163.954223 111.121111 
L 165.040024 109.995818 
L 166.125825 106.515465 
L 167.211627 104.697887 
L 168.297428 104.972315 
L 169.383229 102.688019 
L 170.46903 100.903026 
L 172.640632 98.199763 
L 173.726434 97.29883 
L 174.812235 95.977835 
L 175.898036 93.40644 
L 176.983837 92.915934 
L 180.24124 88.387195 
L 181.327042 87.279029 
L 182.412843 85.979134 
L 183.498644 85.979134 
L 184.584445 83.646709 
L 185.670246 82.598775 
L 186.756047 82.348892 
L 187.841849 80.72245 
L 188.92765 77.752883 
L 190.013451 79.059283 
L 191.099252 76.129181 
L 192.185053 74.991584 
L 194.356656 71.68988 
L 195.442457 73.299996 
L 196.528258 71.658477 
L 197.614059 74.545593 
L 198.69986 69.998194 
L 199.785661 71.789372 
L 200.871462 66.284255 
L 201.957264 65.518214 
L 203.043065 69.516031 
L 204.128866 63.990891 
L 205.214667 68.721464 
L 206.300468 64.908088 
L 207.386269 64.443861 
L 208.472071 62.945885 
L 209.557872 60.671798 
L 210.643673 53.510812 
L 211.729474 60.388648 
L 212.815275 66.07391 
L 213.901076 57.959145 
L 214.986877 55.680901 
L 216.072679 59.113679 
L 217.15848 54.407832 
L 218.244281 57.349801 
L 220.415883 48.008686 
L 221.501684 43.979422 
L 222.587486 59.220936 
L 223.673287 43.270105 
L 224.759088 60.96229 
L 225.844889 57.080565 
L 226.93069 45.605262 
L 228.016491 49.633081 
L 229.102292 58.608956 
L 230.188094 60.462822 
L 231.273895 54.138637 
L 232.359696 50.670509 
L 233.445497 63.956354 
L 234.531298 52.532296 
L 235.617099 39.778308 
L 236.702901 61.531227 
L 237.788702 54.39043 
L 238.874503 55.905162 
L 239.960304 59.178719 
L 241.046105 63.014684 
L 242.131906 46.3602 
L 243.217708 56.762058 
L 244.303509 48.276936 
L 245.38931 45.864666 
L 246.475111 42.590746 
L 247.560912 55.931261 
L 248.646713 45.046056 
L 249.732514 43.040643 
L 250.818316 64.048177 
L 251.904117 52.040808 
L 252.989918 59.860375 
L 254.075719 50.481848 
L 255.16152 62.10679 
L 256.247321 50.166046 
L 257.333123 34.241769 
L 258.418924 65.433891 
L 259.504725 56.507202 
L 260.590526 56.34955 
L 261.676327 62.172603 
L 263.847929 53.191195 
L 264.933731 62.887847 
L 266.019532 55.477321 
L 267.105333 46.014933 
L 268.191134 77.51959 
L 269.276935 67.750365 
L 270.362736 64.319536 
L 271.448538 76.709169 
L 272.534339 69.34752 
L 273.62014 65.183447 
L 274.705941 77.245207 
L 275.791742 76.056589 
L 276.877543 65.027709 
L 277.963344 80.4195 
L 279.049146 72.615995 
L 280.134947 80.333822 
L 281.220748 80.082145 
L 282.306549 84.121315 
L 284.478151 90.909756 
L 285.563953 79.461393 
L 286.649754 76.960308 
L 287.735555 72.564003 
L 288.821356 86.037091 
L 289.907157 93.316015 
L 290.992958 75.241231 
L 292.07876 91.595137 
L 293.164561 86.392069 
L 294.250362 72.650744 
L 295.336163 94.713987 
L 296.421964 83.222106 
L 297.507765 101.835405 
L 298.593566 93.096397 
L 299.679368 98.405464 
L 300.765169 96.075331 
L 301.85097 103.524431 
L 302.936771 96.290602 
L 304.022572 83.770705 
L 305.108373 116.521398 
L 306.194175 96.526143 
L 307.279976 123.227544 
L 308.365777 99.966946 
L 309.451578 116.098807 
L 310.537379 112.43394 
L 311.62318 105.940482 
L 312.708981 113.451149 
L 313.794783 111.527562 
L 314.880584 125.102708 
L 315.966385 109.359387 
L 317.052186 120.875263 
L 318.137987 130.444491 
L 319.223788 127.053926 
L 320.30959 142.296306 
L 322.481192 136.396602 
L 323.566993 124.538929 
L 324.652794 131.960263 
L 325.738595 147.032662 
L 326.824396 123.190095 
L 327.910198 134.393178 
L 328.995999 142.361932 
L 330.0818 140.895615 
L 331.167601 143.864786 
L 332.253402 149.992773 
L 333.339203 143.635328 
L 334.425005 159.982861 
L 335.510806 151.113559 
L 336.596607 151.196402 
L 337.682408 157.819033 
L 338.768209 170.313748 
L 339.85401 168.336004 
L 340.939811 166.010318 
L 342.025613 169.108754 
L 343.111414 169.548437 
L 344.197215 174.171169 
L 345.283016 177.569304 
L 346.368817 183.476189 
L 347.454618 179.822346 
L 348.54042 172.356986 
L 349.626221 181.13259 
L 350.712022 185.608772 
L 351.797823 188.241171 
L 352.883624 194.466347 
L 353.969425 195.391889 
L 355.055227 197.285847 
L 356.141028 197.342303 
L 357.226829 196.655867 
L 358.31263 199.926328 
L 359.398431 204.696593 
L 360.484232 205.12905 
L 361.570033 208.104435 
L 362.655835 208.993673 
L 363.741636 210.809601 
L 364.827437 224.704215 
L 365.913238 218.289431 
L 366.999039 222.719105 
L 368.08484 219.675778 
L 369.170642 226.01223 
L 370.256443 227.653678 
L 371.342244 228.90904 
L 372.428045 225.405386 
L 373.513846 233.132458 
L 374.599647 237.627746 
L 375.685448 238.977064 
L 376.77125 237.345159 
L 377.857051 244.125344 
L 378.942852 246.163305 
L 380.028653 252.277191 
L 381.114454 252.421028 
L 382.200255 258.464654 
L 383.286057 260.126508 
L 384.371858 259.982633 
L 385.457659 261.927892 
L 387.629261 269.157642 
L 388.715062 270.129799 
L 389.800863 270.395303 
L 390.886665 274.365068 
L 391.972466 276.851472 
L 394.144068 283.154517 
L 395.229869 284.741654 
L 396.31567 288.099917 
L 397.401472 290.584179 
L 398.487273 295.488 
L 398.487273 295.488 
" clip-path="url(#p78423b7107)" style="fill: none; stroke: #ff7f0e; stroke-width: 1.5; stroke-linecap: square"/>
   </g>
   <g id="patch_3">
    <path d="M 57.6 307.584 
L 57.6 41.472 
" style="fill: none; stroke: #000000; stroke-width: 0.8; stroke-linejoin: miter; stroke-linecap: square"/>
   </g>
   <g id="patch_4">
    <path d="M 414.72 307.584 
L 414.72 41.472 
" style="fill: none; stroke: #000000; stroke-width: 0.8; stroke-linejoin: miter; stroke-linecap: square"/>
   </g>
   <g id="patch_5">
    <path d="M 57.6 307.584 
L 414.72 307.584 
" style="fill: none; stroke: #000000; stroke-width: 0.8; stroke-linejoin: miter; stroke-linecap: square"/>
   </g>
   <g id="patch_6">
    <path d="M 57.6 41.472 
L 414.72 41.472 
" style="fill: none; stroke: #000000; stroke-width: 0.8; stroke-linejoin: miter; stroke-linecap: square"/>
   </g>
  </g>
 </g>
 <defs>
  <clipPath id="p78423b7107">
   <rect x="57.6" y="41.472" width="357.12" height="266.112"/>
  </clipPath>
 </defs>
</svg>
