<?xml version="1.0" encoding="utf-8" standalone="no"?>
<!DOCTYPE svg PUBLIC "-//W3C//DTD SVG 1.1//EN"
  "http://www.w3.org/Graphics/SVG/1.1/DTD/svg11.dtd">
<svg xmlns:xlink="http://www.w3.org/1999/xlink" width="460.8pt" height="345.6pt" viewBox="0 0 460.8 345.6" xmlns="http://www.w3.org/2000/svg" version="1.1">
 <metadata>
  <rdf:RDF xmlns:dc="http://purl.org/dc/elements/1.1/" xmlns:cc="http://creativecommons.org/ns#" xmlns:rdf="http://www.w3.org/1999/02/22-rdf-syntax-ns#">
   <cc:Work>
    <dc:type rdf:resource="http://purl.org/dc/dcmitype/StillImage"/>
    <dc:date>2025-11-06T01:29:40.570731</dc:date>
    <dc:format>image/svg+xml</dc:format>
    <dc:creator>
     <cc:Agent>
      <dc:title>Matplotlib v3.10.7, https://matplotlib.org/</dc:title>
     </cc:Agent>
    </dc:creator>
   </cc:Work>
  </rdf:RDF>
 </metadata>
 <defs>
  <style type="text/css">*{stroke-linejoin: round; stroke-linecap: butt}</style>
 </defs>
 <g id="figure_1">
  <g id="patch_1">
   <path d="M 0 345.6 
L 460.8 345.6 
L 460.8 0 
L 0 0 
z
" style="fill: #ffffff"/>
  </g>
  <g id="axes_1">
   <g id="patch_2">
    <path d="M 57.6 307.584 
L 414.72 307.584 
L 414.72 41.472 
L 57.6 41.472 
z
" style="fill: #ffffff"/>
   </g>
   <g id="matplotlib.axis_1">
    <g id="xtick_1">
     <g id="line2d_1">
      <defs>
       <path id="mfd1eb9dc13" d="M 0 0 
L 0 3.5 
" style="stroke: #000000; stroke-width: 0.8"/>
      </defs>
      <g>
       <use xlink:href="#mfd1eb9dc13" x="73.832727" y="307.584" style="stroke: #000000; stroke-width: 0.8"/>
      </g>
     </g>
     <g id="text_1">
      <!-- 0.0 -->
      <g transform="translate(65.881165 322.182437) scale(0.1 -0.1)">
       <defs>
        <path id="DejaVuSans-30" d="M 2034 4250 
Q 1547 4250 1301 3770 
Q 1056 3291 1056 2328 
Q 1056 1369 1301 889 
Q 1547 409 2034 409 
Q 2525 409 2770 889 
Q 3016 1369 3016 2328 
Q 3016 3291 2770 3770 
Q 2525 4250 2034 4250 
z
M 2034 4750 
Q 2819 4750 3233 4129 
Q 3647 3509 3647 2328 
Q 3647 1150 3233 529 
Q 2819 -91 2034 -91 
Q 1250 -91 836 529 
Q 422 1150 422 2328 
Q 422 3509 836 4129 
Q 1250 4750 2034 4750 
z
" transform="scale(0.015625)"/>
        <path id="DejaVuSans-2e" d="M 684 794 
L 1344 794 
L 1344 0 
L 684 0 
L 684 794 
z
" transform="scale(0.015625)"/>
       </defs>
       <use xlink:href="#DejaVuSans-30"/>
       <use xlink:href="#DejaVuSans-2e" transform="translate(63.623047 0)"/>
       <use xlink:href="#DejaVuSans-30" transform="translate(95.410156 0)"/>
      </g>
     </g>
    </g>
    <g id="xtick_2">
     <g id="line2d_2">
      <g>
       <use xlink:href="#mfd1eb9dc13" x="128.122785" y="307.584" style="stroke: #000000; stroke-width: 0.8"/>
      </g>
     </g>
     <g id="text_2">
      <!-- 0.5 -->
      <g transform="translate(120.171223 322.182437) scale(0.1 -0.1)">
       <defs>
        <path id="DejaVuSans-35" d="M 691 4666 
L 3169 4666 
L 3169 4134 
L 1269 4134 
L 1269 2991 
Q 1406 3038 1543 3061 
Q 1681 3084 1819 3084 
Q 2600 3084 3056 2656 
Q 3513 2228 3513 1497 
Q 3513 744 3044 326 
Q 2575 -91 1722 -91 
Q 1428 -91 1123 -41 
Q 819 9 494 109 
L 494 744 
Q 775 591 1075 516 
Q 1375 441 1709 441 
Q 2250 441 2565 725 
Q 2881 1009 2881 1497 
Q 2881 1984 2565 2268 
Q 2250 2553 1709 2553 
Q 1456 2553 1204 2497 
Q 953 2441 691 2322 
L 691 4666 
z
" transform="scale(0.015625)"/>
       </defs>
       <use xlink:href="#DejaVuSans-30"/>
       <use xlink:href="#DejaVuSans-2e" transform="translate(63.623047 0)"/>
       <use xlink:href="#DejaVuSans-35" transform="translate(95.410156 0)"/>
      </g>
     </g>
    </g>
    <g id="xtick_3">
     <g id="line2d_3">
      <g>
       <use xlink:href="#mfd1eb9dc13" x="182.412843" y="307.584" style="stroke: #000000; stroke-width: 0.8"/>
      </g>
     </g>
     <g id="text_3">
      <!-- 1.0 -->
      <g transform="translate(174.46128 322.182437) scale(0.1 -0.1)">
       <defs>
        <path id="DejaVuSans-31" d="M 794 531 
L 1825 531 
L 1825 4091 
L 703 3866 
L 703 4441 
L 1819 4666 
L 2450 4666 
L 2450 531 
L 3481 531 
L 3481 0 
L 794 0 
L 794 531 
z
" transform="scale(0.015625)"/>
       </defs>
       <use xlink:href="#DejaVuSans-31"/>
       <use xlink:href="#DejaVuSans-2e" transform="translate(63.623047 0)"/>
       <use xlink:href="#DejaVuSans-30" transform="translate(95.410156 0)"/>
      </g>
     </g>
    </g>
    <g id="xtick_4">
     <g id="line2d_4">
      <g>
       <use xlink:href="#mfd1eb9dc13" x="236.702901" y="307.584" style="stroke: #000000; stroke-width: 0.8"/>
      </g>
     </g>
     <g id="text_4">
      <!-- 1.5 -->
      <g transform="translate(228.751338 322.182437) scale(0.1 -0.1)">
       <use xlink:href="#DejaVuSans-31"/>
       <use xlink:href="#DejaVuSans-2e" transform="translate(63.623047 0)"/>
       <use xlink:href="#DejaVuSans-35" transform="translate(95.410156 0)"/>
      </g>
     </g>
    </g>
    <g id="xtick_5">
     <g id="line2d_5">
      <g>
       <use xlink:href="#mfd1eb9dc13" x="290.992958" y="307.584" style="stroke: #000000; stroke-width: 0.8"/>
      </g>
     </g>
     <g id="text_5">
      <!-- 2.0 -->
      <g transform="translate(283.041396 322.182437) scale(0.1 -0.1)">
       <defs>
        <path id="DejaVuSans-32" d="M 1228 531 
L 3431 531 
L 3431 0 
L 469 0 
L 469 531 
Q 828 903 1448 1529 
Q 2069 2156 2228 2338 
Q 2531 2678 2651 2914 
Q 2772 3150 2772 3378 
Q 2772 3750 2511 3984 
Q 2250 4219 1831 4219 
Q 1534 4219 1204 4116 
Q 875 4013 500 3803 
L 500 4441 
Q 881 4594 1212 4672 
Q 1544 4750 1819 4750 
Q 2544 4750 2975 4387 
Q 3406 4025 3406 3419 
Q 3406 3131 3298 2873 
Q 3191 2616 2906 2266 
Q 2828 2175 2409 1742 
Q 1991 1309 1228 531 
z
" transform="scale(0.015625)"/>
       </defs>
       <use xlink:href="#DejaVuSans-32"/>
       <use xlink:href="#DejaVuSans-2e" transform="translate(63.623047 0)"/>
       <use xlink:href="#DejaVuSans-30" transform="translate(95.410156 0)"/>
      </g>
     </g>
    </g>
    <g id="xtick_6">
     <g id="line2d_6">
      <g>
       <use xlink:href="#mfd1eb9dc13" x="345.283016" y="307.584" style="stroke: #000000; stroke-width: 0.8"/>
      </g>
     </g>
     <g id="text_6">
      <!-- 2.5 -->
      <g transform="translate(337.331454 322.182437) scale(0.1 -0.1)">
       <use xlink:href="#DejaVuSans-32"/>
       <use xlink:href="#DejaVuSans-2e" transform="translate(63.623047 0)"/>
       <use xlink:href="#DejaVuSans-35" transform="translate(95.410156 0)"/>
      </g>
     </g>
    </g>
    <g id="xtick_7">
     <g id="line2d_7">
      <g>
       <use xlink:href="#mfd1eb9dc13" x="399.573074" y="307.584" style="stroke: #000000; stroke-width: 0.8"/>
      </g>
     </g>
     <g id="text_7">
      <!-- 3.0 -->
      <g transform="translate(391.621511 322.182437) scale(0.1 -0.1)">
       <defs>
        <path id="DejaVuSans-33" d="M 2597 2516 
Q 3050 2419 3304 2112 
Q 3559 1806 3559 1356 
Q 3559 666 3084 287 
Q 2609 -91 1734 -91 
Q 1441 -91 1130 -33 
Q 819 25 488 141 
L 488 750 
Q 750 597 1062 519 
Q 1375 441 1716 441 
Q 2309 441 2620 675 
Q 2931 909 2931 1356 
Q 2931 1769 2642 2001 
Q 2353 2234 1838 2234 
L 1294 2234 
L 1294 2753 
L 1863 2753 
Q 2328 2753 2575 2939 
Q 2822 3125 2822 3475 
Q 2822 3834 2567 4026 
Q 2313 4219 1838 4219 
Q 1578 4219 1281 4162 
Q 984 4106 628 3988 
L 628 4550 
Q 988 4650 1302 4700 
Q 1616 4750 1894 4750 
Q 2613 4750 3031 4423 
Q 3450 4097 3450 3541 
Q 3450 3153 3228 2886 
Q 3006 2619 2597 2516 
z
" transform="scale(0.015625)"/>
       </defs>
       <use xlink:href="#DejaVuSans-33"/>
       <use xlink:href="#DejaVuSans-2e" transform="translate(63.623047 0)"/>
       <use xlink:href="#DejaVuSans-30" transform="translate(95.410156 0)"/>
      </g>
     </g>
    </g>
   </g>
   <g id="matplotlib.axis_2">
    <g id="ytick_1">
     <g id="line2d_8">
      <defs>
       <path id="mad51505249" d="M 0 0 
L -3.5 0 
" style="stroke: #000000; stroke-width: 0.8"/>
      </defs>
      <g>
       <use xlink:href="#mad51505249" x="57.6" y="295.488" style="stroke: #000000; stroke-width: 0.8"/>
      </g>
     </g>
     <g id="text_8">
      <!-- 0.0 -->
      <g transform="translate(34.696875 299.287219) scale(0.1 -0.1)">
       <use xlink:href="#DejaVuSans-30"/>
       <use xlink:href="#DejaVuSans-2e" transform="translate(63.623047 0)"/>
       <use xlink:href="#DejaVuSans-30" transform="translate(95.410156 0)"/>
      </g>
     </g>
    </g>
    <g id="ytick_2">
     <g id="line2d_9">
      <g>
       <use xlink:href="#mad51505249" x="57.6" y="253.586227" style="stroke: #000000; stroke-width: 0.8"/>
      </g>
     </g>
     <g id="text_9">
      <!-- 0.2 -->
      <g transform="translate(34.696875 257.385446) scale(0.1 -0.1)">
       <use xlink:href="#DejaVuSans-30"/>
       <use xlink:href="#DejaVuSans-2e" transform="translate(63.623047 0)"/>
       <use xlink:href="#DejaVuSans-32" transform="translate(95.410156 0)"/>
      </g>
     </g>
    </g>
    <g id="ytick_3">
     <g id="line2d_10">
      <g>
       <use xlink:href="#mad51505249" x="57.6" y="211.684454" style="stroke: #000000; stroke-width: 0.8"/>
      </g>
     </g>
     <g id="text_10">
      <!-- 0.4 -->
      <g transform="translate(34.696875 215.483672) scale(0.1 -0.1)">
       <defs>
        <path id="DejaVuSans-34" d="M 2419 4116 
L 825 1625 
L 2419 1625 
L 2419 4116 
z
M 2253 4666 
L 3047 4666 
L 3047 1625 
L 3713 1625 
L 3713 1100 
L 3047 1100 
L 3047 0 
L 2419 0 
L 2419 1100 
L 313 1100 
L 313 1709 
L 2253 4666 
z
" transform="scale(0.015625)"/>
       </defs>
       <use xlink:href="#DejaVuSans-30"/>
       <use xlink:href="#DejaVuSans-2e" transform="translate(63.623047 0)"/>
       <use xlink:href="#DejaVuSans-34" transform="translate(95.410156 0)"/>
      </g>
     </g>
    </g>
    <g id="ytick_4">
     <g id="line2d_11">
      <g>
       <use xlink:href="#mad51505249" x="57.6" y="169.782681" style="stroke: #000000; stroke-width: 0.8"/>
      </g>
     </g>
     <g id="text_11">
      <!-- 0.6 -->
      <g transform="translate(34.696875 173.581899) scale(0.1 -0.1)">
       <defs>
        <path id="DejaVuSans-36" d="M 2113 2584 
Q 1688 2584 1439 2293 
Q 1191 2003 1191 1497 
Q 1191 994 1439 701 
Q 1688 409 2113 409 
Q 2538 409 2786 701 
Q 3034 994 3034 1497 
Q 3034 2003 2786 2293 
Q 2538 2584 2113 2584 
z
M 3366 4563 
L 3366 3988 
Q 3128 4100 2886 4159 
Q 2644 4219 2406 4219 
Q 1781 4219 1451 3797 
Q 1122 3375 1075 2522 
Q 1259 2794 1537 2939 
Q 1816 3084 2150 3084 
Q 2853 3084 3261 2657 
Q 3669 2231 3669 1497 
Q 3669 778 3244 343 
Q 2819 -91 2113 -91 
Q 1303 -91 875 529 
Q 447 1150 447 2328 
Q 447 3434 972 4092 
Q 1497 4750 2381 4750 
Q 2619 4750 2861 4703 
Q 3103 4656 3366 4563 
z
" transform="scale(0.015625)"/>
       </defs>
       <use xlink:href="#DejaVuSans-30"/>
       <use xlink:href="#DejaVuSans-2e" transform="translate(63.623047 0)"/>
       <use xlink:href="#DejaVuSans-36" transform="translate(95.410156 0)"/>
      </g>
     </g>
    </g>
    <g id="ytick_5">
     <g id="line2d_12">
      <g>
       <use xlink:href="#mad51505249" x="57.6" y="127.880907" style="stroke: #000000; stroke-width: 0.8"/>
      </g>
     </g>
     <g id="text_12">
      <!-- 0.8 -->
      <g transform="translate(34.696875 131.680126) scale(0.1 -0.1)">
       <defs>
        <path id="DejaVuSans-38" d="M 2034 2216 
Q 1584 2216 1326 1975 
Q 1069 1734 1069 1313 
Q 1069 891 1326 650 
Q 1584 409 2034 409 
Q 2484 409 2743 651 
Q 3003 894 3003 1313 
Q 3003 1734 2745 1975 
Q 2488 2216 2034 2216 
z
M 1403 2484 
Q 997 2584 770 2862 
Q 544 3141 544 3541 
Q 544 4100 942 4425 
Q 1341 4750 2034 4750 
Q 2731 4750 3128 4425 
Q 3525 4100 3525 3541 
Q 3525 3141 3298 2862 
Q 3072 2584 2669 2484 
Q 3125 2378 3379 2068 
Q 3634 1759 3634 1313 
Q 3634 634 3220 271 
Q 2806 -91 2034 -91 
Q 1263 -91 848 271 
Q 434 634 434 1313 
Q 434 1759 690 2068 
Q 947 2378 1403 2484 
z
M 1172 3481 
Q 1172 3119 1398 2916 
Q 1625 2713 2034 2713 
Q 2441 2713 2670 2916 
Q 2900 3119 2900 3481 
Q 2900 3844 2670 4047 
Q 2441 4250 2034 4250 
Q 1625 4250 1398 4047 
Q 1172 3844 1172 3481 
z
" transform="scale(0.015625)"/>
       </defs>
       <use xlink:href="#DejaVuSans-30"/>
       <use xlink:href="#DejaVuSans-2e" transform="translate(63.623047 0)"/>
       <use xlink:href="#DejaVuSans-38" transform="translate(95.410156 0)"/>
      </g>
     </g>
    </g>
    <g id="ytick_6">
     <g id="line2d_13">
      <g>
       <use xlink:href="#mad51505249" x="57.6" y="85.979134" style="stroke: #000000; stroke-width: 0.8"/>
      </g>
     </g>
     <g id="text_13">
      <!-- 1.0 -->
      <g transform="translate(34.696875 89.778353) scale(0.1 -0.1)">
       <use xlink:href="#DejaVuSans-31"/>
       <use xlink:href="#DejaVuSans-2e" transform="translate(63.623047 0)"/>
       <use xlink:href="#DejaVuSans-30" transform="translate(95.410156 0)"/>
      </g>
     </g>
    </g>
    <g id="ytick_7">
     <g id="line2d_14">
      <g>
       <use xlink:href="#mad51505249" x="57.6" y="44.077361" style="stroke: #000000; stroke-width: 0.8"/>
      </g>
     </g>
     <g id="text_14">
      <!-- 1.2 -->
      <g transform="translate(34.696875 47.87658) scale(0.1 -0.1)">
       <use xlink:href="#DejaVuSans-31"/>
       <use xlink:href="#DejaVuSans-2e" transform="translate(63.623047 0)"/>
       <use xlink:href="#DejaVuSans-32" transform="translate(95.410156 0)"/>
      </g>
     </g>
    </g>
   </g>
   <g id="line2d_15">
    <path d="M 73.832727 295.488 
L 93.377148 250.156712 
L 104.23516 225.565428 
L 112.921569 206.431308 
L 120.522177 190.196892 
L 128.122785 174.528 
L 134.637592 161.611516 
L 141.152399 149.223382 
L 146.581405 139.338876 
L 152.01041 129.882364 
L 157.439416 120.879766 
L 162.868422 112.355756 
L 167.211627 105.896879 
L 171.554831 99.770609 
L 175.898036 93.987693 
L 180.24124 88.558278 
L 184.584445 83.491888 
L 188.92765 78.797411 
L 193.270854 74.483083 
L 197.614059 70.556473 
L 200.871462 67.870124 
L 204.128866 65.408408 
L 207.386269 63.173752 
L 210.643673 61.168362 
L 213.901076 59.394217 
L 217.15848 57.853068 
L 220.415883 56.546437 
L 223.673287 55.475611 
L 226.93069 54.64165 
L 230.188094 54.045374 
L 233.445497 53.687373 
L 236.702901 53.568 
L 239.960304 53.687373 
L 243.217708 54.045374 
L 246.475111 54.64165 
L 249.732514 55.475611 
L 252.989918 56.546437 
L 256.247321 57.853068 
L 259.504725 59.394217 
L 262.762128 61.168362 
L 266.019532 63.173752 
L 269.276935 65.408408 
L 272.534339 67.870124 
L 275.791742 70.556473 
L 280.134947 74.483083 
L 284.478151 78.797411 
L 288.821356 83.491888 
L 293.164561 88.558278 
L 297.507765 93.987693 
L 301.85097 99.770609 
L 306.194175 105.896879 
L 310.537379 112.355756 
L 315.966385 120.879766 
L 321.395391 129.882364 
L 326.824396 139.338876 
L 332.253402 149.223382 
L 338.768209 161.611516 
L 345.283016 174.528 
L 351.797823 187.921857 
L 359.398431 204.080757 
L 368.08484 223.144052 
L 377.857051 245.190004 
L 389.800863 272.721317 
L 398.487273 292.954666 
L 398.487273 292.954666 
" clip-path="url(#pbd934874e0)" style="fill: none; stroke: #1f77b4; stroke-width: 1.5; stroke-linecap: square"/>
   </g>
   <g id="line2d_16">
    <path d="M 73.832727 295.488 
L 90.119745 259.923 
L 91.205546 257.394605 
L 92.291347 255.585601 
L 96.634552 246.264789 
L 97.720353 244.234041 
L 99.891955 238.863328 
L 100.977756 237.440865 
L 102.063557 235.055783 
L 103.149358 231.995274 
L 104.23516 230.279516 
L 105.320961 227.636113 
L 106.406762 225.695833 
L 107.492563 222.636628 
L 108.578364 220.68569 
L 109.664165 219.477989 
L 110.749967 216.227949 
L 111.835768 213.931754 
L 112.921569 212.335162 
L 114.00737 209.566543 
L 115.093171 207.860088 
L 116.178972 204.543555 
L 117.264773 202.681201 
L 118.350575 199.646175 
L 120.522177 196.60886 
L 122.693779 191.576804 
L 123.77958 190.163114 
L 124.865382 187.347814 
L 127.036984 183.070359 
L 128.122785 180.825129 
L 129.208586 179.09381 
L 130.294387 176.638838 
L 132.46599 172.578429 
L 133.551791 169.651892 
L 134.637592 168.162655 
L 135.723393 167.191196 
L 136.809194 163.626957 
L 137.894995 161.380036 
L 141.152399 155.930342 
L 142.2382 153.414117 
L 143.324001 152.145913 
L 144.409802 149.942224 
L 145.495604 147.141485 
L 146.581405 144.010265 
L 147.667206 143.659285 
L 148.753007 142.869455 
L 149.838808 139.493134 
L 150.924609 137.20128 
L 152.01041 134.58271 
L 153.096212 134.602794 
L 154.182013 132.478995 
L 155.267814 128.106907 
L 156.353615 128.749263 
L 157.439416 125.350539 
L 158.525217 124.534546 
L 159.611019 122.782123 
L 160.69682 119.635659 
L 162.868422 117.119806 
L 163.954223 113.980237 
L 165.040024 113.302113 
L 166.125825 110.784028 
L 167.211627 108.862348 
L 168.297428 108.339595 
L 170.46903 104.566809 
L 171.554831 102.266517 
L 172.640632 100.918204 
L 173.726434 99.30366 
L 174.812235 97.275997 
L 175.898036 96.118864 
L 176.983837 93.791695 
L 178.069638 92.667427 
L 179.155439 90.771775 
L 182.412843 85.979134 
L 183.498644 85.979134 
L 184.584445 85.639813 
L 185.670246 85.143592 
L 186.756047 86.202018 
L 187.841849 84.764455 
L 188.92765 86.635877 
L 191.099252 84.582674 
L 193.270854 85.953936 
L 194.356656 83.61293 
L 195.442457 85.854281 
L 196.528258 84.515199 
L 197.614059 83.997666 
L 198.69986 86.078036 
L 199.785661 87.282087 
L 200.871462 84.559466 
L 201.957264 86.788255 
L 203.043065 83.534215 
L 204.128866 85.254802 
L 205.214667 83.666713 
L 206.300468 84.723715 
L 207.386269 82.385482 
L 208.472071 86.61643 
L 209.557872 84.740393 
L 210.643673 84.029093 
L 211.729474 86.336447 
L 212.815275 85.898725 
L 213.901076 86.513756 
L 214.986877 86.50565 
L 216.072679 85.043923 
L 217.15848 86.644465 
L 218.244281 82.297015 
L 219.330082 88.684858 
L 221.501684 92.928217 
L 222.587486 94.260736 
L 223.673287 94.504992 
L 224.759088 89.664871 
L 225.844889 88.835847 
L 226.93069 87.85304 
L 228.016491 99.077721 
L 229.102292 93.406984 
L 230.188094 97.176385 
L 231.273895 97.463506 
L 232.359696 91.366326 
L 233.445497 96.426846 
L 234.531298 92.054992 
L 235.617099 99.260801 
L 236.702901 95.767957 
L 237.788702 93.524729 
L 238.874503 90.864894 
L 239.960304 92.099442 
L 241.046105 99.381812 
L 242.131906 101.499207 
L 243.217708 96.924625 
L 244.303509 98.339411 
L 245.38931 95.265995 
L 246.475111 96.378015 
L 247.560912 102.208516 
L 248.646713 102.076119 
L 249.732514 105.768803 
L 250.818316 104.01064 
L 251.904117 103.83706 
L 252.989918 93.760831 
L 254.075719 106.25206 
L 255.16152 108.093646 
L 256.247321 106.034967 
L 257.333123 108.695997 
L 258.418924 110.310375 
L 259.504725 110.201446 
L 260.590526 115.237464 
L 261.676327 113.260293 
L 262.762128 110.391942 
L 263.847929 113.222135 
L 264.933731 112.847111 
L 266.019532 111.596206 
L 267.105333 122.585484 
L 268.191134 110.831561 
L 269.276935 124.920344 
L 270.362736 120.419857 
L 271.448538 123.869114 
L 273.62014 121.879975 
L 274.705941 116.096123 
L 275.791742 123.731773 
L 276.877543 121.464748 
L 277.963344 118.894342 
L 279.049146 129.378925 
L 280.134947 127.265563 
L 281.220748 135.167244 
L 282.306549 128.194629 
L 283.39235 134.682646 
L 284.478151 128.504679 
L 285.563953 137.439076 
L 286.649754 132.020424 
L 287.735555 131.564002 
L 288.821356 133.183935 
L 289.907157 134.275656 
L 290.992958 138.599145 
L 292.07876 147.251762 
L 293.164561 143.748617 
L 294.250362 139.255891 
L 295.336163 152.495968 
L 296.421964 149.166387 
L 297.507765 146.862057 
L 298.593566 146.276303 
L 299.679368 141.45147 
L 300.765169 147.267678 
L 301.85097 156.939484 
L 302.936771 150.546664 
L 304.022572 154.127689 
L 305.108373 156.105645 
L 306.194175 156.759213 
L 307.279976 156.882694 
L 308.365777 159.879239 
L 309.451578 157.335181 
L 310.537379 159.602991 
L 311.62318 161.612713 
L 312.708981 166.559703 
L 313.794783 166.341446 
L 314.880584 166.391274 
L 315.966385 173.373528 
L 317.052186 169.364646 
L 318.137987 174.694674 
L 319.223788 171.955389 
L 320.30959 177.323616 
L 321.395391 176.005118 
L 322.481192 179.72763 
L 323.566993 176.477638 
L 324.652794 183.272131 
L 325.738595 178.176596 
L 326.824396 182.074099 
L 327.910198 183.171751 
L 328.995999 185.739456 
L 330.0818 186.235543 
L 331.167601 191.053106 
L 332.253402 192.30651 
L 333.339203 191.655555 
L 334.425005 197.007605 
L 335.510806 192.313862 
L 336.596607 193.85119 
L 337.682408 200.082005 
L 338.768209 197.074957 
L 339.85401 202.263794 
L 340.939811 201.885665 
L 342.025613 202.637852 
L 343.111414 207.573797 
L 344.197215 207.317232 
L 345.283016 211.833316 
L 346.368817 214.716207 
L 347.454618 212.546964 
L 348.54042 212.204822 
L 349.626221 219.552753 
L 350.712022 218.982089 
L 351.797823 218.866327 
L 352.883624 222.474603 
L 353.969425 222.351684 
L 355.055227 226.364273 
L 358.31263 230.283989 
L 359.398431 231.155782 
L 360.484232 236.129904 
L 361.570033 234.9964 
L 362.655835 236.317868 
L 363.741636 237.921946 
L 364.827437 236.778859 
L 365.913238 240.772272 
L 366.999039 242.353074 
L 369.170642 248.088562 
L 370.256443 247.617736 
L 371.342244 250.563209 
L 372.428045 251.516788 
L 374.599647 255.688696 
L 375.685448 257.262062 
L 376.77125 258.257216 
L 377.857051 260.529845 
L 378.942852 261.675366 
L 380.028653 263.576596 
L 381.114454 266.320718 
L 382.200255 268.429526 
L 384.371858 270.655871 
L 387.629261 276.515359 
L 389.800863 279.028587 
L 390.886665 281.525682 
L 391.972466 282.701556 
L 393.058267 285.34922 
L 394.144068 286.323152 
L 395.229869 288.568033 
L 397.401472 292.156464 
L 398.487273 295.488 
L 398.487273 295.488 
" clip-path="url(#pbd934874e0)" style="fill: none; stroke: #ff7f0e; stroke-width: 1.5; stroke-linecap: square"/>
   </g>
   <g id="patch_3">
    <path d="M 57.6 307.584 
L 57.6 41.472 
" style="fill: none; stroke: #000000; stroke-width: 0.8; stroke-linejoin: miter; stroke-linecap: square"/>
   </g>
   <g id="patch_4">
    <path d="M 414.72 307.584 
L 414.72 41.472 
" style="fill: none; stroke: #000000; stroke-width: 0.8; stroke-linejoin: miter; stroke-linecap: square"/>
   </g>
   <g id="patch_5">
    <path d="M 57.6 307.584 
L 414.72 307.584 
" style="fill: none; stroke: #000000; stroke-width: 0.8; stroke-linejoin: miter; stroke-linecap: square"/>
   </g>
   <g id="patch_6">
    <path d="M 57.6 41.472 
L 414.72 41.472 
" style="fill: none; stroke: #000000; stroke-width: 0.8; stroke-linejoin: miter; stroke-linecap: square"/>
   </g>
  </g>
 </g>
 <defs>
  <clipPath id="pbd934874e0">
   <rect x="57.6" y="41.472" width="357.12" height="266.112"/>
  </clipPath>
 </defs>
</svg>
