<?xml version="1.0" encoding="utf-8" standalone="no"?>
<!DOCTYPE svg PUBLIC "-//W3C//DTD SVG 1.1//EN"
  "http://www.w3.org/Graphics/SVG/1.1/DTD/svg11.dtd">
<svg xmlns:xlink="http://www.w3.org/1999/xlink" width="460.8pt" height="345.6pt" viewBox="0 0 460.8 345.6" xmlns="http://www.w3.org/2000/svg" version="1.1">
 <metadata>
  <rdf:RDF xmlns:dc="http://purl.org/dc/elements/1.1/" xmlns:cc="http://creativecommons.org/ns#" xmlns:rdf="http://www.w3.org/1999/02/22-rdf-syntax-ns#">
   <cc:Work>
    <dc:type rdf:resource="http://purl.org/dc/dcmitype/StillImage"/>
    <dc:date>2025-11-06T01:29:39.950335</dc:date>
    <dc:format>image/svg+xml</dc:format>
    <dc:creator>
     <cc:Agent>
      <dc:title>Matplotlib v3.10.7, https://matplotlib.org/</dc:title>
     </cc:Agent>
    </dc:creator>
   </cc:Work>
  </rdf:RDF>
 </metadata>
 <defs>
  <style type="text/css">*{stroke-linejoin: round; stroke-linecap: butt}</style>
 </defs>
 <g id="figure_1">
  <g id="patch_1">
   <path d="M 0 345.6 
L 460.8 345.6 
L 460.8 0 
L 0 0 
z
" style="fill: #ffffff"/>
  </g>
  <g id="axes_1">
   <g id="patch_2">
    <path d="M 57.6 307.584 
L 414.72 307.584 
L 414.72 41.472 
L 57.6 41.472 
z
" style="fill: #ffffff"/>
   </g>
   <g id="matplotlib.axis_1">
    <g id="xtick_1">
     <g id="line2d_1">
      <defs>
       <path id="m461a447550" d="M 0 0 
L 0 3.5 
" style="stroke: #000000; stroke-width: 0.8"/>
      </defs>
      <g>
       <use xlink:href="#m461a447550" x="73.832727" y="307.584" style="stroke: #000000; stroke-width: 0.8"/>
      </g>
     </g>
     <g id="text_1">
      <!-- 0.0 -->
      <g transform="translate(65.881165 322.182437) scale(0.1 -0.1)">
       <defs>
        <path id="DejaVuSans-30" d="M 2034 4250 
Q 1547 4250 1301 3770 
Q 1056 3291 1056 2328 
Q 1056 1369 1301 889 
Q 1547 409 2034 409 
Q 2525 409 2770 889 
Q 3016 1369 3016 2328 
Q 3016 3291 2770 3770 
Q 2525 4250 2034 4250 
z
M 2034 4750 
Q 2819 4750 3233 4129 
Q 3647 3509 3647 2328 
Q 3647 1150 3233 529 
Q 2819 -91 2034 -91 
Q 1250 -91 836 529 
Q 422 1150 422 2328 
Q 422 3509 836 4129 
Q 1250 4750 2034 4750 
z
" transform="scale(0.015625)"/>
        <path id="DejaVuSans-2e" d="M 684 794 
L 1344 794 
L 1344 0 
L 684 0 
L 684 794 
z
" transform="scale(0.015625)"/>
       </defs>
       <use xlink:href="#DejaVuSans-30"/>
       <use xlink:href="#DejaVuSans-2e" transform="translate(63.623047 0)"/>
       <use xlink:href="#DejaVuSans-30" transform="translate(95.410156 0)"/>
      </g>
     </g>
    </g>
    <g id="xtick_2">
     <g id="line2d_2">
      <g>
       <use xlink:href="#m461a447550" x="128.122785" y="307.584" style="stroke: #000000; stroke-width: 0.8"/>
      </g>
     </g>
     <g id="text_2">
      <!-- 0.5 -->
      <g transform="translate(120.171223 322.182437) scale(0.1 -0.1)">
       <defs>
        <path id="DejaVuSans-35" d="M 691 4666 
L 3169 4666 
L 3169 4134 
L 1269 4134 
L 1269 2991 
Q 1406 3038 1543 3061 
Q 1681 3084 1819 3084 
Q 2600 3084 3056 2656 
Q 3513 2228 3513 1497 
Q 3513 744 3044 326 
Q 2575 -91 1722 -91 
Q 1428 -91 1123 -41 
Q 819 9 494 109 
L 494 744 
Q 775 591 1075 516 
Q 1375 441 1709 441 
Q 2250 441 2565 725 
Q 2881 1009 2881 1497 
Q 2881 1984 2565 2268 
Q 2250 2553 1709 2553 
Q 1456 2553 1204 2497 
Q 953 2441 691 2322 
L 691 4666 
z
" transform="scale(0.015625)"/>
       </defs>
       <use xlink:href="#DejaVuSans-30"/>
       <use xlink:href="#DejaVuSans-2e" transform="translate(63.623047 0)"/>
       <use xlink:href="#DejaVuSans-35" transform="translate(95.410156 0)"/>
      </g>
     </g>
    </g>
    <g id="xtick_3">
     <g id="line2d_3">
      <g>
       <use xlink:href="#m461a447550" x="182.412843" y="307.584" style="stroke: #000000; stroke-width: 0.8"/>
      </g>
     </g>
     <g id="text_3">
      <!-- 1.0 -->
      <g transform="translate(174.46128 322.182437) scale(0.1 -0.1)">
       <defs>
        <path id="DejaVuSans-31" d="M 794 531 
L 1825 531 
L 1825 4091 
L 703 3866 
L 703 4441 
L 1819 4666 
L 2450 4666 
L 2450 531 
L 3481 531 
L 3481 0 
L 794 0 
L 794 531 
z
" transform="scale(0.015625)"/>
       </defs>
       <use xlink:href="#DejaVuSans-31"/>
       <use xlink:href="#DejaVuSans-2e" transform="translate(63.623047 0)"/>
       <use xlink:href="#DejaVuSans-30" transform="translate(95.410156 0)"/>
      </g>
     </g>
    </g>
    <g id="xtick_4">
     <g id="line2d_4">
      <g>
       <use xlink:href="#m461a447550" x="236.702901" y="307.584" style="stroke: #000000; stroke-width: 0.8"/>
      </g>
     </g>
     <g id="text_4">
      <!-- 1.5 -->
      <g transform="translate(228.751338 322.182437) scale(0.1 -0.1)">
       <use xlink:href="#DejaVuSans-31"/>
       <use xlink:href="#DejaVuSans-2e" transform="translate(63.623047 0)"/>
       <use xlink:href="#DejaVuSans-35" transform="translate(95.410156 0)"/>
      </g>
     </g>
    </g>
    <g id="xtick_5">
     <g id="line2d_5">
      <g>
       <use xlink:href="#m461a447550" x="290.992958" y="307.584" style="stroke: #000000; stroke-width: 0.8"/>
      </g>
     </g>
     <g id="text_5">
      <!-- 2.0 -->
      <g transform="translate(283.041396 322.182437) scale(0.1 -0.1)">
       <defs>
        <path id="DejaVuSans-32" d="M 1228 531 
L 3431 531 
L 3431 0 
L 469 0 
L 469 531 
Q 828 903 1448 1529 
Q 2069 2156 2228 2338 
Q 2531 2678 2651 2914 
Q 2772 3150 2772 3378 
Q 2772 3750 2511 3984 
Q 2250 4219 1831 4219 
Q 1534 4219 1204 4116 
Q 875 4013 500 3803 
L 500 4441 
Q 881 4594 1212 4672 
Q 1544 4750 1819 4750 
Q 2544 4750 2975 4387 
Q 3406 4025 3406 3419 
Q 3406 3131 3298 2873 
Q 3191 2616 2906 2266 
Q 2828 2175 2409 1742 
Q 1991 1309 1228 531 
z
" transform="scale(0.015625)"/>
       </defs>
       <use xlink:href="#DejaVuSans-32"/>
       <use xlink:href="#DejaVuSans-2e" transform="translate(63.623047 0)"/>
       <use xlink:href="#DejaVuSans-30" transform="translate(95.410156 0)"/>
      </g>
     </g>
    </g>
    <g id="xtick_6">
     <g id="line2d_6">
      <g>
       <use xlink:href="#m461a447550" x="345.283016" y="307.584" style="stroke: #000000; stroke-width: 0.8"/>
      </g>
     </g>
     <g id="text_6">
      <!-- 2.5 -->
      <g transform="translate(337.331454 322.182437) scale(0.1 -0.1)">
       <use xlink:href="#DejaVuSans-32"/>
       <use xlink:href="#DejaVuSans-2e" transform="translate(63.623047 0)"/>
       <use xlink:href="#DejaVuSans-35" transform="translate(95.410156 0)"/>
      </g>
     </g>
    </g>
    <g id="xtick_7">
     <g id="line2d_7">
      <g>
       <use xlink:href="#m461a447550" x="399.573074" y="307.584" style="stroke: #000000; stroke-width: 0.8"/>
      </g>
     </g>
     <g id="text_7">
      <!-- 3.0 -->
      <g transform="translate(391.621511 322.182437) scale(0.1 -0.1)">
       <defs>
        <path id="DejaVuSans-33" d="M 2597 2516 
Q 3050 2419 3304 2112 
Q 3559 1806 3559 1356 
Q 3559 666 3084 287 
Q 2609 -91 1734 -91 
Q 1441 -91 1130 -33 
Q 819 25 488 141 
L 488 750 
Q 750 597 1062 519 
Q 1375 441 1716 441 
Q 2309 441 2620 675 
Q 2931 909 2931 1356 
Q 2931 1769 2642 2001 
Q 2353 2234 1838 2234 
L 1294 2234 
L 1294 2753 
L 1863 2753 
Q 2328 2753 2575 2939 
Q 2822 3125 2822 3475 
Q 2822 3834 2567 4026 
Q 2313 4219 1838 4219 
Q 1578 4219 1281 4162 
Q 984 4106 628 3988 
L 628 4550 
Q 988 4650 1302 4700 
Q 1616 4750 1894 4750 
Q 2613 4750 3031 4423 
Q 3450 4097 3450 3541 
Q 3450 3153 3228 2886 
Q 3006 2619 2597 2516 
z
" transform="scale(0.015625)"/>
       </defs>
       <use xlink:href="#DejaVuSans-33"/>
       <use xlink:href="#DejaVuSans-2e" transform="translate(63.623047 0)"/>
       <use xlink:href="#DejaVuSans-30" transform="translate(95.410156 0)"/>
      </g>
     </g>
    </g>
   </g>
   <g id="matplotlib.axis_2">
    <g id="ytick_1">
     <g id="line2d_8">
      <defs>
       <path id="mc5fe4ab43b" d="M 0 0 
L -3.5 0 
" style="stroke: #000000; stroke-width: 0.8"/>
      </defs>
      <g>
       <use xlink:href="#mc5fe4ab43b" x="57.6" y="295.488" style="stroke: #000000; stroke-width: 0.8"/>
      </g>
     </g>
     <g id="text_8">
      <!-- 0.0 -->
      <g transform="translate(34.696875 299.287219) scale(0.1 -0.1)">
       <use xlink:href="#DejaVuSans-30"/>
       <use xlink:href="#DejaVuSans-2e" transform="translate(63.623047 0)"/>
       <use xlink:href="#DejaVuSans-30" transform="translate(95.410156 0)"/>
      </g>
     </g>
    </g>
    <g id="ytick_2">
     <g id="line2d_9">
      <g>
       <use xlink:href="#mc5fe4ab43b" x="57.6" y="253.586227" style="stroke: #000000; stroke-width: 0.8"/>
      </g>
     </g>
     <g id="text_9">
      <!-- 0.2 -->
      <g transform="translate(34.696875 257.385446) scale(0.1 -0.1)">
       <use xlink:href="#DejaVuSans-30"/>
       <use xlink:href="#DejaVuSans-2e" transform="translate(63.623047 0)"/>
       <use xlink:href="#DejaVuSans-32" transform="translate(95.410156 0)"/>
      </g>
     </g>
    </g>
    <g id="ytick_3">
     <g id="line2d_10">
      <g>
       <use xlink:href="#mc5fe4ab43b" x="57.6" y="211.684454" style="stroke: #000000; stroke-width: 0.8"/>
      </g>
     </g>
     <g id="text_10">
      <!-- 0.4 -->
      <g transform="translate(34.696875 215.483672) scale(0.1 -0.1)">
       <defs>
        <path id="DejaVuSans-34" d="M 2419 4116 
L 825 1625 
L 2419 1625 
L 2419 4116 
z
M 2253 4666 
L 3047 4666 
L 3047 1625 
L 3713 1625 
L 3713 1100 
L 3047 1100 
L 3047 0 
L 2419 0 
L 2419 1100 
L 313 1100 
L 313 1709 
L 2253 4666 
z
" transform="scale(0.015625)"/>
       </defs>
       <use xlink:href="#DejaVuSans-30"/>
       <use xlink:href="#DejaVuSans-2e" transform="translate(63.623047 0)"/>
       <use xlink:href="#DejaVuSans-34" transform="translate(95.410156 0)"/>
      </g>
     </g>
    </g>
    <g id="ytick_4">
     <g id="line2d_11">
      <g>
       <use xlink:href="#mc5fe4ab43b" x="57.6" y="169.782681" style="stroke: #000000; stroke-width: 0.8"/>
      </g>
     </g>
     <g id="text_11">
      <!-- 0.6 -->
      <g transform="translate(34.696875 173.581899) scale(0.1 -0.1)">
       <defs>
        <path id="DejaVuSans-36" d="M 2113 2584 
Q 1688 2584 1439 2293 
Q 1191 2003 1191 1497 
Q 1191 994 1439 701 
Q 1688 409 2113 409 
Q 2538 409 2786 701 
Q 3034 994 3034 1497 
Q 3034 2003 2786 2293 
Q 2538 2584 2113 2584 
z
M 3366 4563 
L 3366 3988 
Q 3128 4100 2886 4159 
Q 2644 4219 2406 4219 
Q 1781 4219 1451 3797 
Q 1122 3375 1075 2522 
Q 1259 2794 1537 2939 
Q 1816 3084 2150 3084 
Q 2853 3084 3261 2657 
Q 3669 2231 3669 1497 
Q 3669 778 3244 343 
Q 2819 -91 2113 -91 
Q 1303 -91 875 529 
Q 447 1150 447 2328 
Q 447 3434 972 4092 
Q 1497 4750 2381 4750 
Q 2619 4750 2861 4703 
Q 3103 4656 3366 4563 
z
" transform="scale(0.015625)"/>
       </defs>
       <use xlink:href="#DejaVuSans-30"/>
       <use xlink:href="#DejaVuSans-2e" transform="translate(63.623047 0)"/>
       <use xlink:href="#DejaVuSans-36" transform="translate(95.410156 0)"/>
      </g>
     </g>
    </g>
    <g id="ytick_5">
     <g id="line2d_12">
      <g>
       <use xlink:href="#mc5fe4ab43b" x="57.6" y="127.880907" style="stroke: #000000; stroke-width: 0.8"/>
      </g>
     </g>
     <g id="text_12">
      <!-- 0.8 -->
      <g transform="translate(34.696875 131.680126) scale(0.1 -0.1)">
       <defs>
        <path id="DejaVuSans-38" d="M 2034 2216 
Q 1584 2216 1326 1975 
Q 1069 1734 1069 1313 
Q 1069 891 1326 650 
Q 1584 409 2034 409 
Q 2484 409 2743 651 
Q 3003 894 3003 1313 
Q 3003 1734 2745 1975 
Q 2488 2216 2034 2216 
z
M 1403 2484 
Q 997 2584 770 2862 
Q 544 3141 544 3541 
Q 544 4100 942 4425 
Q 1341 4750 2034 4750 
Q 2731 4750 3128 4425 
Q 3525 4100 3525 3541 
Q 3525 3141 3298 2862 
Q 3072 2584 2669 2484 
Q 3125 2378 3379 2068 
Q 3634 1759 3634 1313 
Q 3634 634 3220 271 
Q 2806 -91 2034 -91 
Q 1263 -91 848 271 
Q 434 634 434 1313 
Q 434 1759 690 2068 
Q 947 2378 1403 2484 
z
M 1172 3481 
Q 1172 3119 1398 2916 
Q 1625 2713 2034 2713 
Q 2441 2713 2670 2916 
Q 2900 3119 2900 3481 
Q 2900 3844 2670 4047 
Q 2441 4250 2034 4250 
Q 1625 4250 1398 4047 
Q 1172 3844 1172 3481 
z
" transform="scale(0.015625)"/>
       </defs>
       <use xlink:href="#DejaVuSans-30"/>
       <use xlink:href="#DejaVuSans-2e" transform="translate(63.623047 0)"/>
       <use xlink:href="#DejaVuSans-38" transform="translate(95.410156 0)"/>
      </g>
     </g>
    </g>
    <g id="ytick_6">
     <g id="line2d_13">
      <g>
       <use xlink:href="#mc5fe4ab43b" x="57.6" y="85.979134" style="stroke: #000000; stroke-width: 0.8"/>
      </g>
     </g>
     <g id="text_13">
      <!-- 1.0 -->
      <g transform="translate(34.696875 89.778353) scale(0.1 -0.1)">
       <use xlink:href="#DejaVuSans-31"/>
       <use xlink:href="#DejaVuSans-2e" transform="translate(63.623047 0)"/>
       <use xlink:href="#DejaVuSans-30" transform="translate(95.410156 0)"/>
      </g>
     </g>
    </g>
    <g id="ytick_7">
     <g id="line2d_14">
      <g>
       <use xlink:href="#mc5fe4ab43b" x="57.6" y="44.077361" style="stroke: #000000; stroke-width: 0.8"/>
      </g>
     </g>
     <g id="text_14">
      <!-- 1.2 -->
      <g transform="translate(34.696875 47.87658) scale(0.1 -0.1)">
       <use xlink:href="#DejaVuSans-31"/>
       <use xlink:href="#DejaVuSans-2e" transform="translate(63.623047 0)"/>
       <use xlink:href="#DejaVuSans-32" transform="translate(95.410156 0)"/>
      </g>
     </g>
    </g>
   </g>
   <g id="line2d_15">
    <path d="M 73.832727 295.488 
L 93.377148 250.156712 
L 104.23516 225.565428 
L 112.921569 206.431308 
L 120.522177 190.196892 
L 128.122785 174.528 
L 134.637592 161.611516 
L 141.152399 149.223382 
L 146.581405 139.338876 
L 152.01041 129.882364 
L 157.439416 120.879766 
L 162.868422 112.355756 
L 167.211627 105.896879 
L 171.554831 99.770609 
L 175.898036 93.987693 
L 180.24124 88.558278 
L 184.584445 83.491888 
L 188.92765 78.797411 
L 193.270854 74.483083 
L 197.614059 70.556473 
L 200.871462 67.870124 
L 204.128866 65.408408 
L 207.386269 63.173752 
L 210.643673 61.168362 
L 213.901076 59.394217 
L 217.15848 57.853068 
L 220.415883 56.546437 
L 223.673287 55.475611 
L 226.93069 54.64165 
L 230.188094 54.045374 
L 233.445497 53.687373 
L 236.702901 53.568 
L 239.960304 53.687373 
L 243.217708 54.045374 
L 246.475111 54.64165 
L 249.732514 55.475611 
L 252.989918 56.546437 
L 256.247321 57.853068 
L 259.504725 59.394217 
L 262.762128 61.168362 
L 266.019532 63.173752 
L 269.276935 65.408408 
L 272.534339 67.870124 
L 275.791742 70.556473 
L 280.134947 74.483083 
L 284.478151 78.797411 
L 288.821356 83.491888 
L 293.164561 88.558278 
L 297.507765 93.987693 
L 301.85097 99.770609 
L 306.194175 105.896879 
L 310.537379 112.355756 
L 315.966385 120.879766 
L 321.395391 129.882364 
L 326.824396 139.338876 
L 332.253402 149.223382 
L 338.768209 161.611516 
L 345.283016 174.528 
L 351.797823 187.921857 
L 359.398431 204.080757 
L 368.08484 223.144052 
L 377.857051 245.190004 
L 389.800863 272.721317 
L 398.487273 292.954666 
L 398.487273 292.954666 
" clip-path="url(#pbb8b11459e)" style="fill: none; stroke: #1f77b4; stroke-width: 1.5; stroke-linecap: square"/>
   </g>
   <g id="line2d_16">
    <path d="M 73.832727 295.488 
L 78.175932 285.327686 
L 80.347534 280.315643 
L 82.519137 275.330516 
L 85.77654 267.883805 
L 86.862341 265.615147 
L 89.033943 260.058488 
L 90.119745 257.645279 
L 91.205546 254.768777 
L 92.291347 253.301901 
L 93.377148 250.197248 
L 96.634552 243.434512 
L 97.720353 240.202731 
L 98.806154 237.6947 
L 99.891955 234.700843 
L 102.063557 230.361466 
L 103.149358 228.534398 
L 104.23516 226.447078 
L 105.320961 223.039778 
L 106.406762 221.371034 
L 107.492563 218.659671 
L 108.578364 215.369691 
L 110.749967 211.627129 
L 111.835768 208.065053 
L 112.921569 205.970957 
L 114.00737 202.948358 
L 115.093171 202.442742 
L 116.178972 200.135218 
L 117.264773 196.394709 
L 119.436376 190.837101 
L 120.522177 189.338787 
L 121.607978 187.333093 
L 122.693779 187.083146 
L 123.77958 182.751699 
L 124.865382 181.288016 
L 125.951183 179.556728 
L 127.036984 175.653202 
L 128.122785 172.390876 
L 129.208586 172.696439 
L 130.294387 170.457174 
L 131.380189 167.184532 
L 132.46599 166.755784 
L 133.551791 163.592297 
L 134.637592 158.532036 
L 135.723393 160.242447 
L 136.809194 155.976083 
L 137.894995 152.891709 
L 138.980797 153.671209 
L 140.066598 150.417824 
L 141.152399 150.540859 
L 142.2382 148.609598 
L 144.409802 142.737006 
L 145.495604 141.032307 
L 146.581405 140.11723 
L 147.667206 137.28861 
L 148.753007 135.505197 
L 149.838808 133.017494 
L 150.924609 132.470438 
L 152.01041 131.289747 
L 153.096212 128.497396 
L 154.182013 126.25 
L 155.267814 126.184297 
L 156.353615 122.402934 
L 157.439416 119.423588 
L 158.525217 118.543232 
L 159.611019 117.983823 
L 160.69682 115.238031 
L 161.782621 113.837362 
L 162.868422 112.09958 
L 163.954223 111.358718 
L 165.040024 109.883508 
L 166.125825 107.969661 
L 167.211627 105.372568 
L 169.383229 103.201811 
L 170.46903 100.50669 
L 172.640632 97.435683 
L 173.726434 96.802949 
L 174.812235 95.642891 
L 175.898036 93.608994 
L 176.983837 92.433831 
L 178.069638 91.796416 
L 179.155439 90.008358 
L 180.24124 88.449068 
L 181.327042 87.301103 
L 182.412843 85.979134 
L 183.498644 85.979134 
L 185.670246 80.949805 
L 186.756047 80.862743 
L 187.841849 80.049979 
L 188.92765 78.761887 
L 191.099252 76.724426 
L 192.185053 76.02727 
L 193.270854 72.855969 
L 194.356656 72.123378 
L 195.442457 67.680261 
L 196.528258 72.036839 
L 197.614059 69.387564 
L 198.69986 68.201465 
L 199.785661 72.807161 
L 200.871462 68.444605 
L 201.957264 68.974703 
L 203.043065 64.624434 
L 204.128866 64.913007 
L 205.214667 70.12523 
L 206.300468 61.754895 
L 207.386269 62.65533 
L 208.472071 62.815018 
L 209.557872 66.743741 
L 210.643673 58.750979 
L 211.729474 59.431329 
L 212.815275 60.420334 
L 213.901076 53.454406 
L 214.986877 63.344725 
L 216.072679 58.82432 
L 217.15848 53.787682 
L 218.244281 51.1609 
L 219.330082 68.010512 
L 220.415883 52.733619 
L 221.501684 59.804238 
L 222.587486 55.738818 
L 223.673287 49.1765 
L 224.759088 67.90402 
L 225.844889 40.612449 
L 228.016491 57.384388 
L 229.102292 38.735912 
L 230.188094 64.459384 
L 231.273895 55.504074 
L 232.359696 56.547028 
L 233.445497 54.51109 
L 234.531298 60.593659 
L 235.617099 37.718678 
L 236.702901 52.672702 
L 237.788702 55.443937 
L 238.874503 56.514637 
L 239.960304 62.801634 
L 241.046105 52.495444 
L 242.131906 64.529135 
L 243.217708 49.817762 
L 244.303509 43.403314 
L 245.38931 55.551919 
L 246.475111 64.16872 
L 247.560912 49.120477 
L 248.646713 59.925213 
L 249.732514 41.048511 
L 250.818316 61.407584 
L 251.904117 57.443012 
L 252.989918 69.333423 
L 255.16152 48.81658 
L 256.247321 62.165158 
L 257.333123 54.931393 
L 259.504725 70.429324 
L 260.590526 59.815685 
L 261.676327 58.422156 
L 262.762128 71.615336 
L 263.847929 64.12465 
L 264.933731 63.403107 
L 266.019532 53.12078 
L 267.105333 59.792961 
L 268.191134 65.47023 
L 269.276935 56.053355 
L 270.362736 65.088297 
L 271.448538 62.714901 
L 272.534339 67.45161 
L 273.62014 72.691891 
L 274.705941 64.619827 
L 275.791742 80.065159 
L 276.877543 76.383679 
L 277.963344 66.103229 
L 279.049146 71.589088 
L 280.134947 72.096434 
L 281.220748 80.048171 
L 282.306549 82.926657 
L 283.39235 75.819961 
L 284.478151 80.874069 
L 285.563953 88.193068 
L 286.649754 88.057724 
L 287.735555 73.159662 
L 288.821356 92.768469 
L 289.907157 93.731426 
L 290.992958 83.980714 
L 292.07876 90.704394 
L 293.164561 94.445852 
L 294.250362 89.756504 
L 295.336163 98.82815 
L 296.421964 80.629423 
L 297.507765 112.971413 
L 298.593566 96.792962 
L 299.679368 98.379061 
L 300.765169 102.201565 
L 301.85097 100.746598 
L 302.936771 87.568496 
L 304.022572 105.410577 
L 305.108373 104.755548 
L 306.194175 103.495796 
L 307.279976 103.163515 
L 308.365777 106.279182 
L 309.451578 110.516603 
L 310.537379 115.505868 
L 311.62318 107.946375 
L 312.708981 122.755005 
L 313.794783 111.094851 
L 314.880584 103.491652 
L 315.966385 131.817252 
L 317.052186 112.403988 
L 318.137987 116.091762 
L 319.223788 131.850951 
L 320.30959 126.762906 
L 321.395391 139.161373 
L 322.481192 140.116061 
L 323.566993 132.424244 
L 324.652794 132.271285 
L 325.738595 143.463777 
L 326.824396 143.674856 
L 327.910198 135.989385 
L 328.995999 143.121888 
L 330.0818 143.34977 
L 331.167601 126.691372 
L 332.253402 140.036612 
L 333.339203 146.995983 
L 334.425005 149.20442 
L 335.510806 161.494882 
L 336.596607 145.715386 
L 337.682408 156.928354 
L 338.768209 165.857962 
L 339.85401 148.877368 
L 340.939811 167.186986 
L 342.025613 166.380444 
L 343.111414 166.974337 
L 344.197215 171.578038 
L 345.283016 180.885729 
L 346.368817 183.665204 
L 347.454618 180.522376 
L 348.54042 182.198784 
L 350.712022 191.283044 
L 351.797823 186.733637 
L 352.883624 189.326509 
L 353.969425 198.057681 
L 355.055227 198.30948 
L 356.141028 197.972153 
L 357.226829 196.861019 
L 358.31263 207.193202 
L 359.398431 200.392188 
L 360.484232 208.554656 
L 361.570033 206.930874 
L 363.741636 217.02079 
L 364.827437 217.467166 
L 365.913238 213.15853 
L 366.999039 220.658844 
L 368.08484 219.910302 
L 369.170642 224.847998 
L 371.342244 231.164249 
L 372.428045 229.954325 
L 373.513846 242.340634 
L 374.599647 238.604559 
L 376.77125 241.622554 
L 377.857051 245.266353 
L 378.942852 246.847631 
L 380.028653 250.519646 
L 381.114454 251.269411 
L 382.200255 256.247235 
L 383.286057 257.611306 
L 384.371858 259.414256 
L 385.457659 262.574128 
L 386.54346 264.11199 
L 388.715062 269.700937 
L 389.800863 274.265394 
L 390.886665 274.608477 
L 391.972466 277.383753 
L 393.058267 281.32608 
L 394.144068 282.462907 
L 396.31567 287.790457 
L 397.401472 290.249745 
L 398.487273 295.488 
L 398.487273 295.488 
" clip-path="url(#pbb8b11459e)" style="fill: none; stroke: #ff7f0e; stroke-width: 1.5; stroke-linecap: square"/>
   </g>
   <g id="patch_3">
    <path d="M 57.6 307.584 
L 57.6 41.472 
" style="fill: none; stroke: #000000; stroke-width: 0.8; stroke-linejoin: miter; stroke-linecap: square"/>
   </g>
   <g id="patch_4">
    <path d="M 414.72 307.584 
L 414.72 41.472 
" style="fill: none; stroke: #000000; stroke-width: 0.8; stroke-linejoin: miter; stroke-linecap: square"/>
   </g>
   <g id="patch_5">
    <path d="M 57.6 307.584 
L 414.72 307.584 
" style="fill: none; stroke: #000000; stroke-width: 0.8; stroke-linejoin: miter; stroke-linecap: square"/>
   </g>
   <g id="patch_6">
    <path d="M 57.6 41.472 
L 414.72 41.472 
" style="fill: none; stroke: #000000; stroke-width: 0.8; stroke-linejoin: miter; stroke-linecap: square"/>
   </g>
  </g>
 </g>
 <defs>
  <clipPath id="pbb8b11459e">
   <rect x="57.6" y="41.472" width="357.12" height="266.112"/>
  </clipPath>
 </defs>
</svg>
