<?xml version="1.0" encoding="utf-8" standalone="no"?>
<!DOCTYPE svg PUBLIC "-//W3C//DTD SVG 1.1//EN"
  "http://www.w3.org/Graphics/SVG/1.1/DTD/svg11.dtd">
<svg xmlns:xlink="http://www.w3.org/1999/xlink" width="460.8pt" height="345.6pt" viewBox="0 0 460.8 345.6" xmlns="http://www.w3.org/2000/svg" version="1.1">
 <metadata>
  <rdf:RDF xmlns:dc="http://purl.org/dc/elements/1.1/" xmlns:cc="http://creativecommons.org/ns#" xmlns:rdf="http://www.w3.org/1999/02/22-rdf-syntax-ns#">
   <cc:Work>
    <dc:type rdf:resource="http://purl.org/dc/dcmitype/StillImage"/>
    <dc:date>2025-11-06T02:08:37.381928</dc:date>
    <dc:format>image/svg+xml</dc:format>
    <dc:creator>
     <cc:Agent>
      <dc:title>Matplotlib v3.10.7, https://matplotlib.org/</dc:title>
     </cc:Agent>
    </dc:creator>
   </cc:Work>
  </rdf:RDF>
 </metadata>
 <defs>
  <style type="text/css">*{stroke-linejoin: round; stroke-linecap: butt}</style>
 </defs>
 <g id="figure_1">
  <g id="patch_1">
   <path d="M 0 345.6 
L 460.8 345.6 
L 460.8 0 
L 0 0 
z
" style="fill: #ffffff"/>
  </g>
  <g id="axes_1">
   <g id="patch_2">
    <path d="M 57.6 307.584 
L 414.72 307.584 
L 414.72 41.472 
L 57.6 41.472 
z
" style="fill: #ffffff"/>
   </g>
   <g id="matplotlib.axis_1">
    <g id="xtick_1">
     <g id="line2d_1">
      <defs>
       <path id="mf931aebfbf" d="M 0 0 
L 0 3.5 
" style="stroke: #000000; stroke-width: 0.8"/>
      </defs>
      <g>
       <use xlink:href="#mf931aebfbf" x="73.832727" y="307.584" style="stroke: #000000; stroke-width: 0.8"/>
      </g>
     </g>
     <g id="text_1">
      <!-- 0 -->
      <g transform="translate(70.651477 322.182437) scale(0.1 -0.1)">
       <defs>
        <path id="DejaVuSans-30" d="M 2034 4250 
Q 1547 4250 1301 3770 
Q 1056 3291 1056 2328 
Q 1056 1369 1301 889 
Q 1547 409 2034 409 
Q 2525 409 2770 889 
Q 3016 1369 3016 2328 
Q 3016 3291 2770 3770 
Q 2525 4250 2034 4250 
z
M 2034 4750 
Q 2819 4750 3233 4129 
Q 3647 3509 3647 2328 
Q 3647 1150 3233 529 
Q 2819 -91 2034 -91 
Q 1250 -91 836 529 
Q 422 1150 422 2328 
Q 422 3509 836 4129 
Q 1250 4750 2034 4750 
z
" transform="scale(0.015625)"/>
       </defs>
       <use xlink:href="#DejaVuSans-30"/>
      </g>
     </g>
    </g>
    <g id="xtick_2">
     <g id="line2d_2">
      <g>
       <use xlink:href="#mf931aebfbf" x="146.058433" y="307.584" style="stroke: #000000; stroke-width: 0.8"/>
      </g>
     </g>
     <g id="text_2">
      <!-- 2 -->
      <g transform="translate(142.877183 322.182437) scale(0.1 -0.1)">
       <defs>
        <path id="DejaVuSans-32" d="M 1228 531 
L 3431 531 
L 3431 0 
L 469 0 
L 469 531 
Q 828 903 1448 1529 
Q 2069 2156 2228 2338 
Q 2531 2678 2651 2914 
Q 2772 3150 2772 3378 
Q 2772 3750 2511 3984 
Q 2250 4219 1831 4219 
Q 1534 4219 1204 4116 
Q 875 4013 500 3803 
L 500 4441 
Q 881 4594 1212 4672 
Q 1544 4750 1819 4750 
Q 2544 4750 2975 4387 
Q 3406 4025 3406 3419 
Q 3406 3131 3298 2873 
Q 3191 2616 2906 2266 
Q 2828 2175 2409 1742 
Q 1991 1309 1228 531 
z
" transform="scale(0.015625)"/>
       </defs>
       <use xlink:href="#DejaVuSans-32"/>
      </g>
     </g>
    </g>
    <g id="xtick_3">
     <g id="line2d_3">
      <g>
       <use xlink:href="#mf931aebfbf" x="218.284138" y="307.584" style="stroke: #000000; stroke-width: 0.8"/>
      </g>
     </g>
     <g id="text_3">
      <!-- 4 -->
      <g transform="translate(215.102888 322.182437) scale(0.1 -0.1)">
       <defs>
        <path id="DejaVuSans-34" d="M 2419 4116 
L 825 1625 
L 2419 1625 
L 2419 4116 
z
M 2253 4666 
L 3047 4666 
L 3047 1625 
L 3713 1625 
L 3713 1100 
L 3047 1100 
L 3047 0 
L 2419 0 
L 2419 1100 
L 313 1100 
L 313 1709 
L 2253 4666 
z
" transform="scale(0.015625)"/>
       </defs>
       <use xlink:href="#DejaVuSans-34"/>
      </g>
     </g>
    </g>
    <g id="xtick_4">
     <g id="line2d_4">
      <g>
       <use xlink:href="#mf931aebfbf" x="290.509843" y="307.584" style="stroke: #000000; stroke-width: 0.8"/>
      </g>
     </g>
     <g id="text_4">
      <!-- 6 -->
      <g transform="translate(287.328593 322.182437) scale(0.1 -0.1)">
       <defs>
        <path id="DejaVuSans-36" d="M 2113 2584 
Q 1688 2584 1439 2293 
Q 1191 2003 1191 1497 
Q 1191 994 1439 701 
Q 1688 409 2113 409 
Q 2538 409 2786 701 
Q 3034 994 3034 1497 
Q 3034 2003 2786 2293 
Q 2538 2584 2113 2584 
z
M 3366 4563 
L 3366 3988 
Q 3128 4100 2886 4159 
Q 2644 4219 2406 4219 
Q 1781 4219 1451 3797 
Q 1122 3375 1075 2522 
Q 1259 2794 1537 2939 
Q 1816 3084 2150 3084 
Q 2853 3084 3261 2657 
Q 3669 2231 3669 1497 
Q 3669 778 3244 343 
Q 2819 -91 2113 -91 
Q 1303 -91 875 529 
Q 447 1150 447 2328 
Q 447 3434 972 4092 
Q 1497 4750 2381 4750 
Q 2619 4750 2861 4703 
Q 3103 4656 3366 4563 
z
" transform="scale(0.015625)"/>
       </defs>
       <use xlink:href="#DejaVuSans-36"/>
      </g>
     </g>
    </g>
    <g id="xtick_5">
     <g id="line2d_5">
      <g>
       <use xlink:href="#mf931aebfbf" x="362.735549" y="307.584" style="stroke: #000000; stroke-width: 0.8"/>
      </g>
     </g>
     <g id="text_5">
      <!-- 8 -->
      <g transform="translate(359.554299 322.182437) scale(0.1 -0.1)">
       <defs>
        <path id="DejaVuSans-38" d="M 2034 2216 
Q 1584 2216 1326 1975 
Q 1069 1734 1069 1313 
Q 1069 891 1326 650 
Q 1584 409 2034 409 
Q 2484 409 2743 651 
Q 3003 894 3003 1313 
Q 3003 1734 2745 1975 
Q 2488 2216 2034 2216 
z
M 1403 2484 
Q 997 2584 770 2862 
Q 544 3141 544 3541 
Q 544 4100 942 4425 
Q 1341 4750 2034 4750 
Q 2731 4750 3128 4425 
Q 3525 4100 3525 3541 
Q 3525 3141 3298 2862 
Q 3072 2584 2669 2484 
Q 3125 2378 3379 2068 
Q 3634 1759 3634 1313 
Q 3634 634 3220 271 
Q 2806 -91 2034 -91 
Q 1263 -91 848 271 
Q 434 634 434 1313 
Q 434 1759 690 2068 
Q 947 2378 1403 2484 
z
M 1172 3481 
Q 1172 3119 1398 2916 
Q 1625 2713 2034 2713 
Q 2441 2713 2670 2916 
Q 2900 3119 2900 3481 
Q 2900 3844 2670 4047 
Q 2441 4250 2034 4250 
Q 1625 4250 1398 4047 
Q 1172 3844 1172 3481 
z
" transform="scale(0.015625)"/>
       </defs>
       <use xlink:href="#DejaVuSans-38"/>
      </g>
     </g>
    </g>
   </g>
   <g id="matplotlib.axis_2">
    <g id="ytick_1">
     <g id="line2d_6">
      <defs>
       <path id="m7d69e4b4a0" d="M 0 0 
L -3.5 0 
" style="stroke: #000000; stroke-width: 0.8"/>
      </defs>
      <g>
       <use xlink:href="#m7d69e4b4a0" x="57.6" y="295.488" style="stroke: #000000; stroke-width: 0.8"/>
      </g>
     </g>
     <g id="text_6">
      <!-- 0.0 -->
      <g transform="translate(34.696875 299.287219) scale(0.1 -0.1)">
       <defs>
        <path id="DejaVuSans-2e" d="M 684 794 
L 1344 794 
L 1344 0 
L 684 0 
L 684 794 
z
" transform="scale(0.015625)"/>
       </defs>
       <use xlink:href="#DejaVuSans-30"/>
       <use xlink:href="#DejaVuSans-2e" transform="translate(63.623047 0)"/>
       <use xlink:href="#DejaVuSans-30" transform="translate(95.410156 0)"/>
      </g>
     </g>
    </g>
    <g id="ytick_2">
     <g id="line2d_7">
      <g>
       <use xlink:href="#m7d69e4b4a0" x="57.6" y="247.104" style="stroke: #000000; stroke-width: 0.8"/>
      </g>
     </g>
     <g id="text_7">
      <!-- 0.2 -->
      <g transform="translate(34.696875 250.903219) scale(0.1 -0.1)">
       <use xlink:href="#DejaVuSans-30"/>
       <use xlink:href="#DejaVuSans-2e" transform="translate(63.623047 0)"/>
       <use xlink:href="#DejaVuSans-32" transform="translate(95.410156 0)"/>
      </g>
     </g>
    </g>
    <g id="ytick_3">
     <g id="line2d_8">
      <g>
       <use xlink:href="#m7d69e4b4a0" x="57.6" y="198.72" style="stroke: #000000; stroke-width: 0.8"/>
      </g>
     </g>
     <g id="text_8">
      <!-- 0.4 -->
      <g transform="translate(34.696875 202.519219) scale(0.1 -0.1)">
       <use xlink:href="#DejaVuSans-30"/>
       <use xlink:href="#DejaVuSans-2e" transform="translate(63.623047 0)"/>
       <use xlink:href="#DejaVuSans-34" transform="translate(95.410156 0)"/>
      </g>
     </g>
    </g>
    <g id="ytick_4">
     <g id="line2d_9">
      <g>
       <use xlink:href="#m7d69e4b4a0" x="57.6" y="150.336" style="stroke: #000000; stroke-width: 0.8"/>
      </g>
     </g>
     <g id="text_9">
      <!-- 0.6 -->
      <g transform="translate(34.696875 154.135219) scale(0.1 -0.1)">
       <use xlink:href="#DejaVuSans-30"/>
       <use xlink:href="#DejaVuSans-2e" transform="translate(63.623047 0)"/>
       <use xlink:href="#DejaVuSans-36" transform="translate(95.410156 0)"/>
      </g>
     </g>
    </g>
    <g id="ytick_5">
     <g id="line2d_10">
      <g>
       <use xlink:href="#m7d69e4b4a0" x="57.6" y="101.952" style="stroke: #000000; stroke-width: 0.8"/>
      </g>
     </g>
     <g id="text_10">
      <!-- 0.8 -->
      <g transform="translate(34.696875 105.751219) scale(0.1 -0.1)">
       <use xlink:href="#DejaVuSans-30"/>
       <use xlink:href="#DejaVuSans-2e" transform="translate(63.623047 0)"/>
       <use xlink:href="#DejaVuSans-38" transform="translate(95.410156 0)"/>
      </g>
     </g>
    </g>
    <g id="ytick_6">
     <g id="line2d_11">
      <g>
       <use xlink:href="#m7d69e4b4a0" x="57.6" y="53.568" style="stroke: #000000; stroke-width: 0.8"/>
      </g>
     </g>
     <g id="text_11">
      <!-- 1.0 -->
      <g transform="translate(34.696875 57.367219) scale(0.1 -0.1)">
       <defs>
        <path id="DejaVuSans-31" d="M 794 531 
L 1825 531 
L 1825 4091 
L 703 3866 
L 703 4441 
L 1819 4666 
L 2450 4666 
L 2450 531 
L 3481 531 
L 3481 0 
L 794 0 
L 794 531 
z
" transform="scale(0.015625)"/>
       </defs>
       <use xlink:href="#DejaVuSans-31"/>
       <use xlink:href="#DejaVuSans-2e" transform="translate(63.623047 0)"/>
       <use xlink:href="#DejaVuSans-30" transform="translate(95.410156 0)"/>
      </g>
     </g>
    </g>
   </g>
   <g id="line2d_12">
    <path d="M 73.832727 295.488 
L 75.999498 258.329358 
L 78.16627 225.498617 
L 79.971912 201.172056 
L 81.777555 179.38481 
L 83.583197 159.947055 
L 85.38884 142.68144 
L 87.194483 127.422326 
L 89.000125 114.015065 
L 90.805768 102.315319 
L 92.611411 92.188426 
L 94.417053 83.508796 
L 95.861567 77.528172 
L 97.306082 72.342466 
L 98.750596 67.898536 
L 100.19511 64.146182 
L 101.639624 61.038004 
L 103.084138 58.529253 
L 104.167524 57.01557 
L 105.250909 55.798335 
L 106.334295 54.861346 
L 107.41768 54.189103 
L 108.501066 53.766775 
L 109.584451 53.580177 
L 110.667837 53.615744 
L 111.751223 53.860507 
L 112.834608 54.302069 
L 114.279122 55.176553 
L 115.723636 56.353275 
L 117.16815 57.807187 
L 118.973793 59.978643 
L 120.779436 62.503633 
L 122.946207 65.944675 
L 125.474107 70.447241 
L 128.363135 76.127445 
L 131.613292 83.058382 
L 135.585705 92.103055 
L 141.002633 105.07725 
L 159.781317 150.636717 
L 165.198245 162.955699 
L 170.254044 173.894251 
L 174.948715 183.5185 
L 179.282257 191.923904 
L 183.615799 199.860101 
L 187.949342 207.325728 
L 192.282884 214.325727 
L 196.255298 220.34169 
L 200.227712 225.98499 
L 204.200125 231.267989 
L 208.172539 236.204515 
L 212.144953 240.809428 
L 216.117367 245.098248 
L 220.089781 249.086862 
L 224.423323 253.114502 
L 228.756865 256.824584 
L 233.090408 260.237427 
L 237.42395 263.372813 
L 241.757492 266.249851 
L 246.452163 269.096351 
L 251.146834 271.683348 
L 256.202633 274.203155 
L 261.258433 276.470858 
L 266.675361 278.646725 
L 272.092288 280.585405 
L 277.870345 282.418744 
L 284.00953 284.13017 
L 290.509843 285.707735 
L 297.371285 287.144004 
L 304.954984 288.495032 
L 312.899812 289.6831 
L 321.566897 290.756158 
L 331.317367 291.733638 
L 342.151223 292.589675 
L 354.429592 293.330657 
L 368.513605 293.954042 
L 385.486646 294.474052 
L 398.487273 294.751083 
L 398.487273 294.751083 
" clip-path="url(#pd107a10e3e)" style="fill: none; stroke: #1f77b4; stroke-width: 1.5; stroke-linecap: square"/>
   </g>
   <g id="line2d_13">
    <path d="M 73.832727 295.488 
L 75.277241 269.553537 
L 75.63837 266.954899 
L 75.999498 260.169046 
L 76.360627 248.016942 
L 76.721755 245.850893 
L 77.444013 237.209074 
L 77.805141 222.906011 
L 78.16627 227.821441 
L 78.527398 223.474989 
L 78.888527 226.116226 
L 79.610784 211.233511 
L 79.971912 200.87412 
L 80.333041 202.265512 
L 80.694169 198.113662 
L 81.416426 172.094421 
L 81.777555 174.816732 
L 82.138683 173.536405 
L 82.499812 180.379336 
L 82.86094 163.370577 
L 83.222069 156.562856 
L 83.583197 157.158451 
L 83.944326 160.364519 
L 84.305455 159.984613 
L 84.666583 146.035691 
L 85.38884 137.834503 
L 85.749969 136.03128 
L 86.111097 138.778554 
L 86.472226 114.661433 
L 86.833354 127.056908 
L 87.194483 114.04659 
L 87.555611 120.780983 
L 87.91674 115.202216 
L 88.277868 117.647681 
L 88.638997 118.392302 
L 89.000125 105.771839 
L 89.361254 130.414413 
L 89.722382 110.294712 
L 90.083511 110.22591 
L 90.444639 105.646735 
L 90.805768 108.614913 
L 91.166897 99.922168 
L 91.889154 88.419926 
L 92.250282 97.547122 
L 92.611411 100.885943 
L 92.972539 83.612474 
L 93.333668 83.593549 
L 93.694796 100.642925 
L 94.055925 79.008095 
L 94.417053 93.67743 
L 94.778182 77.236829 
L 95.13931 73.495734 
L 95.500439 75.465522 
L 95.861567 90.704472 
L 96.583824 77.334538 
L 96.944953 76.28094 
L 97.66721 69.156884 
L 98.028339 73.84293 
L 98.389467 80.039674 
L 98.750596 63.026483 
L 99.111724 65.743591 
L 99.472853 57.035426 
L 99.833981 67.070258 
L 100.19511 59.159729 
L 100.556238 79.140596 
L 100.917367 52.301663 
L 101.278495 61.704278 
L 101.639624 60.064836 
L 102.000752 60.043225 
L 102.361881 60.580887 
L 102.723009 59.424033 
L 103.084138 56.635449 
L 103.445266 51.151067 
L 103.806395 59.307962 
L 104.167524 56.227606 
L 104.528652 54.27022 
L 104.889781 57.735667 
L 105.250909 55.225988 
L 105.612038 58.806579 
L 105.973166 52.991701 
L 106.334295 58.246982 
L 106.695423 46.962695 
L 107.056552 56.601111 
L 107.41768 49.748412 
L 107.778809 47.783379 
L 108.139937 64.689791 
L 108.501066 53.084356 
L 108.862194 53.856731 
L 109.223323 53.739099 
L 109.584451 45.959811 
L 109.94558 58.505143 
L 109.94558 346.6 
M 110.730722 346.6 
L 110.730722 -1 
M 111.029018 -1 
L 111.029018 346.6 
M 111.390094 346.6 
L 111.390094 -1 
M 112.47348 -1 
L 112.47348 346.6 
M 113.195737 346.6 
L 113.195737 -1 
M 115.001379 -1 
L 115.001379 346.6 
M 116.445893 346.6 
L 116.445893 -1 
M 117.16815 -1 
L 117.16815 346.6 
M 117.168173 346.6 
L 117.168173 -1 
M 117.890408 -1 
L 117.890408 346.6 
M 118.973793 346.6 
L 118.973793 -1 
M 119.334922 -1 
L 119.334922 346.6 
M 120.057179 346.6 
L 120.057179 -1 
M 120.057179 -1 
L 120.057179 346.6 
M 121.140275 346.6 
L 121.140275 -1 
M 121.140564 -1 
L 121.140564 346.6 
M 126.196364 346.6 
L 126.196364 -1 
M 127.640878 -1 
L 127.640878 346.6 
M 128.002006 346.6 
L 128.002006 -1 
M 128.883687 -1 
L 128.883687 346.6 
M 129.088659 346.6 
L 129.088659 -1 
M 130.147934 -1 
L 130.147934 346.6 
M 133.057806 346.6 
L 133.057806 -1 
M 133.057806 -1 
L 133.057806 346.6 
M 133.780063 346.6 
L 133.780063 -1 
M 133.780063 -1 
L 133.780063 346.6 
M 135.946834 346.6 
L 135.946834 -1 
M 136.669091 -1 
L 136.669091 346.6 
M 137.752476 346.6 
L 137.752476 -1 
M 137.752476 -1 
L 137.752476 346.6 
M 139.196991 346.6 
L 139.196991 -1 
M 139.558119 -1 
L 139.558119 346.6 
M 139.558119 346.6 
L 139.558119 -1 
M 140.280376 -1 
L 140.280376 346.6 
M 141.002633 346.6 
L 141.002633 -1 
M 141.002633 -1 
L 141.002633 346.6 
M 141.363762 346.6 
L 141.363762 -1 
M 143.530533 -1 
L 143.530533 346.6 
M 143.530533 346.6 
L 143.530533 -1 
M 144.25279 -1 
L 144.25279 346.6 
M 144.975047 346.6 
L 144.975047 -1 
M 146.058433 -1 
L 146.058433 346.6 
M 146.419925 346.6 
L 146.419925 -1 
M 147.141811 -1 
L 147.141811 346.6 
M 147.141818 346.6 
L 147.141818 -1 
M 147.864076 -1 
L 147.864076 346.6 
M 148.225205 346.6 
L 148.225205 -1 
M 149.308589 -1 
L 149.308589 346.6 
M 149.669718 346.6 
L 149.669718 -1 
M 150.753103 -1 
L 150.753103 346.6 
M 150.753103 346.6 
L 150.753103 -1 
M 151.475361 -1 
L 151.475361 346.6 
M 152.536534 346.6 
L 152.536534 -1 
M 152.919875 -1 
L 152.919875 346.6 
M 153.642132 346.6 
L 153.642132 -1 
M 155.447774 -1 
L 155.447774 346.6 
M 156.16995 346.6 
L 156.16995 -1 
M 156.892288 -1 
L 156.892288 346.6 
M 157.614545 346.6 
L 157.614545 -1 
M 157.614545 -1 
L 157.614545 346.6 
M 158.697931 346.6 
L 158.697931 -1 
M 158.697931 -1 
L 158.697931 346.6 
M 159.420188 346.6 
L 159.420188 -1 
M 159.781317 -1 
L 159.781317 346.6 
M 160.503574 346.6 
L 160.503574 -1 
M 161.225831 -1 
L 161.225831 346.6 
M 162.309231 346.6 
L 162.309231 -1 
M 163.392602 -1 
L 163.392602 346.6 
M 163.392602 346.6 
L 163.392602 -1 
M 164.836606 -1 
L 164.836606 346.6 
M 164.837116 346.6 
L 164.837116 -1 
M 165.92045 -1 
L 165.92045 346.6 
M 166.642758 346.6 
L 166.642758 -1 
M 166.642759 -1 
L 166.642759 346.6 
M 167.003887 346.6 
L 167.003887 -1 
M 167.726144 -1 
L 167.726144 346.6 
M 168.448401 346.6 
L 168.448401 -1 
M 169.463862 -1 
L 169.463862 346.6 
M 169.892907 346.6 
L 169.892907 -1 
M 169.892915 -1 
L 169.892915 346.6 
M 170.976301 346.6 
L 170.976301 -1 
M 172.421012 -1 
L 172.421012 346.6 
M 172.781952 346.6 
L 172.781952 -1 
M 173.865329 -1 
L 173.865329 346.6 
M 174.587586 346.6 
L 174.587586 -1 
M 174.948715 -1 
L 174.948715 346.6 
M 174.948715 346.6 
L 174.948715 -1 
M 175.670972 -1 
L 175.670972 346.6 
M 175.670973 346.6 
L 175.670973 -1 
M 176.0321 -1 
L 176.0321 346.6 
M 176.393229 346.6 
L 176.393229 -1 
M 177.476614 -1 
L 177.476614 346.6 
M 177.837743 346.6 
L 177.837743 -1 
M 178.800051 -1 
L 178.800051 346.6 
M 178.921129 346.6 
L 178.921129 -1 
M 180.078599 -1 
L 180.078599 346.6 
M 180.365643 346.6 
L 180.365643 -1 
M 183.254671 -1 
L 183.254671 346.6 
M 183.976926 346.6 
L 183.976926 -1 
M 184.338056 -1 
L 184.338056 346.6 
M 184.699161 346.6 
L 184.699161 -1 
M 185.782571 -1 
L 185.782571 346.6 
M 185.782571 346.6 
L 185.782571 -1 
M 186.865956 -1 
L 186.865956 346.6 
M 187.949342 346.6 
L 187.949342 -1 
M 189.393856 -1 
L 189.393856 346.6 
M 189.788652 346.6 
L 189.788652 -1 
M 190.144407 -1 
L 190.144407 346.6 
M 191.001057 346.6 
L 191.001057 -1 
M 191.560627 -1 
L 191.560627 346.6 
M 191.560627 346.6 
L 191.560627 -1 
M 192.282884 -1 
L 192.282884 346.6 
M 194.088527 346.6 
L 194.088527 -1 
M 194.449655 -1 
L 194.449655 346.6 
M 195.171912 346.6 
L 195.171912 -1 
M 195.894162 -1 
L 195.894162 346.6 
M 196.255298 346.6 
L 196.255298 -1 
M 196.977555 -1 
L 196.977555 346.6 
M 196.977555 346.6 
L 196.977555 -1 
M 197.699812 -1 
L 197.699812 346.6 
M 198.06094 346.6 
L 198.06094 -1 
M 198.062617 -1 
L 198.062617 346.6 
M 198.783197 346.6 
L 198.783197 -1 
M 198.783197 -1 
L 198.783197 346.6 
M 199.504914 346.6 
L 199.504914 -1 
M 199.505455 -1 
L 199.505455 346.6 
M 200.58884 346.6 
L 200.58884 -1 
M 201.311097 -1 
L 201.311097 346.6 
M 202.033509 346.6 
L 202.033509 -1 
M 202.755611 -1 
L 202.755611 346.6 
M 202.755611 346.6 
L 202.755611 -1 
M 203.11674 -1 
L 203.11674 346.6 
M 204.200125 346.6 
L 204.200125 -1 
M 204.922306 -1 
L 204.922306 346.6 
M 204.922382 346.6 
L 204.922382 -1 
M 205.644639 -1 
L 205.644639 346.6 
M 207.811411 346.6 
L 207.811411 -1 
M 208.533668 -1 
L 208.533668 346.6 
M 209.255925 346.6 
L 209.255925 -1 
M 209.255925 -1 
L 209.255925 346.6 
M 210.33931 346.6 
L 210.33931 -1 
M 210.33931 -1 
L 210.33931 346.6 
M 211.422694 346.6 
L 211.422694 -1 
M 211.783141 -1 
L 211.783141 346.6 
M 211.783824 346.6 
L 211.783824 -1 
M 212.145082 -1 
L 212.145082 346.6 
M 213.589467 346.6 
L 213.589467 -1 
M 213.589467 -1 
L 213.589467 346.6 
M 214.672853 346.6 
L 214.672853 -1 
M 215.0122 -1 
L 215.0122 346.6 
M 215.39511 346.6 
L 215.39511 -1 
M 216.117367 -1 
L 216.117367 346.6 
M 216.117367 346.6 
L 216.117367 -1 
M 216.697314 -1 
L 216.697314 346.6 
M 217.56188 346.6 
L 217.56188 -1 
M 218.284138 -1 
L 218.284138 346.6 
M 218.284138 346.6 
L 218.284138 -1 
M 219.006395 -1 
L 219.006395 346.6 
M 219.367066 346.6 
L 219.367066 -1 
M 219.367524 -1 
L 219.367524 346.6 
M 220.089781 346.6 
L 220.089781 -1 
M 220.089781 -1 
L 220.089781 346.6 
M 220.812038 346.6 
L 220.812038 -1 
M 221.173166 -1 
L 221.173166 346.6 
M 221.895423 346.6 
L 221.895423 -1 
M 221.895423 -1 
L 221.895423 346.6 
M 222.61768 346.6 
L 222.61768 -1 
M 224.783712 -1 
L 224.783712 346.6 
M 227.189422 346.6 
L 227.189422 -1 
M 227.67348 -1 
L 227.67348 346.6 
M 227.67348 346.6 
L 227.67348 -1 
M 228.395737 -1 
L 228.395737 346.6 
M 229.479122 346.6 
L 229.479122 -1 
M 230.201379 -1 
L 230.201379 346.6 
M 230.201379 346.6 
L 230.201379 -1 
M 230.923636 -1 
L 230.923636 346.6 
M 231.284754 346.6 
L 231.284754 -1 
M 231.284765 -1 
L 231.284765 346.6 
M 232.007022 346.6 
L 232.007022 -1 
M 232.007022 -1 
L 232.007022 346.6 
M 233.052619 346.6 
L 233.052619 -1 
M 233.351404 -1 
L 233.351404 346.6 
M 234.173788 346.6 
L 234.173788 -1 
M 235.259321 -1 
L 235.259321 346.6 
M 235.618307 346.6 
L 235.618307 -1 
M 236.701693 -1 
L 236.701693 346.6 
M 238.868463 346.6 
L 238.868463 -1 
M 239.229546 -1 
L 239.229546 346.6 
M 239.586648 346.6 
L 239.586648 -1 
M 239.95185 -1 
L 239.95185 346.6 
M 239.95185 346.6 
L 239.95185 -1 
M 240.312981 -1 
L 240.312981 346.6 
M 241.035235 346.6 
L 241.035235 -1 
M 241.396364 -1 
L 241.396364 346.6 
M 242.118656 346.6 
L 242.118656 -1 
M 243.924263 -1 
L 243.924263 346.6 
M 243.924263 346.6 
L 243.924263 -1 
M 245.007649 -1 
L 245.007649 346.6 
M 245.007649 346.6 
L 245.007649 -1 
M 245.729906 -1 
L 245.729906 346.6 
M 246.452163 346.6 
L 246.452163 -1 
M 246.452163 -1 
L 246.452163 346.6 
M 247.223766 346.6 
L 247.223766 -1 
M 247.896677 -1 
L 247.896677 346.6 
M 248.618934 346.6 
L 248.618934 -1 
M 249.341194 -1 
L 249.341194 346.6 
M 250.063448 346.6 
L 250.063448 -1 
M 252.229296 -1 
L 252.229296 346.6 
M 252.591348 346.6 
L 252.591348 -1 
M 252.952476 -1 
L 252.952476 346.6 
M 253.313605 346.6 
L 253.313605 -1 
M 254.035862 -1 
L 254.035862 346.6 
M 254.758119 346.6 
L 254.758119 -1 
M 254.758119 -1 
L 254.758119 346.6 
M 255.480376 346.6 
L 255.480376 -1 
M 255.480376 -1 
L 255.480376 346.6 
M 256.202633 346.6 
L 256.202633 -1 
M 256.535524 -1 
L 256.535524 346.6 
M 257.286019 346.6 
L 257.286019 -1 
M 258.729415 -1 
L 258.729415 346.6 
M 258.73056 346.6 
L 258.73056 -1 
M 260.536176 -1 
L 260.536176 346.6 
M 260.536176 346.6 
L 260.536176 -1 
M 261.179308 -1 
L 261.179308 346.6 
M 261.619561 346.6 
L 261.619561 -1 
M 263.78632 -1 
L 263.78632 346.6 
M 263.786334 346.6 
L 263.786334 -1 
M 264.508589 -1 
L 264.508589 346.6 
M 264.508594 346.6 
L 264.508594 -1 
M 264.869718 -1 
L 264.869718 346.6 
M 267.036489 346.6 
L 267.036489 -1 
M 267.036489 -1 
L 267.036489 346.6 
M 267.399191 346.6 
L 267.399191 -1 
M 268.119875 -1 
L 268.119875 346.6 
M 268.842132 346.6 
L 268.842132 -1 
M 269.20326 -1 
L 269.20326 346.6 
M 270.286646 346.6 
L 270.286646 -1 
M 270.647774 -1 
L 270.647774 346.6 
M 270.647774 346.6 
L 270.647774 -1 
M 271.008903 -1 
L 271.008903 346.6 
M 272.092288 346.6 
L 272.092288 -1 
M 272.814545 -1 
L 272.814545 346.6 
M 272.814545 346.6 
L 272.814545 -1 
M 273.175676 -1 
L 273.175676 346.6 
M 273.897931 346.6 
L 273.897931 -1 
M 274.259059 -1 
L 274.259059 346.6 
M 274.25906 346.6 
L 274.25906 -1 
M 275.342445 -1 
L 275.342445 346.6 
M 276.064702 346.6 
L 276.064702 -1 
M 276.425831 -1 
L 276.425831 346.6 
M 277.509216 346.6 
L 277.509216 -1 
M 278.231473 -1 
L 278.231473 346.6 
M 279.675987 346.6 
L 279.675987 -1 
M 280.398245 -1 
L 280.398245 346.6 
M 280.398245 346.6 
L 280.398245 -1 
M 281.120502 -1 
L 281.120502 346.6 
M 281.842759 346.6 
L 281.842759 -1 
M 282.203887 -1 
L 282.203887 346.6 
M 282.926144 346.6 
L 282.926144 -1 
M 283.287353 -1 
L 283.287353 346.6 
M 283.648401 346.6 
L 283.648401 -1 
M 284.370658 -1 
L 284.370658 346.6 
M 286.176301 346.6 
L 286.176301 -1 
M 286.176301 -1 
L 286.176301 346.6 
M 287.259687 346.6 
L 287.259687 -1 
M 287.259687 -1 
L 287.259687 346.6 
M 287.981944 346.6 
L 287.981944 -1 
M 289.063026 -1 
L 289.063026 346.6 
M 289.065329 346.6 
L 289.065329 -1 
M 290.148715 -1 
L 290.148715 346.6 
M 290.228068 346.6 
L 290.228068 -1 
M 290.509873 -1 
L 290.509873 346.6 
M 290.870972 346.6 
L 290.870972 -1 
M 291.545558 -1 
L 291.545558 346.6 
M 292.658644 346.6 
L 292.658644 -1 
M 293.037743 -1 
L 293.037743 346.6 
M 294.121129 346.6 
L 294.121129 -1 
M 294.121129 -1 
L 294.121129 346.6 
M 295.204514 346.6 
L 295.204514 -1 
M 297.010157 -1 
L 297.010157 346.6 
M 298.093542 346.6 
L 298.093542 -1 
M 298.886173 -1 
L 298.886173 346.6 
M 299.899185 346.6 
L 299.899185 -1 
M 300.260315 -1 
L 300.260315 346.6 
M 300.982571 346.6 
L 300.982571 -1 
M 300.982571 -1 
L 300.982571 346.6 
M 301.715859 346.6 
L 301.715859 -1 
M 303.149342 -1 
L 303.149342 346.6 
M 303.505469 346.6 
L 303.505469 -1 
M 303.51047 -1 
L 303.51047 346.6 
M 304.593856 346.6 
L 304.593856 -1 
M 305.316113 -1 
L 305.316113 346.6 
M 306.760627 346.6 
L 306.760627 -1 
M 307.129224 -1 
L 307.129224 346.6 
M 307.844013 346.6 
L 307.844013 -1 
M 308.927398 -1 
L 308.927398 346.6 
M 309.649655 346.6 
L 309.649655 -1 
M 310.371912 -1 
L 310.371912 346.6 
M 311.094169 346.6 
L 311.094169 -1 
M 311.816426 -1 
L 311.816426 346.6 
M 312.17757 346.6 
L 312.17757 -1 
M 313.983197 -1 
L 313.983197 346.6 
M 315.427712 346.6 
L 315.427712 -1 
M 315.427712 -1 
L 315.427712 346.6 
M 315.78884 346.6 
L 315.78884 -1 
M 316.511097 -1 
L 316.511097 346.6 
M 316.511097 346.6 
L 316.511097 -1 
M 317.233354 -1 
L 317.233354 346.6 
M 317.955611 346.6 
L 317.955611 -1 
M 319.400125 -1 
L 319.400125 346.6 
M 319.761254 346.6 
L 319.761254 -1 
M 320.832881 -1 
L 320.832881 346.6 
M 321.205768 346.6 
L 321.205768 -1 
M 321.928007 -1 
L 321.928007 346.6 
M 322.289192 346.6 
L 322.289192 -1 
M 323.011411 -1 
L 323.011411 346.6 
M 323.011411 346.6 
L 323.011411 -1 
M 323.733668 -1 
L 323.733668 346.6 
M 324.455925 346.6 
L 324.455925 -1 
M 325.178182 -1 
L 325.178182 346.6 
M 325.53931 346.6 
L 325.53931 -1 
M 326.983824 -1 
L 326.983824 346.6 
M 326.983824 346.6 
L 326.983824 -1 
M 328.789467 -1 
L 328.789467 346.6 
M 328.789467 346.6 
L 328.789467 -1 
M 330.591288 -1 
L 330.591288 346.6 
M 330.956238 346.6 
L 330.956238 -1 
M 331.678495 -1 
L 331.678495 346.6 
M 331.678495 346.6 
L 331.678495 -1 
M 332.400752 -1 
L 332.400752 346.6 
M 332.761895 346.6 
L 332.761895 -1 
M 334.632745 -1 
L 334.632745 346.6 
M 334.97461 346.6 
L 334.97461 -1 
M 336.373166 -1 
L 336.373166 346.6 
M 338.539937 346.6 
L 338.539937 -1 
M 338.901066 -1 
L 338.901066 346.6 
M 338.901066 346.6 
L 338.901066 -1 
M 339.984451 -1 
L 339.984451 346.6 
M 341.067837 346.6 
L 341.067837 -1 
M 341.453201 -1 
L 341.453201 346.6 
M 343.120057 346.6 
L 343.120057 -1 
M 343.956865 -1 
L 343.956865 346.6 
M 344.679122 346.6 
L 344.679122 -1 
M 345.762507 -1 
L 345.762507 346.6 
M 346.123636 346.6 
L 346.123636 -1 
M 346.845893 -1 
L 346.845893 346.6 
M 347.56815 346.6 
L 347.56815 -1 
M 347.929279 -1 
L 347.929279 346.6 
M 348.651536 346.6 
L 348.651536 -1 
M 348.651536 -1 
L 348.651536 346.6 
M 349.373793 346.6 
L 349.373793 -1 
M 350.818467 -1 
L 350.818467 346.6 
M 352.623951 346.6 
L 352.623951 -1 
M 353.346207 -1 
L 353.346207 346.6 
M 353.346207 346.6 
L 353.346207 -1 
M 354.429593 -1 
L 354.429593 346.6 
M 355.15185 346.6 
L 355.15185 -1 
M 355.512978 -1 
L 355.512978 346.6 
M 357.318619 346.6 
L 357.318619 -1 
M 357.679749 -1 
L 357.679749 346.6 
M 358.069497 346.6 
L 358.069497 -1 
M 359.124263 -1 
L 359.124263 346.6 
M 359.84652 346.6 
L 359.84652 -1 
M 360.568934 -1 
L 360.568934 346.6 
M 362.013292 346.6 
L 362.013292 -1 
M 362.735549 -1 
L 362.735549 346.6 
M 363.457799 346.6 
L 363.457799 -1 
M 364.541191 -1 
L 364.541191 346.6 
M 364.541191 346.6 
L 364.541191 -1 
M 365.263448 -1 
L 365.263448 346.6 
M 366.346834 346.6 
L 366.346834 -1 
M 367.430219 -1 
L 367.430219 346.6 
M 367.430219 346.6 
L 367.430219 -1 
M 367.791368 -1 
L 367.791368 346.6 
M 369.235862 346.6 
L 369.235862 -1 
M 369.958119 -1 
L 369.958119 346.6 
M 369.958119 346.6 
L 369.958119 -1 
M 371.763762 -1 
L 371.763762 346.6 
M 372.847147 346.6 
L 372.847147 -1 
M 373.208276 -1 
L 373.208276 346.6 
M 374.291661 346.6 
L 374.291661 -1 
M 375.013918 -1 
L 375.013918 346.6 
M 375.375047 346.6 
L 375.375047 -1 
M 378.264075 -1 
L 378.264075 346.6 
M 378.986332 346.6 
L 378.986332 -1 
M 378.986332 -1 
L 378.986332 346.6 
M 380.069718 346.6 
L 380.069718 -1 
M 380.791975 -1 
L 380.791975 346.6 
M 381.153103 346.6 
L 381.153103 -1 
M 381.875361 -1 
L 381.875361 346.6 
M 382.958746 346.6 
L 382.958746 -1 
M 383.681003 -1 
L 383.681003 346.6 
M 384.764388 346.6 
L 384.764388 -1 
M 385.124505 -1 
L 385.124505 346.6 
M 385.847774 346.6 
L 385.847774 -1 
M 387.653417 -1 
L 387.653417 346.6 
M 388.736802 346.6 
L 388.736802 -1 
M 389.81825 -1 
L 389.81825 346.6 
M 389.820188 346.6 
L 389.820188 -1 
M 390.542445 -1 
L 390.542445 346.6 
M 391.625762 346.6 
L 391.625762 -1 
M 392.348088 -1 
L 392.348088 346.6 
M 392.442215 346.6 
L 392.442215 -1 
M 393.431473 -1 
L 393.431473 346.6 
M 394.151983 346.6 
L 394.151983 -1 
M 394.514828 -1 
L 394.514828 346.6 
M 394.875987 346.6 
L 394.875987 -1 
M 395.598245 -1 
L 395.598245 346.6 
M 395.598245 346.6 
L 395.598245 -1 
M 396.320502 -1 
L 396.320502 346.6 
M 397.042759 346.6 
L 397.042759 -1 
M 398.126144 -1 
L 398.126144 346.6 
L 398.126144 346.6 
" clip-path="url(#pd107a10e3e)" style="fill: none; stroke: #ff7f0e; stroke-width: 1.5; stroke-linecap: square"/>
   </g>
   <g id="patch_3">
    <path d="M 57.6 307.584 
L 57.6 41.472 
" style="fill: none; stroke: #000000; stroke-width: 0.8; stroke-linejoin: miter; stroke-linecap: square"/>
   </g>
   <g id="patch_4">
    <path d="M 414.72 307.584 
L 414.72 41.472 
" style="fill: none; stroke: #000000; stroke-width: 0.8; stroke-linejoin: miter; stroke-linecap: square"/>
   </g>
   <g id="patch_5">
    <path d="M 57.6 307.584 
L 414.72 307.584 
" style="fill: none; stroke: #000000; stroke-width: 0.8; stroke-linejoin: miter; stroke-linecap: square"/>
   </g>
   <g id="patch_6">
    <path d="M 57.6 41.472 
L 414.72 41.472 
" style="fill: none; stroke: #000000; stroke-width: 0.8; stroke-linejoin: miter; stroke-linecap: square"/>
   </g>
  </g>
 </g>
 <defs>
  <clipPath id="pd107a10e3e">
   <rect x="57.6" y="41.472" width="357.12" height="266.112"/>
  </clipPath>
 </defs>
</svg>
