<?xml version="1.0" encoding="utf-8" standalone="no"?>
<!DOCTYPE svg PUBLIC "-//W3C//DTD SVG 1.1//EN"
  "http://www.w3.org/Graphics/SVG/1.1/DTD/svg11.dtd">
<svg xmlns:xlink="http://www.w3.org/1999/xlink" width="460.8pt" height="345.6pt" viewBox="0 0 460.8 345.6" xmlns="http://www.w3.org/2000/svg" version="1.1">
 <metadata>
  <rdf:RDF xmlns:dc="http://purl.org/dc/elements/1.1/" xmlns:cc="http://creativecommons.org/ns#" xmlns:rdf="http://www.w3.org/1999/02/22-rdf-syntax-ns#">
   <cc:Work>
    <dc:type rdf:resource="http://purl.org/dc/dcmitype/StillImage"/>
    <dc:date>2025-11-06T01:29:44.170328</dc:date>
    <dc:format>image/svg+xml</dc:format>
    <dc:creator>
     <cc:Agent>
      <dc:title>Matplotlib v3.10.7, https://matplotlib.org/</dc:title>
     </cc:Agent>
    </dc:creator>
   </cc:Work>
  </rdf:RDF>
 </metadata>
 <defs>
  <style type="text/css">*{stroke-linejoin: round; stroke-linecap: butt}</style>
 </defs>
 <g id="figure_1">
  <g id="patch_1">
   <path d="M 0 345.6 
L 460.8 345.6 
L 460.8 0 
L 0 0 
z
" style="fill: #ffffff"/>
  </g>
  <g id="axes_1">
   <g id="patch_2">
    <path d="M 57.6 307.584 
L 414.72 307.584 
L 414.72 41.472 
L 57.6 41.472 
z
" style="fill: #ffffff"/>
   </g>
   <g id="matplotlib.axis_1">
    <g id="xtick_1">
     <g id="line2d_1">
      <defs>
       <path id="m6b6ed00a65" d="M 0 0 
L 0 3.5 
" style="stroke: #000000; stroke-width: 0.8"/>
      </defs>
      <g>
       <use xlink:href="#m6b6ed00a65" x="73.832727" y="307.584" style="stroke: #000000; stroke-width: 0.8"/>
      </g>
     </g>
     <g id="text_1">
      <!-- 0 -->
      <g transform="translate(70.651477 322.182437) scale(0.1 -0.1)">
       <defs>
        <path id="DejaVuSans-30" d="M 2034 4250 
Q 1547 4250 1301 3770 
Q 1056 3291 1056 2328 
Q 1056 1369 1301 889 
Q 1547 409 2034 409 
Q 2525 409 2770 889 
Q 3016 1369 3016 2328 
Q 3016 3291 2770 3770 
Q 2525 4250 2034 4250 
z
M 2034 4750 
Q 2819 4750 3233 4129 
Q 3647 3509 3647 2328 
Q 3647 1150 3233 529 
Q 2819 -91 2034 -91 
Q 1250 -91 836 529 
Q 422 1150 422 2328 
Q 422 3509 836 4129 
Q 1250 4750 2034 4750 
z
" transform="scale(0.015625)"/>
       </defs>
       <use xlink:href="#DejaVuSans-30"/>
      </g>
     </g>
    </g>
    <g id="xtick_2">
     <g id="line2d_2">
      <g>
       <use xlink:href="#m6b6ed00a65" x="128.032151" y="307.584" style="stroke: #000000; stroke-width: 0.8"/>
      </g>
     </g>
     <g id="text_2">
      <!-- 1 -->
      <g transform="translate(124.850901 322.182437) scale(0.1 -0.1)">
       <defs>
        <path id="DejaVuSans-31" d="M 794 531 
L 1825 531 
L 1825 4091 
L 703 3866 
L 703 4441 
L 1819 4666 
L 2450 4666 
L 2450 531 
L 3481 531 
L 3481 0 
L 794 0 
L 794 531 
z
" transform="scale(0.015625)"/>
       </defs>
       <use xlink:href="#DejaVuSans-31"/>
      </g>
     </g>
    </g>
    <g id="xtick_3">
     <g id="line2d_3">
      <g>
       <use xlink:href="#m6b6ed00a65" x="182.231574" y="307.584" style="stroke: #000000; stroke-width: 0.8"/>
      </g>
     </g>
     <g id="text_3">
      <!-- 2 -->
      <g transform="translate(179.050324 322.182437) scale(0.1 -0.1)">
       <defs>
        <path id="DejaVuSans-32" d="M 1228 531 
L 3431 531 
L 3431 0 
L 469 0 
L 469 531 
Q 828 903 1448 1529 
Q 2069 2156 2228 2338 
Q 2531 2678 2651 2914 
Q 2772 3150 2772 3378 
Q 2772 3750 2511 3984 
Q 2250 4219 1831 4219 
Q 1534 4219 1204 4116 
Q 875 4013 500 3803 
L 500 4441 
Q 881 4594 1212 4672 
Q 1544 4750 1819 4750 
Q 2544 4750 2975 4387 
Q 3406 4025 3406 3419 
Q 3406 3131 3298 2873 
Q 3191 2616 2906 2266 
Q 2828 2175 2409 1742 
Q 1991 1309 1228 531 
z
" transform="scale(0.015625)"/>
       </defs>
       <use xlink:href="#DejaVuSans-32"/>
      </g>
     </g>
    </g>
    <g id="xtick_4">
     <g id="line2d_4">
      <g>
       <use xlink:href="#m6b6ed00a65" x="236.430997" y="307.584" style="stroke: #000000; stroke-width: 0.8"/>
      </g>
     </g>
     <g id="text_4">
      <!-- 3 -->
      <g transform="translate(233.249747 322.182437) scale(0.1 -0.1)">
       <defs>
        <path id="DejaVuSans-33" d="M 2597 2516 
Q 3050 2419 3304 2112 
Q 3559 1806 3559 1356 
Q 3559 666 3084 287 
Q 2609 -91 1734 -91 
Q 1441 -91 1130 -33 
Q 819 25 488 141 
L 488 750 
Q 750 597 1062 519 
Q 1375 441 1716 441 
Q 2309 441 2620 675 
Q 2931 909 2931 1356 
Q 2931 1769 2642 2001 
Q 2353 2234 1838 2234 
L 1294 2234 
L 1294 2753 
L 1863 2753 
Q 2328 2753 2575 2939 
Q 2822 3125 2822 3475 
Q 2822 3834 2567 4026 
Q 2313 4219 1838 4219 
Q 1578 4219 1281 4162 
Q 984 4106 628 3988 
L 628 4550 
Q 988 4650 1302 4700 
Q 1616 4750 1894 4750 
Q 2613 4750 3031 4423 
Q 3450 4097 3450 3541 
Q 3450 3153 3228 2886 
Q 3006 2619 2597 2516 
z
" transform="scale(0.015625)"/>
       </defs>
       <use xlink:href="#DejaVuSans-33"/>
      </g>
     </g>
    </g>
    <g id="xtick_5">
     <g id="line2d_5">
      <g>
       <use xlink:href="#m6b6ed00a65" x="290.63042" y="307.584" style="stroke: #000000; stroke-width: 0.8"/>
      </g>
     </g>
     <g id="text_5">
      <!-- 4 -->
      <g transform="translate(287.44917 322.182437) scale(0.1 -0.1)">
       <defs>
        <path id="DejaVuSans-34" d="M 2419 4116 
L 825 1625 
L 2419 1625 
L 2419 4116 
z
M 2253 4666 
L 3047 4666 
L 3047 1625 
L 3713 1625 
L 3713 1100 
L 3047 1100 
L 3047 0 
L 2419 0 
L 2419 1100 
L 313 1100 
L 313 1709 
L 2253 4666 
z
" transform="scale(0.015625)"/>
       </defs>
       <use xlink:href="#DejaVuSans-34"/>
      </g>
     </g>
    </g>
    <g id="xtick_6">
     <g id="line2d_6">
      <g>
       <use xlink:href="#m6b6ed00a65" x="344.829844" y="307.584" style="stroke: #000000; stroke-width: 0.8"/>
      </g>
     </g>
     <g id="text_6">
      <!-- 5 -->
      <g transform="translate(341.648594 322.182437) scale(0.1 -0.1)">
       <defs>
        <path id="DejaVuSans-35" d="M 691 4666 
L 3169 4666 
L 3169 4134 
L 1269 4134 
L 1269 2991 
Q 1406 3038 1543 3061 
Q 1681 3084 1819 3084 
Q 2600 3084 3056 2656 
Q 3513 2228 3513 1497 
Q 3513 744 3044 326 
Q 2575 -91 1722 -91 
Q 1428 -91 1123 -41 
Q 819 9 494 109 
L 494 744 
Q 775 591 1075 516 
Q 1375 441 1709 441 
Q 2250 441 2565 725 
Q 2881 1009 2881 1497 
Q 2881 1984 2565 2268 
Q 2250 2553 1709 2553 
Q 1456 2553 1204 2497 
Q 953 2441 691 2322 
L 691 4666 
z
" transform="scale(0.015625)"/>
       </defs>
       <use xlink:href="#DejaVuSans-35"/>
      </g>
     </g>
    </g>
    <g id="xtick_7">
     <g id="line2d_7">
      <g>
       <use xlink:href="#m6b6ed00a65" x="399.029267" y="307.584" style="stroke: #000000; stroke-width: 0.8"/>
      </g>
     </g>
     <g id="text_7">
      <!-- 6 -->
      <g transform="translate(395.848017 322.182437) scale(0.1 -0.1)">
       <defs>
        <path id="DejaVuSans-36" d="M 2113 2584 
Q 1688 2584 1439 2293 
Q 1191 2003 1191 1497 
Q 1191 994 1439 701 
Q 1688 409 2113 409 
Q 2538 409 2786 701 
Q 3034 994 3034 1497 
Q 3034 2003 2786 2293 
Q 2538 2584 2113 2584 
z
M 3366 4563 
L 3366 3988 
Q 3128 4100 2886 4159 
Q 2644 4219 2406 4219 
Q 1781 4219 1451 3797 
Q 1122 3375 1075 2522 
Q 1259 2794 1537 2939 
Q 1816 3084 2150 3084 
Q 2853 3084 3261 2657 
Q 3669 2231 3669 1497 
Q 3669 778 3244 343 
Q 2819 -91 2113 -91 
Q 1303 -91 875 529 
Q 447 1150 447 2328 
Q 447 3434 972 4092 
Q 1497 4750 2381 4750 
Q 2619 4750 2861 4703 
Q 3103 4656 3366 4563 
z
" transform="scale(0.015625)"/>
       </defs>
       <use xlink:href="#DejaVuSans-36"/>
      </g>
     </g>
    </g>
   </g>
   <g id="matplotlib.axis_2">
    <g id="ytick_1">
     <g id="line2d_8">
      <defs>
       <path id="m7935a99b21" d="M 0 0 
L -3.5 0 
" style="stroke: #000000; stroke-width: 0.8"/>
      </defs>
      <g>
       <use xlink:href="#m7935a99b21" x="57.6" y="295.488" style="stroke: #000000; stroke-width: 0.8"/>
      </g>
     </g>
     <g id="text_8">
      <!-- 0.0 -->
      <g transform="translate(34.696875 299.287219) scale(0.1 -0.1)">
       <defs>
        <path id="DejaVuSans-2e" d="M 684 794 
L 1344 794 
L 1344 0 
L 684 0 
L 684 794 
z
" transform="scale(0.015625)"/>
       </defs>
       <use xlink:href="#DejaVuSans-30"/>
       <use xlink:href="#DejaVuSans-2e" transform="translate(63.623047 0)"/>
       <use xlink:href="#DejaVuSans-30" transform="translate(95.410156 0)"/>
      </g>
     </g>
    </g>
    <g id="ytick_2">
     <g id="line2d_9">
      <g>
       <use xlink:href="#m7935a99b21" x="57.6" y="259.889042" style="stroke: #000000; stroke-width: 0.8"/>
      </g>
     </g>
     <g id="text_9">
      <!-- 0.2 -->
      <g transform="translate(34.696875 263.688261) scale(0.1 -0.1)">
       <use xlink:href="#DejaVuSans-30"/>
       <use xlink:href="#DejaVuSans-2e" transform="translate(63.623047 0)"/>
       <use xlink:href="#DejaVuSans-32" transform="translate(95.410156 0)"/>
      </g>
     </g>
    </g>
    <g id="ytick_3">
     <g id="line2d_10">
      <g>
       <use xlink:href="#m7935a99b21" x="57.6" y="224.290084" style="stroke: #000000; stroke-width: 0.8"/>
      </g>
     </g>
     <g id="text_10">
      <!-- 0.4 -->
      <g transform="translate(34.696875 228.089303) scale(0.1 -0.1)">
       <use xlink:href="#DejaVuSans-30"/>
       <use xlink:href="#DejaVuSans-2e" transform="translate(63.623047 0)"/>
       <use xlink:href="#DejaVuSans-34" transform="translate(95.410156 0)"/>
      </g>
     </g>
    </g>
    <g id="ytick_4">
     <g id="line2d_11">
      <g>
       <use xlink:href="#m7935a99b21" x="57.6" y="188.691127" style="stroke: #000000; stroke-width: 0.8"/>
      </g>
     </g>
     <g id="text_11">
      <!-- 0.6 -->
      <g transform="translate(34.696875 192.490345) scale(0.1 -0.1)">
       <use xlink:href="#DejaVuSans-30"/>
       <use xlink:href="#DejaVuSans-2e" transform="translate(63.623047 0)"/>
       <use xlink:href="#DejaVuSans-36" transform="translate(95.410156 0)"/>
      </g>
     </g>
    </g>
    <g id="ytick_5">
     <g id="line2d_12">
      <g>
       <use xlink:href="#m7935a99b21" x="57.6" y="153.092169" style="stroke: #000000; stroke-width: 0.8"/>
      </g>
     </g>
     <g id="text_12">
      <!-- 0.8 -->
      <g transform="translate(34.696875 156.891388) scale(0.1 -0.1)">
       <defs>
        <path id="DejaVuSans-38" d="M 2034 2216 
Q 1584 2216 1326 1975 
Q 1069 1734 1069 1313 
Q 1069 891 1326 650 
Q 1584 409 2034 409 
Q 2484 409 2743 651 
Q 3003 894 3003 1313 
Q 3003 1734 2745 1975 
Q 2488 2216 2034 2216 
z
M 1403 2484 
Q 997 2584 770 2862 
Q 544 3141 544 3541 
Q 544 4100 942 4425 
Q 1341 4750 2034 4750 
Q 2731 4750 3128 4425 
Q 3525 4100 3525 3541 
Q 3525 3141 3298 2862 
Q 3072 2584 2669 2484 
Q 3125 2378 3379 2068 
Q 3634 1759 3634 1313 
Q 3634 634 3220 271 
Q 2806 -91 2034 -91 
Q 1263 -91 848 271 
Q 434 634 434 1313 
Q 434 1759 690 2068 
Q 947 2378 1403 2484 
z
M 1172 3481 
Q 1172 3119 1398 2916 
Q 1625 2713 2034 2713 
Q 2441 2713 2670 2916 
Q 2900 3119 2900 3481 
Q 2900 3844 2670 4047 
Q 2441 4250 2034 4250 
Q 1625 4250 1398 4047 
Q 1172 3844 1172 3481 
z
" transform="scale(0.015625)"/>
       </defs>
       <use xlink:href="#DejaVuSans-30"/>
       <use xlink:href="#DejaVuSans-2e" transform="translate(63.623047 0)"/>
       <use xlink:href="#DejaVuSans-38" transform="translate(95.410156 0)"/>
      </g>
     </g>
    </g>
    <g id="ytick_6">
     <g id="line2d_13">
      <g>
       <use xlink:href="#m7935a99b21" x="57.6" y="117.493211" style="stroke: #000000; stroke-width: 0.8"/>
      </g>
     </g>
     <g id="text_13">
      <!-- 1.0 -->
      <g transform="translate(34.696875 121.29243) scale(0.1 -0.1)">
       <use xlink:href="#DejaVuSans-31"/>
       <use xlink:href="#DejaVuSans-2e" transform="translate(63.623047 0)"/>
       <use xlink:href="#DejaVuSans-30" transform="translate(95.410156 0)"/>
      </g>
     </g>
    </g>
    <g id="ytick_7">
     <g id="line2d_14">
      <g>
       <use xlink:href="#m7935a99b21" x="57.6" y="81.894253" style="stroke: #000000; stroke-width: 0.8"/>
      </g>
     </g>
     <g id="text_14">
      <!-- 1.2 -->
      <g transform="translate(34.696875 85.693472) scale(0.1 -0.1)">
       <use xlink:href="#DejaVuSans-31"/>
       <use xlink:href="#DejaVuSans-2e" transform="translate(63.623047 0)"/>
       <use xlink:href="#DejaVuSans-32" transform="translate(95.410156 0)"/>
      </g>
     </g>
    </g>
    <g id="ytick_8">
     <g id="line2d_15">
      <g>
       <use xlink:href="#m7935a99b21" x="57.6" y="46.295296" style="stroke: #000000; stroke-width: 0.8"/>
      </g>
     </g>
     <g id="text_15">
      <!-- 1.4 -->
      <g transform="translate(34.696875 50.094514) scale(0.1 -0.1)">
       <use xlink:href="#DejaVuSans-31"/>
       <use xlink:href="#DejaVuSans-2e" transform="translate(63.623047 0)"/>
       <use xlink:href="#DejaVuSans-34" transform="translate(95.410156 0)"/>
      </g>
     </g>
    </g>
   </g>
   <g id="line2d_16">
    <path d="M 73.832727 295.488 
L 76.542698 264.211256 
L 79.25267 235.985282 
L 81.420647 215.450583 
L 83.588623 196.617722 
L 85.7566 179.38481 
L 87.924577 163.655333 
L 90.092554 149.337884 
L 92.260531 136.345913 
L 94.428508 124.597489 
L 96.596485 114.015065 
L 98.764462 104.525265 
L 100.932439 96.058675 
L 103.100416 88.549644 
L 105.268393 81.936095 
L 107.43637 76.15935 
L 109.604347 71.163952 
L 111.230329 67.898536 
L 112.856312 65.022074 
L 114.482295 62.514428 
L 116.108277 60.356312 
L 117.73426 58.529253 
L 119.360243 57.01557 
L 120.986226 55.798335 
L 122.612208 54.861346 
L 124.238191 54.189103 
L 125.864174 53.766775 
L 127.490156 53.580177 
L 129.116139 53.615744 
L 130.742122 53.860507 
L 132.368104 54.302069 
L 133.994087 54.928585 
L 136.162064 56.032155 
L 138.330041 57.419035 
L 140.498018 59.06531 
L 143.207989 61.453821 
L 145.91796 64.171701 
L 148.627931 67.181142 
L 151.879897 71.128381 
L 155.673856 76.127445 
L 160.00981 82.264458 
L 164.887758 89.585885 
L 170.849695 98.956502 
L 179.521603 113.045243 
L 196.323424 140.403224 
L 203.911343 152.31183 
L 210.957268 162.955699 
L 217.461199 172.367108 
L 223.423136 180.613782 
L 229.385072 188.478339 
L 235.347009 195.950905 
L 240.766951 202.4008 
L 246.186893 208.524517 
L 251.606836 214.325727 
L 257.026778 219.810355 
L 262.44672 224.986119 
L 267.866663 229.862136 
L 273.286605 234.448582 
L 278.706547 238.756415 
L 284.12649 242.797127 
L 289.546432 246.582547 
L 295.508368 250.465964 
L 301.470305 254.070992 
L 307.432242 257.413491 
L 313.394178 260.509038 
L 319.898109 263.622175 
L 326.40204 266.478524 
L 332.905971 269.096351 
L 339.951896 271.683348 
L 346.997821 274.03181 
L 354.58574 276.316743 
L 362.173659 278.370858 
L 370.303573 280.339739 
L 378.97548 282.201924 
L 388.189382 283.940546 
L 397.945278 285.54342 
L 398.487273 285.625906 
L 398.487273 285.625906 
" clip-path="url(#pcd1a164d85)" style="fill: none; stroke: #1f77b4; stroke-width: 1.5; stroke-linecap: square"/>
   </g>
   <g id="line2d_17">
    <path d="M 73.832727 295.488 
L 75.45871 284.224093 
L 76.000704 277.924341 
L 76.542698 264.985428 
L 77.084693 280.399024 
L 77.626687 263.879294 
L 78.168681 260.985536 
L 78.710675 269.546361 
L 79.25267 228.777367 
L 79.794664 248.217477 
L 80.336658 251.057677 
L 80.878652 248.308403 
L 81.420647 246.499999 
L 81.962641 236.771002 
L 82.504635 223.58507 
L 83.046629 249.585374 
L 83.588623 205.699688 
L 84.130618 242.4866 
L 84.672612 206.150127 
L 85.214606 206.153848 
L 85.7566 208.510764 
L 86.298595 189.971173 
L 86.840589 142.945768 
L 87.382583 220.69686 
L 89.008566 148.325175 
L 89.55056 181.284344 
L 90.092554 161.448931 
L 90.634548 90.935691 
L 91.176543 149.190056 
L 91.718537 162.171302 
L 92.260531 189.031941 
L 92.802525 189.566012 
L 93.34452 179.365918 
L 93.886514 172.375664 
L 94.428508 54.873007 
L 94.970502 177.119386 
L 96.054491 126.937867 
L 96.596485 19.432143 
L 97.680474 143.862178 
L 98.222468 93.331068 
L 98.764462 102.829418 
L 99.306456 129.267989 
L 99.84845 143.049359 
L 100.390445 109.18732 
L 100.79342 -1 
M 101.308851 -1 
L 101.474433 15.72163 
L 102.016427 127.33947 
L 102.558422 117.759117 
L 103.100416 118.423895 
L 103.64241 145.244309 
L 104.184404 71.527478 
L 104.726399 66.838488 
L 105.268393 126.262499 
L 105.810387 68.410106 
L 106.352381 53.714943 
L 106.894375 12.017297 
L 107.43637 118.923102 
L 107.978364 105.109114 
L 108.520358 105.42929 
L 109.062352 71.560703 
L 109.604347 113.008582 
L 110.146341 37.602763 
L 110.688335 64.21299 
L 111.230329 134.350406 
L 111.772324 122.297039 
L 112.314318 43.171845 
L 112.856312 81.81941 
L 113.398306 97.35909 
L 113.940301 100.30197 
L 114.482295 102.566287 
L 115.024289 113.01543 
L 115.376585 -1 
M 115.826526 -1 
L 116.108277 65.46708 
L 116.650272 76.738539 
L 117.192266 56.994037 
L 117.73426 46.153775 
L 118.276254 37.607482 
L 118.818249 103.035787 
L 119.360243 45.379655 
L 120.444231 108.931987 
L 120.986226 90.767144 
L 121.52822 23.968407 
L 122.070214 97.189291 
L 122.612208 64.531654 
L 122.911071 -1 
M 123.33997 -1 
L 123.696197 101.229351 
L 124.238191 47.764694 
L 124.780185 80.438585 
L 125.322179 69.922728 
L 125.864174 110.231915 
L 126.406168 42.938109 
L 127.490156 86.972124 
L 128.032151 107.697291 
L 128.574145 6.568819 
L 129.116139 33.469539 
L 129.378905 -1 
M 129.990917 -1 
L 130.200127 22.027542 
L 130.742122 54.254298 
L 131.284116 72.551472 
L 131.82611 108.673716 
L 132.368104 22.118562 
L 132.910099 65.768899 
L 133.452093 75.712657 
L 133.994087 96.852237 
L 134.536081 22.339123 
L 135.078076 23.73901 
L 135.62007 89.914103 
L 136.162064 34.821839 
L 136.704058 107.0627 
L 137.246053 38.822519 
L 137.788047 5.337212 
L 138.330041 58.715764 
L 138.872035 90.729456 
L 139.414029 29.246128 
L 139.956024 102.477773 
L 140.498018 35.609158 
L 141.040012 99.500662 
L 141.582006 114.207838 
L 142.124001 104.167066 
L 142.665995 100.337134 
L 143.207989 97.52752 
L 143.749983 47.93543 
L 144.291978 93.510812 
L 144.833972 73.416817 
L 145.375966 93.757126 
L 145.91796 88.764335 
L 146.459954 44.883068 
L 147.001949 63.72669 
L 147.543943 99.646982 
L 147.738398 -1 
M 148.413865 -1 
L 148.627931 116.423491 
L 149.169926 86.379984 
L 149.71192 98.006742 
L 150.253914 35.784212 
L 150.339637 -1 
M 151.176022 -1 
L 151.337903 82.380693 
L 151.879897 111.055282 
L 152.421891 77.288316 
L 152.963885 66.633314 
L 153.505879 89.518701 
L 154.047874 78.306597 
L 154.589868 90.192105 
L 155.131862 96.492745 
L 155.673856 110.637795 
L 156.215851 95.530617 
L 156.757845 109.240026 
L 157.299839 23.615716 
L 157.841833 93.267949 
L 158.383828 88.74813 
L 158.925822 108.821269 
L 159.467816 122.746288 
L 160.00981 104.137394 
L 160.551805 117.456434 
L 161.093799 108.077831 
L 161.635793 109.875057 
L 162.177787 79.867396 
L 162.719781 112.99938 
L 163.261776 92.796202 
L 163.80377 110.746642 
L 164.345764 120.488305 
L 164.887758 122.842766 
L 165.429753 116.757457 
L 165.971747 106.925308 
L 166.513741 104.919035 
L 167.055735 44.451662 
L 167.59773 106.424516 
L 168.681718 126.408697 
L 169.223712 114.916527 
L 169.765706 106.083934 
L 170.307701 107.796769 
L 170.849695 101.664898 
L 171.391689 123.323261 
L 171.933683 121.412884 
L 172.475678 88.169332 
L 173.017672 124.953091 
L 173.559666 116.996745 
L 174.10166 99.859728 
L 174.643655 121.499593 
L 175.185649 117.493401 
L 175.727643 124.122649 
L 176.269637 122.21461 
L 176.811632 122.793139 
L 177.353626 121.448073 
L 177.89562 107.945757 
L 178.437614 118.730712 
L 178.979608 119.252315 
L 179.521603 116.832117 
L 180.063597 117.367951 
L 180.605591 119.668564 
L 181.147585 119.273159 
L 181.68958 117.499159 
L 182.231574 117.493211 
L 182.773568 121.27839 
L 183.315562 118.383185 
L 183.857557 118.828172 
L 184.399551 123.986186 
L 184.941545 123.111628 
L 185.483539 178.997544 
L 186.025533 123.478113 
L 186.567528 125.434001 
L 187.109522 125.52811 
L 187.651516 118.797764 
L 188.19351 170.491395 
L 188.735505 132.011731 
L 189.277499 124.45694 
L 189.819493 133.796831 
L 190.361487 111.013613 
L 190.903482 159.511165 
L 191.445476 123.642841 
L 191.98747 132.636363 
L 192.529464 130.224093 
L 193.071458 150.719794 
L 193.613453 41.207426 
L 194.155447 121.240951 
L 194.697441 148.811639 
L 195.219694 346.6 
M 195.257898 346.6 
L 195.78143 134.592011 
L 196.865418 125.972535 
L 197.407412 135.175648 
L 197.949407 157.61946 
L 198.491401 146.472074 
L 199.033395 132.58168 
L 199.575389 152.662778 
L 200.117384 140.545816 
L 200.659378 241.335066 
L 201.201372 153.713405 
L 201.743366 152.308087 
L 202.28536 152.297041 
L 202.827355 144.319615 
L 203.369349 154.668382 
L 203.911343 177.781608 
L 204.453337 116.963582 
L 204.995332 153.039005 
L 205.537326 161.529762 
L 206.07932 160.044019 
L 206.621314 142.566414 
L 207.163309 159.151124 
L 207.705303 143.706445 
L 208.247297 149.522007 
L 208.789291 156.697483 
L 209.331285 157.371507 
L 209.87328 155.677553 
L 210.415274 173.826893 
L 210.957268 155.089948 
L 211.499262 167.415374 
L 212.041257 167.158205 
L 212.583251 162.050345 
L 213.125245 167.083708 
L 213.667239 157.815788 
L 214.209234 168.656703 
L 214.751228 166.384087 
L 215.293222 164.759713 
L 215.835216 167.009898 
L 216.377211 185.701925 
L 216.919205 159.307126 
L 217.461199 178.467255 
L 218.003193 188.22837 
L 218.545187 183.427484 
L 219.087182 166.719041 
L 219.629176 175.226102 
L 220.17117 172.845609 
L 220.713164 179.56772 
L 221.255159 151.5004 
L 221.797153 155.574778 
L 222.339147 186.569844 
L 222.881141 195.928136 
L 223.423136 179.424255 
L 223.96513 177.101335 
L 224.507124 157.473082 
L 225.049118 188.125692 
L 225.591112 175.699307 
L 226.133107 191.872861 
L 226.675101 182.323311 
L 227.217095 177.454658 
L 227.759089 167.962302 
L 228.301084 178.520607 
L 228.843078 174.162374 
L 229.385072 177.79343 
L 229.927066 193.274123 
L 230.469061 196.984593 
L 231.011055 194.482785 
L 231.553049 243.200123 
L 232.095043 191.402034 
L 232.637037 179.429884 
L 233.179032 195.047704 
L 233.721026 190.729954 
L 234.26302 198.657502 
L 234.805014 189.851513 
L 235.347009 154.102097 
L 235.889003 200.621901 
L 236.430997 194.157818 
L 236.972991 199.201336 
L 237.514986 190.49274 
L 238.05698 199.221678 
L 238.598974 165.439973 
L 239.682963 244.445641 
L 240.224957 208.835431 
L 240.766951 214.005091 
L 241.308945 208.80377 
L 241.850939 206.928396 
L 242.392934 221.702359 
L 242.934928 213.538918 
L 243.476922 222.813195 
L 244.018916 221.148573 
L 244.560911 209.921021 
L 245.102905 210.601022 
L 245.644899 206.855051 
L 246.186893 212.185148 
L 246.728888 188.511362 
L 247.270882 195.484254 
L 247.812876 215.955026 
L 248.35487 145.13628 
L 248.896864 199.362071 
L 249.438859 201.889916 
L 249.980853 199.252103 
L 250.522847 191.163362 
L 251.064841 225.866431 
L 251.606836 203.644291 
L 252.14883 213.090223 
L 252.690824 213.784697 
L 253.232818 235.366118 
L 253.774813 221.590883 
L 254.316807 288.649232 
L 254.858801 236.469381 
L 255.400795 235.63989 
L 255.942789 218.112312 
L 256.484784 235.69372 
L 257.026778 206.328012 
L 257.568772 242.593747 
L 258.110766 224.722684 
L 258.652761 219.04201 
L 259.194755 240.956532 
L 259.736749 239.846959 
L 260.278743 217.039136 
L 260.820738 237.45062 
L 261.362732 251.439619 
L 261.904726 217.189003 
L 262.44672 207.834935 
L 262.988715 180.632303 
L 263.530709 216.101993 
L 264.072703 243.808648 
L 264.614697 224.430225 
L 265.156691 233.89718 
L 265.698686 224.944714 
L 266.24068 194.909206 
L 266.782674 235.478948 
L 267.324668 233.89803 
L 267.866663 242.310938 
L 268.408657 237.671578 
L 268.950651 207.636839 
L 269.492645 244.252808 
L 270.03464 232.360795 
L 270.576634 246.531641 
L 271.118628 271.1524 
L 271.660622 231.887343 
L 272.202616 238.522466 
L 272.744611 204.403711 
L 273.286605 246.690889 
L 273.828599 245.985604 
L 274.370593 251.833947 
L 274.912588 247.60089 
L 275.454582 251.053828 
L 275.996576 246.557985 
L 276.53857 208.95955 
L 277.080565 193.702843 
L 277.622559 221.124301 
L 278.164553 242.160603 
L 278.706547 251.467323 
L 279.248542 248.810835 
L 279.790536 227.316478 
L 280.33253 216.465981 
L 280.874524 250.119479 
L 281.416518 240.151797 
L 281.958513 234.385694 
L 282.500507 247.260271 
L 283.584495 233.690837 
L 284.12649 252.458857 
L 284.668484 247.824268 
L 285.210478 260.252116 
L 285.752472 329.46616 
L 286.294467 245.641097 
L 286.836461 257.71257 
L 287.378455 229.771578 
L 287.920449 254.781584 
L 288.462443 269.54274 
L 289.004438 274.112532 
L 289.546432 251.56686 
L 290.088426 238.216099 
L 290.63042 260.180136 
L 291.172415 262.589885 
L 291.714409 249.182285 
L 292.256403 224.612372 
L 292.798397 238.386992 
L 293.340392 270.069942 
L 293.882386 260.20508 
L 294.42438 238.265912 
L 294.966374 241.93518 
L 295.508368 241.040679 
L 296.050363 253.529214 
L 296.592357 288.487192 
L 297.134351 233.60864 
L 297.676345 256.203639 
L 298.21834 229.597872 
L 298.760334 241.004939 
L 299.302328 244.886758 
L 299.844322 247.761006 
L 300.386317 282.600491 
L 300.928311 292.247874 
L 301.470305 282.161618 
L 302.012299 253.459118 
L 302.554294 282.961221 
L 303.096288 245.10859 
L 303.638282 230.727139 
L 304.180276 273.197677 
L 304.72227 249.126848 
L 305.264265 280.711973 
L 305.806259 255.000049 
L 306.348253 270.883628 
L 306.890247 254.129401 
L 307.432242 260.416438 
L 307.974236 271.411104 
L 308.51623 264.388003 
L 309.058224 212.228281 
L 309.600219 257.392425 
L 310.142213 259.213369 
L 310.684207 263.903755 
L 311.226201 242.579974 
L 311.768195 259.156313 
L 312.31019 283.619437 
L 312.852184 260.197065 
L 313.394178 270.720851 
L 313.936172 270.627114 
L 314.478167 254.185432 
L 315.020161 244.619048 
L 315.562155 274.713627 
L 316.104149 272.465996 
L 316.646144 264.062135 
L 317.188138 51.104672 
L 317.730132 271.59232 
L 318.272126 277.306509 
L 318.814121 274.329875 
L 319.356115 244.476234 
L 319.898109 311.67178 
L 320.982097 233.314898 
L 321.524092 240.295576 
L 322.066086 280.330718 
L 322.60808 269.485388 
L 323.150074 292.74677 
L 323.692069 258.204908 
L 324.234063 257.253802 
L 325.318051 307.689017 
L 325.860046 268.27245 
L 326.40204 253.848213 
L 326.944034 261.624275 
L 327.486028 277.962604 
L 328.028022 266.713228 
L 328.570017 285.62085 
L 329.112011 333.276096 
L 329.654005 282.02 
L 330.195999 277.418669 
L 330.737994 293.973317 
L 331.279988 283.008626 
L 331.821982 278.358398 
L 332.363976 263.41563 
L 332.905971 276.064075 
L 333.447965 272.270709 
L 333.989959 311.812738 
L 335.073947 271.848551 
L 335.615942 292.932782 
L 336.69993 253.9876 
L 337.783919 294.719677 
L 338.325913 275.745493 
L 338.867907 267.19223 
L 339.409901 286.934147 
L 339.951896 264.055944 
L 340.49389 276.614439 
L 341.035884 242.099693 
L 341.577878 270.390744 
L 342.119873 229.798188 
L 342.661867 300.258969 
L 343.203861 278.504748 
L 343.745855 282.002534 
L 344.287849 270.871282 
L 344.829844 276.921937 
L 345.371838 276.134226 
L 345.913832 276.911363 
L 346.455826 275.962477 
L 346.997821 224.638568 
L 347.539815 303.92574 
L 348.081809 253.808061 
L 348.623803 256.934728 
L 349.165798 277.364704 
L 349.707792 266.600849 
L 350.249786 275.630065 
L 350.79178 287.499104 
L 351.333774 279.156863 
L 351.875769 282.06714 
L 352.959757 300.135177 
L 353.501751 306.499367 
L 354.043746 269.371034 
L 354.58574 273.695675 
L 355.127734 268.497083 
L 355.669728 296.450385 
L 356.211723 288.207474 
L 356.753717 281.892932 
L 357.295711 268.656066 
L 357.837705 284.434624 
L 358.379699 275.607979 
L 358.921694 279.875631 
L 359.463688 292.788454 
L 360.005682 283.091639 
L 360.547676 291.458267 
L 361.089671 289.911273 
L 361.631665 284.026318 
L 362.173659 280.796159 
L 362.715653 293.227766 
L 363.257648 313.45907 
L 363.799642 283.157481 
L 364.341636 270.897456 
L 364.88363 291.978537 
L 365.425625 256.127693 
L 365.967619 274.473924 
L 366.509613 277.930643 
L 367.051607 272.898128 
L 367.593601 79.346603 
L 368.135596 292.167542 
L 368.67759 289.449956 
L 369.219584 279.330011 
L 369.761578 282.437284 
L 370.303573 273.787086 
L 370.845567 284.604086 
L 371.387561 271.436028 
L 371.929555 299.46098 
L 372.47155 284.868706 
L 373.013544 284.793525 
L 373.555538 300.192615 
L 374.097532 274.549144 
L 374.639526 297.170975 
L 375.181521 288.81967 
L 375.49555 346.6 
M 375.965905 346.6 
L 376.265509 294.754461 
L 376.807503 278.62519 
L 377.349498 296.209014 
L 377.891492 282.051551 
L 378.433486 295.562671 
L 378.97548 275.373543 
L 379.517475 281.535041 
L 380.059469 289.905911 
L 380.601463 312.488874 
L 381.143457 275.032768 
L 381.685452 296.467631 
L 382.227446 291.552278 
L 382.76944 302.120797 
L 383.311434 290.261268 
L 383.853428 291.390353 
L 384.395423 281.657467 
L 384.937417 282.784745 
L 385.479411 286.381107 
L 386.021405 294.174185 
L 386.5634 285.219695 
L 386.822676 -1 
M 387.380598 -1 
L 387.647388 301.553966 
L 388.189382 280.042799 
L 388.731377 279.642989 
L 389.815365 304.563675 
L 390.357359 301.027677 
L 390.899353 300.142845 
L 391.441348 283.929641 
L 391.983342 288.992881 
L 392.525336 289.747188 
L 393.06733 205.698487 
L 393.609325 299.995754 
L 394.151319 294.520822 
L 394.693313 256.589483 
L 395.235307 296.748198 
L 395.777302 290.794494 
L 396.319296 261.157448 
L 396.86129 296.780887 
L 397.403284 296.207256 
L 397.945278 269.90281 
L 398.487273 296.333083 
L 398.487273 296.333083 
" clip-path="url(#pcd1a164d85)" style="fill: none; stroke: #ff7f0e; stroke-width: 1.5; stroke-linecap: square"/>
   </g>
   <g id="patch_3">
    <path d="M 57.6 307.584 
L 57.6 41.472 
" style="fill: none; stroke: #000000; stroke-width: 0.8; stroke-linejoin: miter; stroke-linecap: square"/>
   </g>
   <g id="patch_4">
    <path d="M 414.72 307.584 
L 414.72 41.472 
" style="fill: none; stroke: #000000; stroke-width: 0.8; stroke-linejoin: miter; stroke-linecap: square"/>
   </g>
   <g id="patch_5">
    <path d="M 57.6 307.584 
L 414.72 307.584 
" style="fill: none; stroke: #000000; stroke-width: 0.8; stroke-linejoin: miter; stroke-linecap: square"/>
   </g>
   <g id="patch_6">
    <path d="M 57.6 41.472 
L 414.72 41.472 
" style="fill: none; stroke: #000000; stroke-width: 0.8; stroke-linejoin: miter; stroke-linecap: square"/>
   </g>
  </g>
 </g>
 <defs>
  <clipPath id="pcd1a164d85">
   <rect x="57.6" y="41.472" width="357.12" height="266.112"/>
  </clipPath>
 </defs>
</svg>
