<?xml version="1.0" encoding="utf-8" standalone="no"?>
<!DOCTYPE svg PUBLIC "-//W3C//DTD SVG 1.1//EN"
  "http://www.w3.org/Graphics/SVG/1.1/DTD/svg11.dtd">
<svg xmlns:xlink="http://www.w3.org/1999/xlink" width="460.8pt" height="345.6pt" viewBox="0 0 460.8 345.6" xmlns="http://www.w3.org/2000/svg" version="1.1">
 <metadata>
  <rdf:RDF xmlns:dc="http://purl.org/dc/elements/1.1/" xmlns:cc="http://creativecommons.org/ns#" xmlns:rdf="http://www.w3.org/1999/02/22-rdf-syntax-ns#">
   <cc:Work>
    <dc:type rdf:resource="http://purl.org/dc/dcmitype/StillImage"/>
    <dc:date>2025-11-06T02:08:37.561170</dc:date>
    <dc:format>image/svg+xml</dc:format>
    <dc:creator>
     <cc:Agent>
      <dc:title>Matplotlib v3.10.7, https://matplotlib.org/</dc:title>
     </cc:Agent>
    </dc:creator>
   </cc:Work>
  </rdf:RDF>
 </metadata>
 <defs>
  <style type="text/css">*{stroke-linejoin: round; stroke-linecap: butt}</style>
 </defs>
 <g id="figure_1">
  <g id="patch_1">
   <path d="M 0 345.6 
L 460.8 345.6 
L 460.8 0 
L 0 0 
z
" style="fill: #ffffff"/>
  </g>
  <g id="axes_1">
   <g id="patch_2">
    <path d="M 57.6 307.584 
L 414.72 307.584 
L 414.72 41.472 
L 57.6 41.472 
z
" style="fill: #ffffff"/>
   </g>
   <g id="matplotlib.axis_1">
    <g id="xtick_1">
     <g id="line2d_1">
      <defs>
       <path id="md73cbdf3e8" d="M 0 0 
L 0 3.5 
" style="stroke: #000000; stroke-width: 0.8"/>
      </defs>
      <g>
       <use xlink:href="#md73cbdf3e8" x="73.832727" y="307.584" style="stroke: #000000; stroke-width: 0.8"/>
      </g>
     </g>
     <g id="text_1">
      <!-- 0 -->
      <g transform="translate(70.651477 322.182437) scale(0.1 -0.1)">
       <defs>
        <path id="DejaVuSans-30" d="M 2034 4250 
Q 1547 4250 1301 3770 
Q 1056 3291 1056 2328 
Q 1056 1369 1301 889 
Q 1547 409 2034 409 
Q 2525 409 2770 889 
Q 3016 1369 3016 2328 
Q 3016 3291 2770 3770 
Q 2525 4250 2034 4250 
z
M 2034 4750 
Q 2819 4750 3233 4129 
Q 3647 3509 3647 2328 
Q 3647 1150 3233 529 
Q 2819 -91 2034 -91 
Q 1250 -91 836 529 
Q 422 1150 422 2328 
Q 422 3509 836 4129 
Q 1250 4750 2034 4750 
z
" transform="scale(0.015625)"/>
       </defs>
       <use xlink:href="#DejaVuSans-30"/>
      </g>
     </g>
    </g>
    <g id="xtick_2">
     <g id="line2d_2">
      <g>
       <use xlink:href="#md73cbdf3e8" x="128.396516" y="307.584" style="stroke: #000000; stroke-width: 0.8"/>
      </g>
     </g>
     <g id="text_2">
      <!-- 1 -->
      <g transform="translate(125.215266 322.182437) scale(0.1 -0.1)">
       <defs>
        <path id="DejaVuSans-31" d="M 794 531 
L 1825 531 
L 1825 4091 
L 703 3866 
L 703 4441 
L 1819 4666 
L 2450 4666 
L 2450 531 
L 3481 531 
L 3481 0 
L 794 0 
L 794 531 
z
" transform="scale(0.015625)"/>
       </defs>
       <use xlink:href="#DejaVuSans-31"/>
      </g>
     </g>
    </g>
    <g id="xtick_3">
     <g id="line2d_3">
      <g>
       <use xlink:href="#md73cbdf3e8" x="182.960306" y="307.584" style="stroke: #000000; stroke-width: 0.8"/>
      </g>
     </g>
     <g id="text_3">
      <!-- 2 -->
      <g transform="translate(179.779056 322.182437) scale(0.1 -0.1)">
       <defs>
        <path id="DejaVuSans-32" d="M 1228 531 
L 3431 531 
L 3431 0 
L 469 0 
L 469 531 
Q 828 903 1448 1529 
Q 2069 2156 2228 2338 
Q 2531 2678 2651 2914 
Q 2772 3150 2772 3378 
Q 2772 3750 2511 3984 
Q 2250 4219 1831 4219 
Q 1534 4219 1204 4116 
Q 875 4013 500 3803 
L 500 4441 
Q 881 4594 1212 4672 
Q 1544 4750 1819 4750 
Q 2544 4750 2975 4387 
Q 3406 4025 3406 3419 
Q 3406 3131 3298 2873 
Q 3191 2616 2906 2266 
Q 2828 2175 2409 1742 
Q 1991 1309 1228 531 
z
" transform="scale(0.015625)"/>
       </defs>
       <use xlink:href="#DejaVuSans-32"/>
      </g>
     </g>
    </g>
    <g id="xtick_4">
     <g id="line2d_4">
      <g>
       <use xlink:href="#md73cbdf3e8" x="237.524095" y="307.584" style="stroke: #000000; stroke-width: 0.8"/>
      </g>
     </g>
     <g id="text_4">
      <!-- 3 -->
      <g transform="translate(234.342845 322.182437) scale(0.1 -0.1)">
       <defs>
        <path id="DejaVuSans-33" d="M 2597 2516 
Q 3050 2419 3304 2112 
Q 3559 1806 3559 1356 
Q 3559 666 3084 287 
Q 2609 -91 1734 -91 
Q 1441 -91 1130 -33 
Q 819 25 488 141 
L 488 750 
Q 750 597 1062 519 
Q 1375 441 1716 441 
Q 2309 441 2620 675 
Q 2931 909 2931 1356 
Q 2931 1769 2642 2001 
Q 2353 2234 1838 2234 
L 1294 2234 
L 1294 2753 
L 1863 2753 
Q 2328 2753 2575 2939 
Q 2822 3125 2822 3475 
Q 2822 3834 2567 4026 
Q 2313 4219 1838 4219 
Q 1578 4219 1281 4162 
Q 984 4106 628 3988 
L 628 4550 
Q 988 4650 1302 4700 
Q 1616 4750 1894 4750 
Q 2613 4750 3031 4423 
Q 3450 4097 3450 3541 
Q 3450 3153 3228 2886 
Q 3006 2619 2597 2516 
z
" transform="scale(0.015625)"/>
       </defs>
       <use xlink:href="#DejaVuSans-33"/>
      </g>
     </g>
    </g>
    <g id="xtick_5">
     <g id="line2d_5">
      <g>
       <use xlink:href="#md73cbdf3e8" x="292.087884" y="307.584" style="stroke: #000000; stroke-width: 0.8"/>
      </g>
     </g>
     <g id="text_5">
      <!-- 4 -->
      <g transform="translate(288.906634 322.182437) scale(0.1 -0.1)">
       <defs>
        <path id="DejaVuSans-34" d="M 2419 4116 
L 825 1625 
L 2419 1625 
L 2419 4116 
z
M 2253 4666 
L 3047 4666 
L 3047 1625 
L 3713 1625 
L 3713 1100 
L 3047 1100 
L 3047 0 
L 2419 0 
L 2419 1100 
L 313 1100 
L 313 1709 
L 2253 4666 
z
" transform="scale(0.015625)"/>
       </defs>
       <use xlink:href="#DejaVuSans-34"/>
      </g>
     </g>
    </g>
    <g id="xtick_6">
     <g id="line2d_6">
      <g>
       <use xlink:href="#md73cbdf3e8" x="346.651673" y="307.584" style="stroke: #000000; stroke-width: 0.8"/>
      </g>
     </g>
     <g id="text_6">
      <!-- 5 -->
      <g transform="translate(343.470423 322.182437) scale(0.1 -0.1)">
       <defs>
        <path id="DejaVuSans-35" d="M 691 4666 
L 3169 4666 
L 3169 4134 
L 1269 4134 
L 1269 2991 
Q 1406 3038 1543 3061 
Q 1681 3084 1819 3084 
Q 2600 3084 3056 2656 
Q 3513 2228 3513 1497 
Q 3513 744 3044 326 
Q 2575 -91 1722 -91 
Q 1428 -91 1123 -41 
Q 819 9 494 109 
L 494 744 
Q 775 591 1075 516 
Q 1375 441 1709 441 
Q 2250 441 2565 725 
Q 2881 1009 2881 1497 
Q 2881 1984 2565 2268 
Q 2250 2553 1709 2553 
Q 1456 2553 1204 2497 
Q 953 2441 691 2322 
L 691 4666 
z
" transform="scale(0.015625)"/>
       </defs>
       <use xlink:href="#DejaVuSans-35"/>
      </g>
     </g>
    </g>
    <g id="xtick_7">
     <g id="line2d_7">
      <g>
       <use xlink:href="#md73cbdf3e8" x="401.215462" y="307.584" style="stroke: #000000; stroke-width: 0.8"/>
      </g>
     </g>
     <g id="text_7">
      <!-- 6 -->
      <g transform="translate(398.034212 322.182437) scale(0.1 -0.1)">
       <defs>
        <path id="DejaVuSans-36" d="M 2113 2584 
Q 1688 2584 1439 2293 
Q 1191 2003 1191 1497 
Q 1191 994 1439 701 
Q 1688 409 2113 409 
Q 2538 409 2786 701 
Q 3034 994 3034 1497 
Q 3034 2003 2786 2293 
Q 2538 2584 2113 2584 
z
M 3366 4563 
L 3366 3988 
Q 3128 4100 2886 4159 
Q 2644 4219 2406 4219 
Q 1781 4219 1451 3797 
Q 1122 3375 1075 2522 
Q 1259 2794 1537 2939 
Q 1816 3084 2150 3084 
Q 2853 3084 3261 2657 
Q 3669 2231 3669 1497 
Q 3669 778 3244 343 
Q 2819 -91 2113 -91 
Q 1303 -91 875 529 
Q 447 1150 447 2328 
Q 447 3434 972 4092 
Q 1497 4750 2381 4750 
Q 2619 4750 2861 4703 
Q 3103 4656 3366 4563 
z
" transform="scale(0.015625)"/>
       </defs>
       <use xlink:href="#DejaVuSans-36"/>
      </g>
     </g>
    </g>
   </g>
   <g id="matplotlib.axis_2">
    <g id="ytick_1">
     <g id="line2d_8">
      <defs>
       <path id="mfd7899548a" d="M 0 0 
L -3.5 0 
" style="stroke: #000000; stroke-width: 0.8"/>
      </defs>
      <g>
       <use xlink:href="#mfd7899548a" x="57.6" y="295.488" style="stroke: #000000; stroke-width: 0.8"/>
      </g>
     </g>
     <g id="text_8">
      <!-- 0.0 -->
      <g transform="translate(34.696875 299.287219) scale(0.1 -0.1)">
       <defs>
        <path id="DejaVuSans-2e" d="M 684 794 
L 1344 794 
L 1344 0 
L 684 0 
L 684 794 
z
" transform="scale(0.015625)"/>
       </defs>
       <use xlink:href="#DejaVuSans-30"/>
       <use xlink:href="#DejaVuSans-2e" transform="translate(63.623047 0)"/>
       <use xlink:href="#DejaVuSans-30" transform="translate(95.410156 0)"/>
      </g>
     </g>
    </g>
    <g id="ytick_2">
     <g id="line2d_9">
      <g>
       <use xlink:href="#mfd7899548a" x="57.6" y="259.889042" style="stroke: #000000; stroke-width: 0.8"/>
      </g>
     </g>
     <g id="text_9">
      <!-- 0.2 -->
      <g transform="translate(34.696875 263.688261) scale(0.1 -0.1)">
       <use xlink:href="#DejaVuSans-30"/>
       <use xlink:href="#DejaVuSans-2e" transform="translate(63.623047 0)"/>
       <use xlink:href="#DejaVuSans-32" transform="translate(95.410156 0)"/>
      </g>
     </g>
    </g>
    <g id="ytick_3">
     <g id="line2d_10">
      <g>
       <use xlink:href="#mfd7899548a" x="57.6" y="224.290084" style="stroke: #000000; stroke-width: 0.8"/>
      </g>
     </g>
     <g id="text_10">
      <!-- 0.4 -->
      <g transform="translate(34.696875 228.089303) scale(0.1 -0.1)">
       <use xlink:href="#DejaVuSans-30"/>
       <use xlink:href="#DejaVuSans-2e" transform="translate(63.623047 0)"/>
       <use xlink:href="#DejaVuSans-34" transform="translate(95.410156 0)"/>
      </g>
     </g>
    </g>
    <g id="ytick_4">
     <g id="line2d_11">
      <g>
       <use xlink:href="#mfd7899548a" x="57.6" y="188.691127" style="stroke: #000000; stroke-width: 0.8"/>
      </g>
     </g>
     <g id="text_11">
      <!-- 0.6 -->
      <g transform="translate(34.696875 192.490345) scale(0.1 -0.1)">
       <use xlink:href="#DejaVuSans-30"/>
       <use xlink:href="#DejaVuSans-2e" transform="translate(63.623047 0)"/>
       <use xlink:href="#DejaVuSans-36" transform="translate(95.410156 0)"/>
      </g>
     </g>
    </g>
    <g id="ytick_5">
     <g id="line2d_12">
      <g>
       <use xlink:href="#mfd7899548a" x="57.6" y="153.092169" style="stroke: #000000; stroke-width: 0.8"/>
      </g>
     </g>
     <g id="text_12">
      <!-- 0.8 -->
      <g transform="translate(34.696875 156.891388) scale(0.1 -0.1)">
       <defs>
        <path id="DejaVuSans-38" d="M 2034 2216 
Q 1584 2216 1326 1975 
Q 1069 1734 1069 1313 
Q 1069 891 1326 650 
Q 1584 409 2034 409 
Q 2484 409 2743 651 
Q 3003 894 3003 1313 
Q 3003 1734 2745 1975 
Q 2488 2216 2034 2216 
z
M 1403 2484 
Q 997 2584 770 2862 
Q 544 3141 544 3541 
Q 544 4100 942 4425 
Q 1341 4750 2034 4750 
Q 2731 4750 3128 4425 
Q 3525 4100 3525 3541 
Q 3525 3141 3298 2862 
Q 3072 2584 2669 2484 
Q 3125 2378 3379 2068 
Q 3634 1759 3634 1313 
Q 3634 634 3220 271 
Q 2806 -91 2034 -91 
Q 1263 -91 848 271 
Q 434 634 434 1313 
Q 434 1759 690 2068 
Q 947 2378 1403 2484 
z
M 1172 3481 
Q 1172 3119 1398 2916 
Q 1625 2713 2034 2713 
Q 2441 2713 2670 2916 
Q 2900 3119 2900 3481 
Q 2900 3844 2670 4047 
Q 2441 4250 2034 4250 
Q 1625 4250 1398 4047 
Q 1172 3844 1172 3481 
z
" transform="scale(0.015625)"/>
       </defs>
       <use xlink:href="#DejaVuSans-30"/>
       <use xlink:href="#DejaVuSans-2e" transform="translate(63.623047 0)"/>
       <use xlink:href="#DejaVuSans-38" transform="translate(95.410156 0)"/>
      </g>
     </g>
    </g>
    <g id="ytick_6">
     <g id="line2d_13">
      <g>
       <use xlink:href="#mfd7899548a" x="57.6" y="117.493211" style="stroke: #000000; stroke-width: 0.8"/>
      </g>
     </g>
     <g id="text_13">
      <!-- 1.0 -->
      <g transform="translate(34.696875 121.29243) scale(0.1 -0.1)">
       <use xlink:href="#DejaVuSans-31"/>
       <use xlink:href="#DejaVuSans-2e" transform="translate(63.623047 0)"/>
       <use xlink:href="#DejaVuSans-30" transform="translate(95.410156 0)"/>
      </g>
     </g>
    </g>
    <g id="ytick_7">
     <g id="line2d_14">
      <g>
       <use xlink:href="#mfd7899548a" x="57.6" y="81.894253" style="stroke: #000000; stroke-width: 0.8"/>
      </g>
     </g>
     <g id="text_14">
      <!-- 1.2 -->
      <g transform="translate(34.696875 85.693472) scale(0.1 -0.1)">
       <use xlink:href="#DejaVuSans-31"/>
       <use xlink:href="#DejaVuSans-2e" transform="translate(63.623047 0)"/>
       <use xlink:href="#DejaVuSans-32" transform="translate(95.410156 0)"/>
      </g>
     </g>
    </g>
    <g id="ytick_8">
     <g id="line2d_15">
      <g>
       <use xlink:href="#mfd7899548a" x="57.6" y="46.295296" style="stroke: #000000; stroke-width: 0.8"/>
      </g>
     </g>
     <g id="text_15">
      <!-- 1.4 -->
      <g transform="translate(34.696875 50.094514) scale(0.1 -0.1)">
       <use xlink:href="#DejaVuSans-31"/>
       <use xlink:href="#DejaVuSans-2e" transform="translate(63.623047 0)"/>
       <use xlink:href="#DejaVuSans-34" transform="translate(95.410156 0)"/>
      </g>
     </g>
    </g>
   </g>
   <g id="line2d_16">
    <path d="M 73.832727 295.488 
L 76.560917 264.211256 
L 79.289106 235.985282 
L 82.017296 210.586895 
L 84.745485 187.807428 
L 87.473675 167.451839 
L 90.201864 149.337884 
L 92.930053 133.295327 
L 95.658243 119.165208 
L 98.386432 106.799143 
L 101.114622 96.058675 
L 103.842811 86.814654 
L 106.571001 78.946661 
L 109.29919 72.342466 
L 112.02738 66.89751 
L 114.755569 62.514428 
L 117.483759 59.102596 
L 120.211948 56.577701 
L 122.940138 54.861346 
L 125.668327 53.880672 
L 128.396516 53.568 
L 131.124706 53.860507 
L 133.852895 54.699905 
L 136.581085 56.032155 
L 139.309274 57.807187 
L 142.037464 59.978643 
L 144.765653 62.503633 
L 147.493843 65.342507 
L 150.222032 68.458644 
L 152.950222 71.818246 
L 155.678411 75.390154 
L 158.4066 79.145668 
L 161.13479 83.058382 
L 163.862979 87.104031 
L 166.591169 91.260342 
L 169.319358 95.506896 
L 172.047548 99.825007 
L 174.775737 104.197592 
L 177.503927 108.609069 
L 180.232116 113.045243 
L 182.960306 117.493211 
L 185.688495 121.941272 
L 188.416684 126.378838 
L 191.144874 130.79635 
L 193.873063 135.185212 
L 196.601253 139.537709 
L 199.329442 143.84695 
L 202.057632 148.106801 
L 204.785821 152.31183 
L 207.514011 156.457252 
L 210.2422 160.538879 
L 212.97039 164.553074 
L 215.698579 168.496705 
L 218.426769 172.367108 
L 221.154958 176.162045 
L 223.883147 179.879671 
L 226.611337 183.5185 
L 229.339526 187.077376 
L 232.067716 190.555443 
L 234.795905 193.952117 
L 237.524095 197.267065 
L 240.252284 200.500179 
L 242.980474 203.651557 
L 245.708663 206.721481 
L 248.436853 209.7104 
L 251.165042 212.618914 
L 253.893231 215.447756 
L 256.621421 218.197779 
L 259.34961 220.869943 
L 262.0778 223.465302 
L 264.805989 225.98499 
L 267.534179 228.430216 
L 270.262368 230.802249 
L 272.990558 233.102414 
L 275.718747 235.332077 
L 278.446937 237.492644 
L 281.175126 239.585553 
L 283.903316 241.612262 
L 286.631505 243.574252 
L 289.359694 245.473014 
L 292.087884 247.31005 
L 294.816073 249.086862 
L 297.544263 250.804958 
L 300.272452 252.465836 
L 303.000642 254.070992 
L 305.728831 255.62191 
L 308.457021 257.120064 
L 311.18521 258.56691 
L 313.9134 259.96389 
L 316.641589 261.312426 
L 319.369778 262.613921 
L 322.097968 263.869755 
L 324.826157 265.081287 
L 327.554347 266.249851 
L 330.282536 267.376757 
L 333.010726 268.463288 
L 335.738915 269.510702 
L 338.467105 270.52023 
L 341.195294 271.493076 
L 343.923484 272.430418 
L 346.651673 273.333403 
L 349.379862 274.203155 
L 352.108052 275.040766 
L 354.836241 275.847303 
L 357.564431 276.623804 
L 360.29262 277.371282 
L 363.02081 278.090719 
L 365.748999 278.783074 
L 368.477189 279.449276 
L 371.205378 280.09023 
L 373.933568 280.706814 
L 376.661757 281.29988 
L 379.389947 281.870255 
L 382.118136 282.418744 
L 384.846325 282.946122 
L 387.574515 283.453146 
L 390.302704 283.940546 
L 393.030894 284.40903 
L 395.759083 284.859283 
L 398.487273 285.291971 
" clip-path="url(#pe139b243cc)" style="fill: none; stroke: #1f77b4; stroke-width: 1.5; stroke-linecap: square"/>
   </g>
   <g id="line2d_17">
    <path d="M 73.832727 295.488 
L 76.560917 204.387468 
L 79.289106 197.732387 
L 82.017296 218.930788 
L 84.745485 139.877033 
L 87.473675 192.787321 
L 90.201864 214.264725 
L 92.930053 193.318672 
L 95.658243 116.590316 
L 98.386432 141.573158 
L 101.114622 145.717011 
L 103.842811 56.528159 
L 106.571001 89.6414 
L 109.29919 24.344132 
L 110.955624 -1 
M 112.343771 -1 
L 114.755569 124.001545 
L 117.483759 55.359205 
L 118.388085 -1 
M 121.63772 -1 
L 122.940138 102.832144 
L 125.668327 17.930611 
L 128.396516 97.571877 
L 131.124706 90.836002 
L 133.852895 87.162625 
L 136.581085 48.475951 
L 139.309274 67.602547 
L 142.037464 29.791128 
L 144.765653 109.176925 
L 147.493843 82.17572 
L 150.222032 72.155962 
L 152.950222 107.852386 
L 155.678411 75.78665 
L 156.723633 -1 
M 159.82958 -1 
L 161.13479 112.40575 
L 162.993373 -1 
M 164.692742 -1 
L 166.591169 120.399213 
L 169.319358 114.898628 
L 172.047548 81.201595 
L 174.775737 109.468142 
L 177.503927 113.654003 
L 180.232116 117.98016 
L 182.960306 117.493211 
L 185.688495 124.454798 
L 188.416684 132.281914 
L 191.144874 130.691359 
L 193.873063 128.30081 
L 196.601253 140.972143 
L 199.329442 127.564769 
L 202.057632 154.048606 
L 204.785821 154.226901 
L 207.514011 177.294815 
L 210.2422 160.864754 
L 212.97039 181.183373 
L 215.698579 185.341296 
L 218.426769 130.858876 
L 221.154958 185.766317 
L 223.883147 190.592985 
L 226.611337 181.633187 
L 229.339526 207.32328 
L 232.067716 199.072295 
L 234.795905 178.041696 
L 237.524095 171.885215 
L 240.252284 220.903216 
L 242.980474 197.19316 
L 245.708663 194.53615 
L 248.436853 227.624649 
L 251.165042 218.75634 
L 253.893231 239.482775 
L 256.621421 221.388926 
L 259.34961 196.306414 
L 262.0778 232.950233 
L 264.805989 229.779385 
L 267.534179 252.316791 
L 270.262368 233.01071 
L 272.990558 260.763308 
L 275.718747 246.92337 
L 278.446937 271.886099 
L 281.175126 226.6196 
L 283.903316 250.36082 
L 286.631505 252.799785 
L 289.359694 234.089242 
L 292.087884 221.757864 
L 294.816073 247.625336 
L 297.544263 267.119692 
L 300.272452 276.358997 
L 303.000642 230.461623 
L 305.728831 252.917699 
L 308.457021 282.512041 
L 311.18521 240.253704 
L 313.9134 255.888696 
L 316.641589 283.354223 
L 319.369778 264.56622 
L 322.097968 268.949799 
L 324.826157 318.552129 
L 327.554347 274.854802 
L 330.282536 269.661021 
L 333.010726 253.530809 
L 335.738915 278.301127 
L 338.467105 274.148409 
L 341.195294 268.129471 
L 343.923484 263.317012 
L 346.651673 292.253721 
L 349.379862 269.130091 
L 352.108052 271.003374 
L 354.836241 266.247964 
L 357.564431 274.390673 
L 360.29262 282.307371 
L 363.02081 279.167028 
L 365.748999 284.211686 
L 368.477189 303.722565 
L 371.205378 283.435047 
L 373.933568 283.557397 
L 376.661757 298.525575 
L 379.389947 285.272764 
L 382.118136 301.641747 
L 384.846325 295.316726 
L 387.574515 277.756997 
L 390.302704 292.450097 
L 393.030894 288.43837 
L 395.759083 294.687804 
L 398.487273 297.41318 
" clip-path="url(#pe139b243cc)" style="fill: none; stroke: #ff7f0e; stroke-width: 1.5; stroke-linecap: square"/>
   </g>
   <g id="patch_3">
    <path d="M 57.6 307.584 
L 57.6 41.472 
" style="fill: none; stroke: #000000; stroke-width: 0.8; stroke-linejoin: miter; stroke-linecap: square"/>
   </g>
   <g id="patch_4">
    <path d="M 414.72 307.584 
L 414.72 41.472 
" style="fill: none; stroke: #000000; stroke-width: 0.8; stroke-linejoin: miter; stroke-linecap: square"/>
   </g>
   <g id="patch_5">
    <path d="M 57.6 307.584 
L 414.72 307.584 
" style="fill: none; stroke: #000000; stroke-width: 0.8; stroke-linejoin: miter; stroke-linecap: square"/>
   </g>
   <g id="patch_6">
    <path d="M 57.6 41.472 
L 414.72 41.472 
" style="fill: none; stroke: #000000; stroke-width: 0.8; stroke-linejoin: miter; stroke-linecap: square"/>
   </g>
  </g>
 </g>
 <defs>
  <clipPath id="pe139b243cc">
   <rect x="57.6" y="41.472" width="357.12" height="266.112"/>
  </clipPath>
 </defs>
</svg>
