<?xml version="1.0" encoding="utf-8" standalone="no"?>
<!DOCTYPE svg PUBLIC "-//W3C//DTD SVG 1.1//EN"
  "http://www.w3.org/Graphics/SVG/1.1/DTD/svg11.dtd">
<svg xmlns:xlink="http://www.w3.org/1999/xlink" width="460.8pt" height="345.6pt" viewBox="0 0 460.8 345.6" xmlns="http://www.w3.org/2000/svg" version="1.1">
 <metadata>
  <rdf:RDF xmlns:dc="http://purl.org/dc/elements/1.1/" xmlns:cc="http://creativecommons.org/ns#" xmlns:rdf="http://www.w3.org/1999/02/22-rdf-syntax-ns#">
   <cc:Work>
    <dc:type rdf:resource="http://purl.org/dc/dcmitype/StillImage"/>
    <dc:date>2025-11-06T00:31:39.682789</dc:date>
    <dc:format>image/svg+xml</dc:format>
    <dc:creator>
     <cc:Agent>
      <dc:title>Matplotlib v3.10.7, https://matplotlib.org/</dc:title>
     </cc:Agent>
    </dc:creator>
   </cc:Work>
  </rdf:RDF>
 </metadata>
 <defs>
  <style type="text/css">*{stroke-linejoin: round; stroke-linecap: butt}</style>
 </defs>
 <g id="figure_1">
  <g id="patch_1">
   <path d="M 0 345.6 
L 460.8 345.6 
L 460.8 0 
L 0 0 
z
" style="fill: #ffffff"/>
  </g>
  <g id="axes_1">
   <g id="patch_2">
    <path d="M 57.6 307.584 
L 414.72 307.584 
L 414.72 41.472 
L 57.6 41.472 
z
" style="fill: #ffffff"/>
   </g>
   <g id="matplotlib.axis_1">
    <g id="xtick_1">
     <g id="line2d_1">
      <defs>
       <path id="mc3fca33e3b" d="M 0 0 
L 0 3.5 
" style="stroke: #000000; stroke-width: 0.8"/>
      </defs>
      <g>
       <use xlink:href="#mc3fca33e3b" x="73.832727" y="307.584" style="stroke: #000000; stroke-width: 0.8"/>
      </g>
     </g>
     <g id="text_1">
      <!-- 0 -->
      <g transform="translate(70.651477 322.182437) scale(0.1 -0.1)">
       <defs>
        <path id="DejaVuSans-30" d="M 2034 4250 
Q 1547 4250 1301 3770 
Q 1056 3291 1056 2328 
Q 1056 1369 1301 889 
Q 1547 409 2034 409 
Q 2525 409 2770 889 
Q 3016 1369 3016 2328 
Q 3016 3291 2770 3770 
Q 2525 4250 2034 4250 
z
M 2034 4750 
Q 2819 4750 3233 4129 
Q 3647 3509 3647 2328 
Q 3647 1150 3233 529 
Q 2819 -91 2034 -91 
Q 1250 -91 836 529 
Q 422 1150 422 2328 
Q 422 3509 836 4129 
Q 1250 4750 2034 4750 
z
" transform="scale(0.015625)"/>
       </defs>
       <use xlink:href="#DejaVuSans-30"/>
      </g>
     </g>
    </g>
    <g id="xtick_2">
     <g id="line2d_2">
      <g>
       <use xlink:href="#mc3fca33e3b" x="146.058433" y="307.584" style="stroke: #000000; stroke-width: 0.8"/>
      </g>
     </g>
     <g id="text_2">
      <!-- 2 -->
      <g transform="translate(142.877183 322.182437) scale(0.1 -0.1)">
       <defs>
        <path id="DejaVuSans-32" d="M 1228 531 
L 3431 531 
L 3431 0 
L 469 0 
L 469 531 
Q 828 903 1448 1529 
Q 2069 2156 2228 2338 
Q 2531 2678 2651 2914 
Q 2772 3150 2772 3378 
Q 2772 3750 2511 3984 
Q 2250 4219 1831 4219 
Q 1534 4219 1204 4116 
Q 875 4013 500 3803 
L 500 4441 
Q 881 4594 1212 4672 
Q 1544 4750 1819 4750 
Q 2544 4750 2975 4387 
Q 3406 4025 3406 3419 
Q 3406 3131 3298 2873 
Q 3191 2616 2906 2266 
Q 2828 2175 2409 1742 
Q 1991 1309 1228 531 
z
" transform="scale(0.015625)"/>
       </defs>
       <use xlink:href="#DejaVuSans-32"/>
      </g>
     </g>
    </g>
    <g id="xtick_3">
     <g id="line2d_3">
      <g>
       <use xlink:href="#mc3fca33e3b" x="218.284138" y="307.584" style="stroke: #000000; stroke-width: 0.8"/>
      </g>
     </g>
     <g id="text_3">
      <!-- 4 -->
      <g transform="translate(215.102888 322.182437) scale(0.1 -0.1)">
       <defs>
        <path id="DejaVuSans-34" d="M 2419 4116 
L 825 1625 
L 2419 1625 
L 2419 4116 
z
M 2253 4666 
L 3047 4666 
L 3047 1625 
L 3713 1625 
L 3713 1100 
L 3047 1100 
L 3047 0 
L 2419 0 
L 2419 1100 
L 313 1100 
L 313 1709 
L 2253 4666 
z
" transform="scale(0.015625)"/>
       </defs>
       <use xlink:href="#DejaVuSans-34"/>
      </g>
     </g>
    </g>
    <g id="xtick_4">
     <g id="line2d_4">
      <g>
       <use xlink:href="#mc3fca33e3b" x="290.509843" y="307.584" style="stroke: #000000; stroke-width: 0.8"/>
      </g>
     </g>
     <g id="text_4">
      <!-- 6 -->
      <g transform="translate(287.328593 322.182437) scale(0.1 -0.1)">
       <defs>
        <path id="DejaVuSans-36" d="M 2113 2584 
Q 1688 2584 1439 2293 
Q 1191 2003 1191 1497 
Q 1191 994 1439 701 
Q 1688 409 2113 409 
Q 2538 409 2786 701 
Q 3034 994 3034 1497 
Q 3034 2003 2786 2293 
Q 2538 2584 2113 2584 
z
M 3366 4563 
L 3366 3988 
Q 3128 4100 2886 4159 
Q 2644 4219 2406 4219 
Q 1781 4219 1451 3797 
Q 1122 3375 1075 2522 
Q 1259 2794 1537 2939 
Q 1816 3084 2150 3084 
Q 2853 3084 3261 2657 
Q 3669 2231 3669 1497 
Q 3669 778 3244 343 
Q 2819 -91 2113 -91 
Q 1303 -91 875 529 
Q 447 1150 447 2328 
Q 447 3434 972 4092 
Q 1497 4750 2381 4750 
Q 2619 4750 2861 4703 
Q 3103 4656 3366 4563 
z
" transform="scale(0.015625)"/>
       </defs>
       <use xlink:href="#DejaVuSans-36"/>
      </g>
     </g>
    </g>
    <g id="xtick_5">
     <g id="line2d_5">
      <g>
       <use xlink:href="#mc3fca33e3b" x="362.735549" y="307.584" style="stroke: #000000; stroke-width: 0.8"/>
      </g>
     </g>
     <g id="text_5">
      <!-- 8 -->
      <g transform="translate(359.554299 322.182437) scale(0.1 -0.1)">
       <defs>
        <path id="DejaVuSans-38" d="M 2034 2216 
Q 1584 2216 1326 1975 
Q 1069 1734 1069 1313 
Q 1069 891 1326 650 
Q 1584 409 2034 409 
Q 2484 409 2743 651 
Q 3003 894 3003 1313 
Q 3003 1734 2745 1975 
Q 2488 2216 2034 2216 
z
M 1403 2484 
Q 997 2584 770 2862 
Q 544 3141 544 3541 
Q 544 4100 942 4425 
Q 1341 4750 2034 4750 
Q 2731 4750 3128 4425 
Q 3525 4100 3525 3541 
Q 3525 3141 3298 2862 
Q 3072 2584 2669 2484 
Q 3125 2378 3379 2068 
Q 3634 1759 3634 1313 
Q 3634 634 3220 271 
Q 2806 -91 2034 -91 
Q 1263 -91 848 271 
Q 434 634 434 1313 
Q 434 1759 690 2068 
Q 947 2378 1403 2484 
z
M 1172 3481 
Q 1172 3119 1398 2916 
Q 1625 2713 2034 2713 
Q 2441 2713 2670 2916 
Q 2900 3119 2900 3481 
Q 2900 3844 2670 4047 
Q 2441 4250 2034 4250 
Q 1625 4250 1398 4047 
Q 1172 3844 1172 3481 
z
" transform="scale(0.015625)"/>
       </defs>
       <use xlink:href="#DejaVuSans-38"/>
      </g>
     </g>
    </g>
   </g>
   <g id="matplotlib.axis_2">
    <g id="ytick_1">
     <g id="line2d_6">
      <defs>
       <path id="mbb84c0a4df" d="M 0 0 
L -3.5 0 
" style="stroke: #000000; stroke-width: 0.8"/>
      </defs>
      <g>
       <use xlink:href="#mbb84c0a4df" x="57.6" y="295.488" style="stroke: #000000; stroke-width: 0.8"/>
      </g>
     </g>
     <g id="text_6">
      <!-- 0.0 -->
      <g transform="translate(34.696875 299.287219) scale(0.1 -0.1)">
       <defs>
        <path id="DejaVuSans-2e" d="M 684 794 
L 1344 794 
L 1344 0 
L 684 0 
L 684 794 
z
" transform="scale(0.015625)"/>
       </defs>
       <use xlink:href="#DejaVuSans-30"/>
       <use xlink:href="#DejaVuSans-2e" transform="translate(63.623047 0)"/>
       <use xlink:href="#DejaVuSans-30" transform="translate(95.410156 0)"/>
      </g>
     </g>
    </g>
    <g id="ytick_2">
     <g id="line2d_7">
      <g>
       <use xlink:href="#mbb84c0a4df" x="57.6" y="247.104" style="stroke: #000000; stroke-width: 0.8"/>
      </g>
     </g>
     <g id="text_7">
      <!-- 0.2 -->
      <g transform="translate(34.696875 250.903219) scale(0.1 -0.1)">
       <use xlink:href="#DejaVuSans-30"/>
       <use xlink:href="#DejaVuSans-2e" transform="translate(63.623047 0)"/>
       <use xlink:href="#DejaVuSans-32" transform="translate(95.410156 0)"/>
      </g>
     </g>
    </g>
    <g id="ytick_3">
     <g id="line2d_8">
      <g>
       <use xlink:href="#mbb84c0a4df" x="57.6" y="198.72" style="stroke: #000000; stroke-width: 0.8"/>
      </g>
     </g>
     <g id="text_8">
      <!-- 0.4 -->
      <g transform="translate(34.696875 202.519219) scale(0.1 -0.1)">
       <use xlink:href="#DejaVuSans-30"/>
       <use xlink:href="#DejaVuSans-2e" transform="translate(63.623047 0)"/>
       <use xlink:href="#DejaVuSans-34" transform="translate(95.410156 0)"/>
      </g>
     </g>
    </g>
    <g id="ytick_4">
     <g id="line2d_9">
      <g>
       <use xlink:href="#mbb84c0a4df" x="57.6" y="150.336" style="stroke: #000000; stroke-width: 0.8"/>
      </g>
     </g>
     <g id="text_9">
      <!-- 0.6 -->
      <g transform="translate(34.696875 154.135219) scale(0.1 -0.1)">
       <use xlink:href="#DejaVuSans-30"/>
       <use xlink:href="#DejaVuSans-2e" transform="translate(63.623047 0)"/>
       <use xlink:href="#DejaVuSans-36" transform="translate(95.410156 0)"/>
      </g>
     </g>
    </g>
    <g id="ytick_5">
     <g id="line2d_10">
      <g>
       <use xlink:href="#mbb84c0a4df" x="57.6" y="101.952" style="stroke: #000000; stroke-width: 0.8"/>
      </g>
     </g>
     <g id="text_10">
      <!-- 0.8 -->
      <g transform="translate(34.696875 105.751219) scale(0.1 -0.1)">
       <use xlink:href="#DejaVuSans-30"/>
       <use xlink:href="#DejaVuSans-2e" transform="translate(63.623047 0)"/>
       <use xlink:href="#DejaVuSans-38" transform="translate(95.410156 0)"/>
      </g>
     </g>
    </g>
    <g id="ytick_6">
     <g id="line2d_11">
      <g>
       <use xlink:href="#mbb84c0a4df" x="57.6" y="53.568" style="stroke: #000000; stroke-width: 0.8"/>
      </g>
     </g>
     <g id="text_11">
      <!-- 1.0 -->
      <g transform="translate(34.696875 57.367219) scale(0.1 -0.1)">
       <defs>
        <path id="DejaVuSans-31" d="M 794 531 
L 1825 531 
L 1825 4091 
L 703 3866 
L 703 4441 
L 1819 4666 
L 2450 4666 
L 2450 531 
L 3481 531 
L 3481 0 
L 794 0 
L 794 531 
z
" transform="scale(0.015625)"/>
       </defs>
       <use xlink:href="#DejaVuSans-31"/>
       <use xlink:href="#DejaVuSans-2e" transform="translate(63.623047 0)"/>
       <use xlink:href="#DejaVuSans-30" transform="translate(95.410156 0)"/>
      </g>
     </g>
    </g>
   </g>
   <g id="line2d_12">
    <path d="M 73.832727 295.488 
L 75.999498 258.329358 
L 78.16627 225.498617 
L 79.971912 201.172056 
L 81.777555 179.38481 
L 83.583197 159.947055 
L 85.38884 142.68144 
L 87.194483 127.422326 
L 89.000125 114.015065 
L 90.805768 102.315319 
L 92.611411 92.188426 
L 94.417053 83.508796 
L 95.861567 77.528172 
L 97.306082 72.342466 
L 98.750596 67.898536 
L 100.19511 64.146182 
L 101.639624 61.038004 
L 103.084138 58.529253 
L 104.167524 57.01557 
L 105.250909 55.798335 
L 106.334295 54.861346 
L 107.41768 54.189103 
L 108.501066 53.766775 
L 109.584451 53.580177 
L 110.667837 53.615744 
L 111.751223 53.860507 
L 112.834608 54.302069 
L 114.279122 55.176553 
L 115.723636 56.353275 
L 117.16815 57.807187 
L 118.973793 59.978643 
L 120.779436 62.503633 
L 122.946207 65.944675 
L 125.474107 70.447241 
L 128.363135 76.127445 
L 131.613292 83.058382 
L 135.585705 92.103055 
L 141.002633 105.07725 
L 159.781317 150.636717 
L 165.198245 162.955699 
L 170.254044 173.894251 
L 174.948715 183.5185 
L 179.282257 191.923904 
L 183.615799 199.860101 
L 187.949342 207.325728 
L 192.282884 214.325727 
L 196.255298 220.34169 
L 200.227712 225.98499 
L 204.200125 231.267989 
L 208.172539 236.204515 
L 212.144953 240.809428 
L 216.117367 245.098248 
L 220.089781 249.086862 
L 224.423323 253.114502 
L 228.756865 256.824584 
L 233.090408 260.237427 
L 237.42395 263.372813 
L 241.757492 266.249851 
L 246.452163 269.096351 
L 251.146834 271.683348 
L 256.202633 274.203155 
L 261.258433 276.470858 
L 266.675361 278.646725 
L 272.092288 280.585405 
L 277.870345 282.418744 
L 284.00953 284.13017 
L 290.509843 285.707735 
L 297.371285 287.144004 
L 304.954984 288.495032 
L 312.899812 289.6831 
L 321.566897 290.756158 
L 331.317367 291.733638 
L 342.151223 292.589675 
L 354.429592 293.330657 
L 368.513605 293.954042 
L 385.486646 294.474052 
L 398.487273 294.751083 
L 398.487273 294.751083 
" clip-path="url(#pe33f62135e)" style="fill: none; stroke: #1f77b4; stroke-width: 1.5; stroke-linecap: square"/>
   </g>
   <g id="line2d_13">
    <path d="M 73.832727 295.488 
L 74.916113 277.323767 
L 75.63837 266.562787 
L 75.999498 257.981531 
L 76.360627 259.918879 
L 76.721755 241.628346 
L 77.082884 231.704771 
L 77.444013 230.518564 
L 77.805141 226.364406 
L 78.16627 212.899105 
L 78.527398 218.002015 
L 78.888527 213.638595 
L 79.249655 203.8856 
L 79.610784 212.888637 
L 79.971912 198.622101 
L 80.333041 178.703304 
L 80.694169 202.651525 
L 81.416426 175.141946 
L 81.777555 180.585825 
L 82.138683 183.968123 
L 82.499812 167.124849 
L 82.86094 175.210952 
L 83.222069 160.778294 
L 83.583197 154.917633 
L 83.944326 158.729318 
L 84.305455 139.971501 
L 84.666583 156.191024 
L 85.027712 144.488249 
L 85.38884 144.266896 
L 85.749969 142.958732 
L 86.111097 143.028578 
L 86.472226 126.999911 
L 86.833354 119.951101 
L 87.194483 135.449444 
L 87.555611 140.963497 
L 87.91674 124.697016 
L 88.277868 116.102173 
L 88.638997 114.648378 
L 89.000125 100.146506 
L 89.361254 107.525074 
L 89.722382 107.923127 
L 90.083511 100.123099 
L 90.444639 110.814402 
L 90.805768 97.159494 
L 91.166897 91.952883 
L 91.528025 103.625799 
L 91.889154 95.246429 
L 92.250282 107.411368 
L 92.611411 87.541888 
L 92.972539 81.187751 
L 93.333668 82.436018 
L 93.694796 85.514075 
L 94.055925 80.205284 
L 94.417053 78.924893 
L 94.778182 88.603615 
L 95.13931 79.031924 
L 95.500439 90.277364 
L 95.861567 86.161026 
L 96.222696 89.44081 
L 96.583824 81.861493 
L 96.944953 68.153224 
L 97.306082 64.937047 
L 97.66721 75.03422 
L 98.028339 65.971085 
L 98.389467 71.942964 
L 98.750596 70.043152 
L 99.111724 85.228926 
L 99.472853 53.504259 
L 99.833981 77.836671 
L 100.19511 67.441471 
L 100.556238 64.815026 
L 100.917367 71.348855 
L 101.278495 70.989352 
L 101.639624 54.183565 
L 102.000752 56.168047 
L 102.361881 53.92775 
L 102.723009 59.642232 
L 103.084138 55.508441 
L 103.445266 59.536957 
L 103.806395 61.077336 
L 104.167524 59.243668 
L 104.528652 55.505396 
L 105.612038 51.379021 
L 105.973166 51.46964 
L 106.334295 49.843301 
L 106.695423 56.003709 
L 107.056552 56.91368 
L 107.41768 51.570774 
L 107.778809 55.905983 
L 108.139937 52.64105 
L 108.501066 55.845957 
L 108.862194 56.565408 
L 109.223323 55.807653 
L 109.584451 56.07128 
L 109.94558 56.036571 
L 109.94558 346.6 
M 110.307048 346.6 
L 110.307048 -1 
M 110.667837 -1 
L 110.667837 346.6 
M 111.390094 346.6 
L 111.390094 -1 
M 112.47348 -1 
L 112.47348 346.6 
M 113.195737 346.6 
L 113.195737 -1 
M 113.556865 -1 
L 113.556865 346.6 
M 113.917994 346.6 
L 113.917994 -1 
M 114.640251 -1 
L 114.640251 346.6 
M 117.189561 346.6 
L 117.189561 -1 
M 117.529297 -1 
L 117.529297 346.6 
M 118.612674 346.6 
L 118.612674 -1 
M 120.418307 -1 
L 120.418307 346.6 
M 120.418307 346.6 
L 120.418307 -1 
M 121.862821 -1 
L 121.862821 346.6 
M 124.029592 346.6 
L 124.029592 -1 
M 124.755756 -1 
L 124.755756 346.6 
M 126.557492 346.6 
L 126.557492 -1 
M 127.279749 -1 
L 127.279749 346.6 
M 127.99971 346.6 
L 127.99971 -1 
M 128.002006 -1 
L 128.002006 346.6 
M 129.085392 346.6 
L 129.085392 -1 
M 129.085392 -1 
L 129.085392 346.6 
M 129.807649 346.6 
L 129.807649 -1 
M 130.529906 -1 
L 130.529906 346.6 
M 130.891034 346.6 
L 130.891034 -1 
M 131.252163 -1 
L 131.252163 346.6 
M 132.696677 346.6 
L 132.696677 -1 
M 133.418934 -1 
L 133.418934 346.6 
M 135.585705 346.6 
L 135.585705 -1 
M 136.307962 -1 
L 136.307962 346.6 
M 138.113605 346.6 
L 138.113605 -1 
M 138.484102 -1 
L 138.484102 346.6 
M 139.196977 346.6 
L 139.196977 -1 
M 139.55812 -1 
L 139.55812 346.6 
M 143.530533 346.6 
L 143.530533 -1 
M 144.25279 -1 
L 144.25279 346.6 
M 144.25279 346.6 
L 144.25279 -1 
M 144.975047 -1 
L 144.975047 346.6 
M 146.419561 346.6 
L 146.419561 -1 
M 147.502947 -1 
L 147.502947 346.6 
M 147.502947 346.6 
L 147.502947 -1 
M 147.864075 -1 
L 147.864075 346.6 
M 148.586332 346.6 
L 148.586332 -1 
M 148.586358 -1 
L 148.586358 346.6 
M 149.306943 346.6 
L 149.306943 -1 
M 150.030846 -1 
L 150.030846 346.6 
M 150.03085 346.6 
L 150.03085 -1 
M 150.880615 -1 
L 150.880615 346.6 
M 151.475361 346.6 
L 151.475361 -1 
M 151.475361 -1 
L 151.475361 346.6 
M 152.558747 346.6 
L 152.558747 -1 
M 152.919875 -1 
L 152.919875 346.6 
M 153.642119 346.6 
L 153.642119 -1 
M 155.08665 -1 
L 155.08665 346.6 
M 155.808903 346.6 
L 155.808903 -1 
M 156.53116 -1 
L 156.53116 346.6 
M 157.975674 346.6 
L 157.975674 -1 
M 158.336802 -1 
L 158.336802 346.6 
M 158.336803 346.6 
L 158.336803 -1 
M 159.05906 -1 
L 159.05906 346.6 
M 159.781317 346.6 
L 159.781317 -1 
M 160.503574 -1 
L 160.503574 346.6 
M 161.283813 346.6 
L 161.283813 -1 
M 161.949864 -1 
L 161.949864 346.6 
M 163.031473 346.6 
L 163.031473 -1 
M 163.031473 -1 
L 163.031473 346.6 
M 163.75373 346.6 
L 163.75373 -1 
M 164.837116 -1 
L 164.837116 346.6 
M 166.280158 346.6 
L 166.280158 -1 
M 167.003887 -1 
L 167.003887 346.6 
M 167.004393 346.6 
L 167.004393 -1 
M 167.365016 -1 
L 167.365016 346.6 
M 170.254044 346.6 
L 170.254044 -1 
M 170.254044 -1 
L 170.254044 346.6 
M 171.337982 346.6 
L 171.337982 -1 
M 171.698647 -1 
L 171.698647 346.6 
M 172.781944 346.6 
L 172.781944 -1 
M 173.504201 -1 
L 173.504201 346.6 
M 173.863209 346.6 
L 173.863209 -1 
M 174.226458 -1 
L 174.226458 346.6 
M 174.948715 346.6 
L 174.948715 -1 
M 176.393229 -1 
L 176.393229 346.6 
M 177.476614 346.6 
L 177.476614 -1 
M 177.837489 -1 
L 177.837489 346.6 
M 178.56 346.6 
L 178.56 -1 
M 178.560001 -1 
L 178.560001 346.6 
M 178.921129 346.6 
L 178.921129 -1 
M 180.061721 -1 
L 180.061721 346.6 
M 180.365643 346.6 
L 180.365643 -1 
M 181.0879 -1 
L 181.0879 346.6 
M 181.0879 346.6 
L 181.0879 -1 
M 182.171285 -1 
L 182.171285 346.6 
M 183.254671 346.6 
L 183.254671 -1 
M 183.976928 -1 
L 183.976928 346.6 
M 184.338056 346.6 
L 184.338056 -1 
M 184.338056 -1 
L 184.338056 346.6 
M 185.782571 346.6 
L 185.782571 -1 
M 186.076487 -1 
L 186.076487 346.6 
M 187.227085 346.6 
L 187.227085 -1 
M 187.949342 -1 
L 187.949342 346.6 
M 188.240392 346.6 
L 188.240392 -1 
M 188.310471 -1 
L 188.310471 346.6 
M 189.032727 346.6 
L 189.032727 -1 
M 189.393856 -1 
L 189.393856 346.6 
M 189.754994 346.6 
L 189.754994 -1 
M 190.83837 -1 
L 190.83837 346.6 
M 190.843017 346.6 
L 190.843017 -1 
M 191.921755 -1 
L 191.921755 346.6 
M 192.172123 346.6 
L 192.172123 -1 
M 192.282884 -1 
L 192.282884 346.6 
M 193.36627 346.6 
L 193.36627 -1 
M 194.088527 -1 
L 194.088527 346.6 
M 194.449655 346.6 
L 194.449655 -1 
M 196.250757 -1 
L 196.250757 346.6 
M 196.255298 346.6 
L 196.255298 -1 
M 197.699812 -1 
L 197.699812 346.6 
M 198.422069 346.6 
L 198.422069 -1 
M 198.783197 -1 
L 198.783197 346.6 
M 199.505455 346.6 
L 199.505455 -1 
M 200.58884 -1 
L 200.58884 346.6 
M 200.58884 346.6 
L 200.58884 -1 
M 201.672226 -1 
L 201.672226 346.6 
M 202.033146 346.6 
L 202.033146 -1 
M 203.477868 -1 
L 203.477868 346.6 
M 203.8391 346.6 
L 203.8391 -1 
M 204.560756 -1 
L 204.560756 346.6 
M 205.283511 346.6 
L 205.283511 -1 
M 206.005768 -1 
L 206.005768 346.6 
M 206.366897 346.6 
L 206.366897 -1 
M 207.089154 -1 
L 207.089154 346.6 
M 207.450282 346.6 
L 207.450282 -1 
M 208.533668 -1 
L 208.533668 346.6 
M 208.894796 346.6 
L 208.894796 -1 
M 209.255925 -1 
L 209.255925 346.6 
M 211.422696 346.6 
L 211.422696 -1 
M 211.422915 -1 
L 211.422915 346.6 
M 211.783824 346.6 
L 211.783824 -1 
M 213.589481 -1 
L 213.589481 346.6 
M 214.311724 346.6 
L 214.311724 -1 
M 215.395094 -1 
L 215.395094 346.6 
M 215.756224 346.6 
L 215.756224 -1 
M 216.839624 -1 
L 216.839624 346.6 
M 217.200752 346.6 
L 217.200752 -1 
M 217.209258 -1 
L 217.209258 346.6 
M 217.561881 346.6 
L 217.561881 -1 
M 217.959033 -1 
L 217.959033 346.6 
M 218.64527 346.6 
L 218.64527 -1 
M 220.089781 -1 
L 220.089781 346.6 
M 222.617856 346.6 
L 222.617856 -1 
M 222.978811 -1 
L 222.978811 346.6 
M 223.701066 346.6 
L 223.701066 -1 
M 225.14558 -1 
L 225.14558 346.6 
M 225.867837 346.6 
L 225.867837 -1 
M 226.590092 -1 
L 226.590092 346.6 
M 227.312351 346.6 
L 227.312351 -1 
M 228.034608 -1 
L 228.034608 346.6 
M 228.756865 346.6 
L 228.756865 -1 
M 229.11788 -1 
L 229.11788 346.6 
M 230.923636 346.6 
L 230.923636 -1 
M 231.284726 -1 
L 231.284726 346.6 
M 231.645582 346.6 
L 231.645582 -1 
M 231.645895 -1 
L 231.645895 346.6 
M 232.007022 346.6 
L 232.007022 -1 
M 232.729279 -1 
L 232.729279 346.6 
M 233.090408 346.6 
L 233.090408 -1 
M 233.812665 -1 
L 233.812665 346.6 
M 234.892207 346.6 
L 234.892207 -1 
M 235.985781 -1 
L 235.985781 346.6 
M 237.42395 346.6 
L 237.42395 -1 
M 238.146207 -1 
L 238.146207 346.6 
M 239.1413 346.6 
L 239.1413 -1 
M 239.229592 -1 
L 239.229592 346.6 
M 239.95185 346.6 
L 239.95185 -1 
M 240.312979 -1 
L 240.312979 346.6 
M 241.035235 346.6 
L 241.035235 -1 
M 241.397073 -1 
L 241.397073 346.6 
M 241.757492 346.6 
L 241.757492 -1 
M 243.563135 -1 
L 243.563135 346.6 
M 245.368777 346.6 
L 245.368777 -1 
M 245.729906 -1 
L 245.729906 346.6 
M 245.729906 346.6 
L 245.729906 -1 
M 246.813292 -1 
L 246.813292 346.6 
M 246.813292 346.6 
L 246.813292 -1 
M 248.257806 -1 
L 248.257806 346.6 
M 248.257806 346.6 
L 248.257806 -1 
M 248.618934 -1 
L 248.618934 346.6 
M 249.70232 346.6 
L 249.70232 -1 
M 251.507962 -1 
L 251.507962 346.6 
M 252.952476 346.6 
L 252.952476 -1 
M 254.035862 -1 
L 254.035862 346.6 
M 254.758119 346.6 
L 254.758119 -1 
M 254.758119 -1 
L 254.758119 346.6 
M 255.11925 346.6 
L 255.11925 -1 
M 255.841505 -1 
L 255.841505 346.6 
M 257.647147 346.6 
L 257.647147 -1 
M 257.647147 -1 
L 257.647147 346.6 
M 258.72963 346.6 
L 258.72963 -1 
M 259.45279 -1 
L 259.45279 346.6 
M 260.173605 346.6 
L 260.173605 -1 
M 260.536176 -1 
L 260.536176 346.6 
M 261.619561 346.6 
L 261.619561 -1 
M 262.341818 -1 
L 262.341818 346.6 
M 262.341818 346.6 
L 262.341818 -1 
M 264.147461 -1 
L 264.147461 346.6 
M 264.869718 346.6 
L 264.869718 -1 
M 265.511982 -1 
L 265.511982 346.6 
M 265.953489 346.6 
L 265.953489 -1 
M 267.036489 -1 
L 267.036489 346.6 
M 268.481003 346.6 
L 268.481003 -1 
M 268.481003 -1 
L 268.481003 346.6 
M 268.842211 346.6 
L 268.842211 -1 
M 269.564389 -1 
L 269.564389 346.6 
M 270.286646 346.6 
L 270.286646 -1 
M 270.286646 -1 
L 270.286646 346.6 
M 271.009004 346.6 
L 271.009004 -1 
M 271.666242 -1 
L 271.666242 346.6 
M 271.73116 346.6 
L 271.73116 -1 
M 272.453417 -1 
L 272.453417 346.6 
M 273.536802 346.6 
L 273.536802 -1 
M 274.620188 -1 
L 274.620188 346.6 
M 275.342445 346.6 
L 275.342445 -1 
M 275.703574 -1 
L 275.703574 346.6 
M 276.064702 346.6 
L 276.064702 -1 
M 276.786959 -1 
L 276.786959 346.6 
M 276.786959 346.6 
L 276.786959 -1 
M 277.509215 -1 
L 277.509215 346.6 
M 277.509216 346.6 
L 277.509216 -1 
M 278.231473 -1 
L 278.231473 346.6 
M 278.592602 346.6 
L 278.592602 -1 
M 278.95373 -1 
L 278.95373 346.6 
M 279.31615 346.6 
L 279.31615 -1 
M 280.398245 -1 
L 280.398245 346.6 
M 280.398245 346.6 
L 280.398245 -1 
M 280.759395 -1 
L 280.759395 346.6 
M 281.842759 346.6 
L 281.842759 -1 
M 281.842777 -1 
L 281.842777 346.6 
M 282.203887 346.6 
L 282.203887 -1 
M 282.926124 -1 
L 282.926124 346.6 
M 283.287273 346.6 
L 283.287273 -1 
M 284.00953 -1 
L 284.00953 346.6 
M 284.731787 346.6 
L 284.731787 -1 
M 285.872351 -1 
L 285.872351 346.6 
M 287.620815 346.6 
L 287.620815 -1 
M 287.985161 -1 
L 287.985161 346.6 
M 289.787586 346.6 
L 289.787586 -1 
M 290.271277 -1 
L 290.271277 346.6 
M 290.870972 346.6 
L 290.870972 -1 
M 290.870972 -1 
L 290.870972 346.6 
M 291.954357 346.6 
L 291.954357 -1 
M 293.037743 -1 
L 293.037743 346.6 
M 293.76 346.6 
L 293.76 -1 
M 294.839525 -1 
L 294.839525 346.6 
M 295.204514 346.6 
L 295.204514 -1 
M 295.204514 -1 
L 295.204514 346.6 
M 295.565643 346.6 
L 295.565643 -1 
M 297.010123 -1 
L 297.010123 346.6 
M 297.732414 346.6 
L 297.732414 -1 
M 297.732414 -1 
L 297.732414 346.6 
M 298.454671 346.6 
L 298.454671 -1 
M 299.213146 -1 
L 299.213146 346.6 
M 300.982571 346.6 
L 300.982571 -1 
M 301.343699 -1 
L 301.343699 346.6 
M 302.427085 346.6 
L 302.427085 -1 
M 303.149342 -1 
L 303.149342 346.6 
M 303.510524 346.6 
L 303.510524 -1 
M 307.482884 -1 
L 307.482884 346.6 
M 307.497043 346.6 
L 307.497043 -1 
M 308.201652 -1 
L 308.201652 346.6 
M 308.205141 346.6 
L 308.205141 -1 
M 308.927398 -1 
L 308.927398 346.6 
M 308.927398 346.6 
L 308.927398 -1 
M 309.288527 -1 
L 309.288527 346.6 
M 311.094169 346.6 
L 311.094169 -1 
M 311.094169 -1 
L 311.094169 346.6 
M 311.455298 346.6 
L 311.455298 -1 
M 312.177555 -1 
L 312.177555 346.6 
M 314.705455 346.6 
L 314.705455 -1 
M 315.066499 -1 
L 315.066499 346.6 
M 315.427712 346.6 
L 315.427712 -1 
M 316.511097 -1 
L 316.511097 346.6 
M 316.833471 346.6 
L 316.833471 -1 
M 317.594483 -1 
L 317.594483 346.6 
M 317.955611 346.6 
L 317.955611 -1 
M 318.677868 -1 
L 318.677868 346.6 
M 319.761254 346.6 
L 319.761254 -1 
M 320.483511 -1 
L 320.483511 346.6 
M 321.56052 346.6 
L 321.56052 -1 
M 321.566897 -1 
L 321.566897 346.6 
M 324.455925 346.6 
L 324.455925 -1 
M 324.817053 -1 
L 324.817053 346.6 
M 324.817053 346.6 
L 324.817053 -1 
M 325.53931 -1 
L 325.53931 346.6 
M 326.983824 346.6 
L 326.983824 -1 
M 326.983825 -1 
L 326.983825 346.6 
M 327.344953 346.6 
L 327.344953 -1 
M 328.428339 -1 
L 328.428339 346.6 
M 329.511722 346.6 
L 329.511722 -1 
M 330.956238 -1 
L 330.956238 346.6 
M 331.678495 346.6 
L 331.678495 -1 
M 332.039624 -1 
L 332.039624 346.6 
M 332.761877 346.6 
L 332.761877 -1 
M 333.123009 -1 
L 333.123009 346.6 
M 333.845266 346.6 
L 333.845266 -1 
M 333.845266 -1 
L 333.845266 346.6 
M 334.567524 346.6 
L 334.567524 -1 
M 337.219953 -1 
L 337.219953 346.6 
M 337.81768 346.6 
L 337.81768 -1 
M 339.623323 -1 
L 339.623323 346.6 
M 340.345291 346.6 
L 340.345291 -1 
M 340.701837 -1 
L 340.701837 346.6 
M 341.428966 346.6 
L 341.428966 -1 
M 341.790101 -1 
L 341.790101 346.6 
M 342.512231 346.6 
L 342.512231 -1 
M 342.870041 -1 
L 342.870041 346.6 
M 343.234608 346.6 
L 343.234608 -1 
M 344.330523 -1 
L 344.330523 346.6 
M 345.040251 346.6 
L 345.040251 -1 
M 345.401215 -1 
L 345.401215 346.6 
M 345.762508 346.6 
L 345.762508 -1 
M 345.762508 -1 
L 345.762508 346.6 
M 346.845893 346.6 
L 346.845893 -1 
M 346.845893 -1 
L 346.845893 346.6 
M 348.651536 346.6 
L 348.651536 -1 
M 349.373793 -1 
L 349.373793 346.6 
M 350.457179 346.6 
L 350.457179 -1 
M 351.179003 -1 
L 351.179003 346.6 
M 351.179436 346.6 
L 351.179436 -1 
M 352.623942 -1 
L 352.623942 346.6 
M 352.983911 346.6 
L 352.983911 -1 
M 352.985078 -1 
L 352.985078 346.6 
M 353.346207 346.6 
L 353.346207 -1 
M 354.068464 -1 
L 354.068464 346.6 
M 355.874107 346.6 
L 355.874107 -1 
M 355.874107 -1 
L 355.874107 346.6 
M 358.083867 346.6 
L 358.083867 -1 
M 359.124871 -1 
L 359.124871 346.6 
M 359.485392 346.6 
L 359.485392 -1 
M 360.207573 -1 
L 360.207573 346.6 
M 360.568201 346.6 
L 360.568201 -1 
M 360.929906 -1 
L 360.929906 346.6 
M 361.652163 346.6 
L 361.652163 -1 
M 362.37442 -1 
L 362.37442 346.6 
M 362.735549 346.6 
L 362.735549 -1 
M 363.457806 -1 
L 363.457806 346.6 
M 363.809897 346.6 
L 363.809897 -1 
M 364.180063 -1 
L 364.180063 346.6 
M 365.985705 346.6 
L 365.985705 -1 
M 366.707962 -1 
L 366.707962 346.6 
M 367.069091 346.6 
L 367.069091 -1 
M 367.430219 -1 
L 367.430219 346.6 
M 368.152476 346.6 
L 368.152476 -1 
M 371.402633 -1 
L 371.402633 346.6 
M 372.12489 346.6 
L 372.12489 -1 
M 372.486019 -1 
L 372.486019 346.6 
M 373.559084 346.6 
L 373.559084 -1 
M 373.569404 -1 
L 373.569404 346.6 
M 375.736176 346.6 
L 375.736176 -1 
M 376.068894 -1 
L 376.068894 346.6 
M 376.46279 346.6 
L 376.46279 -1 
M 377.541909 -1 
L 377.541909 346.6 
M 378.264075 346.6 
L 378.264075 -1 
M 378.264075 -1 
L 378.264075 346.6 
M 380.061237 346.6 
L 380.061237 -1 
M 381.153042 -1 
L 381.153042 346.6 
M 381.875361 346.6 
L 381.875361 -1 
M 382.236767 -1 
L 382.236767 346.6 
M 383.319875 346.6 
L 383.319875 -1 
M 385.125345 -1 
L 385.125345 346.6 
M 386.570031 346.6 
L 386.570031 -1 
M 387.292288 -1 
L 387.292288 346.6 
M 388.375674 346.6 
L 388.375674 -1 
M 388.375674 -1 
L 388.375674 346.6 
M 389.459063 346.6 
L 389.459063 -1 
M 390.181317 -1 
L 390.181317 346.6 
M 390.542445 346.6 
L 390.542445 -1 
M 391.264702 -1 
L 391.264702 346.6 
M 391.625833 346.6 
L 391.625833 -1 
M 392.348088 -1 
L 392.348088 346.6 
M 393.070345 346.6 
L 393.070345 -1 
M 394.15373 -1 
L 394.15373 346.6 
M 395.237917 346.6 
L 395.237917 -1 
M 396.320502 -1 
L 396.320502 346.6 
M 396.989901 346.6 
L 396.989901 -1 
L 396.989901 -1 
" clip-path="url(#pe33f62135e)" style="fill: none; stroke: #ff7f0e; stroke-width: 1.5; stroke-linecap: square"/>
   </g>
   <g id="patch_3">
    <path d="M 57.6 307.584 
L 57.6 41.472 
" style="fill: none; stroke: #000000; stroke-width: 0.8; stroke-linejoin: miter; stroke-linecap: square"/>
   </g>
   <g id="patch_4">
    <path d="M 414.72 307.584 
L 414.72 41.472 
" style="fill: none; stroke: #000000; stroke-width: 0.8; stroke-linejoin: miter; stroke-linecap: square"/>
   </g>
   <g id="patch_5">
    <path d="M 57.6 307.584 
L 414.72 307.584 
" style="fill: none; stroke: #000000; stroke-width: 0.8; stroke-linejoin: miter; stroke-linecap: square"/>
   </g>
   <g id="patch_6">
    <path d="M 57.6 41.472 
L 414.72 41.472 
" style="fill: none; stroke: #000000; stroke-width: 0.8; stroke-linejoin: miter; stroke-linecap: square"/>
   </g>
  </g>
 </g>
 <defs>
  <clipPath id="pe33f62135e">
   <rect x="57.6" y="41.472" width="357.12" height="266.112"/>
  </clipPath>
 </defs>
</svg>
