<?xml version="1.0" encoding="utf-8" standalone="no"?>
<!DOCTYPE svg PUBLIC "-//W3C//DTD SVG 1.1//EN"
  "http://www.w3.org/Graphics/SVG/1.1/DTD/svg11.dtd">
<svg xmlns:xlink="http://www.w3.org/1999/xlink" width="460.8pt" height="345.6pt" viewBox="0 0 460.8 345.6" xmlns="http://www.w3.org/2000/svg" version="1.1">
 <metadata>
  <rdf:RDF xmlns:dc="http://purl.org/dc/elements/1.1/" xmlns:cc="http://creativecommons.org/ns#" xmlns:rdf="http://www.w3.org/1999/02/22-rdf-syntax-ns#">
   <cc:Work>
    <dc:type rdf:resource="http://purl.org/dc/dcmitype/StillImage"/>
    <dc:date>2025-11-06T01:29:43.888179</dc:date>
    <dc:format>image/svg+xml</dc:format>
    <dc:creator>
     <cc:Agent>
      <dc:title>Matplotlib v3.10.7, https://matplotlib.org/</dc:title>
     </cc:Agent>
    </dc:creator>
   </cc:Work>
  </rdf:RDF>
 </metadata>
 <defs>
  <style type="text/css">*{stroke-linejoin: round; stroke-linecap: butt}</style>
 </defs>
 <g id="figure_1">
  <g id="patch_1">
   <path d="M 0 345.6 
L 460.8 345.6 
L 460.8 0 
L 0 0 
z
" style="fill: #ffffff"/>
  </g>
  <g id="axes_1">
   <g id="patch_2">
    <path d="M 57.6 307.584 
L 414.72 307.584 
L 414.72 41.472 
L 57.6 41.472 
z
" style="fill: #ffffff"/>
   </g>
   <g id="matplotlib.axis_1">
    <g id="xtick_1">
     <g id="line2d_1">
      <defs>
       <path id="mf9bb525f26" d="M 0 0 
L 0 3.5 
" style="stroke: #000000; stroke-width: 0.8"/>
      </defs>
      <g>
       <use xlink:href="#mf9bb525f26" x="73.832727" y="307.584" style="stroke: #000000; stroke-width: 0.8"/>
      </g>
     </g>
     <g id="text_1">
      <!-- 0 -->
      <g transform="translate(70.651477 322.182437) scale(0.1 -0.1)">
       <defs>
        <path id="DejaVuSans-30" d="M 2034 4250 
Q 1547 4250 1301 3770 
Q 1056 3291 1056 2328 
Q 1056 1369 1301 889 
Q 1547 409 2034 409 
Q 2525 409 2770 889 
Q 3016 1369 3016 2328 
Q 3016 3291 2770 3770 
Q 2525 4250 2034 4250 
z
M 2034 4750 
Q 2819 4750 3233 4129 
Q 3647 3509 3647 2328 
Q 3647 1150 3233 529 
Q 2819 -91 2034 -91 
Q 1250 -91 836 529 
Q 422 1150 422 2328 
Q 422 3509 836 4129 
Q 1250 4750 2034 4750 
z
" transform="scale(0.015625)"/>
       </defs>
       <use xlink:href="#DejaVuSans-30"/>
      </g>
     </g>
    </g>
    <g id="xtick_2">
     <g id="line2d_2">
      <g>
       <use xlink:href="#mf9bb525f26" x="146.058433" y="307.584" style="stroke: #000000; stroke-width: 0.8"/>
      </g>
     </g>
     <g id="text_2">
      <!-- 2 -->
      <g transform="translate(142.877183 322.182437) scale(0.1 -0.1)">
       <defs>
        <path id="DejaVuSans-32" d="M 1228 531 
L 3431 531 
L 3431 0 
L 469 0 
L 469 531 
Q 828 903 1448 1529 
Q 2069 2156 2228 2338 
Q 2531 2678 2651 2914 
Q 2772 3150 2772 3378 
Q 2772 3750 2511 3984 
Q 2250 4219 1831 4219 
Q 1534 4219 1204 4116 
Q 875 4013 500 3803 
L 500 4441 
Q 881 4594 1212 4672 
Q 1544 4750 1819 4750 
Q 2544 4750 2975 4387 
Q 3406 4025 3406 3419 
Q 3406 3131 3298 2873 
Q 3191 2616 2906 2266 
Q 2828 2175 2409 1742 
Q 1991 1309 1228 531 
z
" transform="scale(0.015625)"/>
       </defs>
       <use xlink:href="#DejaVuSans-32"/>
      </g>
     </g>
    </g>
    <g id="xtick_3">
     <g id="line2d_3">
      <g>
       <use xlink:href="#mf9bb525f26" x="218.284138" y="307.584" style="stroke: #000000; stroke-width: 0.8"/>
      </g>
     </g>
     <g id="text_3">
      <!-- 4 -->
      <g transform="translate(215.102888 322.182437) scale(0.1 -0.1)">
       <defs>
        <path id="DejaVuSans-34" d="M 2419 4116 
L 825 1625 
L 2419 1625 
L 2419 4116 
z
M 2253 4666 
L 3047 4666 
L 3047 1625 
L 3713 1625 
L 3713 1100 
L 3047 1100 
L 3047 0 
L 2419 0 
L 2419 1100 
L 313 1100 
L 313 1709 
L 2253 4666 
z
" transform="scale(0.015625)"/>
       </defs>
       <use xlink:href="#DejaVuSans-34"/>
      </g>
     </g>
    </g>
    <g id="xtick_4">
     <g id="line2d_4">
      <g>
       <use xlink:href="#mf9bb525f26" x="290.509843" y="307.584" style="stroke: #000000; stroke-width: 0.8"/>
      </g>
     </g>
     <g id="text_4">
      <!-- 6 -->
      <g transform="translate(287.328593 322.182437) scale(0.1 -0.1)">
       <defs>
        <path id="DejaVuSans-36" d="M 2113 2584 
Q 1688 2584 1439 2293 
Q 1191 2003 1191 1497 
Q 1191 994 1439 701 
Q 1688 409 2113 409 
Q 2538 409 2786 701 
Q 3034 994 3034 1497 
Q 3034 2003 2786 2293 
Q 2538 2584 2113 2584 
z
M 3366 4563 
L 3366 3988 
Q 3128 4100 2886 4159 
Q 2644 4219 2406 4219 
Q 1781 4219 1451 3797 
Q 1122 3375 1075 2522 
Q 1259 2794 1537 2939 
Q 1816 3084 2150 3084 
Q 2853 3084 3261 2657 
Q 3669 2231 3669 1497 
Q 3669 778 3244 343 
Q 2819 -91 2113 -91 
Q 1303 -91 875 529 
Q 447 1150 447 2328 
Q 447 3434 972 4092 
Q 1497 4750 2381 4750 
Q 2619 4750 2861 4703 
Q 3103 4656 3366 4563 
z
" transform="scale(0.015625)"/>
       </defs>
       <use xlink:href="#DejaVuSans-36"/>
      </g>
     </g>
    </g>
    <g id="xtick_5">
     <g id="line2d_5">
      <g>
       <use xlink:href="#mf9bb525f26" x="362.735549" y="307.584" style="stroke: #000000; stroke-width: 0.8"/>
      </g>
     </g>
     <g id="text_5">
      <!-- 8 -->
      <g transform="translate(359.554299 322.182437) scale(0.1 -0.1)">
       <defs>
        <path id="DejaVuSans-38" d="M 2034 2216 
Q 1584 2216 1326 1975 
Q 1069 1734 1069 1313 
Q 1069 891 1326 650 
Q 1584 409 2034 409 
Q 2484 409 2743 651 
Q 3003 894 3003 1313 
Q 3003 1734 2745 1975 
Q 2488 2216 2034 2216 
z
M 1403 2484 
Q 997 2584 770 2862 
Q 544 3141 544 3541 
Q 544 4100 942 4425 
Q 1341 4750 2034 4750 
Q 2731 4750 3128 4425 
Q 3525 4100 3525 3541 
Q 3525 3141 3298 2862 
Q 3072 2584 2669 2484 
Q 3125 2378 3379 2068 
Q 3634 1759 3634 1313 
Q 3634 634 3220 271 
Q 2806 -91 2034 -91 
Q 1263 -91 848 271 
Q 434 634 434 1313 
Q 434 1759 690 2068 
Q 947 2378 1403 2484 
z
M 1172 3481 
Q 1172 3119 1398 2916 
Q 1625 2713 2034 2713 
Q 2441 2713 2670 2916 
Q 2900 3119 2900 3481 
Q 2900 3844 2670 4047 
Q 2441 4250 2034 4250 
Q 1625 4250 1398 4047 
Q 1172 3844 1172 3481 
z
" transform="scale(0.015625)"/>
       </defs>
       <use xlink:href="#DejaVuSans-38"/>
      </g>
     </g>
    </g>
   </g>
   <g id="matplotlib.axis_2">
    <g id="ytick_1">
     <g id="line2d_6">
      <defs>
       <path id="mc8a0ec0c23" d="M 0 0 
L -3.5 0 
" style="stroke: #000000; stroke-width: 0.8"/>
      </defs>
      <g>
       <use xlink:href="#mc8a0ec0c23" x="57.6" y="295.488" style="stroke: #000000; stroke-width: 0.8"/>
      </g>
     </g>
     <g id="text_6">
      <!-- 0.0 -->
      <g transform="translate(34.696875 299.287219) scale(0.1 -0.1)">
       <defs>
        <path id="DejaVuSans-2e" d="M 684 794 
L 1344 794 
L 1344 0 
L 684 0 
L 684 794 
z
" transform="scale(0.015625)"/>
       </defs>
       <use xlink:href="#DejaVuSans-30"/>
       <use xlink:href="#DejaVuSans-2e" transform="translate(63.623047 0)"/>
       <use xlink:href="#DejaVuSans-30" transform="translate(95.410156 0)"/>
      </g>
     </g>
    </g>
    <g id="ytick_2">
     <g id="line2d_7">
      <g>
       <use xlink:href="#mc8a0ec0c23" x="57.6" y="247.104" style="stroke: #000000; stroke-width: 0.8"/>
      </g>
     </g>
     <g id="text_7">
      <!-- 0.2 -->
      <g transform="translate(34.696875 250.903219) scale(0.1 -0.1)">
       <use xlink:href="#DejaVuSans-30"/>
       <use xlink:href="#DejaVuSans-2e" transform="translate(63.623047 0)"/>
       <use xlink:href="#DejaVuSans-32" transform="translate(95.410156 0)"/>
      </g>
     </g>
    </g>
    <g id="ytick_3">
     <g id="line2d_8">
      <g>
       <use xlink:href="#mc8a0ec0c23" x="57.6" y="198.72" style="stroke: #000000; stroke-width: 0.8"/>
      </g>
     </g>
     <g id="text_8">
      <!-- 0.4 -->
      <g transform="translate(34.696875 202.519219) scale(0.1 -0.1)">
       <use xlink:href="#DejaVuSans-30"/>
       <use xlink:href="#DejaVuSans-2e" transform="translate(63.623047 0)"/>
       <use xlink:href="#DejaVuSans-34" transform="translate(95.410156 0)"/>
      </g>
     </g>
    </g>
    <g id="ytick_4">
     <g id="line2d_9">
      <g>
       <use xlink:href="#mc8a0ec0c23" x="57.6" y="150.336" style="stroke: #000000; stroke-width: 0.8"/>
      </g>
     </g>
     <g id="text_9">
      <!-- 0.6 -->
      <g transform="translate(34.696875 154.135219) scale(0.1 -0.1)">
       <use xlink:href="#DejaVuSans-30"/>
       <use xlink:href="#DejaVuSans-2e" transform="translate(63.623047 0)"/>
       <use xlink:href="#DejaVuSans-36" transform="translate(95.410156 0)"/>
      </g>
     </g>
    </g>
    <g id="ytick_5">
     <g id="line2d_10">
      <g>
       <use xlink:href="#mc8a0ec0c23" x="57.6" y="101.952" style="stroke: #000000; stroke-width: 0.8"/>
      </g>
     </g>
     <g id="text_10">
      <!-- 0.8 -->
      <g transform="translate(34.696875 105.751219) scale(0.1 -0.1)">
       <use xlink:href="#DejaVuSans-30"/>
       <use xlink:href="#DejaVuSans-2e" transform="translate(63.623047 0)"/>
       <use xlink:href="#DejaVuSans-38" transform="translate(95.410156 0)"/>
      </g>
     </g>
    </g>
    <g id="ytick_6">
     <g id="line2d_11">
      <g>
       <use xlink:href="#mc8a0ec0c23" x="57.6" y="53.568" style="stroke: #000000; stroke-width: 0.8"/>
      </g>
     </g>
     <g id="text_11">
      <!-- 1.0 -->
      <g transform="translate(34.696875 57.367219) scale(0.1 -0.1)">
       <defs>
        <path id="DejaVuSans-31" d="M 794 531 
L 1825 531 
L 1825 4091 
L 703 3866 
L 703 4441 
L 1819 4666 
L 2450 4666 
L 2450 531 
L 3481 531 
L 3481 0 
L 794 0 
L 794 531 
z
" transform="scale(0.015625)"/>
       </defs>
       <use xlink:href="#DejaVuSans-31"/>
       <use xlink:href="#DejaVuSans-2e" transform="translate(63.623047 0)"/>
       <use xlink:href="#DejaVuSans-30" transform="translate(95.410156 0)"/>
      </g>
     </g>
    </g>
   </g>
   <g id="line2d_12">
    <path d="M 73.832727 295.488 
L 75.999498 258.329358 
L 78.16627 225.498617 
L 79.971912 201.172056 
L 81.777555 179.38481 
L 83.583197 159.947055 
L 85.38884 142.68144 
L 87.194483 127.422326 
L 89.000125 114.015065 
L 90.805768 102.315319 
L 92.611411 92.188426 
L 94.417053 83.508796 
L 95.861567 77.528172 
L 97.306082 72.342466 
L 98.750596 67.898536 
L 100.19511 64.146182 
L 101.639624 61.038004 
L 103.084138 58.529253 
L 104.167524 57.01557 
L 105.250909 55.798335 
L 106.334295 54.861346 
L 107.41768 54.189103 
L 108.501066 53.766775 
L 109.584451 53.580177 
L 110.667837 53.615744 
L 111.751223 53.860507 
L 112.834608 54.302069 
L 114.279122 55.176553 
L 115.723636 56.353275 
L 117.16815 57.807187 
L 118.973793 59.978643 
L 120.779436 62.503633 
L 122.946207 65.944675 
L 125.474107 70.447241 
L 128.363135 76.127445 
L 131.613292 83.058382 
L 135.585705 92.103055 
L 141.002633 105.07725 
L 159.781317 150.636717 
L 165.198245 162.955699 
L 170.254044 173.894251 
L 174.948715 183.5185 
L 179.282257 191.923904 
L 183.615799 199.860101 
L 187.949342 207.325728 
L 192.282884 214.325727 
L 196.255298 220.34169 
L 200.227712 225.98499 
L 204.200125 231.267989 
L 208.172539 236.204515 
L 212.144953 240.809428 
L 216.117367 245.098248 
L 220.089781 249.086862 
L 224.423323 253.114502 
L 228.756865 256.824584 
L 233.090408 260.237427 
L 237.42395 263.372813 
L 241.757492 266.249851 
L 246.452163 269.096351 
L 251.146834 271.683348 
L 256.202633 274.203155 
L 261.258433 276.470858 
L 266.675361 278.646725 
L 272.092288 280.585405 
L 277.870345 282.418744 
L 284.00953 284.13017 
L 290.509843 285.707735 
L 297.371285 287.144004 
L 304.954984 288.495032 
L 312.899812 289.6831 
L 321.566897 290.756158 
L 331.317367 291.733638 
L 342.151223 292.589675 
L 354.429592 293.330657 
L 368.513605 293.954042 
L 385.486646 294.474052 
L 398.487273 294.751083 
L 398.487273 294.751083 
" clip-path="url(#p426db3a004)" style="fill: none; stroke: #1f77b4; stroke-width: 1.5; stroke-linecap: square"/>
   </g>
   <g id="line2d_13">
    <path d="M 73.832727 295.488 
L 75.277241 268.74248 
L 75.999498 262.34111 
L 76.360627 250.762934 
L 76.721755 252.184717 
L 77.082884 240.624386 
L 77.805141 229.572697 
L 78.16627 231.57762 
L 78.527398 222.909425 
L 78.888527 220.173553 
L 79.249655 214.327149 
L 79.610784 210.582445 
L 79.971912 211.284817 
L 80.333041 204.424565 
L 80.694169 204.441543 
L 81.055298 186.003912 
L 81.416426 186.412324 
L 81.777555 190.99458 
L 82.138683 174.014949 
L 82.499812 177.233742 
L 82.86094 170.181948 
L 83.222069 167.092495 
L 83.583197 166.66407 
L 83.944326 161.768165 
L 84.305455 159.650836 
L 84.666583 164.230539 
L 85.38884 137.824623 
L 85.749969 139.898091 
L 86.111097 150.667632 
L 86.472226 125.887728 
L 86.833354 132.703388 
L 87.194483 114.97595 
L 87.555611 125.058714 
L 87.91674 144.288997 
L 88.277868 119.305694 
L 88.638997 118.273621 
L 89.000125 111.192131 
L 89.361254 113.196309 
L 89.722382 113.996626 
L 90.083511 101.338691 
L 90.444639 108.413363 
L 90.805768 105.270907 
L 91.166897 105.936268 
L 91.528025 102.943553 
L 91.889154 90.93349 
L 92.250282 94.705209 
L 92.611411 91.133783 
L 92.972539 89.737008 
L 93.694796 78.958109 
L 94.055925 95.095166 
L 94.417053 87.237349 
L 94.778182 83.068949 
L 95.13931 76.203548 
L 95.500439 87.749732 
L 95.861567 65.054788 
L 96.222696 88.024981 
L 96.583824 84.548278 
L 97.306082 67.25071 
L 97.66721 63.091742 
L 98.028339 85.131615 
L 98.389467 72.501966 
L 98.750596 88.639942 
L 99.111724 64.267186 
L 99.472853 72.235034 
L 99.833981 61.308717 
L 100.19511 73.675614 
L 100.556238 51.23203 
L 100.917367 58.925996 
L 101.278495 60.701095 
L 101.639624 54.587558 
L 102.000752 66.067952 
L 102.361881 66.95557 
L 102.723009 61.17334 
L 103.084138 59.205082 
L 103.445266 59.757684 
L 103.806395 52.100906 
L 104.167524 56.267878 
L 104.528652 54.484783 
L 104.889781 60.678734 
L 105.612038 46.852073 
L 105.973166 60.568694 
L 106.334295 50.32902 
L 106.695423 58.424523 
L 107.056552 52.314963 
L 107.41768 54.497901 
L 107.778809 52.066234 
L 108.139937 59.155917 
L 108.501066 50.476538 
L 108.862194 56.488394 
L 109.223323 50.837583 
L 109.584451 56.078236 
L 109.94558 53.568 
L 109.94558 -1 
M 110.306709 -1 
L 110.306709 346.6 
M 110.667837 346.6 
L 110.667837 -1 
M 111.751223 -1 
L 111.751223 346.6 
M 112.121519 346.6 
L 112.121519 -1 
M 113.917994 -1 
L 113.917994 346.6 
M 115.723636 346.6 
L 115.723636 -1 
M 116.084765 -1 
L 116.084765 346.6 
M 116.445893 346.6 
L 116.445893 -1 
M 117.16815 -1 
L 117.16815 346.6 
M 117.16815 346.6 
L 117.16815 -1 
M 117.890408 -1 
L 117.890408 346.6 
M 118.612665 346.6 
L 118.612665 -1 
M 119.334922 -1 
L 119.334922 346.6 
M 120.057179 346.6 
L 120.057179 -1 
M 121.501693 -1 
L 121.501693 346.6 
M 122.22395 346.6 
L 122.22395 -1 
M 122.585079 -1 
L 122.585079 346.6 
M 122.946207 346.6 
L 122.946207 -1 
M 123.668464 -1 
L 123.668464 346.6 
M 123.668464 346.6 
L 123.668464 -1 
M 124.390721 -1 
L 124.390721 346.6 
M 125.112978 346.6 
L 125.112978 -1 
M 125.112978 -1 
L 125.112978 346.6 
M 125.835235 346.6 
L 125.835235 -1 
M 126.078176 -1 
L 126.078176 346.6 
M 127.279749 346.6 
L 127.279749 -1 
M 127.279749 -1 
L 127.279749 346.6 
M 128.002006 346.6 
L 128.002006 -1 
M 128.724263 -1 
L 128.724263 346.6 
M 132.696514 346.6 
L 132.696514 -1 
M 134.141191 -1 
L 134.141191 346.6 
M 135.585705 346.6 
L 135.585705 -1 
M 135.585706 -1 
L 135.585706 346.6 
M 136.669091 346.6 
L 136.669091 -1 
M 137.752476 -1 
L 137.752476 346.6 
M 138.111452 346.6 
L 138.111452 -1 
M 138.113605 -1 
L 138.113605 346.6 
M 140.189977 346.6 
L 140.189977 -1 
M 141.363762 -1 
L 141.363762 346.6 
M 141.72489 346.6 
L 141.72489 -1 
M 141.72489 -1 
L 141.72489 346.6 
M 142.447147 346.6 
L 142.447147 -1 
M 143.169462 -1 
L 143.169462 346.6 
M 144.25279 346.6 
L 144.25279 -1 
M 146.058433 -1 
L 146.058433 346.6 
M 146.419561 346.6 
L 146.419561 -1 
M 147.502947 -1 
L 147.502947 346.6 
M 147.502947 346.6 
L 147.502947 -1 
M 147.864075 -1 
L 147.864075 346.6 
M 149.308589 346.6 
L 149.308589 -1 
M 149.669718 -1 
L 149.669718 346.6 
M 149.683791 346.6 
L 149.683791 -1 
M 150.030846 -1 
L 150.030846 346.6 
M 151.114232 346.6 
L 151.114232 -1 
M 151.836489 -1 
L 151.836489 346.6 
M 152.558746 346.6 
L 152.558746 -1 
M 153.281002 -1 
L 153.281002 346.6 
M 154.364389 346.6 
L 154.364389 -1 
M 156.170031 -1 
L 156.170031 346.6 
M 156.530847 346.6 
L 156.530847 -1 
M 157.614545 -1 
L 157.614545 346.6 
M 157.946348 346.6 
L 157.946348 -1 
M 157.975674 -1 
L 157.975674 346.6 
M 158.697931 346.6 
L 158.697931 -1 
M 159.05906 -1 
L 159.05906 346.6 
M 159.781317 346.6 
L 159.781317 -1 
M 161.225831 -1 
L 161.225831 346.6 
M 162.309216 346.6 
L 162.309216 -1 
M 165.198245 -1 
L 165.198245 346.6 
M 165.559373 346.6 
L 165.559373 -1 
M 165.926229 -1 
L 165.926229 346.6 
M 166.642759 346.6 
L 166.642759 -1 
M 167.365015 -1 
L 167.365015 346.6 
M 167.726144 346.6 
L 167.726144 -1 
M 167.726144 -1 
L 167.726144 346.6 
M 168.80953 346.6 
L 168.80953 -1 
M 170.615172 -1 
L 170.615172 346.6 
M 170.976301 346.6 
L 170.976301 -1 
M 171.698558 -1 
L 171.698558 346.6 
M 172.420815 346.6 
L 172.420815 -1 
M 172.840986 -1 
L 172.840986 346.6 
M 174.226458 346.6 
L 174.226458 -1 
M 174.226458 -1 
L 174.226458 346.6 
M 175.670972 346.6 
L 175.670972 -1 
M 176.754357 -1 
L 176.754357 346.6 
M 176.754357 346.6 
L 176.754357 -1 
M 177.476614 -1 
L 177.476614 346.6 
M 177.837743 346.6 
L 177.837743 -1 
M 178.921129 -1 
L 178.921129 346.6 
M 178.921152 346.6 
L 178.921152 -1 
M 179.282257 -1 
L 179.282257 346.6 
M 180.004514 346.6 
L 180.004514 -1 
M 180.004514 -1 
L 180.004514 346.6 
M 180.397336 346.6 
L 180.397336 -1 
M 181.0879 -1 
L 181.0879 346.6 
M 183.254671 346.6 
L 183.254671 -1 
M 183.976928 -1 
L 183.976928 346.6 
M 184.0564 346.6 
L 184.0564 -1 
M 184.338056 -1 
L 184.338056 346.6 
M 184.699185 346.6 
L 184.699185 -1 
M 185.782571 -1 
L 185.782571 346.6 
M 187.949342 346.6 
L 187.949342 -1 
M 188.671573 -1 
L 188.671573 346.6 
M 189.755034 346.6 
L 189.755034 -1 
M 191.199498 -1 
L 191.199498 346.6 
M 191.921755 346.6 
L 191.921755 -1 
M 192.282884 -1 
L 192.282884 346.6 
M 192.309146 346.6 
L 192.309146 -1 
M 193.727398 -1 
L 193.727398 346.6 
M 195.533041 346.6 
L 195.533041 -1 
M 195.590235 -1 
L 195.590235 346.6 
M 196.255218 346.6 
L 196.255218 -1 
M 196.255298 -1 
L 196.255298 346.6 
M 196.977555 346.6 
L 196.977555 -1 
M 197.699812 -1 
L 197.699812 346.6 
M 197.994316 346.6 
L 197.994316 -1 
M 198.421983 -1 
L 198.421983 346.6 
M 198.783197 346.6 
L 198.783197 -1 
M 199.144326 -1 
L 199.144326 346.6 
M 199.866583 346.6 
L 199.866583 -1 
M 199.866583 -1 
L 199.866583 346.6 
M 200.949969 346.6 
L 200.949969 -1 
M 202.394483 -1 
L 202.394483 346.6 
M 203.11674 346.6 
L 203.11674 -1 
M 203.391486 -1 
L 203.391486 346.6 
M 203.477868 346.6 
L 203.477868 -1 
M 204.200125 -1 
L 204.200125 346.6 
M 204.200226 346.6 
L 204.200226 -1 
M 204.922382 -1 
L 204.922382 346.6 
M 205.644639 346.6 
L 205.644639 -1 
M 206.728025 -1 
L 206.728025 346.6 
M 206.728025 346.6 
L 206.728025 -1 
M 207.450282 -1 
L 207.450282 346.6 
M 208.172539 346.6 
L 208.172539 -1 
M 209.255925 -1 
L 209.255925 346.6 
M 210.206727 346.6 
L 210.206727 -1 
M 211.061567 -1 
L 211.061567 346.6 
M 212.506075 346.6 
L 212.506075 -1 
M 212.506192 -1 
L 212.506192 346.6 
M 213.228339 346.6 
L 213.228339 -1 
M 213.950596 -1 
L 213.950596 346.6 
M 214.311724 346.6 
L 214.311724 -1 
M 215.756238 -1 
L 215.756238 346.6 
M 216.117342 346.6 
L 216.117342 -1 
M 216.839624 -1 
L 216.839624 346.6 
M 217.558431 346.6 
L 217.558431 -1 
M 217.562065 -1 
L 217.562065 346.6 
M 217.923009 346.6 
L 217.923009 -1 
M 218.645266 -1 
L 218.645266 346.6 
M 218.645286 346.6 
L 218.645286 -1 
M 219.728652 -1 
L 219.728652 346.6 
M 219.728652 346.6 
L 219.728652 -1 
M 220.450909 -1 
L 220.450909 346.6 
M 220.812029 346.6 
L 220.812029 -1 
M 220.812038 -1 
L 220.812038 346.6 
M 221.173369 346.6 
L 221.173369 -1 
M 221.895423 -1 
L 221.895423 346.6 
M 222.256413 346.6 
L 222.256413 -1 
M 222.256552 -1 
L 222.256552 346.6 
M 222.978809 346.6 
L 222.978809 -1 
M 222.978809 -1 
L 222.978809 346.6 
M 223.339937 346.6 
L 223.339937 -1 
M 224.062194 -1 
L 224.062194 346.6 
M 224.062663 346.6 
L 224.062663 -1 
M 224.457287 -1 
L 224.457287 346.6 
M 224.78448 346.6 
L 224.78448 -1 
M 225.506708 -1 
L 225.506708 346.6 
M 226.494836 346.6 
L 226.494836 -1 
M 227.312351 -1 
L 227.312351 346.6 
M 227.312356 346.6 
L 227.312356 -1 
M 227.67348 -1 
L 227.67348 346.6 
M 228.757781 346.6 
L 228.757781 -1 
M 229.478744 -1 
L 229.478744 346.6 
M 229.840251 346.6 
L 229.840251 -1 
M 230.562508 -1 
L 230.562508 346.6 
M 230.923636 346.6 
L 230.923636 -1 
M 230.924231 -1 
L 230.924231 346.6 
M 232.007022 346.6 
L 232.007022 -1 
M 232.007022 -1 
L 232.007022 346.6 
M 233.090406 346.6 
L 233.090406 -1 
M 233.090408 -1 
L 233.090408 346.6 
M 233.622761 346.6 
L 233.622761 -1 
M 233.813125 -1 
L 233.813125 346.6 
M 235.979436 346.6 
L 235.979436 -1 
M 238.146207 -1 
L 238.146207 346.6 
M 238.868464 346.6 
L 238.868464 -1 
M 238.868464 -1 
L 238.868464 346.6 
M 239.590721 346.6 
L 239.590721 -1 
M 240.312978 -1 
L 240.312978 346.6 
M 241.035235 346.6 
L 241.035235 -1 
M 241.757492 -1 
L 241.757492 346.6 
M 242.118621 346.6 
L 242.118621 -1 
M 242.840878 -1 
L 242.840878 346.6 
M 243.444211 346.6 
L 243.444211 -1 
M 245.368777 -1 
L 245.368777 346.6 
M 246.452042 346.6 
L 246.452042 -1 
M 246.637166 -1 
L 246.637166 346.6 
M 247.535548 346.6 
L 247.535548 -1 
M 247.896677 -1 
L 247.896677 346.6 
M 248.057385 346.6 
L 248.057385 -1 
M 248.257824 -1 
L 248.257824 346.6 
M 248.619003 346.6 
L 248.619003 -1 
M 249.70232 -1 
L 249.70232 346.6 
M 249.70232 346.6 
L 249.70232 -1 
M 251.507901 -1 
L 251.507901 346.6 
M 252.230219 346.6 
L 252.230219 -1 
M 252.230219 -1 
L 252.230219 346.6 
M 253.313605 346.6 
L 253.313605 -1 
M 255.119248 -1 
L 255.119248 346.6 
M 255.841601 346.6 
L 255.841601 -1 
M 257.286019 -1 
L 257.286019 346.6 
M 258.008276 346.6 
L 258.008276 -1 
M 258.008276 -1 
L 258.008276 346.6 
M 258.730533 346.6 
L 258.730533 -1 
M 259.091661 -1 
L 259.091661 346.6 
M 259.813918 346.6 
L 259.813918 -1 
M 259.813918 -1 
L 259.813918 346.6 
M 260.897304 346.6 
L 260.897304 -1 
M 262.341818 -1 
L 262.341818 346.6 
M 262.702947 346.6 
L 262.702947 -1 
M 263.425204 -1 
L 263.425204 346.6 
M 264.508589 346.6 
L 264.508589 -1 
M 265.591975 -1 
L 265.591975 346.6 
M 265.591975 346.6 
L 265.591975 -1 
M 266.160647 -1 
L 266.160647 346.6 
M 266.314232 346.6 
L 266.314232 -1 
M 267.036489 -1 
L 267.036489 346.6 
M 267.036489 346.6 
L 267.036489 -1 
M 267.397618 -1 
L 267.397618 346.6 
M 268.119875 346.6 
L 268.119875 -1 
M 268.481003 -1 
L 268.481003 346.6 
M 269.20326 346.6 
L 269.20326 -1 
M 269.925517 -1 
L 269.925517 346.6 
M 269.925556 346.6 
L 269.925556 -1 
M 270.647774 -1 
L 270.647774 346.6 
M 271.370031 346.6 
L 271.370031 -1 
M 272.088119 -1 
L 272.088119 346.6 
M 272.453417 346.6 
L 272.453417 -1 
M 273.536803 -1 
L 273.536803 346.6 
M 273.897544 346.6 
L 273.897544 -1 
M 274.620188 -1 
L 274.620188 346.6 
M 275.703574 346.6 
L 275.703574 -1 
M 275.703574 -1 
L 275.703574 346.6 
M 276.425831 346.6 
L 276.425831 -1 
M 278.954383 -1 
L 278.954383 346.6 
M 279.675987 346.6 
L 279.675987 -1 
M 279.675987 -1 
L 279.675987 346.6 
M 281.120502 346.6 
L 281.120502 -1 
M 281.842759 -1 
L 281.842759 346.6 
M 283.287261 346.6 
L 283.287261 -1 
M 284.370658 -1 
L 284.370658 346.6 
M 285.092915 346.6 
L 285.092915 -1 
M 286.176301 -1 
L 286.176301 346.6 
M 286.898558 346.6 
L 286.898558 -1 
M 286.898558 -1 
L 286.898558 346.6 
M 287.787396 346.6 
L 287.787396 -1 
M 288.704201 -1 
L 288.704201 346.6 
M 288.704201 346.6 
L 288.704201 -1 
M 290.870972 -1 
L 290.870972 346.6 
M 291.593229 346.6 
L 291.593229 -1 
M 292.315486 -1 
L 292.315486 346.6 
M 292.315486 346.6 
L 292.315486 -1 
M 293.037743 -1 
L 293.037743 346.6 
M 293.037791 346.6 
L 293.037791 -1 
M 293.754012 -1 
L 293.754012 346.6 
M 294.114378 346.6 
L 294.114378 -1 
M 294.121129 -1 
L 294.121129 346.6 
M 294.843386 346.6 
L 294.843386 -1 
M 295.204514 -1 
L 295.204514 346.6 
M 295.204514 346.6 
L 295.204514 -1 
M 295.926771 -1 
L 295.926771 346.6 
M 297.010157 346.6 
L 297.010157 -1 
M 297.732414 -1 
L 297.732414 346.6 
M 298.454671 346.6 
L 298.454671 -1 
M 299.176928 -1 
L 299.176928 346.6 
M 299.535431 346.6 
L 299.535431 -1 
M 300.260319 -1 
L 300.260319 346.6 
M 301.703408 346.6 
L 301.703408 -1 
M 301.704828 -1 
L 301.704828 346.6 
M 303.510468 346.6 
L 303.510468 -1 
M 304.954984 -1 
L 304.954984 346.6 
M 305.677241 346.6 
L 305.677241 -1 
M 305.677241 -1 
L 305.677241 346.6 
M 306.399498 346.6 
L 306.399498 -1 
M 309.288523 -1 
L 309.288523 346.6 
M 309.288527 346.6 
L 309.288527 -1 
M 310.010784 -1 
L 310.010784 346.6 
M 311.094169 346.6 
L 311.094169 -1 
M 311.816426 -1 
L 311.816426 346.6 
M 312.177553 346.6 
L 312.177553 -1 
M 313.622069 -1 
L 313.622069 346.6 
M 315.066583 346.6 
L 315.066583 -1 
M 316.149969 -1 
L 316.149969 346.6 
M 317.233511 346.6 
L 317.233511 -1 
M 318.31674 -1 
L 318.31674 346.6 
M 318.677868 346.6 
L 318.677868 -1 
M 320.122382 -1 
L 320.122382 346.6 
M 320.483511 346.6 
L 320.483511 -1 
M 321.205766 -1 
L 321.205766 346.6 
M 321.566897 346.6 
L 321.566897 -1 
M 322.289154 -1 
L 322.289154 346.6 
M 323.006575 346.6 
L 323.006575 -1 
M 323.733668 -1 
L 323.733668 346.6 
M 325.178182 346.6 
L 325.178182 -1 
M 326.983824 -1 
L 326.983824 346.6 
M 327.706082 346.6 
L 327.706082 -1 
M 328.789467 -1 
L 328.789467 346.6 
M 329.150759 346.6 
L 329.150759 -1 
M 329.872853 -1 
L 329.872853 346.6 
M 329.872853 346.6 
L 329.872853 -1 
M 330.59511 -1 
L 330.59511 346.6 
M 331.317371 346.6 
L 331.317371 -1 
M 332.400752 -1 
L 332.400752 346.6 
M 332.400752 346.6 
L 332.400752 -1 
M 333.845266 -1 
L 333.845266 346.6 
M 335.289781 346.6 
L 335.289781 -1 
M 335.289781 -1 
L 335.289781 346.6 
M 336.012037 346.6 
L 336.012037 -1 
M 336.373201 -1 
L 336.373201 346.6 
M 336.734307 346.6 
L 336.734307 -1 
M 338.539937 -1 
L 338.539937 346.6 
M 341.067837 346.6 
L 341.067837 -1 
M 341.790013 -1 
L 341.790013 346.6 
M 342.151223 346.6 
L 342.151223 -1 
M 342.512351 -1 
L 342.512351 346.6 
M 343.234608 346.6 
L 343.234608 -1 
M 343.595738 -1 
L 343.595738 346.6 
M 344.317994 346.6 
L 344.317994 -1 
M 345.762508 -1 
L 345.762508 346.6 
M 345.762508 346.6 
L 345.762508 -1 
M 346.484765 -1 
L 346.484765 346.6 
M 347.56815 346.6 
L 347.56815 -1 
M 347.569402 -1 
L 347.569402 346.6 
M 348.290408 346.6 
L 348.290408 -1 
M 349.012665 -1 
L 349.012665 346.6 
M 350.09605 346.6 
L 350.09605 -1 
M 350.09605 -1 
L 350.09605 346.6 
M 350.818307 346.6 
L 350.818307 -1 
M 351.901693 -1 
L 351.901693 346.6 
M 353.211532 346.6 
L 353.211532 -1 
M 353.346207 -1 
L 353.346207 346.6 
M 354.068464 346.6 
L 354.068464 -1 
M 354.790721 -1 
L 354.790721 346.6 
M 355.15185 346.6 
L 355.15185 -1 
M 356.957492 -1 
L 356.957492 346.6 
M 357.679749 346.6 
L 357.679749 -1 
M 358.763135 -1 
L 358.763135 346.6 
M 359.485392 346.6 
L 359.485392 -1 
M 359.485392 -1 
L 359.485392 346.6 
M 360.207649 346.6 
L 360.207649 -1 
M 360.207649 -1 
L 360.207649 346.6 
M 360.568777 346.6 
L 360.568777 -1 
M 361.652164 -1 
L 361.652164 346.6 
M 362.737131 346.6 
L 362.737131 -1 
M 364.180063 -1 
L 364.180063 346.6 
M 364.540476 346.6 
L 364.540476 -1 
M 365.350944 -1 
L 365.350944 346.6 
M 366.707656 346.6 
L 366.707656 -1 
M 369.958119 -1 
L 369.958119 346.6 
M 370.319248 346.6 
L 370.319248 -1 
M 371.041505 -1 
L 371.041505 346.6 
M 372.100733 346.6 
L 372.100733 -1 
M 373.569404 -1 
L 373.569404 346.6 
M 373.569404 346.6 
L 373.569404 -1 
M 374.291661 -1 
L 374.291661 346.6 
M 374.291662 346.6 
L 374.291662 -1 
M 376.097117 -1 
L 376.097117 346.6 
M 378.264075 346.6 
L 378.264075 -1 
M 379.328049 -1 
L 379.328049 346.6 
M 379.370853 346.6 
L 379.370853 -1 
M 380.430846 -1 
L 380.430846 346.6 
M 381.153103 346.6 
L 381.153103 -1 
M 382.236489 -1 
L 382.236489 346.6 
M 382.958746 346.6 
L 382.958746 -1 
M 383.681003 -1 
L 383.681003 346.6 
M 384.042132 346.6 
L 384.042132 -1 
M 384.764413 -1 
L 384.764413 346.6 
M 385.486646 346.6 
L 385.486646 -1 
M 385.48665 -1 
L 385.48665 346.6 
M 386.208903 346.6 
L 386.208903 -1 
M 386.93116 -1 
L 386.93116 346.6 
M 388.014545 346.6 
L 388.014545 -1 
M 388.736803 -1 
L 388.736803 346.6 
M 389.45906 346.6 
L 389.45906 -1 
M 389.45906 -1 
L 389.45906 346.6 
M 390.529842 346.6 
L 390.529842 -1 
M 392.348088 -1 
L 392.348088 346.6 
M 392.348088 346.6 
L 392.348088 -1 
M 393.070345 -1 
L 393.070345 346.6 
M 393.431473 346.6 
L 393.431473 -1 
M 393.431473 -1 
L 393.431473 346.6 
M 394.514859 346.6 
L 394.514859 -1 
M 394.876195 -1 
L 394.876195 346.6 
M 395.959373 346.6 
L 395.959373 -1 
M 397.042632 -1 
L 397.042632 346.6 
M 397.403887 346.6 
L 397.403887 -1 
M 398.126144 -1 
L 398.126144 346.6 
L 398.126144 346.6 
" clip-path="url(#p426db3a004)" style="fill: none; stroke: #ff7f0e; stroke-width: 1.5; stroke-linecap: square"/>
   </g>
   <g id="patch_3">
    <path d="M 57.6 307.584 
L 57.6 41.472 
" style="fill: none; stroke: #000000; stroke-width: 0.8; stroke-linejoin: miter; stroke-linecap: square"/>
   </g>
   <g id="patch_4">
    <path d="M 414.72 307.584 
L 414.72 41.472 
" style="fill: none; stroke: #000000; stroke-width: 0.8; stroke-linejoin: miter; stroke-linecap: square"/>
   </g>
   <g id="patch_5">
    <path d="M 57.6 307.584 
L 414.72 307.584 
" style="fill: none; stroke: #000000; stroke-width: 0.8; stroke-linejoin: miter; stroke-linecap: square"/>
   </g>
   <g id="patch_6">
    <path d="M 57.6 41.472 
L 414.72 41.472 
" style="fill: none; stroke: #000000; stroke-width: 0.8; stroke-linejoin: miter; stroke-linecap: square"/>
   </g>
  </g>
 </g>
 <defs>
  <clipPath id="p426db3a004">
   <rect x="57.6" y="41.472" width="357.12" height="266.112"/>
  </clipPath>
 </defs>
</svg>
