<svg width="1120" height="16" xmlns="http://www.w3.org/2000/svg">
<g transform="scale(16 16)">
<path d="M 0 0 L 1 0 L 1 1 L 0 1 Z" fill="rgb(143,143,143)" stroke-width="0.02" stroke="black" />
<path d="M 1 0 L 2 0 L 2 1 L 1 1 Z" fill="rgb(143,143,143)" stroke-width="0.02" stroke="black" />
<path d="M 2 0 L 3 0 L 3 1 L 2 1 Z" fill="rgb(143,143,143)" stroke-width="0.02" stroke="black" />
<path d="M 3 0 L 4 0 L 4 1 L 3 1 Z" fill="rgb(127,127,127)" stroke-width="0.02" stroke="black" />
<path d="M 4 0 L 5 0 L 5 1 L 4 1 Z" fill="rgb(111,111,111)" stroke-width="0.02" stroke="black" />
<path d="M 5 0 L 6 0 L 6 1 L 5 1 Z" fill="rgb(111,111,111)" stroke-width="0.02" stroke="black" />
<path d="M 6 0 L 7 0 L 7 1 L 6 1 Z" fill="rgb(111,111,111)" stroke-width="0.02" stroke="black" />
<path d="M 7 0 L 8 0 L 8 1 L 7 1 Z" fill="rgb(143,143,143)" stroke-width="0.02" stroke="black" />
<path d="M 8 0 L 9 0 L 9 1 L 8 1 Z" fill="rgb(143,143,143)" stroke-width="0.02" stroke="black" />
<path d="M 9 0 L 10 0 L 10 1 L 9 1 Z" fill="rgb(143,143,143)" stroke-width="0.02" stroke="black" />
<path d="M 10 0 L 11 0 L 11 1 L 10 1 Z" fill="rgb(127,127,127)" stroke-width="0.02" stroke="black" />
<path d="M 11 0 L 12 0 L 12 1 L 11 1 Z" fill="rgb(111,111,111)" stroke-width="0.02" stroke="black" />
<path d="M 12 0 L 13 0 L 13 1 L 12 1 Z" fill="rgb(111,111,111)" stroke-width="0.02" stroke="black" />
<path d="M 13 0 L 14 0 L 14 1 L 13 1 Z" fill="rgb(111,111,111)" stroke-width="0.02" stroke="black" />
<path d="M 14 0 L 15 0 L 15 1 L 14 1 Z" fill="rgb(143,143,143)" stroke-width="0.02" stroke="black" />
<path d="M 15 0 L 16 0 L 16 1 L 15 1 Z" fill="rgb(143,143,143)" stroke-width="0.02" stroke="black" />
<path d="M 16 0 L 17 0 L 17 1 L 16 1 Z" fill="rgb(143,143,143)" stroke-width="0.02" stroke="black" />
<path d="M 17 0 L 18 0 L 18 1 L 17 1 Z" fill="rgb(127,127,127)" stroke-width="0.02" stroke="black" />
<path d="M 18 0 L 19 0 L 19 1 L 18 1 Z" fill="rgb(111,111,111)" stroke-width="0.02" stroke="black" />
<path d="M 19 0 L 20 0 L 20 1 L 19 1 Z" fill="rgb(111,111,111)" stroke-width="0.02" stroke="black" />
<path d="M 20 0 L 21 0 L 21 1 L 20 1 Z" fill="rgb(111,111,111)" stroke-width="0.02" stroke="black" />
<path d="M 21 0 L 22 0 L 22 1 L 21 1 Z" fill="rgb(143,143,143)" stroke-width="0.02" stroke="black" />
<path d="M 22 0 L 23 0 L 23 1 L 22 1 Z" fill="rgb(143,143,143)" stroke-width="0.02" stroke="black" />
<path d="M 23 0 L 24 0 L 24 1 L 23 1 Z" fill="rgb(143,143,143)" stroke-width="0.02" stroke="black" />
<path d="M 24 0 L 25 0 L 25 1 L 24 1 Z" fill="rgb(127,127,127)" stroke-width="0.02" stroke="black" />
<path d="M 25 0 L 26 0 L 26 1 L 25 1 Z" fill="rgb(111,111,111)" stroke-width="0.02" stroke="black" />
<path d="M 26 0 L 27 0 L 27 1 L 26 1 Z" fill="rgb(111,111,111)" stroke-width="0.02" stroke="black" />
<path d="M 27 0 L 28 0 L 28 1 L 27 1 Z" fill="rgb(111,111,111)" stroke-width="0.02" stroke="black" />
<path d="M 28 0 L 29 0 L 29 1 L 28 1 Z" fill="rgb(143,143,143)" stroke-width="0.02" stroke="black" />
<path d="M 29 0 L 30 0 L 30 1 L 29 1 Z" fill="rgb(143,143,143)" stroke-width="0.02" stroke="black" />
<path d="M 30 0 L 31 0 L 31 1 L 30 1 Z" fill="rgb(143,143,143)" stroke-width="0.02" stroke="black" />
<path d="M 31 0 L 32 0 L 32 1 L 31 1 Z" fill="rgb(127,127,127)" stroke-width="0.02" stroke="black" />
<path d="M 32 0 L 33 0 L 33 1 L 32 1 Z" fill="rgb(111,111,111)" stroke-width="0.02" stroke="black" />
<path d="M 33 0 L 34 0 L 34 1 L 33 1 Z" fill="rgb(111,111,111)" stroke-width="0.02" stroke="black" />
<path d="M 34 0 L 35 0 L 35 1 L 34 1 Z" fill="rgb(111,111,111)" stroke-width="0.02" stroke="black" />
<path d="M 35 0 L 36 0 L 36 1 L 35 1 Z" fill="rgb(143,143,143)" stroke-width="0.02" stroke="black" />
<path d="M 36 0 L 37 0 L 37 1 L 36 1 Z" fill="rgb(143,143,143)" stroke-width="0.02" stroke="black" />
<path d="M 37 0 L 38 0 L 38 1 L 37 1 Z" fill="rgb(143,143,143)" stroke-width="0.02" stroke="black" />
<path d="M 38 0 L 39 0 L 39 1 L 38 1 Z" fill="rgb(127,127,127)" stroke-width="0.02" stroke="black" />
<path d="M 39 0 L 40 0 L 40 1 L 39 1 Z" fill="rgb(111,111,111)" stroke-width="0.02" stroke="black" />
<path d="M 40 0 L 41 0 L 41 1 L 40 1 Z" fill="rgb(111,111,111)" stroke-width="0.02" stroke="black" />
<path d="M 41 0 L 42 0 L 42 1 L 41 1 Z" fill="rgb(111,111,111)" stroke-width="0.02" stroke="black" />
<path d="M 42 0 L 43 0 L 43 1 L 42 1 Z" fill="rgb(143,143,143)" stroke-width="0.02" stroke="black" />
<path d="M 43 0 L 44 0 L 44 1 L 43 1 Z" fill="rgb(143,143,143)" stroke-width="0.02" stroke="black" />
<path d="M 44 0 L 45 0 L 45 1 L 44 1 Z" fill="rgb(143,143,143)" stroke-width="0.02" stroke="black" />
<path d="M 45 0 L 46 0 L 46 1 L 45 1 Z" fill="rgb(127,127,127)" stroke-width="0.02" stroke="black" />
<path d="M 46 0 L 47 0 L 47 1 L 46 1 Z" fill="rgb(111,111,111)" stroke-width="0.02" stroke="black" />
<path d="M 47 0 L 48 0 L 48 1 L 47 1 Z" fill="rgb(111,111,111)" stroke-width="0.02" stroke="black" />
<path d="M 48 0 L 49 0 L 49 1 L 48 1 Z" fill="rgb(111,111,111)" stroke-width="0.02" stroke="black" />
<path d="M 49 0 L 50 0 L 50 1 L 49 1 Z" fill="rgb(143,143,143)" stroke-width="0.02" stroke="black" />
<path d="M 50 0 L 51 0 L 51 1 L 50 1 Z" fill="rgb(143,143,143)" stroke-width="0.02" stroke="black" />
<path d="M 51 0 L 52 0 L 52 1 L 51 1 Z" fill="rgb(143,143,143)" stroke-width="0.02" stroke="black" />
<path d="M 52 0 L 53 0 L 53 1 L 52 1 Z" fill="rgb(127,127,127)" stroke-width="0.02" stroke="black" />
<path d="M 53 0 L 54 0 L 54 1 L 53 1 Z" fill="rgb(111,111,111)" stroke-width="0.02" stroke="black" />
<path d="M 54 0 L 55 0 L 55 1 L 54 1 Z" fill="rgb(111,111,111)" stroke-width="0.02" stroke="black" />
<path d="M 55 0 L 56 0 L 56 1 L 55 1 Z" fill="rgb(111,111,111)" stroke-width="0.02" stroke="black" />
<path d="M 56 0 L 57 0 L 57 1 L 56 1 Z" fill="rgb(143,143,143)" stroke-width="0.02" stroke="black" />
<path d="M 57 0 L 58 0 L 58 1 L 57 1 Z" fill="rgb(143,143,143)" stroke-width="0.02" stroke="black" />
<path d="M 58 0 L 59 0 L 59 1 L 58 1 Z" fill="rgb(143,143,143)" stroke-width="0.02" stroke="black" />
<path d="M 59 0 L 60 0 L 60 1 L 59 1 Z" fill="rgb(127,127,127)" stroke-width="0.02" stroke="black" />
<path d="M 60 0 L 61 0 L 61 1 L 60 1 Z" fill="rgb(111,111,111)" stroke-width="0.02" stroke="black" />
<path d="M 61 0 L 62 0 L 62 1 L 61 1 Z" fill="rgb(111,111,111)" stroke-width="0.02" stroke="black" />
<path d="M 62 0 L 63 0 L 63 1 L 62 1 Z" fill="rgb(111,111,111)" stroke-width="0.02" stroke="black" />
<path d="M 63 0 L 64 0 L 64 1 L 63 1 Z" fill="rgb(143,143,143)" stroke-width="0.02" stroke="black" />
<path d="M 64 0 L 65 0 L 65 1 L 64 1 Z" fill="rgb(143,143,143)" stroke-width="0.02" stroke="black" />
<path d="M 65 0 L 66 0 L 66 1 L 65 1 Z" fill="rgb(143,143,143)" stroke-width="0.02" stroke="black" />
<path d="M 66 0 L 67 0 L 67 1 L 66 1 Z" fill="rgb(127,127,127)" stroke-width="0.02" stroke="black" />
<path d="M 67 0 L 68 0 L 68 1 L 67 1 Z" fill="rgb(111,111,111)" stroke-width="0.02" stroke="black" />
<path d="M 68 0 L 69 0 L 69 1 L 68 1 Z" fill="rgb(111,111,111)" stroke-width="0.02" stroke="black" />
<path d="M 69 0 L 70 0 L 70 1 L 69 1 Z" fill="rgb(111,111,111)" stroke-width="0.02" stroke="black" />
</g>
</svg>

