<svg width="900" height="1000" xmlns="http://www.w3.org/2000/svg">
<g transform="scale(100 100)">
<path d="M 0 0 L 9 0 9 10 0 10" fill="black" />
<path d="M 0.6666666666666666 0.0 L 0.9996666666666667 0.0 L 0.9996666666666667 1.0 L 0.6666666666666666 1.0 Z" fill="rgb(0,0,2)" />
<path d="M 1.0 0.0 L 1.333 0.0 L 1.333 1.0 L 1.0 1.0 Z" fill="rgb(51,0,0)" />
<path d="M 1.3333333333333333 0.0 L 1.6663333333333332 0.0 L 1.6663333333333332 1.0 L 1.3333333333333333 1.0 Z" fill="rgb(0,82,0)" />
<path d="M 1.6666666666666667 0.0 L 1.9996666666666667 0.0 L 1.9996666666666667 1.0 L 1.6666666666666667 1.0 Z" fill="rgb(0,0,98)" />
<path d="M 2.0 0.0 L 2.333 0.0 L 2.333 1.0 L 2.0 1.0 Z" fill="rgb(102,0,0)" />
<path d="M 2.3333333333333335 0.0 L 2.6663333333333337 0.0 L 2.6663333333333337 1.0 L 2.3333333333333335 1.0 Z" fill="rgb(0,102,0)" />
<path d="M 2.6666666666666665 0.0 L 2.9996666666666667 0.0 L 2.9996666666666667 1.0 L 2.6666666666666665 1.0 Z" fill="rgb(0,0,91)" />
<path d="M 3.0 0.0 L 3.333 0.0 L 3.333 1.0 L 3.0 1.0 Z" fill="rgb(79,0,0)" />
<path d="M 3.3333333333333335 0.0 L 3.6663333333333337 0.0 L 3.6663333333333337 1.0 L 3.3333333333333335 1.0 Z" fill="rgb(0,108,0)" />
<path d="M 3.6666666666666665 0.0 L 3.9996666666666667 0.0 L 3.9996666666666667 1.0 L 3.6666666666666665 1.0 Z" fill="rgb(0,0,150)" />
<path d="M 4.0 0.0 L 4.333 0.0 L 4.333 1.0 L 4.0 1.0 Z" fill="rgb(134,0,0)" />
<path d="M 4.333333333333333 0.0 L 4.666333333333333 0.0 L 4.666333333333333 1.0 L 4.333333333333333 1.0 Z" fill="rgb(0,35,0)" />
<path d="M 0.3333333333333333 1.0 L 0.6663333333333333 1.0 L 0.6663333333333333 2.0 L 0.3333333333333333 2.0 Z" fill="rgb(0,142,0)" />
<path d="M 0.6666666666666666 1.0 L 0.9996666666666667 1.0 L 0.9996666666666667 2.0 L 0.6666666666666666 2.0 Z" fill="rgb(0,0,245)" />
<path d="M 1.0 1.0 L 1.333 1.0 L 1.333 2.0 L 1.0 2.0 Z" fill="rgb(225,0,0)" />
<path d="M 1.3333333333333333 1.0 L 1.6663333333333332 1.0 L 1.6663333333333332 2.0 L 1.3333333333333333 2.0 Z" fill="rgb(0,59,0)" />
<path d="M 2.6666666666666665 1.0 L 2.9996666666666667 1.0 L 2.9996666666666667 2.0 L 2.6666666666666665 2.0 Z" fill="rgb(0,0,23)" />
<path d="M 3.0 1.0 L 3.333 1.0 L 3.333 2.0 L 3.0 2.0 Z" fill="rgb(156,0,0)" />
<path d="M 3.3333333333333335 1.0 L 3.6663333333333337 1.0 L 3.6663333333333337 2.0 L 3.3333333333333335 2.0 Z" fill="rgb(0,255,0)" />
<path d="M 3.6666666666666665 1.0 L 3.9996666666666667 1.0 L 3.9996666666666667 2.0 L 3.6666666666666665 2.0 Z" fill="rgb(0,0,233)" />
<path d="M 4.0 1.0 L 4.333 1.0 L 4.333 2.0 L 4.0 2.0 Z" fill="rgb(49,0,0)" />
<path d="M 0.0 2.0 L 0.333 2.0 L 0.333 3.0 L 0.0 3.0 Z" fill="rgb(8,0,0)" />
<path d="M 0.3333333333333333 2.0 L 0.6663333333333333 2.0 L 0.6663333333333333 3.0 L 0.3333333333333333 3.0 Z" fill="rgb(0,247,0)" />
<path d="M 0.6666666666666666 2.0 L 0.9996666666666667 2.0 L 0.9996666666666667 3.0 L 0.6666666666666666 3.0 Z" fill="rgb(0,0,255)" />
<path d="M 1.0 2.0 L 1.333 2.0 L 1.333 3.0 L 1.0 3.0 Z" fill="rgb(182,0,0)" />
<path d="M 3.0 2.0 L 3.333 2.0 L 3.333 3.0 L 3.0 3.0 Z" fill="rgb(72,0,0)" />
<path d="M 3.3333333333333335 2.0 L 3.6663333333333337 2.0 L 3.6663333333333337 3.0 L 3.3333333333333335 3.0 Z" fill="rgb(0,255,0)" />
<path d="M 3.6666666666666665 2.0 L 3.9996666666666667 2.0 L 3.9996666666666667 3.0 L 3.6666666666666665 3.0 Z" fill="rgb(0,0,255)" />
<path d="M 4.0 2.0 L 4.333 2.0 L 4.333 3.0 L 4.0 3.0 Z" fill="rgb(96,0,0)" />
<path d="M 0.3333333333333333 3.0 L 0.6663333333333333 3.0 L 0.6663333333333333 4.0 L 0.3333333333333333 4.0 Z" fill="rgb(0,44,0)" />
<path d="M 0.6666666666666666 3.0 L 0.9996666666666667 3.0 L 0.9996666666666667 4.0 L 0.6666666666666666 4.0 Z" fill="rgb(0,0,149)" />
<path d="M 1.0 3.0 L 1.333 3.0 L 1.333 4.0 L 1.0 4.0 Z" fill="rgb(247,0,0)" />
<path d="M 1.3333333333333333 3.0 L 1.6663333333333332 3.0 L 1.6663333333333332 4.0 L 1.3333333333333333 4.0 Z" fill="rgb(0,172,0)" />
<path d="M 1.6666666666666667 3.0 L 1.9996666666666667 3.0 L 1.9996666666666667 4.0 L 1.6666666666666667 4.0 Z" fill="rgb(0,0,130)" />
<path d="M 2.0 3.0 L 2.333 3.0 L 2.333 4.0 L 2.0 4.0 Z" fill="rgb(109,0,0)" />
<path d="M 2.3333333333333335 3.0 L 2.6663333333333337 3.0 L 2.6663333333333337 4.0 L 2.3333333333333335 4.0 Z" fill="rgb(0,120,0)" />
<path d="M 2.6666666666666665 3.0 L 2.9996666666666667 3.0 L 2.9996666666666667 4.0 L 2.6666666666666665 4.0 Z" fill="rgb(0,0,145)" />
<path d="M 3.0 3.0 L 3.333 3.0 L 3.333 4.0 L 3.0 4.0 Z" fill="rgb(188,0,0)" />
<path d="M 3.3333333333333335 3.0 L 3.6663333333333337 3.0 L 3.6663333333333337 4.0 L 3.3333333333333335 4.0 Z" fill="rgb(0,163,0)" />
<path d="M 3.6666666666666665 3.0 L 3.9996666666666667 3.0 L 3.9996666666666667 4.0 L 3.6666666666666665 4.0 Z" fill="rgb(0,0,86)" />
<path d="M 4.0 3.0 L 4.333 3.0 L 4.333 4.0 L 4.0 4.0 Z" fill="rgb(2,0,0)" />
<path d="M 0.0 4.0 L 0.333 4.0 L 0.333 5.0 L 0.0 5.0 Z" fill="rgb(4,0,0)" />
<path d="M 0.3333333333333333 4.0 L 0.6663333333333333 4.0 L 0.6663333333333333 5.0 L 0.3333333333333333 5.0 Z" fill="rgb(0,140,0)" />
<path d="M 0.6666666666666666 4.0 L 0.9996666666666667 4.0 L 0.9996666666666667 5.0 L 0.6666666666666666 5.0 Z" fill="rgb(0,0,230)" />
<path d="M 1.0 4.0 L 1.333 4.0 L 1.333 5.0 L 1.0 5.0 Z" fill="rgb(202,0,0)" />
<path d="M 1.3333333333333333 4.0 L 1.6663333333333332 4.0 L 1.6663333333333332 5.0 L 1.3333333333333333 5.0 Z" fill="rgb(0,62,0)" />
<path d="M 1.6666666666666667 4.0 L 1.9996666666666667 4.0 L 1.9996666666666667 5.0 L 1.6666666666666667 5.0 Z" fill="rgb(0,0,54)" />
<path d="M 2.0 4.0 L 2.333 4.0 L 2.333 5.0 L 2.0 5.0 Z" fill="rgb(54,0,0)" />
<path d="M 2.3333333333333335 4.0 L 2.6663333333333337 4.0 L 2.6663333333333337 5.0 L 2.3333333333333335 5.0 Z" fill="rgb(0,54,0)" />
<path d="M 2.6666666666666665 4.0 L 2.9996666666666667 4.0 L 2.9996666666666667 5.0 L 2.6666666666666665 5.0 Z" fill="rgb(0,0,54)" />
<path d="M 3.0 4.0 L 3.333 4.0 L 3.333 5.0 L 3.0 5.0 Z" fill="rgb(54,0,0)" />
<path d="M 3.3333333333333335 4.0 L 3.6663333333333337 4.0 L 3.6663333333333337 5.0 L 3.3333333333333335 5.0 Z" fill="rgb(0,50,0)" />
<path d="M 3.6666666666666665 4.0 L 3.9996666666666667 4.0 L 3.9996666666666667 5.0 L 3.6666666666666665 5.0 Z" fill="rgb(0,0,33)" />
<path d="M 0.3333333333333333 5.0 L 0.6663333333333333 5.0 L 0.6663333333333333 6.0 L 0.3333333333333333 6.0 Z" fill="rgb(0,65,0)" />
<path d="M 0.6666666666666666 5.0 L 0.9996666666666667 5.0 L 0.9996666666666667 6.0 L 0.6666666666666666 6.0 Z" fill="rgb(0,0,202)" />
<path d="M 1.0 5.0 L 1.333 5.0 L 1.333 6.0 L 1.0 6.0 Z" fill="rgb(209,0,0)" />
<path d="M 1.3333333333333333 5.0 L 1.6663333333333332 5.0 L 1.6663333333333332 6.0 L 1.3333333333333333 6.0 Z" fill="rgb(0,154,0)" />
<path d="M 1.6666666666666667 5.0 L 1.9996666666666667 5.0 L 1.9996666666666667 6.0 L 1.6666666666666667 6.0 Z" fill="rgb(0,0,153)" />
<path d="M 2.0 5.0 L 2.333 5.0 L 2.333 6.0 L 2.0 6.0 Z" fill="rgb(153,0,0)" />
<path d="M 2.3333333333333335 5.0 L 2.6663333333333337 5.0 L 2.6663333333333337 6.0 L 2.3333333333333335 6.0 Z" fill="rgb(0,153,0)" />
<path d="M 2.6666666666666665 5.0 L 2.9996666666666667 5.0 L 2.9996666666666667 6.0 L 2.6666666666666665 6.0 Z" fill="rgb(0,0,153)" />
<path d="M 3.0 5.0 L 3.333 5.0 L 3.333 6.0 L 3.0 6.0 Z" fill="rgb(153,0,0)" />
<path d="M 3.3333333333333335 5.0 L 3.6663333333333337 5.0 L 3.6663333333333337 6.0 L 3.3333333333333335 6.0 Z" fill="rgb(0,162,0)" />
<path d="M 3.6666666666666665 5.0 L 3.9996666666666667 5.0 L 3.9996666666666667 6.0 L 3.6666666666666665 6.0 Z" fill="rgb(0,0,219)" />
<path d="M 4.0 5.0 L 4.333 5.0 L 4.333 6.0 L 4.0 6.0 Z" fill="rgb(255,0,0)" />
<path d="M 4.333333333333333 5.0 L 4.666333333333333 5.0 L 4.666333333333333 6.0 L 4.333333333333333 6.0 Z" fill="rgb(0,181,0)" />
<path d="M 4.666666666666667 5.0 L 4.999666666666667 5.0 L 4.999666666666667 6.0 L 4.666666666666667 6.0 Z" fill="rgb(0,0,21)" />
<path d="M 0.0 6.0 L 0.333 6.0 L 0.333 7.0 L 0.0 7.0 Z" fill="rgb(89,0,0)" />
<path d="M 0.3333333333333333 6.0 L 0.6663333333333333 6.0 L 0.6663333333333333 7.0 L 0.3333333333333333 7.0 Z" fill="rgb(0,255,0)" />
<path d="M 0.6666666666666666 6.0 L 0.9996666666666667 6.0 L 0.9996666666666667 7.0 L 0.6666666666666666 7.0 Z" fill="rgb(0,0,196)" />
<path d="M 3.6666666666666665 6.0 L 3.9996666666666667 6.0 L 3.9996666666666667 7.0 L 3.6666666666666665 7.0 Z" fill="rgb(0,0,97)" />
<path d="M 4.0 6.0 L 4.333 6.0 L 4.333 7.0 L 4.0 7.0 Z" fill="rgb(255,0,0)" />
<path d="M 4.333333333333333 6.0 L 4.666333333333333 6.0 L 4.666333333333333 7.0 L 4.333333333333333 7.0 Z" fill="rgb(0,232,0)" />
<path d="M 4.666666666666667 6.0 L 4.999666666666667 6.0 L 4.999666666666667 7.0 L 4.666666666666667 7.0 Z" fill="rgb(0,0,24)" />
<path d="M 0.0 7.0 L 0.333 7.0 L 0.333 8.0 L 0.0 8.0 Z" fill="rgb(19,0,0)" />
<path d="M 0.3333333333333333 7.0 L 0.6663333333333333 7.0 L 0.6663333333333333 8.0 L 0.3333333333333333 8.0 Z" fill="rgb(0,111,0)" />
<path d="M 0.6666666666666666 7.0 L 0.9996666666666667 7.0 L 0.9996666666666667 8.0 L 0.6666666666666666 8.0 Z" fill="rgb(0,0,163)" />
<path d="M 1.0 7.0 L 1.333 7.0 L 1.333 8.0 L 1.0 8.0 Z" fill="rgb(135,0,0)" />
<path d="M 1.3333333333333333 7.0 L 1.6663333333333332 7.0 L 1.6663333333333332 8.0 L 1.3333333333333333 8.0 Z" fill="rgb(0,113,0)" />
<path d="M 1.6666666666666667 7.0 L 1.9996666666666667 7.0 L 1.9996666666666667 8.0 L 1.6666666666666667 8.0 Z" fill="rgb(0,0,107)" />
<path d="M 2.0 7.0 L 2.333 7.0 L 2.333 8.0 L 2.0 8.0 Z" fill="rgb(105,0,0)" />
<path d="M 2.3333333333333335 7.0 L 2.6663333333333337 7.0 L 2.6663333333333337 8.0 L 2.3333333333333335 8.0 Z" fill="rgb(0,106,0)" />
<path d="M 2.6666666666666665 7.0 L 2.9996666666666667 7.0 L 2.9996666666666667 8.0 L 2.6666666666666665 8.0 Z" fill="rgb(0,0,110)" />
<path d="M 3.0 7.0 L 3.333 7.0 L 3.333 8.0 L 3.0 8.0 Z" fill="rgb(118,0,0)" />
<path d="M 3.3333333333333335 7.0 L 3.6663333333333337 7.0 L 3.6663333333333337 8.0 L 3.3333333333333335 8.0 Z" fill="rgb(0,139,0)" />
<path d="M 3.6666666666666665 7.0 L 3.9996666666666667 7.0 L 3.9996666666666667 8.0 L 3.6666666666666665 8.0 Z" fill="rgb(0,0,133)" />
<path d="M 4.0 7.0 L 4.333 7.0 L 4.333 8.0 L 4.0 8.0 Z" fill="rgb(78,0,0)" />
<path d="M 4.333333333333333 7.0 L 4.666333333333333 7.0 L 4.666333333333333 8.0 L 4.333333333333333 8.0 Z" fill="rgb(0,9,0)" />
</g>
</svg>

