<svg width="900" height="1000" xmlns="http://www.w3.org/2000/svg">
<g transform="scale(100 100)">
<path d="M 0 0 L 9 0 9 10 0 10" fill="black" />
<path d="M 0 0 L 1 0 L 1 1 L 0 1 Z" fill="rgb(0,0,2)" />
<path d="M 1 0 L 2 0 L 2 1 L 1 1 Z" fill="rgb(51,82,98)" />
<path d="M 2 0 L 3 0 L 3 1 L 2 1 Z" fill="rgb(102,102,91)" />
<path d="M 3 0 L 4 0 L 4 1 L 3 1 Z" fill="rgb(79,108,150)" />
<path d="M 4 0 L 5 0 L 5 1 L 4 1 Z" fill="rgb(134,35,0)" />
<path d="M 0 1 L 1 1 L 1 2 L 0 2 Z" fill="rgb(0,142,245)" />
<path d="M 1 1 L 2 1 L 2 2 L 1 2 Z" fill="rgb(225,59,0)" />
<path d="M 2 1 L 3 1 L 3 2 L 2 2 Z" fill="rgb(0,0,23)" />
<path d="M 3 1 L 4 1 L 4 2 L 3 2 Z" fill="rgb(156,255,233)" />
<path d="M 4 1 L 5 1 L 5 2 L 4 2 Z" fill="rgb(49,0,0)" />
<path d="M 0 2 L 1 2 L 1 3 L 0 3 Z" fill="rgb(8,247,255)" />
<path d="M 1 2 L 2 2 L 2 3 L 1 3 Z" fill="rgb(182,0,0)" />
<path d="M 3 2 L 4 2 L 4 3 L 3 3 Z" fill="rgb(72,255,255)" />
<path d="M 4 2 L 5 2 L 5 3 L 4 3 Z" fill="rgb(96,0,0)" />
<path d="M 0 3 L 1 3 L 1 4 L 0 4 Z" fill="rgb(0,44,149)" />
<path d="M 1 3 L 2 3 L 2 4 L 1 4 Z" fill="rgb(247,172,130)" />
<path d="M 2 3 L 3 3 L 3 4 L 2 4 Z" fill="rgb(109,120,145)" />
<path d="M 3 3 L 4 3 L 4 4 L 3 4 Z" fill="rgb(188,163,86)" />
<path d="M 4 3 L 5 3 L 5 4 L 4 4 Z" fill="rgb(2,0,0)" />
<path d="M 0 4 L 1 4 L 1 5 L 0 5 Z" fill="rgb(4,140,230)" />
<path d="M 1 4 L 2 4 L 2 5 L 1 5 Z" fill="rgb(202,62,54)" />
<path d="M 2 4 L 3 4 L 3 5 L 2 5 Z" fill="rgb(54,54,54)" />
<path d="M 3 4 L 4 4 L 4 5 L 3 5 Z" fill="rgb(54,50,33)" />
<path d="M 0 5 L 1 5 L 1 6 L 0 6 Z" fill="rgb(0,65,202)" />
<path d="M 1 5 L 2 5 L 2 6 L 1 6 Z" fill="rgb(209,154,153)" />
<path d="M 2 5 L 3 5 L 3 6 L 2 6 Z" fill="rgb(153,153,153)" />
<path d="M 3 5 L 4 5 L 4 6 L 3 6 Z" fill="rgb(153,162,219)" />
<path d="M 4 5 L 5 5 L 5 6 L 4 6 Z" fill="rgb(255,181,21)" />
<path d="M 0 6 L 1 6 L 1 7 L 0 7 Z" fill="rgb(89,255,196)" />
<path d="M 3 6 L 4 6 L 4 7 L 3 7 Z" fill="rgb(0,0,97)" />
<path d="M 4 6 L 5 6 L 5 7 L 4 7 Z" fill="rgb(255,232,24)" />
<path d="M 0 7 L 1 7 L 1 8 L 0 8 Z" fill="rgb(19,111,163)" />
<path d="M 1 7 L 2 7 L 2 8 L 1 8 Z" fill="rgb(135,113,107)" />
<path d="M 2 7 L 3 7 L 3 8 L 2 8 Z" fill="rgb(105,106,110)" />
<path d="M 3 7 L 4 7 L 4 8 L 3 8 Z" fill="rgb(118,139,133)" />
<path d="M 4 7 L 5 7 L 5 8 L 4 8 Z" fill="rgb(78,9,0)" />
</g>
</svg>

