<svg width="1120" height="16" xmlns="http://www.w3.org/2000/svg">
<g transform="scale(16 16)">
<path d="M 0.0 0 L 0.4375 0 L 0.4375 1 L 0.0 1 Z" />
<path d="M 0.875 0 L 1.3125 0 L 1.3125 1 L 0.875 1 Z" />
<path d="M 1.75 0 L 2.1875 0 L 2.1875 1 L 1.75 1 Z" />
<path d="M 2.625 0 L 3.0625 0 L 3.0625 1 L 2.625 1 Z" />
<path d="M 3.5 0 L 3.9375 0 L 3.9375 1 L 3.5 1 Z" />
<path d="M 4.375 0 L 4.8125 0 L 4.8125 1 L 4.375 1 Z" />
<path d="M 5.25 0 L 5.6875 0 L 5.6875 1 L 5.25 1 Z" />
<path d="M 6.125 0 L 6.5625 0 L 6.5625 1 L 6.125 1 Z" />
<path d="M 7.0 0 L 7.4375 0 L 7.4375 1 L 7.0 1 Z" />
<path d="M 7.875 0 L 8.3125 0 L 8.3125 1 L 7.875 1 Z" />
<path d="M 8.75 0 L 9.1875 0 L 9.1875 1 L 8.75 1 Z" />
<path d="M 9.625 0 L 10.0625 0 L 10.0625 1 L 9.625 1 Z" />
<path d="M 10.5 0 L 10.9375 0 L 10.9375 1 L 10.5 1 Z" />
<path d="M 11.375 0 L 11.8125 0 L 11.8125 1 L 11.375 1 Z" />
<path d="M 12.25 0 L 12.6875 0 L 12.6875 1 L 12.25 1 Z" />
<path d="M 13.125 0 L 13.5625 0 L 13.5625 1 L 13.125 1 Z" />
<path d="M 14.0 0 L 14.4375 0 L 14.4375 1 L 14.0 1 Z" />
<path d="M 14.875 0 L 15.3125 0 L 15.3125 1 L 14.875 1 Z" />
<path d="M 15.75 0 L 16.1875 0 L 16.1875 1 L 15.75 1 Z" />
<path d="M 16.625 0 L 17.0625 0 L 17.0625 1 L 16.625 1 Z" />
<path d="M 17.5 0 L 17.9375 0 L 17.9375 1 L 17.5 1 Z" />
<path d="M 18.375 0 L 18.8125 0 L 18.8125 1 L 18.375 1 Z" />
<path d="M 19.25 0 L 19.6875 0 L 19.6875 1 L 19.25 1 Z" />
<path d="M 20.125 0 L 20.5625 0 L 20.5625 1 L 20.125 1 Z" />
<path d="M 21.0 0 L 21.4375 0 L 21.4375 1 L 21.0 1 Z" />
<path d="M 21.875 0 L 22.3125 0 L 22.3125 1 L 21.875 1 Z" />
<path d="M 22.75 0 L 23.1875 0 L 23.1875 1 L 22.75 1 Z" />
<path d="M 23.625 0 L 24.0625 0 L 24.0625 1 L 23.625 1 Z" />
<path d="M 24.5 0 L 24.9375 0 L 24.9375 1 L 24.5 1 Z" />
<path d="M 25.375 0 L 25.8125 0 L 25.8125 1 L 25.375 1 Z" />
<path d="M 26.25 0 L 26.6875 0 L 26.6875 1 L 26.25 1 Z" />
<path d="M 27.125 0 L 27.5625 0 L 27.5625 1 L 27.125 1 Z" />
<path d="M 28.0 0 L 28.4375 0 L 28.4375 1 L 28.0 1 Z" />
<path d="M 28.875 0 L 29.3125 0 L 29.3125 1 L 28.875 1 Z" />
<path d="M 29.75 0 L 30.1875 0 L 30.1875 1 L 29.75 1 Z" />
<path d="M 30.625 0 L 31.0625 0 L 31.0625 1 L 30.625 1 Z" />
<path d="M 31.5 0 L 31.9375 0 L 31.9375 1 L 31.5 1 Z" />
<path d="M 32.375 0 L 32.8125 0 L 32.8125 1 L 32.375 1 Z" />
<path d="M 33.25 0 L 33.6875 0 L 33.6875 1 L 33.25 1 Z" />
<path d="M 34.125 0 L 34.5625 0 L 34.5625 1 L 34.125 1 Z" />
<path d="M 35.0 0 L 35.4375 0 L 35.4375 1 L 35.0 1 Z" />
<path d="M 35.875 0 L 36.3125 0 L 36.3125 1 L 35.875 1 Z" />
<path d="M 36.75 0 L 37.1875 0 L 37.1875 1 L 36.75 1 Z" />
<path d="M 37.625 0 L 38.0625 0 L 38.0625 1 L 37.625 1 Z" />
<path d="M 38.5 0 L 38.9375 0 L 38.9375 1 L 38.5 1 Z" />
<path d="M 39.375 0 L 39.8125 0 L 39.8125 1 L 39.375 1 Z" />
<path d="M 40.25 0 L 40.6875 0 L 40.6875 1 L 40.25 1 Z" />
<path d="M 41.125 0 L 41.5625 0 L 41.5625 1 L 41.125 1 Z" />
<path d="M 42.0 0 L 42.4375 0 L 42.4375 1 L 42.0 1 Z" />
<path d="M 42.875 0 L 43.3125 0 L 43.3125 1 L 42.875 1 Z" />
<path d="M 43.75 0 L 44.1875 0 L 44.1875 1 L 43.75 1 Z" />
<path d="M 44.625 0 L 45.0625 0 L 45.0625 1 L 44.625 1 Z" />
<path d="M 45.5 0 L 45.9375 0 L 45.9375 1 L 45.5 1 Z" />
<path d="M 46.375 0 L 46.8125 0 L 46.8125 1 L 46.375 1 Z" />
<path d="M 47.25 0 L 47.6875 0 L 47.6875 1 L 47.25 1 Z" />
<path d="M 48.125 0 L 48.5625 0 L 48.5625 1 L 48.125 1 Z" />
<path d="M 49.0 0 L 49.4375 0 L 49.4375 1 L 49.0 1 Z" />
<path d="M 49.875 0 L 50.3125 0 L 50.3125 1 L 49.875 1 Z" />
<path d="M 50.75 0 L 51.1875 0 L 51.1875 1 L 50.75 1 Z" />
<path d="M 51.625 0 L 52.0625 0 L 52.0625 1 L 51.625 1 Z" />
<path d="M 52.5 0 L 52.9375 0 L 52.9375 1 L 52.5 1 Z" />
<path d="M 53.375 0 L 53.8125 0 L 53.8125 1 L 53.375 1 Z" />
<path d="M 54.25 0 L 54.6875 0 L 54.6875 1 L 54.25 1 Z" />
<path d="M 55.125 0 L 55.5625 0 L 55.5625 1 L 55.125 1 Z" />
<path d="M 56.0 0 L 56.4375 0 L 56.4375 1 L 56.0 1 Z" />
<path d="M 56.875 0 L 57.3125 0 L 57.3125 1 L 56.875 1 Z" />
<path d="M 57.75 0 L 58.1875 0 L 58.1875 1 L 57.75 1 Z" />
<path d="M 58.625 0 L 59.0625 0 L 59.0625 1 L 58.625 1 Z" />
<path d="M 59.5 0 L 59.9375 0 L 59.9375 1 L 59.5 1 Z" />
<path d="M 60.375 0 L 60.8125 0 L 60.8125 1 L 60.375 1 Z" />
<path d="M 61.25 0 L 61.6875 0 L 61.6875 1 L 61.25 1 Z" />
<path d="M 62.125 0 L 62.5625 0 L 62.5625 1 L 62.125 1 Z" />
<path d="M 63.0 0 L 63.4375 0 L 63.4375 1 L 63.0 1 Z" />
<path d="M 63.875 0 L 64.3125 0 L 64.3125 1 L 63.875 1 Z" />
<path d="M 64.75 0 L 65.1875 0 L 65.1875 1 L 64.75 1 Z" />
<path d="M 65.625 0 L 66.0625 0 L 66.0625 1 L 65.625 1 Z" />
<path d="M 66.5 0 L 66.9375 0 L 66.9375 1 L 66.5 1 Z" />
<path d="M 67.375 0 L 67.8125 0 L 67.8125 1 L 67.375 1 Z" />
<path d="M 68.25 0 L 68.6875 0 L 68.6875 1 L 68.25 1 Z" />
<path d="M 69.125 0 L 69.5625 0 L 69.5625 1 L 69.125 1 Z" />
</g>
</svg>

