<svg width="1456" height="16" xmlns="http://www.w3.org/2000/svg">
<g transform="scale(16 16)">
<path d="M 0.0 0 L 0.5714285714285714 0 L 0.5714285714285714 1 L 0.0 1 Z" />
<path d="M 1.1428571428571428 0 L 1.7142857142857142 0 L 1.7142857142857142 1 L 1.1428571428571428 1 Z" />
<path d="M 2.2857142857142856 0 L 2.857142857142857 0 L 2.857142857142857 1 L 2.2857142857142856 1 Z" />
<path d="M 3.4285714285714284 0 L 4.0 0 L 4.0 1 L 3.4285714285714284 1 Z" />
<path d="M 4.571428571428571 0 L 5.142857142857143 0 L 5.142857142857143 1 L 4.571428571428571 1 Z" />
<path d="M 5.714285714285714 0 L 6.285714285714286 0 L 6.285714285714286 1 L 5.714285714285714 1 Z" />
<path d="M 6.857142857142857 0 L 7.428571428571429 0 L 7.428571428571429 1 L 6.857142857142857 1 Z" />
<path d="M 8.0 0 L 8.571428571428571 0 L 8.571428571428571 1 L 8.0 1 Z" />
<path d="M 9.142857142857142 0 L 9.714285714285714 0 L 9.714285714285714 1 L 9.142857142857142 1 Z" />
<path d="M 10.285714285714286 0 L 10.857142857142858 0 L 10.857142857142858 1 L 10.285714285714286 1 Z" />
<path d="M 11.428571428571429 0 L 12.0 0 L 12.0 1 L 11.428571428571429 1 Z" />
<path d="M 12.571428571428571 0 L 13.142857142857142 0 L 13.142857142857142 1 L 12.571428571428571 1 Z" />
<path d="M 13.714285714285714 0 L 14.285714285714286 0 L 14.285714285714286 1 L 13.714285714285714 1 Z" />
<path d="M 14.857142857142858 0 L 15.428571428571429 0 L 15.428571428571429 1 L 14.857142857142858 1 Z" />
<path d="M 16.0 0 L 16.571428571428573 0 L 16.571428571428573 1 L 16.0 1 Z" />
<path d="M 17.142857142857142 0 L 17.714285714285715 0 L 17.714285714285715 1 L 17.142857142857142 1 Z" />
<path d="M 18.285714285714285 0 L 18.857142857142858 0 L 18.857142857142858 1 L 18.285714285714285 1 Z" />
<path d="M 19.428571428571427 0 L 20.0 0 L 20.0 1 L 19.428571428571427 1 Z" />
<path d="M 20.571428571428573 0 L 21.142857142857142 0 L 21.142857142857142 1 L 20.571428571428573 1 Z" />
<path d="M 21.714285714285715 0 L 22.285714285714285 0 L 22.285714285714285 1 L 21.714285714285715 1 Z" />
<path d="M 22.857142857142858 0 L 23.428571428571427 0 L 23.428571428571427 1 L 22.857142857142858 1 Z" />
<path d="M 24.0 0 L 24.571428571428573 0 L 24.571428571428573 1 L 24.0 1 Z" />
<path d="M 25.142857142857142 0 L 25.714285714285715 0 L 25.714285714285715 1 L 25.142857142857142 1 Z" />
<path d="M 26.285714285714285 0 L 26.857142857142858 0 L 26.857142857142858 1 L 26.285714285714285 1 Z" />
<path d="M 27.428571428571427 0 L 28.0 0 L 28.0 1 L 27.428571428571427 1 Z" />
<path d="M 28.571428571428573 0 L 29.142857142857142 0 L 29.142857142857142 1 L 28.571428571428573 1 Z" />
<path d="M 29.714285714285715 0 L 30.285714285714285 0 L 30.285714285714285 1 L 29.714285714285715 1 Z" />
<path d="M 30.857142857142858 0 L 31.428571428571427 0 L 31.428571428571427 1 L 30.857142857142858 1 Z" />
<path d="M 32.0 0 L 32.57142857142857 0 L 32.57142857142857 1 L 32.0 1 Z" />
<path d="M 33.142857142857146 0 L 33.714285714285715 0 L 33.714285714285715 1 L 33.142857142857146 1 Z" />
<path d="M 34.285714285714285 0 L 34.857142857142854 0 L 34.857142857142854 1 L 34.285714285714285 1 Z" />
<path d="M 35.42857142857143 0 L 36.0 0 L 36.0 1 L 35.42857142857143 1 Z" />
<path d="M 36.57142857142857 0 L 37.142857142857146 0 L 37.142857142857146 1 L 36.57142857142857 1 Z" />
<path d="M 37.714285714285715 0 L 38.285714285714285 0 L 38.285714285714285 1 L 37.714285714285715 1 Z" />
<path d="M 38.857142857142854 0 L 39.42857142857143 0 L 39.42857142857143 1 L 38.857142857142854 1 Z" />
<path d="M 40.0 0 L 40.57142857142857 0 L 40.57142857142857 1 L 40.0 1 Z" />
<path d="M 41.142857142857146 0 L 41.714285714285715 0 L 41.714285714285715 1 L 41.142857142857146 1 Z" />
<path d="M 42.285714285714285 0 L 42.857142857142854 0 L 42.857142857142854 1 L 42.285714285714285 1 Z" />
<path d="M 43.42857142857143 0 L 44.0 0 L 44.0 1 L 43.42857142857143 1 Z" />
<path d="M 44.57142857142857 0 L 45.142857142857146 0 L 45.142857142857146 1 L 44.57142857142857 1 Z" />
<path d="M 45.714285714285715 0 L 46.285714285714285 0 L 46.285714285714285 1 L 45.714285714285715 1 Z" />
<path d="M 46.857142857142854 0 L 47.42857142857143 0 L 47.42857142857143 1 L 46.857142857142854 1 Z" />
<path d="M 48.0 0 L 48.57142857142857 0 L 48.57142857142857 1 L 48.0 1 Z" />
<path d="M 49.142857142857146 0 L 49.714285714285715 0 L 49.714285714285715 1 L 49.142857142857146 1 Z" />
<path d="M 50.285714285714285 0 L 50.857142857142854 0 L 50.857142857142854 1 L 50.285714285714285 1 Z" />
<path d="M 51.42857142857143 0 L 52.0 0 L 52.0 1 L 51.42857142857143 1 Z" />
<path d="M 52.57142857142857 0 L 53.142857142857146 0 L 53.142857142857146 1 L 52.57142857142857 1 Z" />
<path d="M 53.714285714285715 0 L 54.285714285714285 0 L 54.285714285714285 1 L 53.714285714285715 1 Z" />
<path d="M 54.857142857142854 0 L 55.42857142857143 0 L 55.42857142857143 1 L 54.857142857142854 1 Z" />
<path d="M 56.0 0 L 56.57142857142857 0 L 56.57142857142857 1 L 56.0 1 Z" />
<path d="M 57.142857142857146 0 L 57.714285714285715 0 L 57.714285714285715 1 L 57.142857142857146 1 Z" />
<path d="M 58.285714285714285 0 L 58.857142857142854 0 L 58.857142857142854 1 L 58.285714285714285 1 Z" />
<path d="M 59.42857142857143 0 L 60.0 0 L 60.0 1 L 59.42857142857143 1 Z" />
<path d="M 60.57142857142857 0 L 61.142857142857146 0 L 61.142857142857146 1 L 60.57142857142857 1 Z" />
<path d="M 61.714285714285715 0 L 62.285714285714285 0 L 62.285714285714285 1 L 61.714285714285715 1 Z" />
<path d="M 62.857142857142854 0 L 63.42857142857143 0 L 63.42857142857143 1 L 62.857142857142854 1 Z" />
<path d="M 64.0 0 L 64.57142857142857 0 L 64.57142857142857 1 L 64.0 1 Z" />
<path d="M 65.14285714285714 0 L 65.71428571428571 0 L 65.71428571428571 1 L 65.14285714285714 1 Z" />
<path d="M 66.28571428571429 0 L 66.85714285714286 0 L 66.85714285714286 1 L 66.28571428571429 1 Z" />
<path d="M 67.42857142857143 0 L 68.0 0 L 68.0 1 L 67.42857142857143 1 Z" />
<path d="M 68.57142857142857 0 L 69.14285714285714 0 L 69.14285714285714 1 L 68.57142857142857 1 Z" />
<path d="M 69.71428571428571 0 L 70.28571428571429 0 L 70.28571428571429 1 L 69.71428571428571 1 Z" />
<path d="M 70.85714285714286 0 L 71.42857142857143 0 L 71.42857142857143 1 L 70.85714285714286 1 Z" />
<path d="M 72.0 0 L 72.57142857142857 0 L 72.57142857142857 1 L 72.0 1 Z" />
<path d="M 73.14285714285714 0 L 73.71428571428571 0 L 73.71428571428571 1 L 73.14285714285714 1 Z" />
<path d="M 74.28571428571429 0 L 74.85714285714286 0 L 74.85714285714286 1 L 74.28571428571429 1 Z" />
<path d="M 75.42857142857143 0 L 76.0 0 L 76.0 1 L 75.42857142857143 1 Z" />
<path d="M 76.57142857142857 0 L 77.14285714285714 0 L 77.14285714285714 1 L 76.57142857142857 1 Z" />
<path d="M 77.71428571428571 0 L 78.28571428571429 0 L 78.28571428571429 1 L 77.71428571428571 1 Z" />
<path d="M 78.85714285714286 0 L 79.42857142857143 0 L 79.42857142857143 1 L 78.85714285714286 1 Z" />
<path d="M 80.0 0 L 80.57142857142857 0 L 80.57142857142857 1 L 80.0 1 Z" />
<path d="M 81.14285714285714 0 L 81.71428571428571 0 L 81.71428571428571 1 L 81.14285714285714 1 Z" />
<path d="M 82.28571428571429 0 L 82.85714285714286 0 L 82.85714285714286 1 L 82.28571428571429 1 Z" />
<path d="M 83.42857142857143 0 L 84.0 0 L 84.0 1 L 83.42857142857143 1 Z" />
<path d="M 84.57142857142857 0 L 85.14285714285714 0 L 85.14285714285714 1 L 84.57142857142857 1 Z" />
<path d="M 85.71428571428571 0 L 86.28571428571429 0 L 86.28571428571429 1 L 85.71428571428571 1 Z" />
<path d="M 86.85714285714286 0 L 87.42857142857143 0 L 87.42857142857143 1 L 86.85714285714286 1 Z" />
<path d="M 88.0 0 L 88.57142857142857 0 L 88.57142857142857 1 L 88.0 1 Z" />
<path d="M 89.14285714285714 0 L 89.71428571428571 0 L 89.71428571428571 1 L 89.14285714285714 1 Z" />
<path d="M 90.28571428571429 0 L 90.85714285714286 0 L 90.85714285714286 1 L 90.28571428571429 1 Z" />

</g>
</svg>

