<svg width="960" height="560" xmlns="http://www.w3.org/2000/svg">
<g transform="translate(80 80) scale(400 400)">

<path d="M -0.05 0 Q -0.0502778669148538 0.25623644147331004, 0.015065835097474306 0.4533113883008419 0.04786775784781598 0.5518622063940094, 0.0977503537143728 0.6350997877713763 0.14767977093484466 0.7183539979361402, 0.21464466094067264 0.7853553390593274 0.2816460020638598 0.8523202290651554, 0.3649002122286237 0.9022496462856272 0.44813779360599076 0.9521322421521841, 0.5466886116991581 0.9849341649025257 0.74376355852669 1.0502778669148538, 1 1.05 1.0603553390593277 1.05, 1.120710678118655 1.05 1.0780330085889913 1.0073223304703363, 1.0353553390593273 0.9646446609406726 0.9125479019691498 0.841715570530857, 0.8375616735603367 0.7365630903140452 0.7627366907607863 0.6312766666898967, 0.7349341649025257 0.5466886116991581 0.7209782237793245 0.5045511233683795, 0.7177634103233852 0.4681294626978741 0.7145374667184782 0.43180450521415326, 0.720904033784546 0.40043080675690923 0.7271533628863996 0.36908905922481516, 0.7429266138060768 0.3406883965589316 0.7586541818650177 0.3121762679479502, 0.7853553390593274 0.28535533905932736 0.8386618972251729 0.2312098534930956, 0.9415709649289584 0.1865822515009029 1.0447157465562211 0.14219340751440263, 1.1973058067569091 0.11152903378454601 1.502766746510019 0.05019093165788516, 2 0.05 2.0205906737068453 0.04971028372146492, 2.0353553390593273 0.03535533905932731 2.0497102837214656 0.02059067370684514, 2.05 0 2.0497102837214656 -0.02059067370684514, 2.0353553390593273 -0.03535533905932731 2.0205906737068453 -0.04971028372146492, 2 -0.05 1.497233253489981 -0.05019093165788515, 1.1776941932430909 0.013470966215453989 1.0177842534437789 0.04530659248559738, 0.9021790350710416 0.0946677484990971 0.7863381027748271 0.1437901465069044, 0.7146446609406726 0.21464466094067264 0.6788458181349823 0.2503237320520498, 0.6555108861939232 0.2921241034410684 0.6322216371136004 0.33403594077518484, 0.622845966215454 0.38081919324309077 0.6135875332815218 0.42757049478584674, 0.6181740896766148 0.4771830373021259 0.6227717762206755 0.5266988766316205, 0.6400658350974743 0.5783113883008419 0.6747633092392137 0.6812233333101033, 0.7561883264396633 0.7946869096859548 0.8374520980308502 0.9082844294691431, 0.9646446609406726 1.0353553390593273 0.9823223304703363 0.9926776695296636, 1 0.95 0.75623644147331 0.9497221330851462, 0.5783113883008419 0.8900658350974743 0.48936220639400924 0.8603677578478159, 0.4163497877713763 0.8165003537143728 0.3433539979361402 0.7726797709348446, 0.28535533905932736 0.7146446609406726 0.22732022906515534 0.6566460020638598, 0.1834996462856272 0.5836502122286237 0.139632242152184 0.5106377936059906, 0.1099341649025257 0.4216886116991581 0.05027786691485378 0.24376355852669, 0.05 0 0.04971028372146499 -0.0205906737068453, 0.035355339059327376 -0.035355339059327376 0.0205906737068453 -0.04971028372146499, 0 -0.05 -0.0205906737068453 -0.04971028372146499, -0.035355339059327376 -0.035355339059327376 -0.04971028372146499 -0.0205906737068453, -0.05 0" stroke="green" fill="black" stroke-width="0.01" fill-rule="nonzero" />

<path d="M 0 0 Q 0 1 1 1" fill="none" stroke-width="0.01" stroke="red" />
<path d="M 1 1 Q 0 0 2 0" fill="none" stroke-width="0.01" stroke="red" />

</g>
</svg>

