<?xml version="1.0" encoding="UTF-8" standalone="no"?>
<svg
   width="400"
   height="400"
   version="1.1"
   id="svg54"
   sodipodi:docname="distortion_2.svg"
   inkscape:version="1.1.2 (0a00cf5339, 2022-02-04)"
   xmlns:inkscape="http://www.inkscape.org/namespaces/inkscape"
   xmlns:sodipodi="http://sodipodi.sourceforge.net/DTD/sodipodi-0.dtd"
   xmlns:xlink="http://www.w3.org/1999/xlink"
   xmlns="http://www.w3.org/2000/svg"
   xmlns:svg="http://www.w3.org/2000/svg">
  <defs
     id="defs58">
    <inkscape:path-effect
       effect="spiro"
       id="path-effect1639"
       is_visible="true"
       lpeversion="1" />
  </defs>
  <sodipodi:namedview
     id="namedview56"
     pagecolor="#ffffff"
     bordercolor="#666666"
     borderopacity="1.0"
     inkscape:pageshadow="2"
     inkscape:pageopacity="0.0"
     inkscape:pagecheckerboard="0"
     showgrid="false"
     inkscape:zoom="1.2710244"
     inkscape:cx="216.75429"
     inkscape:cy="221.86828"
     inkscape:window-width="1680"
     inkscape:window-height="978"
     inkscape:window-x="0"
     inkscape:window-y="0"
     inkscape:window-maximized="1"
     inkscape:current-layer="svg54" />
  <g
     transform="translate(200 200) scale(4, 4)"
     id="g52">
    <path
       d="M 0 0 L 74.46994643639948 11.794880787327326"
       stroke="grey"
       id="path2" />
    <path
       d="M 0 0 L 67.18030921657807 34.230077250751656"
       stroke="grey"
       id="path4" />
    <path
       d="M 0 0 L 53.31459525790039 53.314595257900386"
       stroke="grey"
       id="path6" />
    <path
       d="M 0 0 L 34.230077250751656 67.18030921657807"
       stroke="grey"
       id="path8" />
    <path
       d="M 0 0 L 11.794880787327331 74.46994643639948"
       stroke="grey"
       id="path10" />
    <path
       d="M 0 0 L -11.794880787327306 74.46994643639948"
       stroke="grey"
       id="path12" />
    <path
       d="M 0 0 L -34.23007725075165 67.18030921657807"
       stroke="grey"
       id="path14" />
    <path
       d="M 0 0 L -53.314595257900386 53.31459525790039"
       stroke="grey"
       id="path16" />
    <path
       d="M 0 0 L -67.18030921657807 34.23007725075166"
       stroke="grey"
       id="path18" />
    <path
       d="M 0 0 L -74.46994643639947 11.794880787327335"
       stroke="grey"
       id="path20" />
    <path
       d="M 0 0 L -74.46994643639948 -11.794880787327317"
       stroke="grey"
       id="path22" />
    <path
       d="M 0 0 L -67.18030921657807 -34.23007725075165"
       stroke="grey"
       id="path24" />
    <path
       d="M 0 0 L -53.31459525790041 -53.314595257900386"
       stroke="grey"
       id="path26" />
    <path
       d="M 0 0 L -34.23007725075167 -67.18030921657807"
       stroke="grey"
       id="path28" />
    <path
       d="M 0 0 L -11.79488078732734 -74.46994643639947"
       stroke="grey"
       id="path30" />
    <path
       d="M 0 0 L 11.794880787327312 -74.46994643639948"
       stroke="grey"
       id="path32" />
    <path
       d="M 0 0 L 34.23007725075165 -67.18030921657808"
       stroke="grey"
       id="path34" />
    <path
       d="M 0 0 L 53.31459525790038 -53.31459525790041"
       stroke="grey"
       id="path36" />
    <path
       d="M 0 0 L 67.18030921657807 -34.23007725075167"
       stroke="grey"
       id="path38" />
    <path
       d="M 0 0 L 74.46994643639947 -11.794880787327346"
       stroke="grey"
       id="path40" />
    <circle
       cx="0"
       cy="0"
       r="7.5398223686155035"
       stroke="grey"
       fill="none"
       id="circle42" />
    <circle
       cx="0"
       cy="0"
       r="22.61946710584651"
       stroke="grey"
       fill="none"
       id="circle44" />
    <circle
       cx="0"
       cy="0"
       r="37.69911184307752"
       stroke="grey"
       fill="none"
       id="circle46" />
    <circle
       cx="0"
       cy="0"
       r="52.778756580308524"
       stroke="grey"
       fill="none"
       id="circle48" />
    <circle
       cx="0"
       cy="0"
       r="67.85840131753953"
       stroke="grey"
       fill="none"
       id="circle50" />
  </g>
  <path
     style="fill:#ffffff;fill-opacity:1;stroke:#000000;stroke-width:4.07915;stroke-linecap:butt;stroke-linejoin:miter;stroke-miterlimit:4;stroke-dasharray:none;stroke-opacity:1"
     d="m 38.090624,343.74395 92.618936,-93.36996 -15.69006,-15.56387 50.94296,-0.20574 0.20539,50.85616 -13.35858,-13.25114 -94.55984,95.32663 14.348648,14.23323 -50.32404,-4.04454 -0.833946,-49.72882 z"
     id="path1144"
     sodipodi:nodetypes="ccccccccccc" />
  <text
     xml:space="preserve"
     style="font-style:normal;font-variant:normal;font-weight:normal;font-stretch:normal;font-size:21.7556px;line-height:1.25;font-family:sans-serif;-inkscape-font-specification:sans-serif;stroke-width:2.03957"
     x="-224.19511"
     y="292.0235"
     id="text4519"
     transform="rotate(-45.231365)"><tspan
       sodipodi:role="line"
       id="tspan4517"
       x="-224.19511"
       y="292.0235"
       style="stroke-width:2.03957">no distortion</tspan></text>
  <path
     style="fill:#ffffff;fill-opacity:1;stroke:#000000;stroke-width:4.079;stroke-linecap:butt;stroke-linejoin:miter;stroke-miterlimit:4;stroke-dasharray:none;stroke-opacity:1"
     d="m 275.90557,254.94292 93.36996,92.61894 15.56387,-15.69006 0.20574,50.94296 -50.85616,0.20539 13.25114,-13.35858 -95.32663,-94.55984 -14.23323,14.34864 4.04454,-50.32404 49.72882,-0.83394 z"
     id="path1144-0"
     sodipodi:nodetypes="ccccccccccc" />
  <text
     xml:space="preserve"
     style="font-style:normal;font-variant:normal;font-weight:normal;font-stretch:normal;font-size:21.7556px;line-height:1.25;font-family:sans-serif;-inkscape-font-specification:sans-serif;stroke-width:2.03957"
     x="368.44632"
     y="9.5936594"
     id="text4519-8"
     transform="rotate(44.768635)"><tspan
       sodipodi:role="line"
       id="tspan4517-8"
       x="368.44632"
       y="9.5936594"
       style="stroke-width:2.03957">no distortion</tspan></text>
  <path
     style="fill:#ffffff;stroke:#000000;stroke-width:4;stroke-linecap:butt;stroke-linejoin:miter;stroke-opacity:1;fill-opacity:1;stroke-miterlimit:4;stroke-dasharray:none"
     d="m 94.128471,113.70549 c 0,0 31.067159,-38.740345 68.914139,-46.833446 37.84697,-8.093101 77.2186,-5.933694 106.67636,16.600883 29.45775,22.534573 32.20976,29.099063 32.20976,29.099063 l 14.66587,-11.78443 -9.19932,43.3555 -36.10307,-1.57526 10.40858,-10.3032 c 0,0 -26.51828,-25.28062 -48.46569,-28.62832 -21.94741,-3.3477 -44.44765,-5.740317 -70.3608,4.99172 -25.91315,10.73204 -41.94312,25.2869 -41.94312,25.2869 l 10.83382,10.38259 -40.526111,2.61522 -9.454217,-42.87772 z"
     id="path2048" />
  <text
     xml:space="preserve"
     style="font-size:21.7556px;line-height:1.25;font-family:serif;-inkscape-font-specification:serif"
     id="text5608"><textPath
       xlink:href="#path35504"
       id="textPath35586"><tspan
         id="tspan5606">less distortion</tspan></textPath></text>
  <path
     style="fill:none;stroke:none;stroke-width:1px;stroke-linecap:butt;stroke-linejoin:miter;stroke-opacity:1"
     d="m 124.41555,119.63553 c 0,0 18.88657,-14.99152 30.77372,-18.22443 11.88715,-3.232921 28.07023,-9.085544 42.93578,-8.967042 14.86554,0.118503 41.2479,3.8528 48.61265,7.814052 7.36475,3.96126 23.10069,14.58925 23.10069,14.58925"
     id="path35504" />
  <path
     style="fill:#ffffff;fill-opacity:1;stroke:#000000;stroke-width:4;stroke-linecap:butt;stroke-linejoin:miter;stroke-miterlimit:4;stroke-dasharray:none;stroke-opacity:1"
     d="m 96.603304,72.613738 c 0,0 34.995656,-21.925645 51.949106,-25.829807 16.95344,-3.904162 37.44893,-7.462706 50.99228,-7.158108 13.54335,0.304599 38.6098,4.167572 51.0423,8.327861 12.4325,4.160289 42.26787,20.522566 42.26787,20.522566 l -5.22481,7.221996 34.32003,-0.879942 0.68325,-44.062222 -7.52221,7.42196 c 0,0 -36.46069,-22.777624 -50.75613,-28.870274 C 250.05956,3.2151181 212.51392,0.34110081 198.79811,0.38154191 185.08229,0.42198301 148.77057,7.1120133 135.17211,11.516171 121.57364,15.920329 81.689351,40.092509 81.689351,40.092509 l -8.202446,-9.687256 -1.826097,41.104436 31.521712,11.401503 z"
     id="path35898"
     sodipodi:nodetypes="cssscccccsssccccc" />
  <path
     style="fill:none;stroke:none;stroke-width:1px;stroke-linecap:butt;stroke-linejoin:miter;stroke-opacity:1"
     d="m 123.33511,45.64827 c 0,0 37.96447,-14.155675 51.45119,-15.549959 13.48671,-1.394284 37.9583,-1.256373 51.98773,1.288547 14.02942,2.544919 61.21958,24.348192 61.21958,24.348192"
     id="path36660"
     sodipodi:nodetypes="cssc" />
  <text
     xml:space="preserve"
     style="font-size:21.73333333px;line-height:1.25;font-family:serif;-inkscape-font-specification:serif;stroke:none"
     id="text41452"><textPath
       xlink:href="#path36660"
       id="textPath51273"><tspan
         id="tspan41450"
         style="font-size:21.73333333px;stroke:none">more distortion</tspan></textPath></text>
</svg>
