<svg width="400" height="400" xmlns="http://www.w3.org/2000/svg">
<g transform="translate(200 200) scale(4, 4)"><path d="M 0 0 L 74.46994643639948 11.794880787327326" stroke="grey" /><path d="M 0 0 L 67.18030921657807 34.230077250751656" stroke="grey" /><path d="M 0 0 L 53.31459525790039 53.314595257900386" stroke="grey" /><path d="M 0 0 L 34.230077250751656 67.18030921657807" stroke="grey" /><path d="M 0 0 L 11.794880787327331 74.46994643639948" stroke="grey" /><path d="M 0 0 L -11.794880787327306 74.46994643639948" stroke="grey" /><path d="M 0 0 L -34.23007725075165 67.18030921657807" stroke="grey" /><path d="M 0 0 L -53.314595257900386 53.31459525790039" stroke="grey" /><path d="M 0 0 L -67.18030921657807 34.23007725075166" stroke="grey" /><path d="M 0 0 L -74.46994643639947 11.794880787327335" stroke="grey" /><path d="M 0 0 L -74.46994643639948 -11.794880787327317" stroke="grey" /><path d="M 0 0 L -67.18030921657807 -34.23007725075165" stroke="grey" /><path d="M 0 0 L -53.31459525790041 -53.314595257900386" stroke="grey" /><path d="M 0 0 L -34.23007725075167 -67.18030921657807" stroke="grey" /><path d="M 0 0 L -11.79488078732734 -74.46994643639947" stroke="grey" /><path d="M 0 0 L 11.794880787327312 -74.46994643639948" stroke="grey" /><path d="M 0 0 L 34.23007725075165 -67.18030921657808" stroke="grey" /><path d="M 0 0 L 53.31459525790038 -53.31459525790041" stroke="grey" /><path d="M 0 0 L 67.18030921657807 -34.23007725075167" stroke="grey" /><path d="M 0 0 L 74.46994643639947 -11.794880787327346" stroke="grey" /><circle cx="0" cy="0" r="7.5398223686155035" stroke="grey" fill="none"/><circle cx="0" cy="0" r="22.61946710584651" stroke="grey" fill="none"/><circle cx="0" cy="0" r="37.69911184307752" stroke="grey" fill="none"/><circle cx="0" cy="0" r="52.778756580308524" stroke="grey" fill="none"/><circle cx="0" cy="0" r="67.85840131753953" stroke="grey" fill="none"/><path d="M 28.9602245423823 15.8210427739387 28.474180681819593 16.09745392964193 27.987587131169796 16.374171077502783 27.500457026222183 16.65118694318969 27.01280374778391 16.928494089427694 26.524640905590843 17.20608492666734 26.03598232329656 17.483951723316103 25.546842024922725 17.76208661528503 25.05723422316498 18.0404816145942 24.567173309950267 18.319128616778563 24.076673849632684 18.598019406841072 23.585750575193554 18.877145663513243 23.0944183877768 19.15649896160721 22.60269235984035 19.4360707722757 22.11058774213977 19.715852461040495 21.61812966598414 19.995877376116958 21.125334313771486 20.27613224654192 20.632211274874948 20.556577109566586 20.13877702008808 20.837202169632356 19.64504829856543 21.117997465866225 19.151042160501653 21.398952863871404 18.65677598124909 21.68005804633485 18.16226748622847 21.961302502767296 17.66753477590374 22.242675518756243 17.172596350024318 22.524166165170097 16.677471130289536 22.805763287797557 16.18217848056533 23.08745549793968 15.686738223783749 23.369231164487434 15.191170654684505 23.65107840801496 14.695496547614404 23.932985097395914 14.199737158685243 24.214938849406174 13.703914221701307 24.496927031712936 13.20804993740147 24.77893676956766 12.71216695571364 25.060954956422652 12.216288350885963 25.342968268581014 11.72043758953387 25.624963183872303 11.224638491818535 25.90692600422597 10.728915186144109 26.18884288189728 10.233292057921863 26.470699848990893 9.737793693093405 26.752482849830336 9.242444817227241 27.034177775641467 8.747270231099654 27.31577050095785 8.25229474373827 27.597246921117865 7.757543103944922 27.87859299020818 7.263039931321387 28.159794758815544 6.768809647800494 28.440838410977328 6.27487641063614 28.721710299768578 5.781264047734001 29.00239698102584 5.287995996112897 29.282885244782776 4.795095244180188 29.563162144074738 4.302584278387282 29.843215020855887 3.8104850347088903 30.123031528858803 3.318818855265742 30.40259965330982 2.82760645028975 30.681907727490355 2.336867865516385 30.96094444620382 1.8466224549841137 31.239698876266882 1.356888859127406 31.518160464192555 0.8676849879697309 31.796319041270444 0.37902800915616713 32.07416482627657 -0.10906565948683974 32.35168842606215 -0.5965803532161881 32.62888083427834 -1.0835011598387263 32.90573342849433 -1.5698139157713744 33.182237965958386 -2.055505199090254 33.458386578239896 -2.5405623199589917 33.73417176497352 -3.0249733088138595 34.00958638690765 -3.508726902664883 34.28462365843757 -3.991812529848769 34.5592771397826 -4.4742202935437865 34.83354072894372 -4.9559409543280415 35.107408653557236 -5.4369659120339655 35.38087546273963 -5.9172871871223105 35.65393601899999 -6.396897401770789 35.92658549027931 -6.8757897608448735 36.19881934216084 -7.35395803289296 36.47063333028239 -7.831396531284041 36.74202349297003 -8.308100095584456 37.01298614410334 -8.784064073251262 37.28351786621427 -9.25928430170169 37.553615503815614 -9.733757090803975 37.82327615695014 -10.207479205821265 38.092497174948015 -10.680447850829328 38.361276150377385 -11.152448786377702 38.62976701687604 -11.62364022763566 38.89784964841942 -12.09406850030528 39.16548705427011 -12.563732848667128 39.43267744498439 -13.03263286386536 39.69941925281274 -13.500768469937887 39.96571112728944 -13.968139910429263 40.23155193079647 -14.434747735550244 40.49694073409346 -14.900592789849517 40.76187681180763 -15.365676200363774 41.02635963787953 -15.829999365214125 41.290388880962134 -16.293563942618707 41.55396439977284 -16.756371840293436 41.817086238398865 -17.218425205215006 42.07975462155825 -17.67972641372215 42.34196994981958 -18.14027806193363 42.60373279478473 -18.600082956463588 42.865043894239534 -19.059144105416383 43.12590414727797 -19.517464709645502 43.38631460940617 -19.9750481542628 43.646276487632704 " stroke="blue" fill="none" /><path d="M 28.9602245423823 15.8210427739387 28.86594185726171 16.31893673699491 28.76470515128953 16.816814950611693 28.656460626374994 17.314601867796462 28.541154269127023 17.81222029522404 28.418731874618334 18.30959134742258 28.289139071837564 18.80663440024236 28.152321350905996 19.30326704362411 28.008224092137926 19.799405033685943 27.85679259702654 20.294962244151357 27.69797212123968 20.789850617143735 27.53170790971252 21.28398011337646 27.357945233927083 21.777258661771306 27.176629431470857 22.269592108541865 26.98770594796958 22.76088416578304 26.791120381491982 23.251036359612137 26.586818529526617 23.73994797791195 26.374746438633508 24.227516017731453 26.15485045687581 24.71363513240519 25.92707728913906 25.198197578458256 25.69137405544753 25.68109316237002 25.447688352389665 26.162209187276265 25.19596831776628 26.641430399696382 24.936162698576766 27.118638936379597 24.668220922460595 27.593714271371876 24.3920931727121 28.066533163413517 24.107730466987796 28.536969603785604 23.8150847398263 29.004894764733088 23.51410892910096 29.470176948601164 23.2047570665255 29.93268153783185 22.886984372332368 30.392270945977877 22.56074735424259 30.848804569901862 22.22600391084453 31.30213874334005 21.882713439496683 31.752126692021385 21.530836948867307 32.19861849054522 21.17033717622002 32.64146102123322 20.80117870955059 33.08049793518407 20.423328114675257 33.51556961577348 20.03675406736516 33.946513144855075 19.641427490614593 34.37316227193261 19.2373216971235 34.79534738658805 18.824412537065406 35.212895494465215 18.40267855120249 35.62563019712337 17.97210112939819 36.03337167609089 17.532664674565126 36.43593668146416 17.084356772072876 36.83313852541287 16.6271683646242 37.22478708096763 16.161093932592102 37.61068878648241 15.686131679791458 37.990646656178505 15.20228372463886 38.36446029719256 14.709556296632593 38.731925933565535 14.207959938061048 39.09283643762364 13.697509710822088 39.44698136921608 13.178225408208785 39.79414702328682 12.65013177148707 40.134116486269804 12.113258711059412 40.46666970180763 11.567641531975275 40.7915835463029 11.013321163512735 41.10863191481981 10.450344392518566 41.417585817859454 9.878764100153255 41.71821348953681 9.29863950164623 42.01028050768939 8.710036388621347 42.29354992644756 8.113027373507668 42.56778242179327 7.50769213550145 42.83273645062849 6.894117667495976 43.08816842386541 6.272398523343953 43.33383289403821 5.642637064764231 43.56948275791962 5.004943707149674 43.794869474605726 4.359437163478263 44.009743299507456 3.70624468547186 44.21385353465819 3.0455023010912026 44.406948795712935 2.3773550473975846 44.58877729597502 1.7019571977550116 44.759087147742 1.0194724822901022 44.91762668121173 0.33007430047118913 45.06414478113393 -0.3660540753856738 45.19839124133033 -1.0687193069277978 45.32011713713763 -1.7777178081878922 45.42907521575384 -2.4928355769562818 45.525020304386935 -3.213848040484992 45.60770973601761 -3.940519916942616 45.6769037924945 -4.672605094071146 45.732366164580284 -5.409846526521997 45.77386442846126 -6.151976153367274 45.801170538121326 -6.898714837294484 45.81406133286455 -7.6497723269955245 45.812319059148116 -8.404847244254912 45.795731905761265 -9.163627097226465 45.76409455125524 -9.92578832136051 45.71720872239593 -10.69099634940606 45.654883762274736 -11.458905711861947 45.57693720657636 -12.229160169188464 45.483195366363795 -13.001392877014986 45.37349391560456 -13.775226585489198 45.24767848152634 -14.55027387381105 45.105605235758695 -15.326137420875908 44.94714148409011 -16.102410312820393 44.77216625254802 -16.878676388118212 44.58057086739571 -17.654510620713626 44.37225952653524 -18.42947954150656 44.147149859711476 -19.203141698317655 43.90517347482979 -19.975048154262662 43.646276487632775 " stroke="chocolate" fill="none" /></g></svg>