<svg width="100" height="100" xmlns="http://www.w3.org/2000/svg">
<g transform="translate(50 50)"><path d="M 0 0 L 50.0 0.0" stroke="grey" /><path d="M 0 0 L 47.552825814757675 15.450849718747369" stroke="grey" /><path d="M 0 0 L 40.45084971874737 29.389262614623657" stroke="grey" /><path d="M 0 0 L 29.389262614623657 40.45084971874737" stroke="grey" /><path d="M 0 0 L 15.450849718747373 47.552825814757675" stroke="grey" /><path d="M 0 0 L 3.061616997868383e-15 50.0" stroke="grey" /><path d="M 0 0 L -15.450849718747367 47.55282581475768" stroke="grey" /><path d="M 0 0 L -29.38926261462365 40.45084971874737" stroke="grey" /><path d="M 0 0 L -40.450849718747364 29.38926261462366" stroke="grey" /><path d="M 0 0 L -47.552825814757675 15.450849718747376" stroke="grey" /><path d="M 0 0 L -50.0 6.123233995736766e-15" stroke="grey" /><path d="M 0 0 L -47.55282581475769 -15.450849718747344" stroke="grey" /><path d="M 0 0 L -40.45084971874738 -29.38926261462365" stroke="grey" /><path d="M 0 0 L -29.38926261462366 -40.450849718747364" stroke="grey" /><path d="M 0 0 L -15.450849718747378 -47.552825814757675" stroke="grey" /><path d="M 0 0 L -9.184850993605149e-15 -50.0" stroke="grey" /><path d="M 0 0 L 15.450849718747362 -47.55282581475768" stroke="grey" /><path d="M 0 0 L 29.389262614623647 -40.45084971874738" stroke="grey" /><path d="M 0 0 L 40.450849718747364 -29.389262614623668" stroke="grey" /><path d="M 0 0 L 47.552825814757675 -15.450849718747381" stroke="grey" /><circle cx="0" cy="0" r="10" stroke="grey" fill="none"/><circle cx="0" cy="0" r="20" stroke="grey" fill="none"/><circle cx="0" cy="0" r="30" stroke="grey" fill="none"/><circle cx="0" cy="0" r="40" stroke="grey" fill="none"/><circle cx="0" cy="0" r="50" stroke="grey" fill="none"/><path d="M 34.30233022444346 6.953426577827143 33.774402323035034 7.3105291984677665 33.245097637207145 7.668539565218704 32.71442704626497 8.027451959559533 32.18240307606496 8.38725942318672 31.649039916817962 8.747953729514538 31.11435343306168 9.109525361908753 30.57836116515576 9.471963499503733 30.04108232173705 9.835256011395158 29.502537762690462 10.199389459904035 28.962749972347662 10.564349113467987 28.421743022825858 10.930118969528221 27.879542527664324 11.29668178754246 27.336175586209237 11.66401913196411 26.791670719536356 12.032111424688456 26.2460577990829 12.40093800608287 25.699367969576333 12.770477203299711 25.15163356828709 13.140706404132848 24.60288804307708 13.511602134241318 24.053165872143424 13.883140135152658 23.502502488738568 14.255295440103675 22.950934214450665 14.628042444513717 22.398498204813638 15.001354967750325 21.84523241104498 15.375206302877489 21.291175561541284 15.749569251304944 20.73636716636089 16.124416139708714 20.180939139044582 16.50001061016241 19.624892051061842 16.876151998226867 19.068238401652906 17.252701490624784 18.5110232685186 17.629625857542017 17.953292886894666 18.006891240753557 17.395094738817853 18.384463120105003 16.836477648013624 18.762306269887368 16.277491874731385 19.140384709554162 15.718189204045022 19.518661654177876 15.158623020597751 19.897099470699466 14.598848362569441 20.27565964630226 14.038921947834417 20.654302775077795 13.478902165887385 21.03298856852056 12.918849030144944 21.411675894306494 12.358824086647212 21.790322846338462 11.798890276924066 22.168886847283833 11.239111754756529 22.54732478292089 10.679553658637131 22.925593165706882 10.1202818437792 23.303648323238736 9.561362579407918 23.68144660583836 9.002862218658917 24.058944606469083 8.444846849609545 24.436099385644802 7.887381936701983 24.812868693948275 7.330531962052014 25.189211185201074 6.774360075880193 25.565086614156318 6.218927764596056 25.94045601371675 5.664294543987243 26.31528184800119 5.110517683609985 26.68952813897354 4.55765196695265 27.063160565702976 4.005749490358163 27.43614653655365 3.4548595021425563 27.808455235641055 2.905028281918271 28.18005764570406 2.3562990588840522 28.55092655011004 1.8087119668193756 28.92103651704619 1.2623040327374397 29.290363869073122 0.7171091956091467 29.658886641163974 0.1731583512538988 30.026584530160743 -0.36952058062251436 30.39343883829059 -0.9109025712109166 30.759432413035608 -1.4509653829859426 31.124549585272383 -1.989689459199382 31.488776107219987 -2.5270578056351916 31.852099091376118 -3.063055867399706 32.21450695129559 -3.597671403126599 32.57598934478142 -4.130894358588866 32.93653711982023 -4.662716741344098 33.2961422634009 -5.193132497702794 33.65479785320631 -5.72213739301032 34.012498012058096 -6.249728895970866 34.36923786491897 -6.77590606752018 34.72501349821076 -7.300669454568255 35.07982192118328 -7.82402098878281 35.43366102906472 -8.345963890464978 35.78652956773329 -8.866502577476403 36.138427099669116 -9.3856425791083 36.489353970970484 -9.903390454733701 36.839311279247674 -10.41975371705116 37.18830084223798 -10.9347407597077 37.53632516701608 -11.44836078907908 37.883387419702146 -11.96062375998261 38.22949139559747 -12.471540315101297 38.574641489700625 -12.981121727905526 38.91884266757844 -13.489379848867964 39.262100436583445 -13.996181366687622 39.60450649910673 -14.501187725451716 39.94627371362584 -15.004913236285933 40.28711423572813 -15.507372506719708 40.627034988950484 -16.008580422268306 40.96604334877207 -16.50855211277805 41.30414711461417 -17.007302920874803 41.641354482206765 -17.504848372377538 41.97767401640319 -18.001204148553374 42.31311462451875 -18.49638606010402 42.64768553026273 -18.99041002278466 42.9813962483262 -19.483292034566706 43.314256559680246 -19.97504815426277 43.64627648763268 " stroke="black" fill="none" /><path d="M 34.30233022444346 6.953426577827143 34.45889480033622 7.364814699586869 34.60978004584417 7.781853015855562 34.75480515471259 8.204597298496877 34.89378291103691 8.633102465397824 35.02651946670954 9.067422402000423 35.1528141141287 9.507609767231292 35.27245905451178 9.953715782696447 35.38523916223106 10.405790003941512 35.49093174567312 10.863880072508985 35.589306305217264 11.328031447453448 35.68012428903319 11.798287114904928 35.76313884751532 12.274687274197964 35.83809458730089 12.757268999012696 35.904727325963464 13.246065871903234 35.9627638486334 13.741107590519322 36.011921667972906 14.242419543761683 36.051908789127616 14.750022356049337 36.08242348149058 15.263931397821475 36.103154059348036 15.784156260348476 36.1137786737321 16.310700192887904 36.113965118085005 16.843559500195624 36.10337065064094 17.38272289839075 36.081641836761385 17.928170827180196 36.04841441481232 18.479874716477433 36.00331318955334 19.037796205504268 35.94595195741623 19.60188631254954 35.8759334684851 20.172084553678214 35.79284943045171 20.748318008845473 35.69628056030581 21.330500334078046 35.5857966900309 21.918530718646352 35.460956933106715 22.512292786473335 35.32130991916854 23.111653441416575 35.166394104734295 23.71646165652801 34.99573816847857 24.326547207948835 34.808861500098566 24.94171935474468 34.605274792373336 25.561765466738073 34.384480746551105 26.186449603259238 34.14597490169745 26.815511046723074 33.889246599083855 27.448662796056745 33.61378009307144 28.085590026257588 33.319055820228506 28.7259485217602 33.004551838588156 29.369363092840203 32.66974544897504 30.015425985981455 32.31411501017888 30.663695300983523 31.93714195939284 31.313693429581406 31.53831304873063 31.964905532480895 31.117122807748498 32.61677807396577 30.673076240687433 33.26871743558472 30.205691765574777 33.92008863284934 29.714504400341816 34.57021416132937 29.199069198685248 35.21837300097335 28.658964935488736 35.86379980985271 28.093798038194286 36.50568434075703 27.503206756548032 37.14317111607943 26.886865558626994 37.77535939813136 26.244489735981755 38.4013034933147 25.57584019511969 39.020013429345525 24.880728406439847 39.63045604484679 24.159021475171386 40.231556529984815 23.410647291946834 40.82220045528851 22.635599713471052 41.401236323238194 21.83394371647218 41.96747867352645 21.00582046091501 42.51971176797738 20.151452191530144 43.05669387488144 19.271146900299513 43.577162164913815 18.365302666907006 44.07983822184208 17.43441158959467 44.56343416092906 16.479063215661803 45.02665933638851 15.499947379304274 45.468227606602845 14.497856354907311 45.886865112279445 13.473686236541598 46.28131850858517 12.428437459494624 46.6503635779092 11.363214387362838 46.99281413566869 10.279223898625458 47.30753112795851 9.177772919715236 47.59343180735321 8.06026486729026 47.84949886232553 6.928194980469143 48.074789367072206 5.783144543880468 48.26844341253351 4.626774024033907 48.42969227650323 3.460815164176288 48.55786599131343 2.287062105787464 48.65240017189834 1.107361627464096 48.712841975219796 -0.07639738663894699 48.73885507404451 -1.2622951171686605 48.73022354371843 -2.448392470317922 48.68685457953426 -3.632743067126685 48.60877998403404 -4.813405390029648 48.49615638748689 -5.988454910200465 48.349264190080724 -7.155996018692601 48.168505240237764 -8.314173588477392 47.954399289038804 -9.461184003099577 47.707579285163966 -10.595285500491672 47.42878559721461 -11.714807697024895 47.11885927005569 -12.818160176495397 46.77873443831175 -13.903840050715614 46.40943003292135 -14.970438421894382 46.01204092542409 -16.016645701216188 45.58772865932246 -17.041255762156723 45.13771191849145 -18.043168930333476 44.663256879426555 -19.02139383341816 44.165667587483355 -19.97504815426266 43.64627648763282 " stroke="black" fill="none" /></g></svg>