<?xml version="1.0" encoding="UTF-8" standalone="no"?>
<svg
   width="900"
   height="1000"
   xmlns="http://www.w3.org/2000/svg">
  <g transform="scale(100 100) translate(-138.4 -32)">
    <path
       d="m 142.5073,34.249672 q 0,0.837156 -0.50126,1.266069 -0.50126,0.428913 -1.44177,0.428913 -0.42374,0 -0.78548,-0.07751 l -0.32556,0.676959 q 0.0155,0.08785 0.20154,0.165364 0.18604,0.07751 0.46509,0.07751 h 1.4366 q 0.78548,0 1.16271,0.341063 0.38241,0.341064 0.38241,0.940509 0,0.5426 -0.30489,0.945675 -0.29972,0.403075 -0.88367,0.620115 -0.58394,0.222208 -1.41593,0.222208 -0.99218,0 -1.51411,-0.30489 -0.51676,-0.30489 -0.51676,-0.868161 0,-0.273884 0.18603,-0.542601 0.18604,-0.263549 0.68213,-0.620115 -0.29456,-0.09819 -0.49609,-0.335896 -0.20154,-0.23771 -0.20154,-0.511595 l 0.81648,-0.919837 q -0.81648,-0.382405 -0.81648,-1.50378 0,-0.795814 0.50126,-1.229895 0.50643,-0.43408 1.4676,-0.43408 0.19121,0 0.49093,0.04134 0.29972,0.03617 0.45992,0.08785 l 1.14204,-0.573606 0.18087,0.222208 -0.7183,0.744138 q 0.34623,0.387572 0.34623,1.142045 z m -0.21187,3.979073 q 0,-0.294555 -0.18087,-0.459919 -0.18087,-0.165364 -0.54777,-0.165364 h -1.88101 q -0.21704,0.186035 -0.35657,0.470254 -0.13436,0.289387 -0.13436,0.537433 0,0.444416 0.32039,0.635618 0.3204,0.19637 0.98185,0.19637 0.863,0 1.32808,-0.320393 0.47026,-0.320392 0.47026,-0.893999 z m -1.72082,-2.676831 q 0.56327,0 0.79581,-0.320393 0.23771,-0.32556 0.23771,-0.981849 0,-0.687294 -0.24287,-0.976681 -0.24288,-0.294555 -0.78032,-0.294555 -0.5426,0 -0.79581,0.294555 -0.25321,0.294555 -0.25321,0.976681 0,0.682127 0.24804,0.992185 0.24805,0.310057 0.79065,0.310057 z" />
  </g>
</svg>
